<svg xmlns="http://www.w3.org/2000/svg" width="980" height="520" viewBox="0 0 980 520">
<rect width="100%" height="100%" fill="#ffffff"/>
<text x="24.0" y="34.0" font-family="monospace" font-size="18" font-weight="700" text-anchor="start" fill="#111827">Training history: ad_ftd_vs_healthy</text>
<rect x="80" y="60" width="760" height="360" fill="#f9fafb" stroke="#d1d5db"/>
<line x1="80" x2="840" y1="420.0" y2="420.0" stroke="#e5e7eb"/>
<text x="70.0" y="424.0" font-family="monospace" font-size="10" font-weight="400" text-anchor="end" fill="#111827">0</text>
<line x1="80" x2="840" y1="348.0" y2="348.0" stroke="#e5e7eb"/>
<text x="70.0" y="352.0" font-family="monospace" font-size="10" font-weight="400" text-anchor="end" fill="#111827">0.2</text>
<line x1="80" x2="840" y1="276.0" y2="276.0" stroke="#e5e7eb"/>
<text x="70.0" y="280.0" font-family="monospace" font-size="10" font-weight="400" text-anchor="end" fill="#111827">0.4</text>
<line x1="80" x2="840" y1="204.0" y2="204.0" stroke="#e5e7eb"/>
<text x="70.0" y="208.0" font-family="monospace" font-size="10" font-weight="400" text-anchor="end" fill="#111827">0.6</text>
<line x1="80" x2="840" y1="132.0" y2="132.0" stroke="#e5e7eb"/>
<text x="70.0" y="136.0" font-family="monospace" font-size="10" font-weight="400" text-anchor="end" fill="#111827">0.8</text>
<line x1="80" x2="840" y1="60.0" y2="60.0" stroke="#e5e7eb"/>
<text x="70.0" y="64.0" font-family="monospace" font-size="10" font-weight="400" text-anchor="end" fill="#111827">1</text>
<path d="M80.0,184.3 L87.7,184.3 L95.4,182.9 L103.0,174.8 L110.7,170.7 L118.4,166.4 L126.1,165.0 L133.7,163.3 L141.4,164.3 L149.1,163.2 L156.8,162.0 L164.4,160.6 L172.1,161.3 L179.8,160.5 L187.5,160.4 L195.2,159.8 L202.8,158.8 L210.5,159.4 L218.2,159.1 L225.9,158.8 L233.5,158.8 L241.2,159.8 L248.9,158.4 L256.6,158.6 L264.2,158.4 L271.9,158.1 L279.6,158.3 L287.3,157.6 L294.9,158.3 L302.6,157.0 L310.3,158.7 L318.0,157.5 L325.7,157.1 L333.3,157.7 L341.0,156.1 L348.7,157.8 L356.4,156.1 L364.0,157.7 L371.7,156.8 L379.4,156.2 L387.1,156.2 L394.7,157.4 L402.4,156.6 L410.1,155.9 L417.8,157.0 L425.5,156.3 L433.1,156.8 L440.8,156.6 L448.5,155.9 L456.2,155.5 L463.8,154.7 L471.5,155.4 L479.2,156.3 L486.9,154.5 L494.5,155.5 L502.2,155.4 L509.9,155.3 L517.6,153.4 L525.3,155.7 L532.9,154.2 L540.6,155.6 L548.3,155.3 L556.0,154.5 L563.6,153.8 L571.3,154.3 L579.0,154.9 L586.7,154.6 L594.3,154.5 L602.0,153.7 L609.7,154.1 L617.4,153.8 L625.1,153.5 L632.7,154.4 L640.4,153.5 L648.1,153.1 L655.8,153.9 L663.4,154.0 L671.1,153.5 L678.8,153.1 L686.5,153.7 L694.1,153.2 L701.8,152.3 L709.5,153.0 L717.2,153.0 L724.8,152.5 L732.5,152.7 L740.2,152.5 L747.9,152.9 L755.6,151.5 L763.2,151.8 L770.9,152.4 L778.6,152.3 L786.3,152.3 L793.9,151.2 L801.6,152.7 L809.3,152.3 L817.0,152.4 L824.6,151.4 L832.3,152.7 L840.0,151.4" fill="none" stroke="#2563eb" stroke-width="2.5"/>
<rect x="868" y="49" width="14" height="14" fill="#2563eb"/>
<text x="888.0" y="60.0" font-family="monospace" font-size="11" font-weight="400" text-anchor="start" fill="#111827">train accuracy</text>
<path d="M80.0,184.3 L87.7,184.3 L95.4,168.4 L103.0,165.2 L110.7,163.3 L118.4,161.1 L126.1,168.4 L133.7,159.7 L141.4,160.0 L149.1,165.6 L156.8,171.2 L164.4,162.5 L172.1,157.9 L179.8,158.0 L187.5,157.5 L195.2,158.0 L202.8,158.2 L210.5,157.9 L218.2,158.2 L225.9,159.1 L233.5,160.0 L241.2,158.8 L248.9,156.5 L256.6,158.5 L264.2,156.9 L271.9,157.1 L279.6,159.4 L287.3,158.5 L294.9,156.1 L302.6,156.6 L310.3,156.9 L318.0,156.9 L325.7,154.9 L333.3,157.5 L341.0,155.5 L348.7,158.2 L356.4,157.9 L364.0,157.5 L371.7,156.8 L379.4,157.1 L387.1,156.1 L394.7,156.9 L402.4,157.1 L410.1,157.4 L417.8,157.5 L425.5,156.1 L433.1,157.5 L440.8,155.7 L448.5,155.8 L456.2,155.4 L463.8,156.1 L471.5,154.0 L479.2,153.0 L486.9,154.3 L494.5,154.6 L502.2,154.3 L509.9,154.1 L517.6,154.3 L525.3,154.9 L532.9,153.2 L540.6,155.4 L548.3,151.8 L556.0,154.6 L563.6,154.6 L571.3,153.2 L579.0,153.5 L586.7,153.7 L594.3,155.4 L602.0,153.7 L609.7,153.5 L617.4,153.0 L625.1,154.4 L632.7,153.5 L640.4,153.3 L648.1,153.5 L655.8,154.6 L663.4,152.1 L671.1,153.0 L678.8,153.0 L686.5,154.4 L694.1,153.7 L701.8,153.2 L709.5,152.7 L717.2,153.7 L724.8,153.8 L732.5,153.8 L740.2,152.6 L747.9,154.3 L755.6,153.8 L763.2,152.9 L770.9,153.5 L778.6,153.0 L786.3,152.3 L793.9,153.8 L801.6,151.5 L809.3,152.6 L817.0,153.0 L824.6,152.9 L832.3,152.6 L840.0,153.3" fill="none" stroke="#dc2626" stroke-width="2.5"/>
<rect x="868" y="71" width="14" height="14" fill="#dc2626"/>
<text x="888.0" y="82.0" font-family="monospace" font-size="11" font-weight="400" text-anchor="start" fill="#111827">validation accuracy</text>
</svg>
