<svg xmlns="http://www.w3.org/2000/svg" width="980" height="520" viewBox="0 0 980 520">
<rect width="100%" height="100%" fill="#ffffff"/>
<text x="24.0" y="34.0" font-family="monospace" font-size="18" font-weight="700" text-anchor="start" fill="#111827">Training history: ad_vs_healthy</text>
<rect x="80" y="60" width="760" height="360" fill="#f9fafb" stroke="#d1d5db"/>
<line x1="80" x2="840" y1="420.0" y2="420.0" stroke="#e5e7eb"/>
<text x="70.0" y="424.0" font-family="monospace" font-size="10" font-weight="400" text-anchor="end" fill="#111827">0</text>
<line x1="80" x2="840" y1="348.0" y2="348.0" stroke="#e5e7eb"/>
<text x="70.0" y="352.0" font-family="monospace" font-size="10" font-weight="400" text-anchor="end" fill="#111827">0.2</text>
<line x1="80" x2="840" y1="276.0" y2="276.0" stroke="#e5e7eb"/>
<text x="70.0" y="280.0" font-family="monospace" font-size="10" font-weight="400" text-anchor="end" fill="#111827">0.4</text>
<line x1="80" x2="840" y1="204.0" y2="204.0" stroke="#e5e7eb"/>
<text x="70.0" y="208.0" font-family="monospace" font-size="10" font-weight="400" text-anchor="end" fill="#111827">0.6</text>
<line x1="80" x2="840" y1="132.0" y2="132.0" stroke="#e5e7eb"/>
<text x="70.0" y="136.0" font-family="monospace" font-size="10" font-weight="400" text-anchor="end" fill="#111827">0.8</text>
<line x1="80" x2="840" y1="60.0" y2="60.0" stroke="#e5e7eb"/>
<text x="70.0" y="64.0" font-family="monospace" font-size="10" font-weight="400" text-anchor="end" fill="#111827">1</text>
<path d="M80.0,223.0 L87.7,220.7 L95.4,204.0 L103.0,192.9 L110.7,184.8 L118.4,180.8 L126.1,179.2 L133.7,177.5 L141.4,177.4 L149.1,174.1 L156.8,173.7 L164.4,173.0 L172.1,171.6 L179.8,170.9 L187.5,169.9 L195.2,170.8 L202.8,169.1 L210.5,169.8 L218.2,168.8 L225.9,169.0 L233.5,167.8 L241.2,167.8 L248.9,168.7 L256.6,168.9 L264.2,168.2 L271.9,167.8 L279.6,166.9 L287.3,166.3 L294.9,167.4 L302.6,166.8 L310.3,166.7 L318.0,166.9 L325.7,166.7 L333.3,166.7 L341.0,165.6 L348.7,166.4 L356.4,165.8 L364.0,166.5 L371.7,166.4 L379.4,164.9 L387.1,165.7 L394.7,166.1 L402.4,165.4 L410.1,165.3 L417.8,164.4 L425.5,164.4 L433.1,165.5 L440.8,164.9 L448.5,164.9 L456.2,164.2 L463.8,165.8 L471.5,165.1 L479.2,165.0 L486.9,164.6 L494.5,165.5 L502.2,165.3 L509.9,164.6 L517.6,165.2 L525.3,165.0 L532.9,165.8 L540.6,163.8 L548.3,165.2 L556.0,164.8 L563.6,164.4 L571.3,163.9 L579.0,164.7 L586.7,165.6 L594.3,164.0 L602.0,165.8 L609.7,164.3 L617.4,164.6 L625.1,164.9 L632.7,164.7 L640.4,164.8 L648.1,164.1 L655.8,164.5 L663.4,164.2 L671.1,163.6 L678.8,164.3 L686.5,164.0 L694.1,164.3 L701.8,164.1 L709.5,163.3 L717.2,165.5 L724.8,163.8 L732.5,163.9 L740.2,163.3 L747.9,165.1 L755.6,164.9 L763.2,163.3 L770.9,164.4 L778.6,164.0 L786.3,164.6 L793.9,163.1 L801.6,164.1 L809.3,163.9 L817.0,163.6 L824.6,162.8 L832.3,164.4 L840.0,164.0" fill="none" stroke="#2563eb" stroke-width="2.5"/>
<rect x="868" y="49" width="14" height="14" fill="#2563eb"/>
<text x="888.0" y="60.0" font-family="monospace" font-size="11" font-weight="400" text-anchor="start" fill="#111827">train accuracy</text>
<path d="M80.0,223.1 L87.7,181.8 L95.4,210.4 L103.0,171.4 L110.7,167.8 L118.4,174.9 L126.1,174.7 L133.7,166.5 L141.4,180.4 L149.1,164.5 L156.8,165.1 L164.4,163.7 L172.1,165.1 L179.8,163.9 L187.5,166.3 L195.2,164.7 L202.8,162.9 L210.5,164.7 L218.2,163.1 L225.9,163.7 L233.5,164.1 L241.2,164.1 L248.9,165.1 L256.6,164.3 L264.2,163.3 L271.9,163.9 L279.6,163.5 L287.3,163.3 L294.9,162.0 L302.6,163.9 L310.3,162.2 L318.0,162.4 L325.7,163.5 L333.3,162.7 L341.0,161.6 L348.7,161.4 L356.4,163.3 L364.0,162.7 L371.7,162.9 L379.4,163.7 L387.1,163.7 L394.7,161.6 L402.4,162.9 L410.1,163.5 L417.8,162.2 L425.5,163.7 L433.1,161.4 L440.8,162.0 L448.5,162.7 L456.2,162.2 L463.8,162.9 L471.5,161.8 L479.2,162.2 L486.9,163.9 L494.5,163.1 L502.2,162.0 L509.9,161.8 L517.6,162.2 L525.3,161.8 L532.9,161.4 L540.6,162.2 L548.3,162.2 L556.0,160.6 L563.6,162.0 L571.3,160.2 L579.0,162.7 L586.7,160.2 L594.3,162.7 L602.0,160.8 L609.7,160.4 L617.4,161.8 L625.1,162.9 L632.7,162.7 L640.4,162.0 L648.1,162.4 L655.8,163.1 L663.4,161.8 L671.1,160.2 L678.8,161.0 L686.5,162.2 L694.1,161.6 L701.8,159.4 L709.5,161.2 L717.2,159.8 L724.8,162.4 L732.5,161.6 L740.2,160.2 L747.9,161.4 L755.6,159.4 L763.2,159.6 L770.9,161.6 L778.6,159.8 L786.3,161.0 L793.9,161.0 L801.6,159.6 L809.3,161.2 L817.0,161.4 L824.6,162.2 L832.3,159.2 L840.0,160.8" fill="none" stroke="#dc2626" stroke-width="2.5"/>
<rect x="868" y="71" width="14" height="14" fill="#dc2626"/>
<text x="888.0" y="82.0" font-family="monospace" font-size="11" font-weight="400" text-anchor="start" fill="#111827">validation accuracy</text>
</svg>
