<svg xmlns="http://www.w3.org/2000/svg" width="980" height="520" viewBox="0 0 980 520">
<rect width="100%" height="100%" fill="#ffffff"/>
<text x="24.0" y="34.0" font-family="monospace" font-size="18" font-weight="700" text-anchor="start" fill="#111827">Training history: ftd_vs_healthy</text>
<rect x="80" y="60" width="760" height="360" fill="#f9fafb" stroke="#d1d5db"/>
<line x1="80" x2="840" y1="420.0" y2="420.0" stroke="#e5e7eb"/>
<text x="70.0" y="424.0" font-family="monospace" font-size="10" font-weight="400" text-anchor="end" fill="#111827">0</text>
<line x1="80" x2="840" y1="348.0" y2="348.0" stroke="#e5e7eb"/>
<text x="70.0" y="352.0" font-family="monospace" font-size="10" font-weight="400" text-anchor="end" fill="#111827">0.2</text>
<line x1="80" x2="840" y1="276.0" y2="276.0" stroke="#e5e7eb"/>
<text x="70.0" y="280.0" font-family="monospace" font-size="10" font-weight="400" text-anchor="end" fill="#111827">0.4</text>
<line x1="80" x2="840" y1="204.0" y2="204.0" stroke="#e5e7eb"/>
<text x="70.0" y="208.0" font-family="monospace" font-size="10" font-weight="400" text-anchor="end" fill="#111827">0.6</text>
<line x1="80" x2="840" y1="132.0" y2="132.0" stroke="#e5e7eb"/>
<text x="70.0" y="136.0" font-family="monospace" font-size="10" font-weight="400" text-anchor="end" fill="#111827">0.8</text>
<line x1="80" x2="840" y1="60.0" y2="60.0" stroke="#e5e7eb"/>
<text x="70.0" y="64.0" font-family="monospace" font-size="10" font-weight="400" text-anchor="end" fill="#111827">1</text>
<path d="M80.0,208.1 L87.7,206.7 L95.4,206.7 L103.0,206.7 L110.7,206.9 L118.4,202.7 L126.1,195.5 L133.7,193.4 L141.4,192.9 L149.1,188.0 L156.8,193.0 L164.4,189.3 L172.1,188.3 L179.8,184.2 L187.5,183.0 L195.2,185.3 L202.8,183.5 L210.5,184.5 L218.2,182.1 L225.9,182.7 L233.5,182.9 L241.2,183.1 L248.9,180.4 L256.6,181.8 L264.2,182.2 L271.9,180.3 L279.6,182.1 L287.3,180.4 L294.9,179.5 L302.6,178.7 L310.3,181.8 L318.0,179.6 L325.7,179.0 L333.3,180.2 L341.0,178.1 L348.7,179.8 L356.4,179.4 L364.0,178.1 L371.7,176.9 L379.4,179.0 L387.1,177.1 L394.7,177.3 L402.4,176.9 L410.1,176.3 L417.8,177.6 L425.5,176.8 L433.1,177.3 L440.8,176.5 L448.5,176.1 L456.2,175.5 L463.8,175.3 L471.5,171.8 L479.2,174.2 L486.9,176.1 L494.5,176.7 L502.2,174.8 L509.9,174.7 L517.6,175.3 L525.3,173.6 L532.9,173.7 L540.6,174.9 L548.3,173.9 L556.0,171.9 L563.6,174.6 L571.3,172.8 L579.0,171.0 L586.7,174.9 L594.3,171.6 L602.0,173.5 L609.7,172.9 L617.4,171.3 L625.1,171.6 L632.7,171.2 L640.4,169.5 L648.1,173.5 L655.8,171.0 L663.4,169.8 L671.1,169.9 L678.8,170.8 L686.5,170.3 L694.1,170.2 L701.8,170.2 L709.5,169.5 L717.2,168.4 L724.8,169.7 L732.5,168.7 L740.2,169.9 L747.9,168.8 L755.6,168.5 L763.2,166.6 L770.9,168.8 L778.6,166.8 L786.3,166.7 L793.9,167.7 L801.6,166.4 L809.3,166.5 L817.0,166.1 L824.6,167.3 L832.3,166.7 L840.0,167.0" fill="none" stroke="#2563eb" stroke-width="2.5"/>
<rect x="868" y="49" width="14" height="14" fill="#2563eb"/>
<text x="888.0" y="60.0" font-family="monospace" font-size="11" font-weight="400" text-anchor="start" fill="#111827">train accuracy</text>
<path d="M80.0,206.6 L87.7,206.6 L95.4,206.6 L103.0,206.6 L110.7,205.0 L118.4,177.2 L126.1,181.2 L133.7,171.1 L141.4,173.0 L149.1,172.4 L156.8,177.8 L164.4,170.3 L172.1,176.2 L179.8,172.2 L187.5,172.2 L195.2,171.6 L202.8,175.4 L210.5,176.2 L218.2,171.6 L225.9,175.6 L233.5,170.0 L241.2,175.4 L248.9,171.6 L256.6,172.2 L264.2,170.6 L271.9,171.6 L279.6,171.4 L287.3,175.6 L294.9,169.5 L302.6,174.0 L310.3,170.0 L318.0,174.6 L325.7,170.3 L333.3,173.5 L341.0,173.5 L348.7,178.0 L356.4,177.2 L364.0,169.2 L371.7,176.2 L379.4,173.8 L387.1,174.8 L394.7,170.6 L402.4,173.8 L410.1,171.4 L417.8,168.7 L425.5,174.0 L433.1,172.7 L440.8,173.5 L448.5,174.8 L456.2,173.2 L463.8,167.1 L471.5,165.2 L479.2,171.1 L486.9,164.7 L494.5,171.4 L502.2,167.9 L509.9,170.3 L517.6,165.0 L525.3,170.8 L532.9,169.8 L540.6,172.2 L548.3,170.3 L556.0,172.4 L563.6,168.7 L571.3,168.7 L579.0,165.5 L586.7,167.9 L594.3,165.2 L602.0,164.2 L609.7,166.3 L617.4,164.2 L625.1,165.5 L632.7,163.4 L640.4,166.3 L648.1,163.6 L655.8,162.8 L663.4,163.4 L671.1,164.2 L678.8,162.3 L686.5,161.2 L694.1,160.9 L701.8,163.1 L709.5,162.8 L717.2,160.7 L724.8,166.3 L732.5,160.7 L740.2,159.6 L747.9,162.0 L755.6,161.8 L763.2,159.6 L770.9,162.0 L778.6,160.4 L786.3,156.9 L793.9,159.6 L801.6,159.6 L809.3,156.1 L817.0,157.5 L824.6,155.9 L832.3,160.7 L840.0,158.8" fill="none" stroke="#dc2626" stroke-width="2.5"/>
<rect x="868" y="71" width="14" height="14" fill="#dc2626"/>
<text x="888.0" y="82.0" font-family="monospace" font-size="11" font-weight="400" text-anchor="start" fill="#111827">validation accuracy</text>
</svg>
