<svg xmlns="http://www.w3.org/2000/svg" width="980" height="520" viewBox="0 0 980 520">
<rect width="100%" height="100%" fill="#ffffff"/>
<text x="24.0" y="34.0" font-family="monospace" font-size="18" font-weight="700" text-anchor="start" fill="#111827">Training history: label_swap_80_20/multiclass</text>
<rect x="80" y="60" width="760" height="360" fill="#f9fafb" stroke="#d1d5db"/>
<line x1="80" x2="840" y1="420.0" y2="420.0" stroke="#e5e7eb"/>
<text x="70.0" y="424.0" font-family="monospace" font-size="10" font-weight="400" text-anchor="end" fill="#111827">0</text>
<line x1="80" x2="840" y1="348.0" y2="348.0" stroke="#e5e7eb"/>
<text x="70.0" y="352.0" font-family="monospace" font-size="10" font-weight="400" text-anchor="end" fill="#111827">0.2</text>
<line x1="80" x2="840" y1="276.0" y2="276.0" stroke="#e5e7eb"/>
<text x="70.0" y="280.0" font-family="monospace" font-size="10" font-weight="400" text-anchor="end" fill="#111827">0.4</text>
<line x1="80" x2="840" y1="204.0" y2="204.0" stroke="#e5e7eb"/>
<text x="70.0" y="208.0" font-family="monospace" font-size="10" font-weight="400" text-anchor="end" fill="#111827">0.6</text>
<line x1="80" x2="840" y1="132.0" y2="132.0" stroke="#e5e7eb"/>
<text x="70.0" y="136.0" font-family="monospace" font-size="10" font-weight="400" text-anchor="end" fill="#111827">0.8</text>
<line x1="80" x2="840" y1="60.0" y2="60.0" stroke="#e5e7eb"/>
<text x="70.0" y="64.0" font-family="monospace" font-size="10" font-weight="400" text-anchor="end" fill="#111827">1</text>
<path d="M80.0,269.8 L87.7,269.8 L95.4,267.2 L103.0,251.9 L110.7,241.6 L118.4,236.0 L126.1,232.9 L133.7,231.9 L141.4,231.0 L149.1,230.1 L156.8,230.4 L164.4,228.2 L172.1,228.6 L179.8,228.0 L187.5,227.9 L195.2,227.9 L202.8,226.7 L210.5,227.8 L218.2,226.6 L225.9,226.7 L233.5,225.8 L241.2,225.6 L248.9,226.2 L256.6,225.5 L264.2,226.1 L271.9,225.6 L279.6,225.2 L287.3,225.6 L294.9,225.1 L302.6,225.6 L310.3,225.2 L318.0,225.2 L325.7,225.6 L333.3,224.8 L341.0,223.4 L348.7,223.2 L356.4,222.4 L364.0,221.3 L371.7,221.4 L379.4,221.7 L387.1,220.5 L394.7,218.8 L402.4,218.8 L410.1,220.1 L417.8,219.4 L425.5,218.5 L433.1,217.9 L440.8,218.7 L448.5,218.6 L456.2,217.8 L463.8,218.7 L471.5,217.3 L479.2,217.7 L486.9,218.4 L494.5,217.1 L502.2,217.5 L509.9,217.4 L517.6,216.5 L525.3,215.8 L532.9,215.9 L540.6,216.1 L548.3,216.6 L556.0,215.8 L563.6,216.5 L571.3,216.0 L579.0,215.5 L586.7,216.6 L594.3,216.0 L602.0,215.3 L609.7,215.5 L617.4,215.5 L625.1,214.9 L632.7,215.0 L640.4,215.3 L648.1,214.5 L655.8,215.2 L663.4,214.7 L671.1,214.4 L678.8,214.3 L686.5,214.7 L694.1,214.7 L701.8,213.8 L709.5,215.8 L717.2,214.6 L724.8,214.5 L732.5,214.2 L740.2,214.7 L747.9,214.2 L755.6,214.0 L763.2,213.8 L770.9,213.2 L778.6,214.4 L786.3,215.1 L793.9,214.2 L801.6,214.9 L809.3,215.0 L817.0,214.4 L824.6,213.0 L832.3,214.4 L840.0,213.1" fill="none" stroke="#2563eb" stroke-width="2.5"/>
<rect x="868" y="49" width="14" height="14" fill="#2563eb"/>
<text x="888.0" y="60.0" font-family="monospace" font-size="11" font-weight="400" text-anchor="start" fill="#111827">train accuracy</text>
<path d="M80.0,269.8 L87.7,269.8 L95.4,233.1 L103.0,231.5 L110.7,229.2 L118.4,228.2 L126.1,236.5 L133.7,230.0 L141.4,232.0 L149.1,235.9 L156.8,235.4 L164.4,229.8 L172.1,227.0 L179.8,227.2 L187.5,226.8 L195.2,231.8 L202.8,227.2 L210.5,229.5 L218.2,227.2 L225.9,226.7 L233.5,226.7 L241.2,226.2 L248.9,226.4 L256.6,227.9 L264.2,226.4 L271.9,226.7 L279.6,227.3 L287.3,225.0 L294.9,225.6 L302.6,225.6 L310.3,226.4 L318.0,226.2 L325.7,227.8 L333.3,227.0 L341.0,224.7 L348.7,226.4 L356.4,220.9 L364.0,222.2 L371.7,223.6 L379.4,221.1 L387.1,218.6 L394.7,218.0 L402.4,219.7 L410.1,217.8 L417.8,218.6 L425.5,219.4 L433.1,217.8 L440.8,218.8 L448.5,218.8 L456.2,218.8 L463.8,219.2 L471.5,218.9 L479.2,219.2 L486.9,217.0 L494.5,216.6 L502.2,217.8 L509.9,217.4 L517.6,215.2 L525.3,215.5 L532.9,216.3 L540.6,216.4 L548.3,218.8 L556.0,217.4 L563.6,217.2 L571.3,218.8 L579.0,217.8 L586.7,216.4 L594.3,217.8 L602.0,216.4 L609.7,217.2 L617.4,215.5 L625.1,215.6 L632.7,215.8 L640.4,216.1 L648.1,217.0 L655.8,217.2 L663.4,217.8 L671.1,216.6 L678.8,215.8 L686.5,216.7 L694.1,214.2 L701.8,215.2 L709.5,214.7 L717.2,216.6 L724.8,216.7 L732.5,215.2 L740.2,215.8 L747.9,218.3 L755.6,215.8 L763.2,215.6 L770.9,215.8 L778.6,214.9 L786.3,214.7 L793.9,216.1 L801.6,217.4 L809.3,214.9 L817.0,216.3 L824.6,214.9 L832.3,215.5 L840.0,216.6" fill="none" stroke="#dc2626" stroke-width="2.5"/>
<rect x="868" y="71" width="14" height="14" fill="#dc2626"/>
<text x="888.0" y="82.0" font-family="monospace" font-size="11" font-weight="400" text-anchor="start" fill="#111827">validation accuracy</text>
</svg>
