<svg xmlns="http://www.w3.org/2000/svg" width="980" height="520" viewBox="0 0 980 520">
<rect width="100%" height="100%" fill="#ffffff"/>
<text x="24.0" y="34.0" font-family="monospace" font-size="18" font-weight="700" text-anchor="start" fill="#111827">Training history: label_swap_80_20/ftd_vs_healthy</text>
<rect x="80" y="60" width="760" height="360" fill="#f9fafb" stroke="#d1d5db"/>
<line x1="80" x2="840" y1="420.0" y2="420.0" stroke="#e5e7eb"/>
<text x="70.0" y="424.0" font-family="monospace" font-size="10" font-weight="400" text-anchor="end" fill="#111827">0</text>
<line x1="80" x2="840" y1="348.0" y2="348.0" stroke="#e5e7eb"/>
<text x="70.0" y="352.0" font-family="monospace" font-size="10" font-weight="400" text-anchor="end" fill="#111827">0.2</text>
<line x1="80" x2="840" y1="276.0" y2="276.0" stroke="#e5e7eb"/>
<text x="70.0" y="280.0" font-family="monospace" font-size="10" font-weight="400" text-anchor="end" fill="#111827">0.4</text>
<line x1="80" x2="840" y1="204.0" y2="204.0" stroke="#e5e7eb"/>
<text x="70.0" y="208.0" font-family="monospace" font-size="10" font-weight="400" text-anchor="end" fill="#111827">0.6</text>
<line x1="80" x2="840" y1="132.0" y2="132.0" stroke="#e5e7eb"/>
<text x="70.0" y="136.0" font-family="monospace" font-size="10" font-weight="400" text-anchor="end" fill="#111827">0.8</text>
<line x1="80" x2="840" y1="60.0" y2="60.0" stroke="#e5e7eb"/>
<text x="70.0" y="64.0" font-family="monospace" font-size="10" font-weight="400" text-anchor="end" fill="#111827">1</text>
<path d="M80.0,207.5 L87.7,206.7 L95.4,206.7 L103.0,207.2 L110.7,200.6 L118.4,198.4 L126.1,194.1 L133.7,192.4 L141.4,188.7 L149.1,188.7 L156.8,185.3 L164.4,183.2 L172.1,184.6 L179.8,184.3 L187.5,184.1 L195.2,181.1 L202.8,182.5 L210.5,181.8 L218.2,180.3 L225.9,178.9 L233.5,181.5 L241.2,180.4 L248.9,180.4 L256.6,181.1 L264.2,179.1 L271.9,179.4 L279.6,177.8 L287.3,178.3 L294.9,178.5 L302.6,178.2 L310.3,175.9 L318.0,176.6 L325.7,176.2 L333.3,176.3 L341.0,175.7 L348.7,177.2 L356.4,176.9 L364.0,175.9 L371.7,173.9 L379.4,176.0 L387.1,176.6 L394.7,175.9 L402.4,174.6 L410.1,173.1 L417.8,174.7 L425.5,174.1 L433.1,174.2 L440.8,174.3 L448.5,174.1 L456.2,173.2 L463.8,171.7 L471.5,171.9 L479.2,173.3 L486.9,173.1 L494.5,172.4 L502.2,171.7 L509.9,172.7 L517.6,171.1 L525.3,172.3 L532.9,170.6 L540.6,169.4 L548.3,169.9 L556.0,170.2 L563.6,170.1 L571.3,169.3 L579.0,170.5 L586.7,169.9 L594.3,168.7 L602.0,170.7 L609.7,169.1 L617.4,167.9 L625.1,168.1 L632.7,169.3 L640.4,168.2 L648.1,168.0 L655.8,168.5 L663.4,167.5 L671.1,166.5 L678.8,167.4 L686.5,166.7 L694.1,166.3 L701.8,166.4 L709.5,166.3 L717.2,167.5 L724.8,166.2 L732.5,166.6 L740.2,167.6 L747.9,167.0 L755.6,166.3 L763.2,166.2 L770.9,165.9 L778.6,164.7 L786.3,166.9 L793.9,165.2 L801.6,165.1 L809.3,166.0 L817.0,164.6 L824.6,164.8 L832.3,164.8 L840.0,164.8" fill="none" stroke="#2563eb" stroke-width="2.5"/>
<rect x="868" y="49" width="14" height="14" fill="#2563eb"/>
<text x="888.0" y="60.0" font-family="monospace" font-size="11" font-weight="400" text-anchor="start" fill="#111827">train accuracy</text>
<path d="M80.0,206.6 L87.7,206.6 L95.4,206.6 L103.0,198.3 L110.7,175.4 L118.4,176.4 L126.1,166.0 L133.7,169.0 L141.4,170.0 L149.1,164.4 L156.8,170.0 L164.4,176.2 L172.1,171.4 L179.8,166.6 L187.5,163.4 L195.2,165.2 L202.8,165.0 L210.5,166.6 L218.2,167.9 L225.9,170.0 L233.5,162.8 L241.2,166.6 L248.9,165.0 L256.6,164.4 L264.2,163.4 L271.9,163.9 L279.6,166.8 L287.3,163.9 L294.9,172.7 L302.6,165.8 L310.3,161.5 L318.0,165.8 L325.7,164.4 L333.3,163.1 L341.0,166.0 L348.7,162.8 L356.4,162.3 L364.0,162.0 L371.7,161.8 L379.4,163.1 L387.1,160.7 L394.7,161.2 L402.4,167.4 L410.1,164.2 L417.8,158.5 L425.5,162.3 L433.1,160.4 L440.8,161.8 L448.5,159.1 L456.2,158.3 L463.8,165.2 L471.5,156.9 L479.2,157.5 L486.9,155.9 L494.5,155.6 L502.2,157.7 L509.9,158.3 L517.6,158.3 L525.3,155.6 L532.9,159.3 L540.6,158.5 L548.3,159.1 L556.0,166.0 L563.6,159.3 L571.3,156.1 L579.0,155.9 L586.7,159.3 L594.3,158.5 L602.0,154.0 L609.7,159.1 L617.4,158.5 L625.1,154.8 L632.7,162.0 L640.4,155.6 L648.1,162.3 L655.8,155.9 L663.4,157.7 L671.1,160.4 L678.8,167.6 L686.5,154.3 L694.1,161.2 L701.8,163.4 L709.5,155.1 L717.2,154.5 L724.8,154.0 L732.5,155.9 L740.2,155.9 L747.9,156.9 L755.6,161.8 L763.2,154.0 L770.9,154.0 L778.6,160.4 L786.3,155.6 L793.9,153.7 L801.6,154.5 L809.3,158.3 L817.0,155.1 L824.6,153.5 L832.3,157.7 L840.0,152.9" fill="none" stroke="#dc2626" stroke-width="2.5"/>
<rect x="868" y="71" width="14" height="14" fill="#dc2626"/>
<text x="888.0" y="82.0" font-family="monospace" font-size="11" font-weight="400" text-anchor="start" fill="#111827">validation accuracy</text>
</svg>
