<svg xmlns="http://www.w3.org/2000/svg" width="980" height="520" viewBox="0 0 980 520">
<rect width="100%" height="100%" fill="#ffffff"/>
<text x="24.0" y="34.0" font-family="monospace" font-size="18" font-weight="700" text-anchor="start" fill="#111827">Training history: multiclass</text>
<rect x="80" y="60" width="760" height="360" fill="#f9fafb" stroke="#d1d5db"/>
<line x1="80" x2="840" y1="420.0" y2="420.0" stroke="#e5e7eb"/>
<text x="70.0" y="424.0" font-family="monospace" font-size="10" font-weight="400" text-anchor="end" fill="#111827">0</text>
<line x1="80" x2="840" y1="348.0" y2="348.0" stroke="#e5e7eb"/>
<text x="70.0" y="352.0" font-family="monospace" font-size="10" font-weight="400" text-anchor="end" fill="#111827">0.2</text>
<line x1="80" x2="840" y1="276.0" y2="276.0" stroke="#e5e7eb"/>
<text x="70.0" y="280.0" font-family="monospace" font-size="10" font-weight="400" text-anchor="end" fill="#111827">0.4</text>
<line x1="80" x2="840" y1="204.0" y2="204.0" stroke="#e5e7eb"/>
<text x="70.0" y="208.0" font-family="monospace" font-size="10" font-weight="400" text-anchor="end" fill="#111827">0.6</text>
<line x1="80" x2="840" y1="132.0" y2="132.0" stroke="#e5e7eb"/>
<text x="70.0" y="136.0" font-family="monospace" font-size="10" font-weight="400" text-anchor="end" fill="#111827">0.8</text>
<line x1="80" x2="840" y1="60.0" y2="60.0" stroke="#e5e7eb"/>
<text x="70.0" y="64.0" font-family="monospace" font-size="10" font-weight="400" text-anchor="end" fill="#111827">1</text>
<path d="M80.0,269.8 L87.7,269.8 L95.4,263.1 L103.0,247.6 L110.7,237.7 L118.4,234.7 L126.1,233.5 L133.7,231.2 L141.4,231.1 L149.1,230.2 L156.8,228.8 L164.4,228.4 L172.1,228.3 L179.8,228.6 L187.5,228.4 L195.2,227.7 L202.8,227.2 L210.5,226.3 L218.2,226.6 L225.9,226.9 L233.5,227.2 L241.2,227.2 L248.9,227.3 L256.6,227.1 L264.2,226.1 L271.9,225.5 L279.6,226.1 L287.3,224.6 L294.9,224.3 L302.6,222.9 L310.3,222.4 L318.0,221.9 L325.7,221.4 L333.3,222.6 L341.0,221.5 L348.7,221.1 L356.4,221.4 L364.0,220.6 L371.7,220.6 L379.4,219.6 L387.1,220.5 L394.7,220.2 L402.4,219.6 L410.1,218.7 L417.8,218.2 L425.5,218.7 L433.1,218.9 L440.8,219.5 L448.5,219.4 L456.2,219.1 L463.8,217.8 L471.5,217.3 L479.2,217.9 L486.9,217.8 L494.5,218.4 L502.2,217.2 L509.9,217.3 L517.6,217.5 L525.3,217.4 L532.9,218.1 L540.6,216.7 L548.3,217.1 L556.0,216.1 L563.6,216.7 L571.3,216.5 L579.0,215.8 L586.7,217.6 L594.3,216.1 L602.0,216.0 L609.7,216.7 L617.4,215.5 L625.1,216.3 L632.7,216.0 L640.4,215.6 L648.1,215.1 L655.8,214.9 L663.4,215.3 L671.1,215.2 L678.8,214.5 L686.5,215.1 L694.1,215.6 L701.8,215.2 L709.5,214.5 L717.2,213.7 L724.8,214.7 L732.5,214.2 L740.2,214.8 L747.9,214.5 L755.6,214.5 L763.2,214.4 L770.9,215.0 L778.6,214.7 L786.3,214.6 L793.9,214.6 L801.6,213.9 L809.3,214.0 L817.0,213.1 L824.6,212.9 L832.3,213.9 L840.0,213.5" fill="none" stroke="#2563eb" stroke-width="2.5"/>
<rect x="868" y="49" width="14" height="14" fill="#2563eb"/>
<text x="888.0" y="60.0" font-family="monospace" font-size="11" font-weight="400" text-anchor="start" fill="#111827">train accuracy</text>
<path d="M80.0,269.8 L87.7,269.8 L95.4,227.0 L103.0,240.1 L110.7,225.6 L118.4,222.6 L126.1,223.3 L133.7,222.6 L141.4,222.3 L149.1,223.6 L156.8,222.2 L164.4,223.3 L172.1,223.1 L179.8,223.7 L187.5,222.3 L195.2,226.4 L202.8,221.4 L210.5,225.0 L218.2,222.8 L225.9,224.2 L233.5,221.9 L241.2,221.9 L248.9,222.3 L256.6,221.7 L264.2,220.5 L271.9,218.3 L279.6,221.2 L287.3,217.4 L294.9,216.9 L302.6,216.9 L310.3,218.0 L318.0,217.4 L325.7,216.3 L333.3,216.1 L341.0,215.2 L348.7,215.2 L356.4,214.6 L364.0,215.5 L371.7,216.1 L379.4,214.6 L387.1,213.8 L394.7,216.3 L402.4,216.7 L410.1,213.5 L417.8,213.0 L425.5,213.2 L433.1,215.0 L440.8,213.6 L448.5,213.9 L456.2,212.5 L463.8,212.2 L471.5,213.6 L479.2,213.8 L486.9,214.7 L494.5,212.7 L502.2,213.8 L509.9,213.6 L517.6,212.5 L525.3,212.7 L532.9,215.6 L540.6,215.0 L548.3,213.3 L556.0,211.6 L563.6,210.2 L571.3,211.9 L579.0,211.3 L586.7,212.8 L594.3,212.1 L602.0,212.1 L609.7,214.1 L617.4,212.8 L625.1,214.9 L632.7,212.1 L640.4,212.2 L648.1,211.6 L655.8,213.9 L663.4,210.4 L671.1,212.7 L678.8,213.5 L686.5,213.0 L694.1,213.3 L701.8,210.7 L709.5,214.2 L717.2,211.1 L724.8,210.5 L732.5,211.0 L740.2,215.8 L747.9,211.1 L755.6,210.8 L763.2,209.4 L770.9,210.0 L778.6,209.6 L786.3,212.7 L793.9,212.8 L801.6,210.5 L809.3,212.7 L817.0,211.4 L824.6,211.3 L832.3,210.8 L840.0,211.4" fill="none" stroke="#dc2626" stroke-width="2.5"/>
<rect x="868" y="71" width="14" height="14" fill="#dc2626"/>
<text x="888.0" y="82.0" font-family="monospace" font-size="11" font-weight="400" text-anchor="start" fill="#111827">validation accuracy</text>
</svg>
