<svg xmlns="http://www.w3.org/2000/svg" width="980" height="520" viewBox="0 0 980 520">
<rect width="100%" height="100%" fill="#ffffff"/>
<text x="24.0" y="34.0" font-family="monospace" font-size="18" font-weight="700" text-anchor="start" fill="#111827">Training history: smote/multiclass</text>
<rect x="80" y="60" width="760" height="360" fill="#f9fafb" stroke="#d1d5db"/>
<line x1="80" x2="840" y1="420.0" y2="420.0" stroke="#e5e7eb"/>
<text x="70.0" y="424.0" font-family="monospace" font-size="10" font-weight="400" text-anchor="end" fill="#111827">0</text>
<line x1="80" x2="840" y1="348.0" y2="348.0" stroke="#e5e7eb"/>
<text x="70.0" y="352.0" font-family="monospace" font-size="10" font-weight="400" text-anchor="end" fill="#111827">0.2</text>
<line x1="80" x2="840" y1="276.0" y2="276.0" stroke="#e5e7eb"/>
<text x="70.0" y="280.0" font-family="monospace" font-size="10" font-weight="400" text-anchor="end" fill="#111827">0.4</text>
<line x1="80" x2="840" y1="204.0" y2="204.0" stroke="#e5e7eb"/>
<text x="70.0" y="208.0" font-family="monospace" font-size="10" font-weight="400" text-anchor="end" fill="#111827">0.6</text>
<line x1="80" x2="840" y1="132.0" y2="132.0" stroke="#e5e7eb"/>
<text x="70.0" y="136.0" font-family="monospace" font-size="10" font-weight="400" text-anchor="end" fill="#111827">0.8</text>
<line x1="80" x2="840" y1="60.0" y2="60.0" stroke="#e5e7eb"/>
<text x="70.0" y="64.0" font-family="monospace" font-size="10" font-weight="400" text-anchor="end" fill="#111827">1</text>
<path d="M80.0,297.0 L87.7,274.9 L95.4,259.9 L103.0,254.2 L110.7,250.2 L118.4,247.8 L126.1,245.3 L133.7,243.4 L141.4,242.1 L149.1,240.7 L156.8,240.5 L164.4,240.0 L172.1,239.1 L179.8,237.3 L187.5,236.3 L195.2,236.8 L202.8,236.7 L210.5,235.8 L218.2,236.0 L225.9,234.6 L233.5,235.6 L241.2,234.4 L248.9,234.0 L256.6,234.1 L264.2,234.9 L271.9,233.5 L279.6,234.2 L287.3,234.5 L294.9,233.2 L302.6,231.9 L310.3,232.4 L318.0,231.5 L325.7,231.6 L333.3,231.1 L341.0,231.9 L348.7,229.7 L356.4,231.2 L364.0,233.0 L371.7,230.4 L379.4,229.5 L387.1,229.5 L394.7,229.9 L402.4,229.3 L410.1,229.4 L417.8,229.3 L425.5,229.3 L433.1,230.9 L440.8,230.7 L448.5,230.1 L456.2,228.9 L463.8,229.8 L471.5,229.6 L479.2,228.7 L486.9,227.8 L494.5,228.2 L502.2,229.2 L509.9,228.8 L517.6,228.2 L525.3,228.7 L532.9,227.8 L540.6,228.3 L548.3,229.3 L556.0,228.5 L563.6,227.7 L571.3,227.9 L579.0,228.3 L586.7,227.7 L594.3,228.1 L602.0,227.7 L609.7,227.7 L617.4,226.8 L625.1,226.4 L632.7,227.1 L640.4,227.0 L648.1,226.6 L655.8,227.4 L663.4,226.6 L671.1,227.9 L678.8,226.9 L686.5,226.2 L694.1,226.7 L701.8,226.8 L709.5,226.2 L717.2,226.2 L724.8,225.3 L732.5,227.0 L740.2,225.8 L747.9,226.6 L755.6,226.2 L763.2,224.9 L770.9,225.5 L778.6,225.1 L786.3,225.2 L793.9,226.8 L801.6,224.6 L809.3,224.3 L817.0,224.6 L824.6,224.3 L832.3,224.0 L840.0,224.4" fill="none" stroke="#2563eb" stroke-width="2.5"/>
<rect x="868" y="49" width="14" height="14" fill="#2563eb"/>
<text x="888.0" y="60.0" font-family="monospace" font-size="11" font-weight="400" text-anchor="start" fill="#111827">train accuracy</text>
<path d="M80.0,284.6 L87.7,252.7 L95.4,248.3 L103.0,243.7 L110.7,239.4 L118.4,236.8 L126.1,236.8 L133.7,238.2 L141.4,236.0 L149.1,234.0 L156.8,231.5 L164.4,233.5 L172.1,234.6 L179.8,231.1 L187.5,234.7 L195.2,227.9 L202.8,227.5 L210.5,229.7 L218.2,230.4 L225.9,228.0 L233.5,225.6 L241.2,230.4 L248.9,227.8 L256.6,228.9 L264.2,233.7 L271.9,227.3 L279.6,226.1 L287.3,228.9 L294.9,229.0 L302.6,226.6 L310.3,226.9 L318.0,229.9 L325.7,228.4 L333.3,227.0 L341.0,230.6 L348.7,228.4 L356.4,229.7 L364.0,228.7 L371.7,227.6 L379.4,228.4 L387.1,228.4 L394.7,227.0 L402.4,229.2 L410.1,227.6 L417.8,226.6 L425.5,222.4 L433.1,228.1 L440.8,229.9 L448.5,227.1 L456.2,229.4 L463.8,226.9 L471.5,226.3 L479.2,229.1 L486.9,230.7 L494.5,226.1 L502.2,227.0 L509.9,228.2 L517.6,230.0 L525.3,224.4 L532.9,229.0 L540.6,231.1 L548.3,229.6 L556.0,228.9 L563.6,227.6 L571.3,230.1 L579.0,231.9 L586.7,228.5 L594.3,226.3 L602.0,226.1 L609.7,229.4 L617.4,228.0 L625.1,228.4 L632.7,226.3 L640.4,228.2 L648.1,226.5 L655.8,227.9 L663.4,228.6 L671.1,226.3 L678.8,226.1 L686.5,231.5 L694.1,228.4 L701.8,232.8 L709.5,228.0 L717.2,227.6 L724.8,231.2 L732.5,226.6 L740.2,222.7 L747.9,226.0 L755.6,226.4 L763.2,229.2 L770.9,225.5 L778.6,226.6 L786.3,231.5 L793.9,225.5 L801.6,226.3 L809.3,224.4 L817.0,226.5 L824.6,227.4 L832.3,227.5 L840.0,229.6" fill="none" stroke="#dc2626" stroke-width="2.5"/>
<rect x="868" y="71" width="14" height="14" fill="#dc2626"/>
<text x="888.0" y="82.0" font-family="monospace" font-size="11" font-weight="400" text-anchor="start" fill="#111827">validation accuracy</text>
</svg>
