<svg xmlns="http://www.w3.org/2000/svg" width="980" height="520" viewBox="0 0 980 520">
<rect width="100%" height="100%" fill="#ffffff"/>
<text x="24.0" y="34.0" font-family="monospace" font-size="18" font-weight="700" text-anchor="start" fill="#111827">Training history: smote/ad_vs_healthy</text>
<rect x="80" y="60" width="760" height="360" fill="#f9fafb" stroke="#d1d5db"/>
<line x1="80" x2="840" y1="420.0" y2="420.0" stroke="#e5e7eb"/>
<text x="70.0" y="424.0" font-family="monospace" font-size="10" font-weight="400" text-anchor="end" fill="#111827">0</text>
<line x1="80" x2="840" y1="348.0" y2="348.0" stroke="#e5e7eb"/>
<text x="70.0" y="352.0" font-family="monospace" font-size="10" font-weight="400" text-anchor="end" fill="#111827">0.2</text>
<line x1="80" x2="840" y1="276.0" y2="276.0" stroke="#e5e7eb"/>
<text x="70.0" y="280.0" font-family="monospace" font-size="10" font-weight="400" text-anchor="end" fill="#111827">0.4</text>
<line x1="80" x2="840" y1="204.0" y2="204.0" stroke="#e5e7eb"/>
<text x="70.0" y="208.0" font-family="monospace" font-size="10" font-weight="400" text-anchor="end" fill="#111827">0.6</text>
<line x1="80" x2="840" y1="132.0" y2="132.0" stroke="#e5e7eb"/>
<text x="70.0" y="136.0" font-family="monospace" font-size="10" font-weight="400" text-anchor="end" fill="#111827">0.8</text>
<line x1="80" x2="840" y1="60.0" y2="60.0" stroke="#e5e7eb"/>
<text x="70.0" y="64.0" font-family="monospace" font-size="10" font-weight="400" text-anchor="end" fill="#111827">1</text>
<path d="M80.0,238.8 L87.7,223.2 L95.4,200.0 L103.0,185.4 L110.7,181.4 L118.4,176.3 L126.1,174.4 L133.7,175.0 L141.4,172.8 L149.1,171.0 L156.8,171.5 L164.4,170.6 L172.1,169.6 L179.8,169.6 L187.5,167.6 L195.2,168.2 L202.8,168.6 L210.5,168.1 L218.2,166.5 L225.9,167.6 L233.5,166.9 L241.2,166.9 L248.9,168.2 L256.6,165.9 L264.2,164.9 L271.9,164.2 L279.6,165.0 L287.3,165.0 L294.9,165.4 L302.6,166.3 L310.3,164.8 L318.0,164.5 L325.7,165.2 L333.3,165.8 L341.0,165.1 L348.7,164.9 L356.4,163.8 L364.0,164.8 L371.7,165.2 L379.4,164.7 L387.1,163.7 L394.7,163.5 L402.4,163.1 L410.1,164.1 L417.8,165.7 L425.5,163.1 L433.1,163.5 L440.8,164.3 L448.5,162.8 L456.2,164.1 L463.8,163.8 L471.5,163.8 L479.2,163.5 L486.9,164.1 L494.5,164.1 L502.2,163.5 L509.9,163.4 L517.6,163.2 L525.3,162.7 L532.9,162.4 L540.6,162.8 L548.3,162.0 L556.0,162.9 L563.6,162.5 L571.3,163.0 L579.0,162.6 L586.7,162.9 L594.3,163.5 L602.0,162.3 L609.7,162.1 L617.4,161.9 L625.1,162.6 L632.7,162.9 L640.4,161.9 L648.1,162.0 L655.8,161.8 L663.4,163.4 L671.1,161.9 L678.8,163.4 L686.5,162.6 L694.1,161.5 L701.8,162.1 L709.5,161.7 L717.2,162.5 L724.8,162.3 L732.5,162.4 L740.2,161.6 L747.9,162.4 L755.6,161.9 L763.2,162.7 L770.9,161.8 L778.6,162.5 L786.3,162.1 L793.9,162.1 L801.6,161.4 L809.3,162.4 L817.0,162.3 L824.6,161.9 L832.3,162.1 L840.0,162.5" fill="none" stroke="#2563eb" stroke-width="2.5"/>
<rect x="868" y="49" width="14" height="14" fill="#2563eb"/>
<text x="888.0" y="60.0" font-family="monospace" font-size="11" font-weight="400" text-anchor="start" fill="#111827">train accuracy</text>
<path d="M80.0,239.3 L87.7,186.7 L95.4,176.0 L103.0,172.1 L110.7,167.1 L118.4,170.6 L126.1,167.6 L133.7,166.9 L141.4,167.4 L149.1,167.1 L156.8,164.6 L164.4,165.4 L172.1,167.4 L179.8,168.0 L187.5,165.9 L195.2,165.4 L202.8,164.6 L210.5,164.5 L218.2,164.3 L225.9,165.2 L233.5,165.0 L241.2,165.2 L248.9,165.9 L256.6,163.7 L264.2,165.9 L271.9,163.7 L279.6,167.1 L287.3,164.1 L294.9,164.8 L302.6,164.1 L310.3,163.3 L318.0,163.2 L325.7,162.4 L333.3,163.0 L341.0,163.5 L348.7,163.0 L356.4,163.5 L364.0,165.2 L371.7,163.9 L379.4,163.7 L387.1,162.4 L394.7,165.0 L402.4,163.7 L410.1,162.8 L417.8,163.7 L425.5,164.5 L433.1,161.3 L440.8,163.0 L448.5,165.6 L456.2,164.3 L463.8,164.8 L471.5,165.8 L479.2,162.0 L486.9,164.5 L494.5,161.3 L502.2,162.2 L509.9,162.0 L517.6,161.5 L525.3,161.1 L532.9,162.8 L540.6,161.5 L548.3,160.4 L556.0,165.8 L563.6,161.8 L571.3,161.3 L579.0,161.1 L586.7,162.2 L594.3,162.2 L602.0,161.7 L609.7,161.8 L617.4,161.7 L625.1,162.0 L632.7,161.1 L640.4,162.0 L648.1,169.5 L655.8,161.1 L663.4,160.2 L671.1,163.5 L678.8,162.8 L686.5,161.5 L694.1,164.1 L701.8,160.9 L709.5,160.5 L717.2,161.1 L724.8,161.3 L732.5,161.1 L740.2,159.8 L747.9,160.7 L755.6,160.0 L763.2,161.3 L770.9,161.1 L778.6,161.1 L786.3,158.7 L793.9,161.8 L801.6,160.5 L809.3,160.4 L817.0,163.9 L824.6,161.3 L832.3,162.0 L840.0,161.3" fill="none" stroke="#dc2626" stroke-width="2.5"/>
<rect x="868" y="71" width="14" height="14" fill="#dc2626"/>
<text x="888.0" y="82.0" font-family="monospace" font-size="11" font-weight="400" text-anchor="start" fill="#111827">validation accuracy</text>
</svg>
