<svg xmlns="http://www.w3.org/2000/svg" width="980" height="520" viewBox="0 0 980 520">
<rect width="100%" height="100%" fill="#ffffff"/>
<text x="24.0" y="34.0" font-family="monospace" font-size="18" font-weight="700" text-anchor="start" fill="#111827">Training history: standard_rbp/ad_vs_healthy</text>
<rect x="80" y="60" width="760" height="360" fill="#f9fafb" stroke="#d1d5db"/>
<line x1="80" x2="840" y1="420.0" y2="420.0" stroke="#e5e7eb"/>
<text x="70.0" y="424.0" font-family="monospace" font-size="10" font-weight="400" text-anchor="end" fill="#111827">0</text>
<line x1="80" x2="840" y1="348.0" y2="348.0" stroke="#e5e7eb"/>
<text x="70.0" y="352.0" font-family="monospace" font-size="10" font-weight="400" text-anchor="end" fill="#111827">0.2</text>
<line x1="80" x2="840" y1="276.0" y2="276.0" stroke="#e5e7eb"/>
<text x="70.0" y="280.0" font-family="monospace" font-size="10" font-weight="400" text-anchor="end" fill="#111827">0.4</text>
<line x1="80" x2="840" y1="204.0" y2="204.0" stroke="#e5e7eb"/>
<text x="70.0" y="208.0" font-family="monospace" font-size="10" font-weight="400" text-anchor="end" fill="#111827">0.6</text>
<line x1="80" x2="840" y1="132.0" y2="132.0" stroke="#e5e7eb"/>
<text x="70.0" y="136.0" font-family="monospace" font-size="10" font-weight="400" text-anchor="end" fill="#111827">0.8</text>
<line x1="80" x2="840" y1="60.0" y2="60.0" stroke="#e5e7eb"/>
<text x="70.0" y="64.0" font-family="monospace" font-size="10" font-weight="400" text-anchor="end" fill="#111827">1</text>
<path d="M80.0,225.6 L87.7,204.6 L95.4,188.1 L103.0,180.1 L110.7,176.7 L118.4,174.5 L126.1,173.3 L133.7,170.7 L141.4,170.7 L149.1,170.2 L156.8,169.7 L164.4,169.4 L172.1,167.1 L179.8,168.9 L187.5,166.7 L195.2,166.9 L202.8,166.5 L210.5,166.1 L218.2,167.5 L225.9,166.7 L233.5,166.3 L241.2,166.9 L248.9,166.1 L256.6,165.3 L264.2,165.9 L271.9,166.0 L279.6,164.1 L287.3,165.9 L294.9,164.9 L302.6,165.9 L310.3,165.6 L318.0,165.3 L325.7,165.8 L333.3,164.2 L341.0,164.8 L348.7,164.1 L356.4,165.4 L364.0,164.8 L371.7,164.7 L379.4,164.3 L387.1,164.5 L394.7,164.2 L402.4,163.7 L410.1,164.0 L417.8,164.2 L425.5,164.0 L433.1,164.8 L440.8,163.8 L448.5,164.9 L456.2,163.6 L463.8,163.7 L471.5,163.2 L479.2,163.9 L486.9,164.1 L494.5,163.7 L502.2,164.6 L509.9,163.9 L517.6,163.9 L525.3,164.0 L532.9,163.4 L540.6,164.4 L548.3,163.2 L556.0,163.7 L563.6,163.4 L571.3,163.7 L579.0,163.8 L586.7,163.7 L594.3,164.3 L602.0,163.3 L609.7,163.0 L617.4,162.9 L625.1,163.1 L632.7,163.3 L640.4,163.5 L648.1,163.8 L655.8,161.6 L663.4,162.6 L671.1,162.5 L678.8,162.7 L686.5,163.2 L694.1,163.0 L701.8,162.0 L709.5,162.2 L717.2,161.2 L724.8,163.2 L732.5,161.2 L740.2,162.3 L747.9,162.0 L755.6,160.6 L763.2,161.7 L770.9,162.8 L778.6,162.5 L786.3,162.0 L793.9,160.8 L801.6,161.6 L809.3,161.6 L817.0,161.9 L824.6,161.7 L832.3,161.2 L840.0,162.0" fill="none" stroke="#2563eb" stroke-width="2.5"/>
<rect x="868" y="49" width="14" height="14" fill="#2563eb"/>
<text x="888.0" y="60.0" font-family="monospace" font-size="11" font-weight="400" text-anchor="start" fill="#111827">train accuracy</text>
<path d="M80.0,223.1 L87.7,185.5 L95.4,173.7 L103.0,166.3 L110.7,170.0 L118.4,183.3 L126.1,165.3 L133.7,172.0 L141.4,165.3 L149.1,166.9 L156.8,164.7 L164.4,161.6 L172.1,163.3 L179.8,165.1 L187.5,168.4 L195.2,164.7 L202.8,166.1 L210.5,162.7 L218.2,161.2 L225.9,163.3 L233.5,162.7 L241.2,162.4 L248.9,162.9 L256.6,163.3 L264.2,162.9 L271.9,162.0 L279.6,161.6 L287.3,161.8 L294.9,163.5 L302.6,161.6 L310.3,162.9 L318.0,162.4 L325.7,162.4 L333.3,164.3 L341.0,161.8 L348.7,161.0 L356.4,160.8 L364.0,161.2 L371.7,161.4 L379.4,161.2 L387.1,160.6 L394.7,162.0 L402.4,160.2 L410.1,160.8 L417.8,161.4 L425.5,161.2 L433.1,161.4 L440.8,163.7 L448.5,161.4 L456.2,160.6 L463.8,161.8 L471.5,161.6 L479.2,163.9 L486.9,160.2 L494.5,162.0 L502.2,160.8 L509.9,160.8 L517.6,161.4 L525.3,161.2 L532.9,161.6 L540.6,163.1 L548.3,162.4 L556.0,161.6 L563.6,162.4 L571.3,161.0 L579.0,161.2 L586.7,162.4 L594.3,161.0 L602.0,160.2 L609.7,159.4 L617.4,159.4 L625.1,161.0 L632.7,160.8 L640.4,160.4 L648.1,161.0 L655.8,159.0 L663.4,160.8 L671.1,158.6 L678.8,158.4 L686.5,159.0 L694.1,161.2 L701.8,161.6 L709.5,160.6 L717.2,159.4 L724.8,158.8 L732.5,162.7 L740.2,161.8 L747.9,161.0 L755.6,160.0 L763.2,161.2 L770.9,160.4 L778.6,160.0 L786.3,158.6 L793.9,161.0 L801.6,159.0 L809.3,159.6 L817.0,159.8 L824.6,163.7 L832.3,161.2 L840.0,159.6" fill="none" stroke="#dc2626" stroke-width="2.5"/>
<rect x="868" y="71" width="14" height="14" fill="#dc2626"/>
<text x="888.0" y="82.0" font-family="monospace" font-size="11" font-weight="400" text-anchor="start" fill="#111827">validation accuracy</text>
</svg>
