<svg xmlns="http://www.w3.org/2000/svg" width="980" height="520" viewBox="0 0 980 520">
<rect width="100%" height="100%" fill="#ffffff"/>
<text x="24.0" y="34.0" font-family="monospace" font-size="18" font-weight="700" text-anchor="start" fill="#111827">ROC: data/runs/ds004504_rbp_paper/standard_rbp/ad_vs_healthy</text>
<rect x="80" y="60" width="760" height="360" fill="#f9fafb" stroke="#d1d5db"/>
<line x1="80" x2="840" y1="420.0" y2="420.0" stroke="#e5e7eb"/>
<text x="70.0" y="424.0" font-family="monospace" font-size="10" font-weight="400" text-anchor="end" fill="#111827">0</text>
<line x1="80" x2="840" y1="348.0" y2="348.0" stroke="#e5e7eb"/>
<text x="70.0" y="352.0" font-family="monospace" font-size="10" font-weight="400" text-anchor="end" fill="#111827">0.2</text>
<line x1="80" x2="840" y1="276.0" y2="276.0" stroke="#e5e7eb"/>
<text x="70.0" y="280.0" font-family="monospace" font-size="10" font-weight="400" text-anchor="end" fill="#111827">0.4</text>
<line x1="80" x2="840" y1="204.0" y2="204.0" stroke="#e5e7eb"/>
<text x="70.0" y="208.0" font-family="monospace" font-size="10" font-weight="400" text-anchor="end" fill="#111827">0.6</text>
<line x1="80" x2="840" y1="132.0" y2="132.0" stroke="#e5e7eb"/>
<text x="70.0" y="136.0" font-family="monospace" font-size="10" font-weight="400" text-anchor="end" fill="#111827">0.8</text>
<line x1="80" x2="840" y1="60.0" y2="60.0" stroke="#e5e7eb"/>
<text x="70.0" y="64.0" font-family="monospace" font-size="10" font-weight="400" text-anchor="end" fill="#111827">1</text>
<path d="M80.0,420.0 L80.0,419.6 L80.0,419.3 L80.0,418.9 L80.0,418.5 L80.0,418.1 L80.0,417.8 L80.0,417.4 L80.0,417.0 L80.0,416.6 L80.0,416.3 L80.0,415.9 L80.0,415.5 L80.0,415.2 L80.0,414.8 L80.0,414.4 L80.0,414.0 L80.0,413.7 L80.0,413.3 L80.0,412.9 L80.0,412.6 L80.0,412.2 L80.0,411.8 L80.0,411.4 L80.0,411.1 L80.0,410.7 L81.0,410.7 L81.0,410.3 L81.0,409.9 L81.0,409.6 L81.0,409.2 L81.0,408.8 L81.0,408.5 L81.0,408.1 L81.0,407.7 L81.9,407.7 L81.9,407.3 L81.9,407.0 L81.9,406.6 L81.9,406.2 L82.8,406.2 L82.8,405.9 L82.8,405.5 L82.8,405.1 L82.8,404.7 L82.8,404.4 L82.8,404.0 L82.8,403.6 L82.8,403.2 L82.8,402.9 L82.8,402.5 L83.8,402.5 L84.8,402.5 L84.8,402.1 L84.8,401.8 L84.8,401.4 L84.8,401.0 L84.8,400.6 L84.8,400.3 L85.7,400.3 L85.7,399.9 L85.7,399.5 L85.7,399.2 L85.7,398.8 L85.7,398.4 L85.7,398.0 L85.7,397.7 L85.7,397.3 L85.7,396.9 L85.7,396.5 L85.7,396.2 L85.7,395.8 L85.7,395.4 L85.7,395.1 L85.7,394.7 L85.7,394.3 L86.7,394.3 L87.6,394.3 L87.6,393.9 L87.6,393.6 L87.6,393.2 L87.6,392.8 L87.6,392.5 L87.6,392.1 L87.6,391.7 L87.6,391.3 L87.6,391.0 L87.6,390.6 L87.6,390.2 L87.6,389.8 L87.6,389.5 L87.6,389.1 L87.6,388.7 L87.6,388.4 L88.5,388.4 L88.5,388.0 L88.5,387.6 L88.5,387.2 L88.5,386.9 L88.5,386.5 L88.5,386.1 L89.5,386.1 L89.5,385.7 L89.5,385.4 L89.5,385.0 L89.5,384.6 L89.5,384.3 L90.5,384.3 L90.5,383.9 L91.4,383.9 L91.4,383.5 L91.4,383.1 L91.4,382.8 L91.4,382.4 L91.4,382.0 L91.4,381.7 L91.4,381.3 L91.4,380.9 L91.4,380.5 L91.4,380.2 L91.4,379.8 L91.4,379.4 L91.4,379.0 L91.4,378.7 L91.4,378.3 L91.4,377.9 L91.4,377.6 L91.4,377.2 L91.4,376.8 L91.4,376.4 L91.4,376.1 L91.4,375.7 L91.4,375.3 L91.4,375.0 L91.4,374.6 L91.4,374.2 L91.4,373.8 L91.4,373.5 L91.4,373.1 L91.4,372.7 L91.4,372.0 L91.4,371.6 L91.4,371.2 L91.4,370.9 L91.4,370.5 L91.4,370.1 L91.4,369.7 L91.4,369.4 L91.4,369.0 L91.4,368.6 L91.4,368.3 L91.4,367.9 L92.3,367.9 L92.3,367.5 L92.3,367.1 L92.3,366.8 L92.3,366.4 L92.3,366.0 L92.3,365.6 L93.3,365.6 L93.3,365.3 L93.3,364.9 L93.3,364.5 L93.3,364.2 L93.3,363.8 L93.3,363.4 L93.3,363.0 L94.2,363.0 L94.2,362.7 L94.2,362.3 L94.2,361.9 L94.2,361.6 L94.2,361.2 L94.2,360.8 L95.2,360.8 L95.2,360.4 L95.2,360.1 L95.2,359.7 L95.2,359.3 L96.2,359.3 L96.2,358.9 L97.1,358.9 L97.1,358.6 L97.1,358.2 L97.1,357.8 L97.1,357.5 L97.1,357.1 L97.1,356.7 L97.1,356.3 L97.1,356.0 L97.1,355.6 L97.1,355.2 L97.1,354.9 L97.1,354.5 L97.1,354.1 L97.1,353.7 L97.1,353.4 L97.1,353.0 L97.1,352.6 L97.1,352.2 L97.1,351.9 L97.1,351.5 L97.1,351.1 L97.1,350.8 L97.1,350.4 L97.1,350.0 L97.1,349.6 L97.1,349.3 L97.1,348.9 L97.1,348.5 L97.1,348.1 L97.1,347.8 L97.1,347.4 L98.0,347.4 L98.0,347.0 L98.0,346.7 L98.0,346.3 L98.0,345.9 L98.0,345.5 L99.0,345.5 L99.0,345.2 L99.0,344.8 L99.0,344.4 L99.0,344.1 L99.0,343.7 L99.0,343.3 L99.0,342.9 L100.0,342.9 L100.0,342.6 L100.0,342.2 L100.0,341.8 L100.0,341.4 L100.0,341.1 L100.0,340.7 L100.0,340.3 L100.0,340.0 L100.0,339.6 L100.0,339.2 L100.0,338.8 L100.0,338.5 L100.0,338.1 L100.0,337.7 L100.0,337.4 L100.9,337.4 L101.8,337.4 L101.8,337.0 L101.8,336.6 L101.8,336.2 L102.8,336.2 L102.8,335.9 L102.8,335.5 L102.8,335.1 L102.8,334.7 L103.8,334.7 L104.7,334.7 L104.7,334.4 L104.7,334.0 L104.7,333.6 L104.7,333.3 L104.7,332.9 L104.7,332.5 L105.7,332.5 L105.7,332.1 L105.7,331.8 L105.7,331.4 L105.7,331.0 L105.7,330.7 L105.7,330.3 L105.7,329.9 L105.7,329.5 L105.7,329.2 L105.7,328.8 L105.7,328.4 L105.7,328.0 L105.7,327.7 L105.7,327.3 L105.7,326.9 L105.7,326.6 L105.7,326.2 L105.7,325.8 L105.7,325.4 L105.7,325.1 L105.7,324.7 L105.7,324.3 L106.6,324.3 L106.6,324.0 L106.6,323.6 L107.5,323.6 L107.5,323.2 L108.5,323.2 L108.5,322.8 L108.5,322.5 L108.5,322.1 L108.5,321.7 L108.5,321.3 L108.5,321.0 L108.5,320.6 L108.5,320.2 L108.5,319.9 L108.5,319.5 L108.5,319.1 L108.5,318.7 L109.5,318.7 L109.5,318.4 L109.5,318.0 L109.5,317.6 L109.5,317.2 L109.5,316.9 L109.5,316.5 L110.4,316.5 L110.4,316.1 L110.4,315.8 L110.4,315.4 L110.4,315.0 L111.3,315.0 L111.3,314.6 L111.3,314.3 L112.3,314.3 L112.3,313.9 L113.2,313.9 L114.2,313.9 L114.2,313.5 L114.2,313.2 L115.2,313.2 L115.2,312.8 L115.2,312.4 L116.1,312.4 L117.1,312.4 L117.1,312.0 L117.1,311.7 L117.1,311.3 L117.1,310.9 L117.1,310.5 L117.1,310.2 L117.1,309.8 L117.1,309.4 L117.1,309.1 L117.1,308.7 L117.1,308.3 L118.0,308.3 L118.9,308.3 L119.9,308.3 L119.9,307.9 L119.9,307.6 L120.8,307.6 L120.8,307.2 L120.8,306.8 L120.8,306.5 L121.8,306.5 L121.8,306.1 L121.8,305.7 L121.8,305.3 L121.8,305.0 L121.8,304.6 L121.8,304.2 L122.8,304.2 L122.8,303.8 L122.8,303.5 L123.7,303.5 L124.7,303.5 L124.7,303.1 L124.7,302.7 L124.7,302.4 L124.7,302.0 L124.7,301.6 L124.7,301.2 L124.7,300.9 L124.7,300.5 L124.7,300.1 L124.7,299.8 L124.7,299.4 L124.7,299.0 L124.7,298.6 L124.7,298.3 L124.7,297.9 L125.6,297.9 L125.6,297.5 L125.6,297.1 L125.6,296.8 L125.6,296.4 L125.6,296.0 L125.6,295.7 L125.6,295.3 L125.6,294.9 L125.6,294.5 L126.5,294.5 L126.5,294.2 L126.5,293.8 L126.5,293.4 L127.5,293.4 L127.5,293.1 L128.4,293.1 L129.4,293.1 L129.4,292.7 L129.4,292.3 L130.3,292.3 L130.3,291.9 L130.3,291.6 L130.3,291.2 L130.3,290.8 L130.3,290.4 L130.3,290.1 L130.3,289.7 L130.3,289.3 L131.3,289.3 L131.3,289.0 L132.2,289.0 L132.2,288.6 L133.2,288.6 L133.2,288.2 L133.2,287.8 L134.2,287.8 L135.1,287.8 L135.1,287.5 L135.1,287.1 L135.1,286.7 L135.1,286.3 L135.1,286.0 L135.1,285.6 L135.1,285.2 L135.1,284.9 L135.1,284.5 L136.1,284.5 L136.1,284.1 L136.1,283.7 L136.1,283.4 L136.1,283.0 L136.1,282.6 L136.1,282.3 L137.0,282.3 L137.0,281.9 L137.0,281.5 L137.0,281.1 L137.0,280.8 L137.0,280.4 L137.9,280.4 L137.9,280.0 L137.9,279.6 L137.9,279.3 L138.9,279.3 L139.8,279.3 L139.8,278.9 L139.8,278.5 L140.8,278.5 L140.8,278.2 L141.8,278.2 L141.8,277.8 L142.7,277.8 L142.7,277.4 L142.7,277.0 L142.7,276.7 L142.7,276.3 L142.7,275.9 L143.7,275.9 L143.7,275.6 L143.7,275.2 L143.7,274.8 L143.7,274.4 L143.7,274.1 L143.7,273.7 L143.7,273.3 L143.7,272.9 L143.7,272.6 L143.7,272.2 L143.7,271.8 L143.7,271.5 L143.7,271.1 L143.7,270.7 L143.7,270.3 L143.7,270.0 L143.7,269.6 L143.7,269.2 L143.7,268.9 L143.7,268.5 L143.7,268.1 L143.7,267.7 L143.7,267.4 L144.6,267.4 L144.6,267.0 L144.6,266.6 L144.6,266.2 L144.6,265.9 L144.6,265.5 L145.6,265.5 L146.5,265.5 L147.4,265.5 L147.4,265.1 L147.4,264.8 L147.4,264.4 L147.4,264.0 L147.4,263.6 L147.4,263.3 L147.4,262.9 L148.4,262.9 L148.4,262.5 L148.4,262.2 L148.4,261.8 L148.4,261.4 L148.4,261.0 L149.3,261.0 L149.3,260.7 L149.3,260.3 L150.3,260.3 L151.2,260.3 L151.2,259.9 L151.2,259.5 L151.2,259.2 L151.2,258.8 L151.2,258.4 L151.2,258.1 L151.2,257.7 L151.2,257.3 L152.2,257.3 L152.2,256.9 L152.2,256.6 L152.2,256.2 L152.2,255.8 L152.2,255.4 L153.2,255.4 L154.1,255.4 L154.1,255.1 L155.1,255.1 L155.1,254.7 L155.1,254.3 L155.1,254.0 L155.1,253.6 L155.1,253.2 L155.1,252.8 L155.1,252.5 L156.0,252.5 L156.9,252.5 L156.9,252.1 L156.9,251.7 L156.9,251.4 L156.9,251.0 L157.9,251.0 L157.9,250.6 L157.9,250.2 L158.8,250.2 L159.8,250.2 L159.8,249.9 L159.8,249.5 L159.8,249.1 L159.8,248.7 L159.8,248.4 L160.8,248.4 L160.8,248.0 L160.8,247.6 L160.8,247.3 L160.8,246.9 L160.8,246.5 L160.8,246.1 L161.7,246.1 L161.7,245.8 L162.7,245.8 L162.7,245.4 L162.7,245.0 L163.6,245.0 L163.6,244.7 L164.6,244.7 L164.6,244.3 L165.5,244.3 L165.5,243.9 L165.5,243.5 L165.5,243.2 L165.5,242.8 L166.4,242.8 L166.4,242.4 L166.4,242.0 L166.4,241.7 L166.4,241.3 L167.4,241.3 L167.4,240.9 L167.4,240.6 L167.4,240.2 L167.4,239.8 L167.4,239.4 L167.4,239.1 L167.4,238.7 L167.4,238.3 L167.4,238.0 L167.4,237.6 L167.4,237.2 L168.4,237.2 L168.4,236.8 L168.4,236.5 L168.4,236.1 L168.4,235.7 L168.4,235.3 L168.4,235.0 L168.4,234.6 L168.4,234.2 L168.4,233.9 L168.4,233.5 L168.4,233.1 L168.4,232.7 L168.4,232.4 L169.3,232.4 L170.2,232.4 L171.2,232.4 L171.2,232.0 L172.1,232.0 L172.1,231.6 L172.1,231.3 L172.1,230.9 L172.1,230.5 L172.1,230.1 L173.1,230.1 L173.1,229.8 L174.1,229.8 L174.1,229.4 L175.0,229.4 L175.0,229.0 L175.9,229.0 L175.9,228.6 L176.9,228.6 L176.9,228.3 L176.9,227.9 L176.9,227.5 L177.9,227.5 L177.9,227.2 L177.9,226.8 L177.9,226.4 L178.8,226.4 L178.8,226.0 L178.8,225.7 L178.8,225.3 L178.8,224.9 L179.8,224.9 L179.8,224.6 L180.7,224.6 L181.7,224.6 L181.7,224.2 L181.7,223.8 L181.7,223.4 L181.7,223.1 L181.7,222.7 L181.7,222.3 L182.6,222.3 L182.6,221.9 L182.6,221.6 L182.6,221.2 L182.6,220.8 L182.6,220.5 L182.6,220.1 L182.6,219.7 L182.6,219.3 L183.6,219.3 L184.5,219.3 L184.5,219.0 L184.5,218.6 L184.5,218.2 L185.4,218.2 L185.4,217.8 L185.4,217.5 L185.4,217.1 L186.4,217.1 L186.4,216.7 L187.3,216.7 L188.3,216.7 L189.2,216.7 L189.2,216.4 L189.2,216.0 L190.2,216.0 L190.2,215.6 L191.1,215.6 L191.1,215.2 L192.1,215.2 L192.1,214.9 L192.1,214.5 L193.1,214.5 L194.0,214.5 L194.9,214.5 L194.9,214.1 L194.9,213.8 L195.9,213.8 L195.9,213.4 L195.9,213.0 L196.8,213.0 L196.8,212.6 L197.8,212.6 L198.8,212.6 L199.7,212.6 L200.7,212.6 L201.6,212.6 L202.6,212.6 L202.6,212.3 L202.6,211.9 L202.6,211.5 L202.6,211.1 L202.6,210.8 L203.5,210.8 L204.4,210.8 L204.4,210.4 L205.4,210.4 L206.4,210.4 L206.4,210.0 L206.4,209.7 L206.4,209.3 L206.4,208.9 L207.3,208.9 L207.3,208.5 L208.2,208.5 L208.2,208.2 L208.2,207.8 L209.2,207.8 L209.2,207.4 L209.2,207.1 L209.2,206.7 L210.2,206.7 L210.2,206.3 L210.2,205.9 L210.2,205.6 L210.2,205.2 L210.2,204.8 L210.2,204.4 L210.2,204.1 L211.1,204.1 L212.0,204.1 L213.0,204.1 L213.0,203.7 L213.0,203.3 L213.0,203.0 L213.0,202.6 L213.0,202.2 L213.0,201.8 L213.9,201.8 L214.9,201.8 L215.8,201.8 L216.8,201.8 L217.8,201.8 L217.8,201.5 L218.7,201.5 L218.7,201.1 L219.7,201.1 L219.7,200.7 L219.7,200.4 L220.6,200.4 L220.6,200.0 L221.6,200.0 L221.6,199.6 L222.5,199.6 L222.5,199.2 L223.4,199.2 L223.4,198.9 L223.4,198.5 L224.4,198.5 L224.4,198.1 L225.3,198.1 L225.3,197.7 L225.3,197.4 L225.3,197.0 L226.3,197.0 L227.2,197.0 L227.2,196.6 L227.2,196.3 L227.2,195.9 L228.2,195.9 L228.2,195.5 L228.2,195.1 L228.2,194.8 L228.2,194.4 L228.2,194.0 L229.2,194.0 L229.2,193.7 L230.1,193.7 L230.1,193.3 L231.1,193.3 L231.1,192.9 L231.1,192.5 L231.1,192.2 L232.0,192.2 L232.0,191.8 L232.0,191.4 L232.0,191.0 L233.0,191.0 L233.9,191.0 L233.9,190.7 L233.9,190.3 L234.8,190.3 L235.8,190.3 L236.8,190.3 L236.8,189.9 L236.8,189.6 L236.8,189.2 L237.7,189.2 L238.7,189.2 L239.6,189.2 L240.5,189.2 L240.5,188.8 L241.5,188.8 L241.5,188.4 L241.5,188.1 L242.4,188.1 L243.4,188.1 L243.4,187.7 L243.4,187.3 L243.4,186.9 L243.4,186.6 L244.3,186.6 L245.3,186.6 L246.2,186.6 L246.2,186.2 L246.2,185.8 L246.2,185.5 L246.2,185.1 L246.2,184.7 L246.2,184.3 L246.2,184.0 L246.2,183.6 L246.2,183.2 L247.2,183.2 L248.2,183.2 L249.1,183.2 L249.1,182.9 L249.1,182.5 L250.1,182.5 L250.1,182.1 L251.0,182.1 L251.0,181.7 L252.0,181.7 L252.0,181.4 L252.0,181.0 L252.9,181.0 L253.8,181.0 L254.8,181.0 L254.8,180.6 L255.8,180.6 L255.8,180.2 L255.8,179.9 L255.8,179.5 L255.8,179.1 L255.8,178.8 L256.7,178.8 L256.7,178.4 L256.7,178.0 L257.6,178.0 L257.6,177.6 L257.6,177.3 L257.6,176.9 L257.6,176.5 L258.6,176.5 L258.6,176.2 L258.6,175.8 L259.5,175.8 L259.5,175.4 L260.5,175.4 L260.5,175.0 L260.5,174.7 L261.4,174.7 L262.4,174.7 L263.4,174.7 L263.4,174.3 L263.4,173.9 L263.4,173.5 L263.4,173.2 L263.4,172.8 L264.3,172.8 L264.3,172.4 L264.3,172.1 L264.3,171.7 L264.3,171.3 L265.2,171.3 L265.2,170.9 L266.2,170.9 L266.2,170.6 L266.2,170.2 L266.2,169.8 L266.2,169.5 L267.1,169.5 L268.1,169.5 L268.1,169.1 L269.1,169.1 L269.1,168.7 L270.0,168.7 L270.9,168.7 L271.9,168.7 L271.9,168.3 L272.9,168.3 L272.9,168.0 L273.8,168.0 L274.8,168.0 L274.8,167.6 L275.7,167.6 L276.6,167.6 L276.6,167.2 L277.6,167.2 L278.5,167.2 L279.5,167.2 L280.4,167.2 L280.4,166.8 L280.4,166.5 L280.4,166.1 L280.4,165.7 L281.4,165.7 L281.4,165.4 L282.4,165.4 L282.4,165.0 L282.4,164.6 L283.3,164.6 L283.3,164.2 L283.3,163.9 L283.3,163.5 L283.3,163.1 L284.2,163.1 L284.2,162.8 L285.2,162.8 L285.2,162.4 L285.2,162.0 L285.2,161.6 L285.2,161.3 L286.1,161.3 L286.1,160.9 L287.1,160.9 L288.0,160.9 L288.0,160.5 L289.0,160.5 L289.9,160.5 L290.9,160.5 L290.9,160.1 L290.9,159.8 L291.9,159.8 L291.9,159.4 L291.9,159.0 L292.8,159.0 L293.8,159.0 L294.7,159.0 L295.6,159.0 L296.6,159.0 L297.6,159.0 L297.6,158.7 L298.5,158.7 L299.5,158.7 L299.5,158.3 L300.4,158.3 L300.4,157.9 L301.4,157.9 L301.4,157.5 L302.3,157.5 L302.3,157.2 L302.3,156.8 L303.2,156.8 L304.2,156.8 L304.2,156.4 L304.2,156.0 L305.1,156.0 L306.1,156.0 L306.1,155.7 L307.1,155.7 L307.1,155.3 L307.1,154.9 L307.1,154.6 L308.0,154.6 L309.0,154.6 L309.9,154.6 L310.9,154.6 L310.9,154.2 L310.9,153.8 L310.9,153.4 L310.9,153.1 L310.9,152.7 L310.9,152.3 L310.9,152.0 L311.8,152.0 L311.8,151.6 L311.8,151.2 L312.8,151.2 L312.8,150.8 L312.8,150.5 L312.8,150.1 L312.8,149.7 L312.8,149.3 L313.7,149.3 L314.6,149.3 L315.6,149.3 L316.6,149.3 L316.6,149.0 L316.6,148.6 L316.6,148.2 L317.5,148.2 L318.4,148.2 L319.4,148.2 L319.4,147.9 L320.4,147.9 L321.3,147.9 L322.2,147.9 L323.2,147.9 L324.1,147.9 L325.1,147.9 L326.0,147.9 L327.0,147.9 L327.0,147.5 L327.9,147.5 L328.9,147.5 L329.9,147.5 L330.8,147.5 L330.8,147.1 L330.8,146.7 L331.8,146.7 L332.7,146.7 L332.7,146.4 L333.6,146.4 L333.6,146.0 L333.6,145.6 L334.6,145.6 L334.6,145.3 L334.6,144.9 L334.6,144.5 L335.5,144.5 L336.5,144.5 L336.5,144.1 L337.4,144.1 L337.4,143.8 L338.4,143.8 L339.4,143.8 L339.4,143.4 L339.4,143.0 L339.4,142.6 L340.3,142.6 L341.2,142.6 L342.2,142.6 L342.2,142.3 L343.1,142.3 L343.1,141.9 L344.1,141.9 L344.1,141.5 L345.1,141.5 L346.0,141.5 L346.0,141.2 L346.0,140.8 L346.0,140.4 L346.0,140.0 L346.9,140.0 L346.9,139.7 L346.9,139.3 L347.9,139.3 L348.9,139.3 L349.8,139.3 L349.8,138.9 L350.8,138.9 L350.8,138.6 L351.7,138.6 L351.7,138.2 L352.7,138.2 L353.6,138.2 L353.6,137.8 L353.6,137.4 L353.6,137.1 L353.6,136.7 L354.6,136.7 L355.5,136.7 L355.5,136.3 L355.5,135.9 L355.5,135.6 L356.4,135.6 L357.4,135.6 L358.4,135.6 L358.4,135.2 L359.3,135.2 L360.2,135.2 L361.2,135.2 L362.2,135.2 L362.2,134.8 L363.1,134.8 L363.1,134.5 L364.1,134.5 L364.1,134.1 L364.1,133.7 L365.0,133.7 L365.9,133.7 L365.9,133.3 L366.9,133.3 L366.9,133.0 L367.8,133.0 L367.8,132.6 L368.8,132.6 L368.8,132.2 L369.8,132.2 L369.8,131.9 L370.7,131.9 L371.6,131.9 L372.6,131.9 L373.6,131.9 L374.5,131.9 L374.5,131.5 L374.5,131.1 L374.5,130.7 L374.5,130.4 L375.4,130.4 L375.4,130.0 L375.4,129.6 L376.4,129.6 L377.3,129.6 L377.3,129.2 L377.3,128.9 L377.3,128.5 L377.3,128.1 L378.3,128.1 L379.2,128.1 L380.2,128.1 L380.2,127.8 L381.1,127.8 L381.1,127.4 L381.1,127.0 L381.1,126.6 L381.1,126.3 L382.1,126.3 L382.1,125.9 L383.1,125.9 L384.0,125.9 L384.9,125.9 L384.9,125.5 L385.9,125.5 L385.9,125.1 L386.9,125.1 L387.8,125.1 L388.8,125.1 L388.8,124.8 L388.8,124.4 L389.7,124.4 L390.6,124.4 L391.6,124.4 L391.6,124.0 L392.6,124.0 L393.5,124.0 L394.4,124.0 L394.4,123.7 L395.4,123.7 L395.4,123.3 L396.4,123.3 L397.3,123.3 L397.3,122.9 L397.3,122.5 L398.2,122.5 L399.2,122.5 L400.2,122.5 L401.1,122.5 L402.1,122.5 L403.0,122.5 L403.0,122.2 L403.0,121.8 L403.0,121.4 L403.9,121.4 L404.9,121.4 L405.9,121.4 L405.9,121.1 L405.9,120.7 L405.9,120.3 L406.8,120.3 L407.8,120.3 L408.7,120.3 L409.7,120.3 L409.7,119.9 L410.6,119.9 L410.6,119.6 L411.6,119.6 L412.5,119.6 L412.5,119.2 L412.5,118.8 L413.4,118.8 L414.4,118.8 L414.4,118.4 L415.3,118.4 L415.3,118.1 L416.3,118.1 L417.2,118.1 L418.2,118.1 L419.1,118.1 L419.1,117.7 L419.1,117.3 L420.1,117.3 L420.1,117.0 L420.1,116.6 L420.1,116.2 L421.1,116.2 L422.0,116.2 L422.9,116.2 L423.9,116.2 L424.8,116.2 L424.8,115.8 L424.8,115.5 L424.8,115.1 L425.8,115.1 L426.8,115.1 L427.7,115.1 L427.7,114.7 L428.6,114.7 L429.6,114.7 L429.6,114.4 L429.6,114.0 L430.6,114.0 L431.5,114.0 L432.4,114.0 L433.4,114.0 L434.4,114.0 L435.3,114.0 L436.2,114.0 L436.2,113.6 L436.2,113.2 L437.2,113.2 L438.1,113.2 L438.1,112.9 L439.1,112.9 L439.1,112.5 L440.1,112.5 L441.0,112.5 L441.9,112.5 L442.9,112.5 L443.9,112.5 L444.8,112.5 L444.8,112.1 L445.8,112.1 L445.8,111.7 L445.8,111.4 L445.8,111.0 L445.8,110.6 L445.8,110.3 L445.8,109.9 L446.7,109.9 L447.7,109.9 L447.7,109.5 L448.6,109.5 L448.6,109.1 L448.6,108.8 L449.6,108.8 L449.6,108.4 L449.6,108.0 L450.5,108.0 L451.4,108.0 L452.4,108.0 L452.4,107.7 L452.4,107.3 L452.4,106.9 L452.4,106.5 L453.4,106.5 L454.3,106.5 L455.2,106.5 L455.2,106.2 L455.2,105.8 L455.2,105.4 L455.2,105.0 L455.2,104.7 L456.2,104.7 L456.2,104.3 L456.2,103.9 L456.2,103.6 L456.2,103.2 L456.2,102.8 L456.2,102.4 L456.2,102.1 L457.2,102.1 L458.1,102.1 L458.1,101.7 L459.1,101.7 L460.0,101.7 L460.9,101.7 L460.9,101.3 L460.9,101.0 L461.9,101.0 L461.9,100.6 L462.9,100.6 L462.9,100.2 L463.8,100.2 L464.8,100.2 L464.8,99.8 L465.7,99.8 L466.7,99.8 L466.7,99.5 L467.6,99.5 L468.6,99.5 L468.6,99.1 L469.5,99.1 L469.5,98.7 L469.5,98.3 L470.5,98.3 L471.4,98.3 L472.3,98.3 L472.3,98.0 L472.3,97.6 L473.3,97.6 L474.3,97.6 L475.2,97.6 L476.1,97.6 L477.1,97.6 L477.1,97.2 L477.1,96.9 L478.1,96.9 L479.0,96.9 L479.9,96.9 L480.9,96.9 L481.9,96.9 L481.9,96.5 L481.9,96.1 L482.8,96.1 L482.8,95.7 L482.8,95.4 L482.8,95.0 L483.8,95.0 L484.7,95.0 L484.7,94.6 L485.6,94.6 L485.6,94.3 L485.6,93.9 L485.6,93.5 L485.6,93.1 L486.6,93.1 L486.6,92.8 L487.6,92.8 L487.6,92.4 L487.6,92.0 L487.6,91.6 L487.6,91.3 L488.5,91.3 L488.5,90.9 L489.4,90.9 L490.4,90.9 L490.4,90.5 L490.4,90.2 L491.4,90.2 L492.3,90.2 L493.2,90.2 L494.2,90.2 L494.2,89.8 L494.2,89.4 L494.2,89.0 L494.2,88.7 L494.2,88.3 L495.2,88.3 L496.1,88.3 L497.0,88.3 L497.0,87.9 L498.0,87.9 L498.9,87.9 L499.9,87.9 L500.8,87.9 L501.8,87.9 L502.8,87.9 L503.7,87.9 L503.7,87.5 L504.6,87.5 L504.6,87.2 L504.6,86.8 L505.6,86.8 L505.6,86.4 L506.6,86.4 L507.5,86.4 L508.4,86.4 L509.4,86.4 L509.4,86.1 L510.4,86.1 L511.3,86.1 L512.2,86.1 L512.2,85.7 L513.2,85.7 L513.2,85.3 L513.2,84.9 L514.2,84.9 L515.1,84.9 L515.1,84.6 L516.0,84.6 L517.0,84.6 L518.0,84.6 L518.9,84.6 L519.8,84.6 L520.8,84.6 L520.8,84.2 L520.8,83.8 L521.8,83.8 L522.7,83.8 L523.6,83.8 L523.6,83.5 L524.6,83.5 L525.5,83.5 L525.5,83.1 L525.5,82.7 L526.5,82.7 L527.5,82.7 L528.4,82.7 L529.4,82.7 L530.3,82.7 L530.3,82.3 L530.3,82.0 L530.3,81.6 L531.2,81.6 L532.2,81.6 L532.2,81.2 L532.2,80.8 L533.1,80.8 L534.1,80.8 L535.0,80.8 L535.0,80.5 L536.0,80.5 L537.0,80.5 L537.9,80.5 L538.9,80.5 L538.9,80.1 L539.8,80.1 L540.8,80.1 L541.7,80.1 L542.7,80.1 L542.7,79.7 L543.6,79.7 L544.5,79.7 L545.5,79.7 L545.5,79.4 L546.5,79.4 L547.4,79.4 L548.3,79.4 L549.3,79.4 L550.2,79.4 L551.2,79.4 L552.1,79.4 L553.1,79.4 L554.0,79.4 L554.0,79.0 L555.0,79.0 L556.0,79.0 L556.9,79.0 L557.9,79.0 L558.8,79.0 L559.8,79.0 L560.7,79.0 L560.7,78.6 L561.7,78.6 L562.6,78.6 L563.5,78.6 L564.5,78.6 L565.5,78.6 L566.4,78.6 L567.3,78.6 L568.3,78.6 L569.2,78.6 L570.2,78.6 L570.2,78.2 L571.1,78.2 L572.1,78.2 L573.0,78.2 L573.0,77.9 L574.0,77.9 L575.0,77.9 L575.9,77.9 L576.9,77.9 L577.8,77.9 L578.8,77.9 L579.7,77.9 L580.6,77.9 L580.6,77.5 L581.6,77.5 L582.5,77.5 L582.5,77.1 L583.5,77.1 L583.5,76.8 L584.5,76.8 L585.4,76.8 L586.4,76.8 L587.3,76.8 L588.2,76.8 L589.2,76.8 L590.2,76.8 L591.1,76.8 L592.0,76.8 L593.0,76.8 L593.0,76.4 L594.0,76.4 L594.9,76.4 L594.9,76.0 L594.9,75.6 L595.9,75.6 L596.8,75.6 L597.8,75.6 L598.7,75.6 L599.6,75.6 L600.6,75.6 L600.6,75.3 L600.6,74.9 L601.6,74.9 L602.5,74.9 L603.4,74.9 L604.4,74.9 L604.4,74.5 L605.4,74.5 L606.3,74.5 L607.2,74.5 L608.2,74.5 L609.1,74.5 L609.1,74.1 L610.1,74.1 L611.0,74.1 L611.0,73.8 L611.0,73.4 L611.0,73.0 L612.0,73.0 L613.0,73.0 L613.9,73.0 L614.9,73.0 L615.8,73.0 L616.8,73.0 L617.7,73.0 L618.6,73.0 L619.6,73.0 L619.6,72.7 L620.6,72.7 L621.5,72.7 L622.5,72.7 L623.4,72.7 L624.4,72.7 L625.3,72.7 L626.2,72.7 L627.2,72.7 L627.2,72.3 L628.1,72.3 L629.1,72.3 L630.0,72.3 L630.0,71.9 L631.0,71.9 L631.0,71.5 L631.9,71.5 L632.9,71.5 L633.9,71.5 L633.9,71.2 L634.8,71.2 L635.8,71.2 L636.7,71.2 L637.6,71.2 L638.6,71.2 L639.5,71.2 L640.5,71.2 L641.5,71.2 L642.4,71.2 L643.4,71.2 L643.4,70.8 L644.3,70.8 L644.3,70.4 L645.2,70.4 L645.2,70.1 L646.2,70.1 L646.2,69.7 L647.1,69.7 L647.1,69.3 L647.1,68.9 L648.1,68.9 L648.1,68.6 L648.1,68.2 L648.1,67.8 L649.1,67.8 L649.1,67.4 L650.0,67.4 L650.0,67.1 L650.9,67.1 L651.9,67.1 L652.9,67.1 L653.8,67.1 L654.8,67.1 L655.7,67.1 L656.6,67.1 L656.6,66.7 L657.6,66.7 L658.5,66.7 L659.5,66.7 L660.5,66.7 L661.4,66.7 L661.4,66.3 L662.4,66.3 L663.3,66.3 L664.2,66.3 L664.2,66.0 L665.2,66.0 L666.1,66.0 L667.1,66.0 L668.1,66.0 L669.0,66.0 L670.0,66.0 L670.9,66.0 L671.9,66.0 L672.8,66.0 L673.8,66.0 L674.7,66.0 L675.6,66.0 L676.6,66.0 L676.6,65.6 L677.5,65.6 L678.5,65.6 L678.5,65.2 L679.4,65.2 L680.4,65.2 L680.4,64.8 L681.4,64.8 L682.3,64.8 L683.2,64.8 L684.2,64.8 L685.1,64.8 L686.1,64.8 L687.0,64.8 L688.0,64.8 L688.0,64.5 L689.0,64.5 L689.9,64.5 L690.9,64.5 L691.8,64.5 L692.8,64.5 L693.7,64.5 L694.6,64.5 L695.6,64.5 L696.6,64.5 L697.5,64.5 L698.4,64.5 L699.4,64.5 L700.4,64.5 L701.3,64.5 L702.2,64.5 L703.2,64.5 L704.1,64.5 L705.1,64.5 L706.0,64.5 L707.0,64.5 L708.0,64.5 L708.9,64.5 L709.9,64.5 L710.8,64.5 L711.8,64.5 L712.7,64.5 L713.6,64.5 L714.6,64.5 L715.6,64.5 L716.5,64.5 L717.5,64.5 L718.4,64.5 L719.4,64.5 L720.3,64.5 L721.2,64.5 L722.2,64.5 L722.2,64.1 L723.1,64.1 L724.1,64.1 L725.0,64.1 L726.0,64.1 L726.9,64.1 L727.9,64.1 L728.9,64.1 L728.9,63.7 L729.8,63.7 L730.8,63.7 L730.8,63.4 L731.7,63.4 L732.6,63.4 L733.6,63.4 L734.5,63.4 L735.5,63.4 L736.5,63.4 L737.4,63.4 L738.4,63.4 L739.3,63.4 L740.2,63.4 L740.2,63.0 L741.2,63.0 L742.1,63.0 L743.1,63.0 L744.1,63.0 L745.0,63.0 L745.9,63.0 L746.9,63.0 L747.9,63.0 L748.8,63.0 L749.8,63.0 L750.7,63.0 L751.6,63.0 L752.6,63.0 L753.5,63.0 L754.5,63.0 L755.5,63.0 L756.4,63.0 L757.4,63.0 L758.3,63.0 L759.2,63.0 L760.2,63.0 L761.1,63.0 L762.1,63.0 L763.1,63.0 L764.0,63.0 L765.0,63.0 L765.9,63.0 L766.9,63.0 L767.8,63.0 L768.8,63.0 L768.8,62.6 L769.7,62.6 L770.6,62.6 L771.6,62.6 L772.5,62.6 L773.5,62.6 L774.4,62.6 L775.4,62.6 L775.4,62.2 L776.4,62.2 L777.3,62.2 L778.2,62.2 L779.2,62.2 L780.1,62.2 L781.1,62.2 L782.0,62.2 L783.0,62.2 L784.0,62.2 L784.0,61.9 L784.0,61.5 L784.9,61.5 L785.9,61.5 L786.8,61.5 L787.8,61.5 L788.7,61.5 L789.6,61.5 L790.6,61.5 L791.6,61.5 L792.5,61.5 L792.5,61.1 L793.4,61.1 L794.4,61.1 L795.4,61.1 L796.3,61.1 L797.2,61.1 L798.2,61.1 L799.1,61.1 L800.1,61.1 L801.0,61.1 L802.0,61.1 L803.0,61.1 L803.0,60.7 L803.9,60.7 L804.9,60.7 L805.8,60.7 L806.8,60.7 L807.7,60.7 L807.7,60.4 L808.6,60.4 L809.6,60.4 L810.6,60.4 L811.5,60.4 L812.5,60.4 L813.4,60.4 L814.4,60.4 L815.3,60.4 L816.2,60.4 L817.2,60.4 L818.1,60.4 L819.1,60.4 L820.0,60.4 L821.0,60.4 L821.9,60.4 L822.9,60.4 L822.9,60.0 L823.9,60.0 L824.8,60.0 L825.8,60.0 L826.7,60.0 L827.6,60.0 L828.6,60.0 L829.5,60.0 L830.5,60.0 L831.5,60.0 L832.4,60.0 L833.4,60.0 L834.3,60.0 L835.2,60.0 L836.2,60.0 L837.1,60.0 L838.1,60.0 L839.1,60.0 L840.0,60.0 L840.0,60.0" fill="none" stroke="#2563eb" stroke-width="2.5"/>
<rect x="868" y="49" width="14" height="14" fill="#2563eb"/>
<text x="888.0" y="60.0" font-family="monospace" font-size="11" font-weight="400" text-anchor="start" fill="#111827">alzheimer AUC=0.799</text>
<path d="M80.0,420.0 L80.0,419.6 L80.0,419.1 L80.0,418.6 L80.0,418.2 L80.0,417.8 L80.0,417.3 L80.0,416.9 L80.0,416.4 L80.0,415.9 L80.0,415.5 L80.0,415.1 L80.0,414.6 L80.0,414.1 L80.0,413.7 L80.0,413.2 L80.0,412.8 L80.0,412.4 L80.0,411.9 L80.8,411.9 L80.8,411.4 L80.8,411.0 L80.8,410.6 L80.8,410.1 L80.8,409.6 L80.8,409.2 L80.8,408.8 L80.8,408.3 L80.8,407.9 L80.8,407.4 L80.8,406.9 L80.8,406.5 L80.8,406.1 L80.8,405.6 L80.8,405.1 L80.8,404.7 L81.6,404.7 L81.6,404.2 L81.6,403.8 L81.6,403.4 L81.6,402.9 L81.6,402.4 L82.4,402.4 L82.4,402.0 L82.4,401.6 L82.4,401.1 L82.4,400.6 L82.4,400.2 L82.4,399.8 L82.4,399.3 L82.4,398.9 L82.4,398.4 L82.4,397.9 L82.4,397.5 L83.1,397.5 L83.1,397.1 L83.1,396.6 L83.1,396.1 L83.1,395.7 L83.1,395.2 L83.1,394.8 L83.1,394.4 L83.1,393.9 L83.1,393.4 L83.9,393.4 L84.7,393.4 L84.7,393.0 L84.7,392.6 L84.7,392.1 L84.7,391.6 L84.7,391.2 L84.7,390.8 L84.7,390.3 L84.7,389.9 L84.7,389.4 L85.5,389.4 L85.5,388.9 L85.5,388.5 L85.5,388.1 L85.5,387.6 L85.5,387.1 L85.5,386.7 L85.5,386.2 L86.3,386.2 L86.3,385.8 L86.3,385.4 L86.3,384.9 L86.3,384.4 L86.3,384.0 L86.3,383.6 L86.3,383.1 L86.3,382.6 L86.3,382.2 L86.3,381.8 L86.3,381.3 L86.3,380.9 L86.3,380.4 L86.3,379.9 L86.3,379.5 L86.3,379.1 L86.3,378.6 L86.3,378.1 L86.3,377.7 L86.3,377.2 L86.3,376.8 L86.3,376.4 L86.3,375.9 L86.3,375.4 L86.3,375.0 L86.3,374.6 L86.3,374.1 L86.3,373.6 L86.3,373.2 L86.3,372.8 L87.1,372.8 L87.1,372.3 L87.1,371.9 L87.1,371.4 L87.1,370.9 L87.1,370.5 L87.1,370.1 L87.1,369.6 L87.1,369.1 L87.1,368.7 L87.1,368.2 L87.9,368.2 L87.9,367.8 L87.9,367.4 L88.6,367.4 L88.6,366.9 L88.6,366.4 L88.6,366.0 L88.6,365.6 L88.6,365.1 L88.6,364.6 L88.6,364.2 L89.4,364.2 L89.4,363.8 L89.4,363.3 L89.4,362.9 L89.4,362.4 L89.4,361.9 L89.4,361.5 L89.4,361.1 L89.4,360.6 L89.4,360.1 L89.4,359.7 L89.4,359.2 L89.4,358.8 L89.4,358.4 L89.4,357.9 L89.4,357.4 L89.4,357.0 L89.4,356.6 L89.4,356.1 L89.4,355.6 L89.4,355.2 L89.4,354.8 L89.4,354.3 L89.4,353.9 L89.4,353.4 L89.4,352.9 L89.4,352.5 L89.4,352.1 L89.4,351.6 L89.4,351.1 L89.4,350.7 L89.4,350.2 L89.4,349.8 L89.4,349.4 L89.4,348.9 L89.4,348.4 L89.4,348.0 L90.2,348.0 L90.2,347.6 L90.2,347.1 L90.2,346.6 L90.2,346.2 L90.2,345.8 L90.2,345.3 L90.2,344.9 L90.2,344.4 L91.0,344.4 L91.0,343.9 L91.0,343.5 L91.8,343.5 L91.8,343.1 L91.8,342.6 L92.6,342.6 L92.6,342.1 L92.6,341.7 L92.6,341.2 L92.6,340.8 L92.6,340.4 L92.6,339.9 L92.6,339.4 L92.6,339.0 L92.6,338.6 L92.6,338.1 L92.6,337.6 L92.6,337.2 L92.6,336.8 L93.4,336.8 L93.4,336.3 L93.4,335.9 L93.4,335.4 L94.1,335.4 L94.1,334.9 L94.1,334.5 L94.1,334.1 L94.1,333.6 L94.1,333.1 L94.9,333.1 L94.9,332.7 L94.9,332.2 L94.9,331.8 L94.9,331.4 L94.9,330.9 L94.9,330.4 L94.9,330.0 L95.7,330.0 L95.7,329.6 L96.5,329.6 L96.5,329.1 L97.3,329.1 L98.1,329.1 L98.9,329.1 L98.9,328.6 L99.6,328.6 L100.4,328.6 L100.4,328.2 L101.2,328.2 L101.2,327.8 L102.0,327.8 L102.0,327.3 L102.8,327.3 L102.8,326.9 L103.6,326.9 L103.6,326.4 L103.6,325.9 L103.6,325.5 L103.6,325.1 L103.6,324.6 L103.6,324.1 L103.6,323.7 L103.6,323.2 L103.6,322.8 L103.6,322.4 L104.4,322.4 L104.4,321.9 L104.4,321.4 L104.4,321.0 L105.1,321.0 L105.1,320.6 L105.9,320.6 L105.9,320.1 L105.9,319.6 L105.9,319.2 L106.7,319.2 L106.7,318.8 L106.7,318.3 L106.7,317.9 L106.7,317.4 L106.7,316.9 L106.7,316.5 L106.7,316.1 L106.7,315.6 L107.5,315.6 L107.5,315.1 L107.5,314.7 L107.5,314.2 L107.5,313.8 L107.5,313.4 L107.5,312.9 L107.5,312.4 L107.5,312.0 L107.5,311.6 L108.3,311.6 L109.1,311.6 L109.9,311.6 L109.9,311.1 L109.9,310.6 L110.7,310.6 L110.7,310.2 L110.7,309.8 L110.7,309.3 L110.7,308.9 L110.7,308.4 L111.4,308.4 L111.4,307.9 L111.4,307.5 L111.4,307.1 L111.4,306.6 L112.2,306.6 L113.0,306.6 L113.0,306.1 L113.0,305.7 L113.0,305.2 L113.0,304.8 L113.0,304.4 L113.0,303.9 L113.8,303.9 L114.6,303.9 L114.6,303.4 L114.6,303.0 L115.4,303.0 L115.4,302.6 L115.4,302.1 L115.4,301.6 L115.4,301.2 L115.4,300.8 L115.4,300.3 L115.4,299.9 L115.4,299.4 L115.4,298.9 L115.4,298.5 L116.2,298.5 L116.2,298.1 L116.9,298.1 L116.9,297.6 L116.9,297.1 L117.7,297.1 L117.7,296.7 L117.7,296.2 L117.7,295.8 L117.7,295.4 L117.7,294.9 L117.7,294.4 L117.7,294.0 L117.7,293.6 L118.5,293.6 L118.5,293.1 L118.5,292.6 L118.5,292.2 L119.3,292.2 L119.3,291.8 L119.3,291.3 L119.3,290.9 L119.3,290.4 L119.3,289.9 L119.3,289.5 L119.3,289.0 L119.3,288.6 L119.3,288.1 L119.3,287.7 L120.1,287.7 L120.1,287.2 L120.1,286.8 L120.1,286.4 L120.1,285.9 L120.1,285.4 L120.1,285.0 L120.1,284.6 L120.9,284.6 L120.9,284.1 L120.9,283.6 L120.9,283.2 L120.9,282.8 L120.9,282.3 L120.9,281.9 L120.9,281.4 L120.9,281.0 L120.9,280.5 L121.7,280.5 L121.7,280.1 L121.7,279.6 L121.7,279.1 L122.4,279.1 L122.4,278.7 L122.4,278.2 L122.4,277.8 L122.4,277.4 L123.2,277.4 L123.2,276.9 L123.2,276.4 L123.2,276.0 L123.2,275.6 L124.0,275.6 L124.0,275.1 L124.0,274.6 L124.0,274.2 L124.8,274.2 L125.6,274.2 L125.6,273.8 L125.6,273.3 L126.4,273.3 L127.2,273.3 L127.9,273.3 L127.9,272.9 L127.9,272.4 L127.9,271.9 L127.9,271.5 L127.9,271.1 L128.7,271.1 L129.5,271.1 L129.5,270.6 L129.5,270.1 L130.3,270.1 L130.3,269.7 L130.3,269.2 L130.3,268.8 L131.1,268.8 L131.9,268.8 L131.9,268.4 L131.9,267.9 L131.9,267.4 L131.9,267.0 L131.9,266.5 L131.9,266.1 L132.7,266.1 L132.7,265.6 L132.7,265.2 L133.4,265.2 L134.2,265.2 L134.2,264.8 L135.0,264.8 L135.0,264.3 L135.0,263.9 L135.0,263.4 L135.8,263.4 L135.8,262.9 L135.8,262.5 L135.8,262.1 L135.8,261.6 L136.6,261.6 L136.6,261.1 L137.4,261.1 L138.2,261.1 L138.2,260.7 L138.9,260.7 L138.9,260.2 L138.9,259.8 L138.9,259.4 L138.9,258.9 L138.9,258.5 L138.9,258.0 L138.9,257.6 L139.7,257.6 L139.7,257.1 L139.7,256.6 L139.7,256.2 L140.5,256.2 L141.3,256.2 L142.1,256.2 L142.9,256.2 L143.7,256.2 L143.7,255.8 L143.7,255.3 L143.7,254.8 L143.7,254.4 L144.4,254.4 L145.2,254.4 L145.2,253.9 L145.2,253.5 L146.0,253.5 L146.0,253.1 L146.8,253.1 L147.6,253.1 L148.4,253.1 L149.2,253.1 L149.2,252.6 L149.9,252.6 L149.9,252.2 L150.7,252.2 L151.5,252.2 L152.3,252.2 L153.1,252.2 L153.1,251.7 L153.9,251.7 L153.9,251.2 L153.9,250.8 L154.7,250.8 L155.4,250.8 L156.2,250.8 L156.2,250.3 L157.0,250.3 L157.8,250.3 L157.8,249.9 L157.8,249.4 L157.8,249.0 L157.8,248.6 L157.8,248.1 L158.6,248.1 L159.4,248.1 L159.4,247.7 L159.4,247.2 L159.4,246.8 L159.4,246.3 L159.4,245.8 L160.2,245.8 L161.0,245.8 L161.0,245.4 L161.0,244.9 L161.0,244.5 L161.7,244.5 L162.5,244.5 L162.5,244.0 L163.3,244.0 L163.3,243.6 L163.3,243.2 L164.1,243.2 L164.1,242.7 L164.1,242.2 L164.9,242.2 L164.9,241.8 L164.9,241.3 L165.7,241.3 L165.7,240.9 L166.5,240.9 L166.5,240.4 L167.2,240.4 L168.0,240.4 L168.0,240.0 L168.0,239.6 L168.0,239.1 L168.8,239.1 L168.8,238.6 L168.8,238.2 L169.6,238.2 L170.4,238.2 L171.2,238.2 L172.0,238.2 L172.7,238.2 L173.5,238.2 L174.3,238.2 L174.3,237.8 L175.1,237.8 L175.9,237.8 L176.7,237.8 L177.5,237.8 L178.2,237.8 L178.2,237.3 L178.2,236.8 L178.2,236.4 L179.0,236.4 L179.8,236.4 L180.6,236.4 L181.4,236.4 L181.4,236.0 L181.4,235.5 L181.4,235.0 L182.2,235.0 L183.0,235.0 L183.0,234.6 L183.7,234.6 L184.5,234.6 L184.5,234.2 L185.3,234.2 L185.3,233.7 L185.3,233.2 L186.1,233.2 L186.9,233.2 L187.7,233.2 L188.5,233.2 L189.2,233.2 L190.0,233.2 L190.0,232.8 L190.8,232.8 L190.8,232.3 L190.8,231.9 L190.8,231.4 L190.8,231.0 L190.8,230.6 L190.8,230.1 L191.6,230.1 L191.6,229.6 L192.4,229.6 L192.4,229.2 L192.4,228.8 L193.2,228.8 L194.0,228.8 L194.0,228.3 L194.0,227.9 L194.0,227.4 L194.0,226.9 L194.0,226.5 L194.0,226.1 L194.0,225.6 L194.7,225.6 L195.5,225.6 L195.5,225.2 L195.5,224.7 L196.3,224.7 L196.3,224.3 L196.3,223.8 L196.3,223.3 L197.1,223.3 L197.9,223.3 L198.7,223.3 L198.7,222.9 L198.7,222.5 L198.7,222.0 L198.7,221.5 L198.7,221.1 L199.5,221.1 L200.2,221.1 L201.0,221.1 L201.0,220.7 L201.8,220.7 L202.6,220.7 L202.6,220.2 L202.6,219.8 L202.6,219.3 L202.6,218.9 L203.4,218.9 L203.4,218.4 L204.2,218.4 L204.2,217.9 L204.2,217.5 L205.0,217.5 L205.7,217.5 L205.7,217.1 L205.7,216.6 L206.5,216.6 L206.5,216.1 L207.3,216.1 L207.3,215.7 L207.3,215.2 L207.3,214.8 L207.3,214.3 L208.1,214.3 L208.9,214.3 L209.7,214.3 L209.7,213.9 L209.7,213.5 L209.7,213.0 L210.5,213.0 L211.3,213.0 L212.0,213.0 L212.0,212.5 L212.0,212.1 L212.0,211.7 L212.0,211.2 L212.0,210.7 L212.0,210.3 L212.8,210.3 L213.6,210.3 L213.6,209.8 L213.6,209.4 L214.4,209.4 L214.4,208.9 L215.2,208.9 L215.2,208.5 L215.2,208.1 L215.2,207.6 L216.0,207.6 L216.0,207.1 L216.0,206.7 L216.0,206.2 L216.8,206.2 L217.5,206.2 L217.5,205.8 L217.5,205.4 L217.5,204.9 L218.3,204.9 L218.3,204.4 L219.1,204.4 L219.1,204.0 L219.1,203.6 L219.1,203.1 L219.9,203.1 L219.9,202.7 L220.7,202.7 L221.5,202.7 L222.3,202.7 L223.0,202.7 L223.0,202.2 L223.8,202.2 L223.8,201.8 L223.8,201.3 L223.8,200.8 L224.6,200.8 L225.4,200.8 L226.2,200.8 L227.0,200.8 L227.0,200.4 L227.0,200.0 L227.8,200.0 L228.5,200.0 L228.5,199.5 L229.3,199.5 L230.1,199.5 L230.9,199.5 L231.7,199.5 L231.7,199.0 L231.7,198.6 L231.7,198.2 L231.7,197.7 L231.7,197.2 L232.5,197.2 L232.5,196.8 L233.3,196.8 L233.3,196.4 L234.0,196.4 L234.0,195.9 L234.8,195.9 L234.8,195.4 L235.6,195.4 L235.6,195.0 L235.6,194.6 L236.4,194.6 L237.2,194.6 L237.2,194.1 L238.0,194.1 L238.0,193.6 L238.8,193.6 L238.8,193.2 L238.8,192.8 L238.8,192.3 L238.8,191.8 L239.5,191.8 L239.5,191.4 L239.5,191.0 L239.5,190.5 L240.3,190.5 L241.1,190.5 L241.9,190.5 L241.9,190.0 L241.9,189.6 L242.7,189.6 L243.5,189.6 L244.3,189.6 L245.0,189.6 L245.0,189.2 L245.0,188.7 L245.8,188.7 L245.8,188.2 L246.6,188.2 L246.6,187.8 L247.4,187.8 L247.4,187.3 L247.4,186.9 L247.4,186.4 L248.2,186.4 L249.0,186.4 L249.0,186.0 L249.8,186.0 L250.5,186.0 L251.3,186.0 L252.1,186.0 L252.1,185.6 L252.1,185.1 L252.9,185.1 L252.9,184.6 L253.7,184.6 L253.7,184.2 L254.5,184.2 L254.5,183.8 L254.5,183.3 L254.5,182.9 L255.3,182.9 L256.0,182.9 L256.8,182.9 L256.8,182.4 L256.8,181.9 L257.6,181.9 L257.6,181.5 L258.4,181.5 L258.4,181.1 L258.4,180.6 L259.2,180.6 L260.0,180.6 L260.8,180.6 L260.8,180.2 L261.6,180.2 L262.3,180.2 L262.3,179.7 L263.1,179.7 L263.1,179.3 L263.1,178.8 L263.9,178.8 L264.7,178.8 L264.7,178.3 L264.7,177.9 L264.7,177.5 L264.7,177.0 L265.5,177.0 L265.5,176.5 L265.5,176.1 L265.5,175.7 L265.5,175.2 L265.5,174.8 L265.5,174.3 L265.5,173.9 L265.5,173.4 L266.3,173.4 L266.3,172.9 L266.3,172.5 L266.3,172.1 L267.1,172.1 L267.8,172.1 L268.6,172.1 L268.6,171.6 L268.6,171.1 L268.6,170.7 L268.6,170.2 L269.4,170.2 L270.2,170.2 L271.0,170.2 L271.8,170.2 L272.6,170.2 L272.6,169.8 L273.3,169.8 L274.1,169.8 L274.1,169.3 L274.9,169.3 L275.7,169.3 L276.5,169.3 L277.3,169.3 L278.1,169.3 L278.8,169.3 L279.6,169.3 L279.6,168.9 L279.6,168.5 L279.6,168.0 L279.6,167.5 L280.4,167.5 L281.2,167.5 L282.0,167.5 L282.0,167.1 L282.8,167.1 L282.8,166.7 L282.8,166.2 L283.6,166.2 L284.3,166.2 L284.3,165.7 L284.3,165.3 L285.1,165.3 L285.9,165.3 L285.9,164.8 L286.7,164.8 L286.7,164.4 L287.5,164.4 L287.5,163.9 L288.3,163.9 L288.3,163.5 L288.3,163.1 L289.1,163.1 L289.1,162.6 L289.1,162.1 L289.1,161.7 L289.1,161.2 L289.1,160.8 L289.1,160.4 L289.8,160.4 L290.6,160.4 L290.6,159.9 L291.4,159.9 L292.2,159.9 L292.2,159.4 L292.2,159.0 L292.2,158.6 L293.0,158.6 L293.0,158.1 L293.0,157.6 L293.8,157.6 L293.8,157.2 L294.6,157.2 L295.3,157.2 L296.1,157.2 L296.9,157.2 L296.9,156.8 L297.7,156.8 L297.7,156.3 L298.5,156.3 L299.3,156.3 L300.1,156.3 L300.8,156.3 L300.8,155.9 L301.6,155.9 L302.4,155.9 L302.4,155.4 L303.2,155.4 L303.2,154.9 L304.0,154.9 L304.8,154.9 L305.6,154.9 L306.3,154.9 L306.3,154.5 L306.3,154.1 L306.3,153.6 L306.3,153.2 L307.1,153.2 L307.1,152.7 L307.1,152.2 L307.9,152.2 L307.9,151.8 L307.9,151.4 L308.7,151.4 L308.7,150.9 L309.5,150.9 L309.5,150.4 L309.5,150.0 L309.5,149.6 L310.3,149.6 L310.3,149.1 L311.1,149.1 L311.1,148.6 L311.1,148.2 L311.9,148.2 L312.6,148.2 L313.4,148.2 L314.2,148.2 L314.2,147.8 L315.0,147.8 L315.0,147.3 L315.8,147.3 L316.6,147.3 L317.4,147.3 L318.1,147.3 L318.1,146.8 L318.9,146.8 L319.7,146.8 L320.5,146.8 L321.3,146.8 L322.1,146.8 L322.1,146.4 L322.1,145.9 L322.1,145.5 L322.9,145.5 L323.6,145.5 L323.6,145.1 L324.4,145.1 L324.4,144.6 L325.2,144.6 L326.0,144.6 L326.0,144.1 L326.8,144.1 L327.6,144.1 L328.4,144.1 L329.1,144.1 L329.1,143.7 L329.9,143.7 L330.7,143.7 L330.7,143.2 L331.5,143.2 L332.3,143.2 L333.1,143.2 L333.9,143.2 L334.6,143.2 L334.6,142.8 L335.4,142.8 L335.4,142.4 L335.4,141.9 L335.4,141.4 L336.2,141.4 L337.0,141.4 L337.0,141.0 L337.8,141.0 L337.8,140.6 L338.6,140.6 L338.6,140.1 L339.4,140.1 L340.1,140.1 L340.1,139.6 L340.1,139.2 L340.1,138.8 L340.9,138.8 L341.7,138.8 L342.5,138.8 L343.3,138.8 L344.1,138.8 L344.9,138.8 L345.6,138.8 L346.4,138.8 L347.2,138.8 L347.2,138.3 L347.2,137.9 L347.2,137.4 L348.0,137.4 L348.8,137.4 L349.6,137.4 L350.4,137.4 L350.4,136.9 L350.4,136.5 L351.1,136.5 L351.9,136.5 L351.9,136.1 L352.7,136.1 L352.7,135.6 L352.7,135.1 L352.7,134.7 L352.7,134.2 L353.5,134.2 L354.3,134.2 L355.1,134.2 L355.1,133.8 L355.1,133.4 L355.1,132.9 L355.9,132.9 L356.6,132.9 L356.6,132.4 L356.6,132.0 L357.4,132.0 L358.2,132.0 L359.0,132.0 L359.0,131.6 L359.8,131.6 L360.6,131.6 L361.4,131.6 L361.4,131.1 L362.2,131.1 L362.2,130.7 L362.9,130.7 L362.9,130.2 L363.7,130.2 L364.5,130.2 L365.3,130.2 L366.1,130.2 L366.9,130.2 L366.9,129.8 L367.7,129.8 L368.4,129.8 L369.2,129.8 L369.2,129.3 L369.2,128.9 L370.0,128.9 L370.8,128.9 L371.6,128.9 L371.6,128.4 L372.4,128.4 L372.4,127.9 L373.2,127.9 L373.9,127.9 L373.9,127.5 L374.7,127.5 L374.7,127.1 L375.5,127.1 L375.5,126.6 L376.3,126.6 L376.3,126.1 L377.1,126.1 L377.9,126.1 L377.9,125.7 L378.7,125.7 L378.7,125.2 L379.4,125.2 L379.4,124.8 L379.4,124.3 L379.4,123.9 L379.4,123.4 L379.4,123.0 L380.2,123.0 L381.0,123.0 L381.8,123.0 L382.6,123.0 L383.4,123.0 L384.2,123.0 L384.2,122.6 L384.2,122.1 L384.2,121.6 L384.9,121.6 L385.7,121.6 L386.5,121.6 L387.3,121.6 L388.1,121.6 L388.9,121.6 L389.7,121.6 L389.7,121.2 L390.4,121.2 L391.2,121.2 L392.0,121.2 L392.0,120.8 L392.8,120.8 L393.6,120.8 L393.6,120.3 L394.4,120.3 L394.4,119.9 L395.2,119.9 L395.9,119.9 L396.7,119.9 L397.5,119.9 L397.5,119.4 L397.5,118.9 L398.3,118.9 L398.3,118.5 L398.3,118.1 L399.1,118.1 L399.9,118.1 L400.7,118.1 L401.4,118.1 L402.2,118.1 L402.2,117.6 L402.2,117.1 L402.2,116.7 L402.2,116.2 L402.2,115.8 L402.2,115.4 L403.0,115.4 L403.0,114.9 L403.8,114.9 L404.6,114.9 L404.6,114.4 L405.4,114.4 L406.2,114.4 L406.2,114.0 L406.2,113.6 L406.2,113.1 L406.9,113.1 L407.7,113.1 L407.7,112.6 L408.5,112.6 L408.5,112.2 L409.3,112.2 L409.3,111.8 L410.1,111.8 L410.9,111.8 L410.9,111.3 L410.9,110.9 L410.9,110.4 L411.7,110.4 L411.7,109.9 L412.5,109.9 L413.2,109.9 L414.0,109.9 L414.0,109.5 L414.8,109.5 L415.6,109.5 L416.4,109.5 L416.4,109.1 L416.4,108.6 L417.2,108.6 L418.0,108.6 L418.7,108.6 L419.5,108.6 L420.3,108.6 L421.1,108.6 L421.9,108.6 L422.7,108.6 L422.7,108.2 L423.5,108.2 L424.2,108.2 L425.0,108.2 L425.8,108.2 L426.6,108.2 L427.4,108.2 L427.4,107.7 L427.4,107.2 L428.2,107.2 L428.2,106.8 L429.0,106.8 L429.7,106.8 L430.5,106.8 L431.3,106.8 L431.3,106.4 L432.1,106.4 L432.9,106.4 L433.7,106.4 L433.7,105.9 L434.5,105.9 L435.2,105.9 L436.0,105.9 L436.0,105.4 L436.8,105.4 L436.8,105.0 L437.6,105.0 L437.6,104.6 L438.4,104.6 L438.4,104.1 L439.2,104.1 L439.2,103.6 L440.0,103.6 L440.7,103.6 L441.5,103.6 L442.3,103.6 L443.1,103.6 L443.1,103.2 L443.9,103.2 L443.9,102.8 L443.9,102.3 L443.9,101.8 L444.7,101.8 L445.5,101.8 L446.2,101.8 L447.0,101.8 L447.8,101.8 L448.6,101.8 L449.4,101.8 L450.2,101.8 L451.0,101.8 L451.7,101.8 L452.5,101.8 L453.3,101.8 L454.1,101.8 L454.1,101.4 L454.9,101.4 L455.7,101.4 L456.5,101.4 L457.2,101.4 L458.0,101.4 L458.8,101.4 L459.6,101.4 L460.4,101.4 L461.2,101.4 L462.0,101.4 L462.8,101.4 L462.8,100.9 L463.5,100.9 L464.3,100.9 L465.1,100.9 L465.9,100.9 L465.9,100.5 L466.7,100.5 L467.5,100.5 L468.3,100.5 L469.0,100.5 L469.0,100.1 L469.8,100.1 L469.8,99.6 L470.6,99.6 L470.6,99.1 L471.4,99.1 L472.2,99.1 L472.2,98.7 L473.0,98.7 L473.0,98.2 L473.8,98.2 L474.5,98.2 L475.3,98.2 L476.1,98.2 L476.9,98.2 L477.7,98.2 L477.7,97.8 L478.5,97.8 L479.3,97.8 L480.0,97.8 L480.8,97.8 L481.6,97.8 L481.6,97.4 L481.6,96.9 L482.4,96.9 L483.2,96.9 L483.2,96.4 L484.0,96.4 L484.8,96.4 L485.5,96.4 L486.3,96.4 L486.3,96.0 L486.3,95.6 L487.1,95.6 L487.9,95.6 L488.7,95.6 L489.5,95.6 L490.3,95.6 L491.0,95.6 L491.8,95.6 L491.8,95.1 L492.6,95.1 L492.6,94.6 L492.6,94.2 L493.4,94.2 L494.2,94.2 L495.0,94.2 L495.8,94.2 L496.5,94.2 L496.5,93.8 L497.3,93.8 L498.1,93.8 L498.9,93.8 L499.7,93.8 L500.5,93.8 L501.3,93.8 L502.0,93.8 L502.8,93.8 L502.8,93.3 L502.8,92.9 L503.6,92.9 L504.4,92.9 L504.4,92.4 L505.2,92.4 L506.0,92.4 L506.8,92.4 L507.5,92.4 L508.3,92.4 L508.3,91.9 L509.1,91.9 L509.9,91.9 L510.7,91.9 L511.5,91.9 L512.3,91.9 L513.1,91.9 L513.8,91.9 L513.8,91.5 L513.8,91.1 L513.8,90.6 L514.6,90.6 L515.4,90.6 L516.2,90.6 L517.0,90.6 L517.8,90.6 L517.8,90.1 L518.6,90.1 L519.3,90.1 L520.1,90.1 L520.9,90.1 L521.7,90.1 L522.5,90.1 L523.3,90.1 L524.1,90.1 L524.8,90.1 L525.6,90.1 L526.4,90.1 L527.2,90.1 L528.0,90.1 L528.8,90.1 L529.6,90.1 L530.3,90.1 L531.1,90.1 L531.9,90.1 L532.7,90.1 L533.5,90.1 L534.3,90.1 L535.1,90.1 L535.8,90.1 L535.8,89.7 L536.6,89.7 L537.4,89.7 L538.2,89.7 L539.0,89.7 L539.8,89.7 L539.8,89.2 L540.6,89.2 L540.6,88.8 L541.3,88.8 L541.3,88.4 L542.1,88.4 L542.9,88.4 L542.9,87.9 L542.9,87.4 L543.7,87.4 L544.5,87.4 L545.3,87.4 L545.3,87.0 L546.1,87.0 L546.8,87.0 L547.6,87.0 L548.4,87.0 L549.2,87.0 L549.2,86.6 L550.0,86.6 L550.8,86.6 L551.6,86.6 L552.3,86.6 L553.1,86.6 L553.9,86.6 L553.9,86.1 L554.7,86.1 L555.5,86.1 L556.3,86.1 L557.1,86.1 L557.8,86.1 L558.6,86.1 L559.4,86.1 L560.2,86.1 L561.0,86.1 L561.0,85.7 L561.0,85.2 L561.8,85.2 L562.6,85.2 L562.6,84.8 L563.4,84.8 L563.4,84.3 L564.1,84.3 L564.1,83.9 L564.9,83.9 L565.7,83.9 L566.5,83.9 L567.3,83.9 L568.1,83.9 L568.9,83.9 L569.6,83.9 L570.4,83.9 L570.4,83.4 L571.2,83.4 L572.0,83.4 L572.0,82.9 L572.0,82.5 L572.8,82.5 L572.8,82.1 L573.6,82.1 L574.4,82.1 L575.1,82.1 L575.1,81.6 L575.9,81.6 L576.7,81.6 L577.5,81.6 L578.3,81.6 L579.1,81.6 L579.9,81.6 L580.6,81.6 L581.4,81.6 L582.2,81.6 L582.2,81.1 L583.0,81.1 L583.8,81.1 L584.6,81.1 L585.4,81.1 L586.1,81.1 L586.9,81.1 L587.7,81.1 L588.5,81.1 L589.3,81.1 L590.1,81.1 L590.9,81.1 L591.6,81.1 L592.4,81.1 L593.2,81.1 L594.0,81.1 L594.0,80.7 L594.0,80.2 L594.8,80.2 L595.6,80.2 L595.6,79.8 L596.4,79.8 L597.1,79.8 L597.9,79.8 L598.7,79.8 L599.5,79.8 L600.3,79.8 L600.3,79.3 L601.1,79.3 L601.9,79.3 L602.6,79.3 L602.6,78.9 L603.4,78.9 L604.2,78.9 L604.2,78.4 L604.2,78.0 L604.2,77.6 L605.0,77.6 L605.8,77.6 L606.6,77.6 L607.4,77.6 L608.1,77.6 L608.9,77.6 L609.7,77.6 L610.5,77.6 L611.3,77.6 L612.1,77.6 L612.9,77.6 L612.9,77.1 L612.9,76.6 L613.7,76.6 L614.4,76.6 L614.4,76.2 L615.2,76.2 L616.0,76.2 L616.0,75.8 L616.0,75.3 L616.8,75.3 L616.8,74.9 L617.6,74.9 L618.4,74.9 L618.4,74.4 L619.2,74.4 L619.9,74.4 L620.7,74.4 L621.5,74.4 L621.5,73.9 L622.3,73.9 L623.1,73.9 L623.9,73.9 L624.7,73.9 L625.4,73.9 L626.2,73.9 L626.2,73.5 L627.0,73.5 L627.8,73.5 L628.6,73.5 L629.4,73.5 L630.2,73.5 L630.9,73.5 L631.7,73.5 L632.5,73.5 L633.3,73.5 L634.1,73.5 L634.9,73.5 L635.7,73.5 L635.7,73.1 L636.4,73.1 L636.4,72.6 L637.2,72.6 L638.0,72.6 L638.0,72.1 L638.8,72.1 L639.6,72.1 L640.4,72.1 L641.2,72.1 L641.9,72.1 L642.7,72.1 L643.5,72.1 L644.3,72.1 L645.1,72.1 L645.9,72.1 L646.7,72.1 L647.4,72.1 L648.2,72.1 L649.0,72.1 L649.8,72.1 L650.6,72.1 L651.4,72.1 L652.2,72.1 L652.9,72.1 L653.7,72.1 L654.5,72.1 L655.3,72.1 L655.3,71.7 L656.1,71.7 L656.9,71.7 L657.7,71.7 L658.4,71.7 L659.2,71.7 L660.0,71.7 L660.0,71.2 L660.0,70.8 L660.8,70.8 L661.6,70.8 L662.4,70.8 L663.2,70.8 L663.2,70.4 L664.0,70.4 L664.7,70.4 L665.5,70.4 L665.5,69.9 L665.5,69.4 L666.3,69.4 L667.1,69.4 L667.9,69.4 L668.7,69.4 L669.5,69.4 L670.2,69.4 L671.0,69.4 L671.8,69.4 L672.6,69.4 L673.4,69.4 L674.2,69.4 L675.0,69.4 L675.7,69.4 L676.5,69.4 L677.3,69.4 L677.3,69.0 L678.1,69.0 L678.9,69.0 L679.7,69.0 L680.5,69.0 L681.2,69.0 L682.0,69.0 L682.8,69.0 L682.8,68.6 L683.6,68.6 L684.4,68.6 L685.2,68.6 L686.0,68.6 L686.7,68.6 L686.7,68.1 L687.5,68.1 L688.3,68.1 L689.1,68.1 L689.9,68.1 L690.7,68.1 L691.5,68.1 L692.2,68.1 L693.0,68.1 L693.8,68.1 L694.6,68.1 L695.4,68.1 L696.2,68.1 L697.0,68.1 L697.7,68.1 L698.5,68.1 L699.3,68.1 L700.1,68.1 L700.9,68.1 L701.7,68.1 L702.5,68.1 L703.2,68.1 L704.0,68.1 L704.8,68.1 L705.6,68.1 L706.4,68.1 L707.2,68.1 L708.0,68.1 L708.7,68.1 L709.5,68.1 L710.3,68.1 L711.1,68.1 L711.1,67.6 L711.9,67.6 L711.9,67.2 L712.7,67.2 L713.5,67.2 L714.3,67.2 L715.0,67.2 L715.0,66.8 L715.8,66.8 L716.6,66.8 L717.4,66.8 L718.2,66.8 L719.0,66.8 L719.8,66.8 L719.8,66.3 L720.5,66.3 L721.3,66.3 L722.1,66.3 L722.9,66.3 L723.7,66.3 L724.5,66.3 L725.3,66.3 L725.3,65.9 L726.0,65.9 L726.8,65.9 L727.6,65.9 L728.4,65.9 L729.2,65.9 L730.0,65.9 L730.0,65.4 L730.8,65.4 L731.5,65.4 L732.3,65.4 L733.1,65.4 L733.9,65.4 L734.7,65.4 L735.5,65.4 L736.3,65.4 L737.0,65.4 L737.8,65.4 L738.6,65.4 L739.4,65.4 L740.2,65.4 L741.0,65.4 L741.8,65.4 L742.5,65.4 L743.3,65.4 L744.1,65.4 L744.9,65.4 L745.7,65.4 L746.5,65.4 L747.3,65.4 L748.0,65.4 L748.8,65.4 L749.6,65.4 L750.4,65.4 L751.2,65.4 L752.0,65.4 L752.8,65.4 L753.5,65.4 L754.3,65.4 L755.1,65.4 L755.9,65.4 L756.7,65.4 L757.5,65.4 L758.3,65.4 L759.0,65.4 L759.8,65.4 L760.6,65.4 L761.4,65.4 L762.2,65.4 L763.0,65.4 L763.8,65.4 L763.8,64.9 L764.6,64.9 L764.6,64.5 L765.3,64.5 L766.1,64.5 L766.9,64.5 L767.7,64.5 L768.5,64.5 L768.5,64.1 L769.3,64.1 L770.1,64.1 L770.8,64.1 L771.6,64.1 L772.4,64.1 L773.2,64.1 L773.2,63.6 L774.0,63.6 L774.8,63.6 L775.6,63.6 L776.3,63.6 L777.1,63.6 L777.9,63.6 L778.7,63.6 L779.5,63.6 L780.3,63.6 L781.1,63.6 L781.8,63.6 L782.6,63.6 L783.4,63.6 L784.2,63.6 L785.0,63.6 L785.8,63.6 L785.8,63.2 L785.8,62.7 L786.6,62.7 L787.3,62.7 L788.1,62.7 L788.9,62.7 L789.7,62.7 L790.5,62.7 L791.3,62.7 L792.1,62.7 L792.8,62.7 L793.6,62.7 L794.4,62.7 L795.2,62.7 L796.0,62.7 L796.8,62.7 L797.6,62.7 L798.3,62.7 L798.3,62.2 L799.1,62.2 L799.9,62.2 L800.7,62.2 L801.5,62.2 L802.3,62.2 L803.1,62.2 L803.1,61.8 L803.1,61.4 L803.8,61.4 L804.6,61.4 L805.4,61.4 L806.2,61.4 L807.0,61.4 L807.8,61.4 L808.6,61.4 L809.3,61.4 L810.1,61.4 L810.9,61.4 L810.9,60.9 L811.7,60.9 L812.5,60.9 L813.3,60.9 L814.1,60.9 L814.1,60.4 L814.9,60.4 L815.6,60.4 L816.4,60.4 L817.2,60.4 L818.0,60.4 L818.8,60.4 L819.6,60.4 L820.4,60.4 L820.4,60.0 L821.1,60.0 L821.9,60.0 L822.7,60.0 L823.5,60.0 L824.3,60.0 L825.1,60.0 L825.9,60.0 L826.6,60.0 L827.4,60.0 L828.2,60.0 L829.0,60.0 L829.8,60.0 L830.6,60.0 L831.4,60.0 L832.1,60.0 L832.9,60.0 L833.7,60.0 L834.5,60.0 L835.3,60.0 L836.1,60.0 L836.9,60.0 L837.6,60.0 L838.4,60.0 L839.2,60.0 L840.0,60.0 L840.0,60.0" fill="none" stroke="#dc2626" stroke-width="2.5"/>
<rect x="868" y="71" width="14" height="14" fill="#dc2626"/>
<text x="888.0" y="82.0" font-family="monospace" font-size="11" font-weight="400" text-anchor="start" fill="#111827">healthy_control AUC=0.799</text>
</svg>
