<svg xmlns="http://www.w3.org/2000/svg" width="980" height="520" viewBox="0 0 980 520">
<rect width="100%" height="100%" fill="#ffffff"/>
<text x="24.0" y="34.0" font-family="monospace" font-size="18" font-weight="700" text-anchor="start" fill="#111827">ROC: data/runs/ds004504_rbp_paper/smote/ad_vs_healthy</text>
<rect x="80" y="60" width="760" height="360" fill="#f9fafb" stroke="#d1d5db"/>
<line x1="80" x2="840" y1="420.0" y2="420.0" stroke="#e5e7eb"/>
<text x="70.0" y="424.0" font-family="monospace" font-size="10" font-weight="400" text-anchor="end" fill="#111827">0</text>
<line x1="80" x2="840" y1="348.0" y2="348.0" stroke="#e5e7eb"/>
<text x="70.0" y="352.0" font-family="monospace" font-size="10" font-weight="400" text-anchor="end" fill="#111827">0.2</text>
<line x1="80" x2="840" y1="276.0" y2="276.0" stroke="#e5e7eb"/>
<text x="70.0" y="280.0" font-family="monospace" font-size="10" font-weight="400" text-anchor="end" fill="#111827">0.4</text>
<line x1="80" x2="840" y1="204.0" y2="204.0" stroke="#e5e7eb"/>
<text x="70.0" y="208.0" font-family="monospace" font-size="10" font-weight="400" text-anchor="end" fill="#111827">0.6</text>
<line x1="80" x2="840" y1="132.0" y2="132.0" stroke="#e5e7eb"/>
<text x="70.0" y="136.0" font-family="monospace" font-size="10" font-weight="400" text-anchor="end" fill="#111827">0.8</text>
<line x1="80" x2="840" y1="60.0" y2="60.0" stroke="#e5e7eb"/>
<text x="70.0" y="64.0" font-family="monospace" font-size="10" font-weight="400" text-anchor="end" fill="#111827">1</text>
<path d="M80.0,420.0 L80.0,419.6 L80.0,419.3 L80.0,418.9 L80.0,418.5 L80.0,418.1 L80.0,417.8 L80.0,417.4 L80.0,417.0 L80.0,416.6 L80.0,416.3 L80.0,415.9 L80.0,415.5 L80.8,415.5 L80.8,415.2 L80.8,414.8 L80.8,414.4 L80.8,414.0 L80.8,413.7 L80.8,413.3 L80.8,412.9 L80.8,412.6 L80.8,412.2 L80.8,411.8 L80.8,411.4 L80.8,411.1 L80.8,410.7 L80.8,410.3 L80.8,409.9 L80.8,409.6 L80.8,409.2 L80.8,408.8 L80.8,408.5 L80.8,408.1 L80.8,407.7 L80.8,407.3 L80.8,407.0 L80.8,406.6 L80.8,406.2 L80.8,405.9 L80.8,405.5 L80.8,405.1 L80.8,404.7 L80.8,404.4 L80.8,404.0 L80.8,403.6 L80.8,403.2 L80.8,402.9 L81.6,402.9 L81.6,402.5 L81.6,402.1 L81.6,401.8 L81.6,401.4 L81.6,401.0 L81.6,400.6 L81.6,400.3 L81.6,399.9 L81.6,399.5 L81.6,399.2 L81.6,398.8 L82.4,398.8 L82.4,398.4 L82.4,398.0 L82.4,397.7 L82.4,397.3 L82.4,396.9 L82.4,396.5 L82.4,396.2 L82.4,395.8 L82.4,395.4 L83.1,395.4 L83.1,395.1 L83.1,394.7 L83.1,394.3 L83.1,393.9 L83.1,393.6 L83.1,393.2 L83.1,392.8 L83.9,392.8 L83.9,392.5 L83.9,392.1 L83.9,391.7 L83.9,391.3 L83.9,391.0 L83.9,390.6 L83.9,390.2 L83.9,389.8 L83.9,389.5 L83.9,389.1 L83.9,388.7 L84.7,388.7 L84.7,388.4 L84.7,388.0 L84.7,387.6 L84.7,387.2 L84.7,386.9 L84.7,386.5 L84.7,386.1 L85.5,386.1 L85.5,385.7 L85.5,385.4 L85.5,385.0 L85.5,384.6 L85.5,384.3 L85.5,383.9 L85.5,383.5 L85.5,383.1 L85.5,382.8 L85.5,382.4 L86.3,382.4 L86.3,382.0 L86.3,381.7 L86.3,381.3 L86.3,380.9 L86.3,380.5 L86.3,380.2 L86.3,379.8 L86.3,379.4 L86.3,379.0 L86.3,378.7 L86.3,378.3 L86.3,377.9 L87.1,377.9 L87.1,377.6 L87.9,377.6 L87.9,377.2 L87.9,376.8 L87.9,376.4 L87.9,376.1 L87.9,375.7 L87.9,375.3 L87.9,375.0 L87.9,374.6 L87.9,374.2 L87.9,373.8 L87.9,373.5 L87.9,373.1 L87.9,372.7 L87.9,372.3 L87.9,372.0 L87.9,371.6 L87.9,371.2 L87.9,370.9 L88.6,370.9 L89.4,370.9 L89.4,370.5 L90.2,370.5 L90.2,370.1 L90.2,369.7 L90.2,369.4 L90.2,369.0 L90.2,368.6 L90.2,368.3 L90.2,367.9 L90.2,367.5 L90.2,367.1 L90.2,366.8 L90.2,366.4 L90.2,366.0 L90.2,365.6 L90.2,365.3 L90.2,364.9 L90.2,364.5 L90.2,364.2 L90.2,363.8 L90.2,363.4 L91.0,363.4 L91.0,363.0 L91.0,362.7 L91.0,362.3 L91.8,362.3 L91.8,361.9 L91.8,361.6 L91.8,361.2 L91.8,360.8 L92.6,360.8 L92.6,360.4 L92.6,360.1 L92.6,359.7 L93.4,359.7 L94.1,359.7 L94.1,359.3 L94.1,358.9 L94.1,358.6 L94.1,358.2 L94.1,357.8 L94.1,357.5 L94.1,357.1 L94.1,356.7 L94.1,356.3 L94.1,356.0 L94.9,356.0 L94.9,355.6 L94.9,355.2 L94.9,354.9 L94.9,354.5 L95.7,354.5 L95.7,354.1 L95.7,353.7 L95.7,353.4 L96.5,353.4 L96.5,353.0 L96.5,352.6 L96.5,352.2 L96.5,351.9 L97.3,351.9 L98.1,351.9 L98.1,351.5 L98.1,351.1 L98.1,350.8 L98.9,350.8 L98.9,350.4 L98.9,350.0 L98.9,349.6 L98.9,349.3 L99.6,349.3 L99.6,348.9 L99.6,348.5 L99.6,348.1 L99.6,347.8 L99.6,347.4 L99.6,347.0 L99.6,346.7 L99.6,346.3 L99.6,345.9 L99.6,345.5 L99.6,345.2 L99.6,344.8 L99.6,344.4 L99.6,344.1 L99.6,343.7 L99.6,343.3 L100.4,343.3 L100.4,342.9 L100.4,342.6 L100.4,342.2 L100.4,341.8 L100.4,341.4 L100.4,341.1 L100.4,340.7 L100.4,340.3 L100.4,340.0 L100.4,339.6 L100.4,339.2 L101.2,339.2 L101.2,338.8 L101.2,338.5 L101.2,338.1 L101.2,337.7 L101.2,337.4 L101.2,337.0 L102.0,337.0 L102.0,336.6 L102.8,336.6 L102.8,336.2 L102.8,335.9 L102.8,335.5 L103.6,335.5 L103.6,335.1 L103.6,334.7 L103.6,334.4 L104.4,334.4 L104.4,334.0 L104.4,333.6 L104.4,333.3 L105.1,333.3 L105.1,332.9 L105.1,332.5 L105.1,332.1 L105.1,331.8 L105.9,331.8 L105.9,331.4 L105.9,331.0 L105.9,330.7 L105.9,330.3 L105.9,329.9 L106.7,329.9 L106.7,329.5 L106.7,329.2 L107.5,329.2 L107.5,328.8 L107.5,328.4 L107.5,328.0 L107.5,327.7 L107.5,327.3 L107.5,326.9 L107.5,326.6 L107.5,326.2 L107.5,325.8 L107.5,325.4 L107.5,325.1 L108.3,325.1 L108.3,324.7 L108.3,324.3 L108.3,324.0 L108.3,323.6 L108.3,323.2 L109.1,323.2 L109.1,322.8 L109.1,322.5 L109.1,322.1 L109.1,321.7 L109.1,321.3 L109.1,321.0 L109.1,320.6 L109.1,320.2 L109.1,319.9 L109.1,319.5 L109.1,319.1 L109.1,318.7 L109.1,318.4 L109.9,318.4 L109.9,318.0 L109.9,317.6 L110.7,317.6 L110.7,317.2 L110.7,316.9 L111.4,316.9 L111.4,316.5 L111.4,316.1 L111.4,315.8 L111.4,315.4 L111.4,315.0 L111.4,314.6 L112.2,314.6 L113.0,314.6 L113.8,314.6 L113.8,314.3 L113.8,313.9 L113.8,313.5 L113.8,313.2 L113.8,312.8 L113.8,312.4 L113.8,312.0 L113.8,311.7 L114.6,311.7 L114.6,311.3 L114.6,310.9 L114.6,310.5 L114.6,310.2 L115.4,310.2 L116.2,310.2 L116.2,309.8 L116.2,309.4 L116.9,309.4 L116.9,309.1 L117.7,309.1 L117.7,308.7 L117.7,308.3 L117.7,307.9 L118.5,307.9 L119.3,307.9 L119.3,307.6 L119.3,307.2 L119.3,306.8 L119.3,306.5 L120.1,306.5 L120.1,306.1 L120.1,305.7 L120.1,305.3 L120.1,305.0 L120.9,305.0 L120.9,304.6 L120.9,304.2 L120.9,303.8 L121.7,303.8 L121.7,303.5 L122.4,303.5 L123.2,303.5 L123.2,303.1 L123.2,302.7 L123.2,302.4 L124.0,302.4 L124.8,302.4 L125.6,302.4 L125.6,302.0 L125.6,301.6 L125.6,301.2 L125.6,300.9 L126.4,300.9 L126.4,300.5 L126.4,300.1 L127.2,300.1 L127.2,299.8 L127.9,299.8 L128.7,299.8 L128.7,299.4 L129.5,299.4 L130.3,299.4 L130.3,299.0 L130.3,298.6 L130.3,298.3 L130.3,297.9 L131.1,297.9 L131.1,297.5 L131.1,297.1 L131.9,297.1 L131.9,296.8 L132.7,296.8 L132.7,296.4 L132.7,296.0 L133.4,296.0 L133.4,295.7 L133.4,295.3 L133.4,294.9 L134.2,294.9 L135.0,294.9 L135.8,294.9 L135.8,294.5 L136.6,294.5 L136.6,294.2 L136.6,293.8 L136.6,293.4 L136.6,293.1 L137.4,293.1 L137.4,292.7 L138.2,292.7 L138.2,292.3 L138.2,291.9 L138.2,291.6 L138.2,291.2 L138.9,291.2 L138.9,290.8 L139.7,290.8 L139.7,290.4 L139.7,290.1 L139.7,289.7 L140.5,289.7 L141.3,289.7 L141.3,289.3 L141.3,289.0 L141.3,288.6 L141.3,288.2 L141.3,287.8 L141.3,287.5 L141.3,287.1 L141.3,286.7 L142.1,286.7 L142.9,286.7 L142.9,286.3 L143.7,286.3 L143.7,286.0 L143.7,285.6 L143.7,285.2 L144.4,285.2 L144.4,284.9 L144.4,284.5 L144.4,284.1 L145.2,284.1 L146.0,284.1 L146.8,284.1 L146.8,283.7 L147.6,283.7 L148.4,283.7 L148.4,283.4 L148.4,283.0 L148.4,282.6 L148.4,282.3 L148.4,281.9 L148.4,281.5 L148.4,281.1 L148.4,280.8 L148.4,280.4 L148.4,280.0 L149.2,280.0 L149.2,279.6 L149.9,279.6 L149.9,279.3 L149.9,278.9 L149.9,278.5 L149.9,278.2 L149.9,277.8 L149.9,277.4 L150.7,277.4 L150.7,277.0 L150.7,276.7 L150.7,276.3 L150.7,275.9 L150.7,275.6 L150.7,275.2 L151.5,275.2 L152.3,275.2 L153.1,275.2 L153.1,274.8 L153.9,274.8 L154.7,274.8 L154.7,274.4 L154.7,274.1 L154.7,273.7 L154.7,273.3 L154.7,272.9 L154.7,272.6 L155.4,272.6 L155.4,272.2 L156.2,272.2 L157.0,272.2 L157.0,271.8 L157.0,271.5 L157.8,271.5 L157.8,271.1 L158.6,271.1 L159.4,271.1 L160.2,271.1 L160.2,270.7 L160.2,270.3 L160.2,270.0 L161.0,270.0 L161.0,269.6 L161.7,269.6 L161.7,269.2 L162.5,269.2 L162.5,268.9 L162.5,268.5 L163.3,268.5 L163.3,268.1 L164.1,268.1 L164.1,267.7 L164.9,267.7 L164.9,267.4 L164.9,267.0 L164.9,266.6 L164.9,266.2 L164.9,265.9 L164.9,265.5 L164.9,265.1 L165.7,265.1 L165.7,264.8 L165.7,264.4 L165.7,264.0 L165.7,263.6 L165.7,263.3 L166.5,263.3 L166.5,262.9 L167.2,262.9 L167.2,262.5 L167.2,262.2 L168.0,262.2 L168.0,261.8 L168.8,261.8 L169.6,261.8 L170.4,261.8 L171.2,261.8 L171.2,261.4 L172.0,261.4 L172.7,261.4 L172.7,261.0 L173.5,261.0 L174.3,261.0 L174.3,260.7 L174.3,260.3 L174.3,259.9 L174.3,259.5 L175.1,259.5 L175.1,259.2 L175.9,259.2 L175.9,258.8 L175.9,258.4 L175.9,258.1 L175.9,257.7 L175.9,257.3 L175.9,256.9 L175.9,256.6 L175.9,256.2 L176.7,256.2 L176.7,255.8 L176.7,255.4 L176.7,255.1 L176.7,254.7 L176.7,254.3 L176.7,254.0 L176.7,253.6 L176.7,253.2 L176.7,252.8 L176.7,252.5 L176.7,252.1 L176.7,251.7 L176.7,251.4 L176.7,251.0 L176.7,250.6 L176.7,250.2 L176.7,249.9 L176.7,249.5 L176.7,249.1 L176.7,248.7 L176.7,248.4 L176.7,248.0 L177.5,248.0 L177.5,247.6 L177.5,247.3 L177.5,246.9 L178.2,246.9 L178.2,246.5 L178.2,246.1 L178.2,245.8 L178.2,245.4 L179.0,245.4 L179.0,245.0 L179.0,244.7 L179.0,244.3 L179.8,244.3 L180.6,244.3 L180.6,243.9 L180.6,243.5 L180.6,243.2 L180.6,242.8 L180.6,242.4 L180.6,242.0 L180.6,241.7 L180.6,241.3 L181.4,241.3 L181.4,240.9 L181.4,240.6 L182.2,240.6 L182.2,240.2 L182.2,239.8 L183.0,239.8 L183.7,239.8 L183.7,239.4 L184.5,239.4 L185.3,239.4 L185.3,239.1 L186.1,239.1 L186.1,238.7 L186.1,238.3 L186.9,238.3 L187.7,238.3 L188.5,238.3 L188.5,238.0 L188.5,237.6 L188.5,237.2 L188.5,236.8 L188.5,236.5 L189.2,236.5 L189.2,236.1 L189.2,235.7 L189.2,235.3 L189.2,235.0 L189.2,234.6 L190.0,234.6 L190.8,234.6 L190.8,234.2 L190.8,233.9 L190.8,233.5 L190.8,233.1 L190.8,232.7 L191.6,232.7 L192.4,232.7 L192.4,232.4 L192.4,232.0 L193.2,232.0 L194.0,232.0 L194.0,231.6 L194.0,231.3 L194.0,230.9 L194.0,230.5 L194.7,230.5 L194.7,230.1 L195.5,230.1 L195.5,229.8 L196.3,229.8 L197.1,229.8 L197.1,229.4 L197.1,229.0 L197.9,229.0 L198.7,229.0 L199.5,229.0 L200.2,229.0 L200.2,228.6 L200.2,228.3 L200.2,227.9 L201.0,227.9 L201.0,227.5 L201.0,227.2 L201.8,227.2 L201.8,226.8 L201.8,226.4 L201.8,226.0 L201.8,225.7 L201.8,225.3 L201.8,224.9 L202.6,224.9 L203.4,224.9 L203.4,224.6 L203.4,224.2 L204.2,224.2 L204.2,223.8 L204.2,223.4 L204.2,223.1 L204.2,222.7 L204.2,222.3 L205.0,222.3 L205.0,221.9 L205.0,221.6 L205.0,221.2 L205.7,221.2 L205.7,220.8 L205.7,220.5 L205.7,220.1 L206.5,220.1 L207.3,220.1 L207.3,219.7 L208.1,219.7 L208.9,219.7 L208.9,219.3 L208.9,219.0 L209.7,219.0 L210.5,219.0 L211.3,219.0 L212.0,219.0 L212.0,218.6 L212.0,218.2 L212.8,218.2 L212.8,217.8 L212.8,217.5 L213.6,217.5 L213.6,217.1 L214.4,217.1 L214.4,216.7 L214.4,216.4 L215.2,216.4 L215.2,216.0 L216.0,216.0 L216.0,215.6 L216.0,215.2 L216.0,214.9 L216.8,214.9 L216.8,214.5 L217.5,214.5 L218.3,214.5 L219.1,214.5 L219.1,214.1 L219.9,214.1 L219.9,213.8 L219.9,213.4 L219.9,213.0 L219.9,212.6 L219.9,212.3 L219.9,211.9 L219.9,211.5 L220.7,211.5 L220.7,211.1 L221.5,211.1 L221.5,210.8 L222.3,210.8 L223.0,210.8 L223.0,210.4 L223.8,210.4 L224.6,210.4 L224.6,210.0 L224.6,209.7 L224.6,209.3 L224.6,208.9 L224.6,208.5 L224.6,208.2 L225.4,208.2 L226.2,208.2 L227.0,208.2 L227.0,207.8 L227.8,207.8 L227.8,207.4 L228.5,207.4 L228.5,207.1 L228.5,206.7 L229.3,206.7 L230.1,206.7 L230.9,206.7 L231.7,206.7 L231.7,206.3 L232.5,206.3 L232.5,205.9 L233.3,205.9 L233.3,205.6 L233.3,205.2 L234.0,205.2 L234.8,205.2 L234.8,204.8 L234.8,204.4 L234.8,204.1 L235.6,204.1 L235.6,203.7 L235.6,203.3 L235.6,203.0 L236.4,203.0 L237.2,203.0 L238.0,203.0 L238.0,202.6 L238.0,202.2 L238.0,201.8 L238.8,201.8 L239.5,201.8 L239.5,201.5 L240.3,201.5 L240.3,201.1 L240.3,200.7 L241.1,200.7 L241.1,200.4 L241.1,200.0 L241.9,200.0 L242.7,200.0 L242.7,199.6 L242.7,199.2 L243.5,199.2 L244.3,199.2 L244.3,198.9 L244.3,198.5 L245.0,198.5 L245.0,198.1 L245.0,197.7 L245.8,197.7 L246.6,197.7 L247.4,197.7 L247.4,197.4 L247.4,197.0 L247.4,196.6 L248.2,196.6 L248.2,196.3 L249.0,196.3 L249.0,195.9 L249.0,195.5 L249.0,195.1 L249.0,194.8 L249.0,194.4 L249.0,194.0 L249.0,193.7 L249.0,193.3 L249.8,193.3 L249.8,192.9 L250.5,192.9 L250.5,192.5 L250.5,192.2 L250.5,191.8 L250.5,191.4 L250.5,191.0 L250.5,190.7 L250.5,190.3 L250.5,189.9 L250.5,189.6 L250.5,189.2 L250.5,188.8 L251.3,188.8 L251.3,188.4 L252.1,188.4 L252.9,188.4 L252.9,188.1 L253.7,188.1 L254.5,188.1 L255.3,188.1 L255.3,187.7 L255.3,187.3 L255.3,186.9 L255.3,186.6 L255.3,186.2 L255.3,185.8 L255.3,185.5 L255.3,185.1 L256.0,185.1 L256.0,184.7 L256.8,184.7 L257.6,184.7 L257.6,184.3 L257.6,184.0 L257.6,183.6 L258.4,183.6 L259.2,183.6 L260.0,183.6 L260.8,183.6 L261.6,183.6 L262.3,183.6 L263.1,183.6 L263.1,183.2 L263.1,182.9 L263.9,182.9 L264.7,182.9 L264.7,182.5 L265.5,182.5 L265.5,182.1 L266.3,182.1 L266.3,181.7 L266.3,181.4 L267.1,181.4 L267.8,181.4 L267.8,181.0 L268.6,181.0 L269.4,181.0 L269.4,180.6 L269.4,180.2 L269.4,179.9 L269.4,179.5 L270.2,179.5 L270.2,179.1 L270.2,178.8 L271.0,178.8 L271.8,178.8 L272.6,178.8 L273.3,178.8 L273.3,178.4 L273.3,178.0 L273.3,177.6 L274.1,177.6 L274.9,177.6 L274.9,177.3 L275.7,177.3 L275.7,176.9 L276.5,176.9 L277.3,176.9 L278.1,176.9 L278.8,176.9 L279.6,176.9 L279.6,176.5 L279.6,176.2 L280.4,176.2 L280.4,175.8 L281.2,175.8 L282.0,175.8 L282.0,175.4 L282.0,175.0 L282.0,174.7 L282.8,174.7 L283.6,174.7 L283.6,174.3 L283.6,173.9 L283.6,173.5 L283.6,173.2 L284.3,173.2 L285.1,173.2 L285.9,173.2 L286.7,173.2 L286.7,172.8 L287.5,172.8 L287.5,172.4 L288.3,172.4 L288.3,172.1 L289.1,172.1 L289.8,172.1 L290.6,172.1 L290.6,171.7 L290.6,171.3 L290.6,170.9 L290.6,170.6 L290.6,170.2 L290.6,169.8 L290.6,169.5 L291.4,169.5 L292.2,169.5 L292.2,169.1 L293.0,169.1 L293.8,169.1 L294.6,169.1 L294.6,168.7 L295.3,168.7 L296.1,168.7 L296.9,168.7 L297.7,168.7 L298.5,168.7 L298.5,168.3 L298.5,168.0 L299.3,168.0 L300.1,168.0 L300.1,167.6 L300.8,167.6 L301.6,167.6 L302.4,167.6 L302.4,167.2 L303.2,167.2 L304.0,167.2 L304.8,167.2 L304.8,166.8 L304.8,166.5 L304.8,166.1 L305.6,166.1 L305.6,165.7 L305.6,165.4 L305.6,165.0 L306.3,165.0 L307.1,165.0 L307.1,164.6 L307.9,164.6 L307.9,164.2 L308.7,164.2 L308.7,163.9 L309.5,163.9 L309.5,163.5 L309.5,163.1 L310.3,163.1 L310.3,162.8 L311.1,162.8 L311.1,162.4 L311.9,162.4 L311.9,162.0 L312.6,162.0 L312.6,161.6 L312.6,161.3 L312.6,160.9 L312.6,160.5 L312.6,160.1 L313.4,160.1 L314.2,160.1 L315.0,160.1 L315.0,159.8 L315.0,159.4 L315.8,159.4 L316.6,159.4 L317.4,159.4 L318.1,159.4 L318.1,159.0 L318.9,159.0 L319.7,159.0 L319.7,158.7 L319.7,158.3 L320.5,158.3 L321.3,158.3 L322.1,158.3 L322.1,157.9 L322.9,157.9 L322.9,157.5 L322.9,157.2 L322.9,156.8 L322.9,156.4 L322.9,156.0 L322.9,155.7 L323.6,155.7 L324.4,155.7 L325.2,155.7 L326.0,155.7 L326.8,155.7 L326.8,155.3 L327.6,155.3 L327.6,154.9 L327.6,154.6 L328.4,154.6 L329.1,154.6 L329.1,154.2 L329.1,153.8 L329.9,153.8 L330.7,153.8 L331.5,153.8 L331.5,153.4 L332.3,153.4 L333.1,153.4 L333.9,153.4 L333.9,153.1 L333.9,152.7 L333.9,152.3 L334.6,152.3 L335.4,152.3 L336.2,152.3 L336.2,152.0 L336.2,151.6 L337.0,151.6 L337.0,151.2 L337.8,151.2 L338.6,151.2 L338.6,150.8 L339.4,150.8 L340.1,150.8 L340.1,150.5 L340.9,150.5 L340.9,150.1 L341.7,150.1 L342.5,150.1 L342.5,149.7 L343.3,149.7 L344.1,149.7 L344.9,149.7 L345.6,149.7 L346.4,149.7 L346.4,149.3 L347.2,149.3 L348.0,149.3 L348.8,149.3 L348.8,149.0 L348.8,148.6 L349.6,148.6 L349.6,148.2 L350.4,148.2 L351.1,148.2 L351.1,147.9 L351.9,147.9 L352.7,147.9 L353.5,147.9 L353.5,147.5 L353.5,147.1 L353.5,146.7 L353.5,146.4 L353.5,146.0 L354.3,146.0 L354.3,145.6 L355.1,145.6 L355.1,145.3 L355.1,144.9 L355.1,144.5 L355.9,144.5 L356.6,144.5 L357.4,144.5 L358.2,144.5 L358.2,144.1 L359.0,144.1 L359.0,143.8 L359.8,143.8 L359.8,143.4 L360.6,143.4 L360.6,143.0 L360.6,142.6 L361.4,142.6 L361.4,142.3 L361.4,141.9 L361.4,141.5 L362.2,141.5 L362.9,141.5 L363.7,141.5 L364.5,141.5 L364.5,141.2 L365.3,141.2 L366.1,141.2 L366.9,141.2 L367.7,141.2 L368.4,141.2 L369.2,141.2 L370.0,141.2 L370.8,141.2 L371.6,141.2 L371.6,140.8 L372.4,140.8 L373.2,140.8 L373.9,140.8 L373.9,140.4 L374.7,140.4 L375.5,140.4 L375.5,140.0 L376.3,140.0 L376.3,139.7 L376.3,139.3 L377.1,139.3 L377.9,139.3 L377.9,138.9 L378.7,138.9 L379.4,138.9 L379.4,138.6 L380.2,138.6 L380.2,138.2 L381.0,138.2 L381.8,138.2 L382.6,138.2 L383.4,138.2 L383.4,137.8 L384.2,137.8 L384.2,137.4 L384.9,137.4 L385.7,137.4 L385.7,137.1 L385.7,136.7 L386.5,136.7 L387.3,136.7 L388.1,136.7 L388.1,136.3 L388.1,135.9 L388.1,135.6 L388.9,135.6 L389.7,135.6 L389.7,135.2 L390.4,135.2 L391.2,135.2 L392.0,135.2 L392.8,135.2 L392.8,134.8 L393.6,134.8 L393.6,134.5 L394.4,134.5 L395.2,134.5 L395.9,134.5 L395.9,134.1 L395.9,133.7 L396.7,133.7 L397.5,133.7 L398.3,133.7 L399.1,133.7 L399.9,133.7 L399.9,133.3 L399.9,133.0 L400.7,133.0 L401.4,133.0 L401.4,132.6 L401.4,132.2 L401.4,131.9 L402.2,131.9 L402.2,131.5 L402.2,131.1 L403.0,131.1 L403.8,131.1 L404.6,131.1 L404.6,130.7 L404.6,130.4 L404.6,130.0 L404.6,129.6 L405.4,129.6 L406.2,129.6 L406.2,129.2 L406.9,129.2 L407.7,129.2 L407.7,128.9 L408.5,128.9 L409.3,128.9 L409.3,128.5 L410.1,128.5 L410.9,128.5 L411.7,128.5 L412.5,128.5 L413.2,128.5 L413.2,128.1 L413.2,127.8 L414.0,127.8 L414.8,127.8 L415.6,127.8 L415.6,127.4 L415.6,127.0 L415.6,126.6 L415.6,126.3 L416.4,126.3 L416.4,125.9 L416.4,125.5 L417.2,125.5 L418.0,125.5 L418.0,125.1 L418.7,125.1 L419.5,125.1 L419.5,124.8 L419.5,124.4 L420.3,124.4 L420.3,124.0 L421.1,124.0 L421.9,124.0 L422.7,124.0 L423.5,124.0 L423.5,123.7 L424.2,123.7 L425.0,123.7 L425.8,123.7 L426.6,123.7 L426.6,123.3 L427.4,123.3 L428.2,123.3 L429.0,123.3 L429.7,123.3 L429.7,122.9 L430.5,122.9 L430.5,122.5 L430.5,122.2 L431.3,122.2 L432.1,122.2 L432.9,122.2 L433.7,122.2 L433.7,121.8 L434.5,121.8 L434.5,121.4 L434.5,121.1 L435.2,121.1 L436.0,121.1 L436.0,120.7 L436.8,120.7 L437.6,120.7 L438.4,120.7 L439.2,120.7 L440.0,120.7 L440.7,120.7 L441.5,120.7 L442.3,120.7 L443.1,120.7 L443.9,120.7 L443.9,120.3 L444.7,120.3 L444.7,119.9 L444.7,119.6 L445.5,119.6 L446.2,119.6 L447.0,119.6 L447.8,119.6 L448.6,119.6 L449.4,119.6 L450.2,119.6 L451.0,119.6 L451.7,119.6 L451.7,119.2 L451.7,118.8 L452.5,118.8 L453.3,118.8 L453.3,118.4 L453.3,118.1 L454.1,118.1 L454.9,118.1 L455.7,118.1 L456.5,118.1 L457.2,118.1 L458.0,118.1 L458.0,117.7 L458.0,117.3 L458.0,117.0 L458.8,117.0 L459.6,117.0 L460.4,117.0 L461.2,117.0 L461.2,116.6 L462.0,116.6 L462.8,116.6 L463.5,116.6 L463.5,116.2 L464.3,116.2 L465.1,116.2 L465.1,115.8 L465.9,115.8 L465.9,115.5 L466.7,115.5 L467.5,115.5 L468.3,115.5 L469.0,115.5 L469.8,115.5 L470.6,115.5 L471.4,115.5 L471.4,115.1 L472.2,115.1 L473.0,115.1 L473.0,114.7 L473.8,114.7 L473.8,114.4 L474.5,114.4 L475.3,114.4 L476.1,114.4 L476.1,114.0 L476.1,113.6 L476.9,113.6 L476.9,113.2 L476.9,112.9 L476.9,112.5 L477.7,112.5 L478.5,112.5 L478.5,112.1 L479.3,112.1 L479.3,111.7 L480.0,111.7 L480.8,111.7 L481.6,111.7 L481.6,111.4 L482.4,111.4 L482.4,111.0 L482.4,110.6 L483.2,110.6 L483.2,110.3 L484.0,110.3 L484.8,110.3 L485.5,110.3 L486.3,110.3 L486.3,109.9 L487.1,109.9 L487.9,109.9 L488.7,109.9 L489.5,109.9 L490.3,109.9 L490.3,109.5 L491.0,109.5 L491.0,109.1 L491.8,109.1 L492.6,109.1 L493.4,109.1 L494.2,109.1 L495.0,109.1 L495.8,109.1 L496.5,109.1 L496.5,108.8 L497.3,108.8 L498.1,108.8 L498.9,108.8 L499.7,108.8 L500.5,108.8 L500.5,108.4 L501.3,108.4 L502.0,108.4 L502.8,108.4 L503.6,108.4 L503.6,108.0 L504.4,108.0 L505.2,108.0 L506.0,108.0 L506.8,108.0 L507.5,108.0 L508.3,108.0 L509.1,108.0 L509.9,108.0 L509.9,107.7 L509.9,107.3 L510.7,107.3 L511.5,107.3 L511.5,106.9 L512.3,106.9 L512.3,106.5 L513.1,106.5 L513.8,106.5 L514.6,106.5 L515.4,106.5 L516.2,106.5 L517.0,106.5 L517.0,106.2 L517.8,106.2 L518.6,106.2 L519.3,106.2 L520.1,106.2 L520.1,105.8 L520.1,105.4 L520.1,105.0 L520.9,105.0 L521.7,105.0 L521.7,104.7 L521.7,104.3 L521.7,103.9 L522.5,103.9 L523.3,103.9 L524.1,103.9 L524.8,103.9 L525.6,103.9 L526.4,103.9 L527.2,103.9 L528.0,103.9 L528.8,103.9 L529.6,103.9 L529.6,103.6 L530.3,103.6 L530.3,103.2 L530.3,102.8 L531.1,102.8 L531.9,102.8 L532.7,102.8 L533.5,102.8 L534.3,102.8 L535.1,102.8 L535.8,102.8 L536.6,102.8 L536.6,102.4 L537.4,102.4 L537.4,102.1 L538.2,102.1 L538.2,101.7 L539.0,101.7 L539.0,101.3 L539.8,101.3 L540.6,101.3 L540.6,101.0 L540.6,100.6 L541.3,100.6 L542.1,100.6 L542.1,100.2 L542.9,100.2 L542.9,99.8 L543.7,99.8 L544.5,99.8 L545.3,99.8 L546.1,99.8 L546.8,99.8 L547.6,99.8 L548.4,99.8 L549.2,99.8 L550.0,99.8 L550.0,99.5 L550.8,99.5 L551.6,99.5 L551.6,99.1 L552.3,99.1 L553.1,99.1 L553.9,99.1 L554.7,99.1 L555.5,99.1 L555.5,98.7 L556.3,98.7 L557.1,98.7 L557.1,98.3 L557.8,98.3 L558.6,98.3 L558.6,98.0 L559.4,98.0 L559.4,97.6 L560.2,97.6 L561.0,97.6 L561.8,97.6 L562.6,97.6 L563.4,97.6 L564.1,97.6 L564.1,97.2 L564.9,97.2 L565.7,97.2 L565.7,96.9 L566.5,96.9 L566.5,96.5 L567.3,96.5 L567.3,96.1 L568.1,96.1 L568.1,95.7 L568.9,95.7 L568.9,95.4 L568.9,95.0 L569.6,95.0 L570.4,95.0 L571.2,95.0 L572.0,95.0 L572.8,95.0 L572.8,94.6 L573.6,94.6 L574.4,94.6 L575.1,94.6 L575.9,94.6 L576.7,94.6 L577.5,94.6 L578.3,94.6 L578.3,94.3 L579.1,94.3 L579.1,93.9 L579.1,93.5 L579.9,93.5 L580.6,93.5 L580.6,93.1 L581.4,93.1 L582.2,93.1 L583.0,93.1 L583.8,93.1 L584.6,93.1 L585.4,93.1 L586.1,93.1 L586.1,92.8 L586.9,92.8 L586.9,92.4 L586.9,92.0 L587.7,92.0 L588.5,92.0 L589.3,92.0 L590.1,92.0 L590.9,92.0 L591.6,92.0 L592.4,92.0 L592.4,91.6 L593.2,91.6 L594.0,91.6 L594.0,91.3 L594.8,91.3 L595.6,91.3 L596.4,91.3 L597.1,91.3 L597.1,90.9 L597.9,90.9 L598.7,90.9 L599.5,90.9 L600.3,90.9 L601.1,90.9 L601.1,90.5 L601.9,90.5 L602.6,90.5 L602.6,90.2 L603.4,90.2 L603.4,89.8 L604.2,89.8 L605.0,89.8 L605.8,89.8 L605.8,89.4 L606.6,89.4 L606.6,89.0 L606.6,88.7 L606.6,88.3 L606.6,87.9 L607.4,87.9 L608.1,87.9 L608.1,87.5 L608.9,87.5 L609.7,87.5 L610.5,87.5 L611.3,87.5 L612.1,87.5 L612.9,87.5 L613.7,87.5 L614.4,87.5 L615.2,87.5 L616.0,87.5 L616.8,87.5 L617.6,87.5 L618.4,87.5 L618.4,87.2 L619.2,87.2 L619.9,87.2 L620.7,87.2 L621.5,87.2 L621.5,86.8 L622.3,86.8 L622.3,86.4 L622.3,86.1 L623.1,86.1 L623.9,86.1 L623.9,85.7 L624.7,85.7 L624.7,85.3 L625.4,85.3 L626.2,85.3 L627.0,85.3 L627.8,85.3 L628.6,85.3 L629.4,85.3 L630.2,85.3 L630.9,85.3 L631.7,85.3 L632.5,85.3 L632.5,84.9 L633.3,84.9 L634.1,84.9 L634.9,84.9 L635.7,84.9 L636.4,84.9 L636.4,84.6 L637.2,84.6 L638.0,84.6 L638.8,84.6 L639.6,84.6 L639.6,84.2 L640.4,84.2 L641.2,84.2 L641.2,83.8 L641.2,83.5 L641.9,83.5 L642.7,83.5 L643.5,83.5 L644.3,83.5 L645.1,83.5 L645.9,83.5 L646.7,83.5 L647.4,83.5 L648.2,83.5 L648.2,83.1 L649.0,83.1 L649.0,82.7 L649.8,82.7 L650.6,82.7 L651.4,82.7 L651.4,82.3 L652.2,82.3 L652.9,82.3 L653.7,82.3 L654.5,82.3 L655.3,82.3 L655.3,82.0 L656.1,82.0 L656.9,82.0 L657.7,82.0 L658.4,82.0 L659.2,82.0 L660.0,82.0 L660.8,82.0 L661.6,82.0 L661.6,81.6 L662.4,81.6 L663.2,81.6 L664.0,81.6 L664.7,81.6 L665.5,81.6 L666.3,81.6 L666.3,81.2 L666.3,80.8 L667.1,80.8 L667.9,80.8 L668.7,80.8 L669.5,80.8 L670.2,80.8 L671.0,80.8 L671.8,80.8 L672.6,80.8 L672.6,80.5 L672.6,80.1 L672.6,79.7 L673.4,79.7 L673.4,79.4 L674.2,79.4 L675.0,79.4 L675.0,79.0 L675.7,79.0 L676.5,79.0 L676.5,78.6 L677.3,78.6 L678.1,78.6 L678.9,78.6 L678.9,78.2 L679.7,78.2 L680.5,78.2 L681.2,78.2 L682.0,78.2 L682.8,78.2 L683.6,78.2 L684.4,78.2 L685.2,78.2 L686.0,78.2 L686.7,78.2 L687.5,78.2 L688.3,78.2 L689.1,78.2 L689.9,78.2 L689.9,77.9 L690.7,77.9 L691.5,77.9 L691.5,77.5 L691.5,77.1 L692.2,77.1 L693.0,77.1 L693.0,76.8 L693.8,76.8 L694.6,76.8 L695.4,76.8 L696.2,76.8 L697.0,76.8 L697.0,76.4 L697.7,76.4 L698.5,76.4 L698.5,76.0 L699.3,76.0 L700.1,76.0 L700.9,76.0 L701.7,76.0 L702.5,76.0 L703.2,76.0 L703.2,75.6 L704.0,75.6 L704.8,75.6 L705.6,75.6 L706.4,75.6 L707.2,75.6 L708.0,75.6 L708.7,75.6 L709.5,75.6 L710.3,75.6 L710.3,75.3 L711.1,75.3 L711.9,75.3 L712.7,75.3 L713.5,75.3 L714.3,75.3 L715.0,75.3 L715.8,75.3 L715.8,74.9 L716.6,74.9 L716.6,74.5 L717.4,74.5 L718.2,74.5 L718.2,74.1 L719.0,74.1 L719.8,74.1 L720.5,74.1 L721.3,74.1 L722.1,74.1 L722.9,74.1 L723.7,74.1 L724.5,74.1 L725.3,74.1 L726.0,74.1 L726.8,74.1 L727.6,74.1 L728.4,74.1 L729.2,74.1 L730.0,74.1 L730.8,74.1 L731.5,74.1 L732.3,74.1 L733.1,74.1 L733.1,73.8 L733.9,73.8 L734.7,73.8 L735.5,73.8 L735.5,73.4 L735.5,73.0 L736.3,73.0 L737.0,73.0 L737.8,73.0 L737.8,72.7 L738.6,72.7 L739.4,72.7 L739.4,72.3 L740.2,72.3 L740.2,71.9 L741.0,71.9 L741.8,71.9 L742.5,71.9 L743.3,71.9 L744.1,71.9 L744.9,71.9 L744.9,71.5 L745.7,71.5 L746.5,71.5 L747.3,71.5 L748.0,71.5 L748.8,71.5 L748.8,71.2 L749.6,71.2 L750.4,71.2 L751.2,71.2 L752.0,71.2 L752.0,70.8 L752.0,70.4 L752.0,70.1 L752.0,69.7 L752.8,69.7 L753.5,69.7 L754.3,69.7 L754.3,69.3 L754.3,68.9 L755.1,68.9 L755.9,68.9 L756.7,68.9 L757.5,68.9 L757.5,68.6 L758.3,68.6 L758.3,68.2 L759.0,68.2 L759.8,68.2 L759.8,67.8 L760.6,67.8 L761.4,67.8 L761.4,67.4 L762.2,67.4 L763.0,67.4 L763.8,67.4 L764.6,67.4 L764.6,67.1 L765.3,67.1 L766.1,67.1 L766.9,67.1 L767.7,67.1 L768.5,67.1 L769.3,67.1 L770.1,67.1 L770.8,67.1 L771.6,67.1 L772.4,67.1 L772.4,66.7 L773.2,66.7 L773.2,66.3 L774.0,66.3 L774.8,66.3 L775.6,66.3 L775.6,66.0 L776.3,66.0 L776.3,65.6 L776.3,65.2 L777.1,65.2 L777.9,65.2 L778.7,65.2 L778.7,64.8 L778.7,64.5 L778.7,64.1 L779.5,64.1 L780.3,64.1 L781.1,64.1 L781.8,64.1 L782.6,64.1 L783.4,64.1 L784.2,64.1 L785.0,64.1 L785.0,63.7 L785.8,63.7 L786.6,63.7 L787.3,63.7 L788.1,63.7 L788.9,63.7 L789.7,63.7 L790.5,63.7 L791.3,63.7 L791.3,63.4 L792.1,63.4 L792.8,63.4 L793.6,63.4 L794.4,63.4 L795.2,63.4 L795.2,63.0 L795.2,62.6 L795.2,62.2 L796.0,62.2 L796.8,62.2 L797.6,62.2 L797.6,61.9 L797.6,61.5 L798.3,61.5 L799.1,61.5 L799.9,61.5 L800.7,61.5 L801.5,61.5 L801.5,61.1 L802.3,61.1 L803.1,61.1 L803.8,61.1 L804.6,61.1 L805.4,61.1 L806.2,61.1 L806.2,60.7 L807.0,60.7 L807.8,60.7 L808.6,60.7 L809.3,60.7 L810.1,60.7 L810.9,60.7 L811.7,60.7 L812.5,60.7 L813.3,60.7 L814.1,60.7 L814.9,60.7 L814.9,60.4 L815.6,60.4 L815.6,60.0 L816.4,60.0 L817.2,60.0 L818.0,60.0 L818.8,60.0 L819.6,60.0 L820.4,60.0 L821.1,60.0 L821.9,60.0 L822.7,60.0 L823.5,60.0 L824.3,60.0 L825.1,60.0 L825.9,60.0 L826.6,60.0 L827.4,60.0 L828.2,60.0 L829.0,60.0 L829.8,60.0 L830.6,60.0 L831.4,60.0 L832.1,60.0 L832.9,60.0 L833.7,60.0 L834.5,60.0 L835.3,60.0 L836.1,60.0 L836.9,60.0 L837.6,60.0 L838.4,60.0 L839.2,60.0 L840.0,60.0 L840.0,60.0" fill="none" stroke="#2563eb" stroke-width="2.5"/>
<rect x="868" y="49" width="14" height="14" fill="#2563eb"/>
<text x="888.0" y="60.0" font-family="monospace" font-size="11" font-weight="400" text-anchor="start" fill="#111827">alzheimer AUC=0.768</text>
<path d="M80.0,420.0 L80.0,419.6 L80.0,419.3 L80.0,418.9 L80.0,418.5 L80.0,418.1 L80.0,417.8 L80.0,417.4 L80.0,417.0 L80.0,416.6 L80.0,416.3 L80.0,415.9 L80.0,415.5 L80.0,415.2 L80.0,414.8 L80.0,414.4 L80.0,414.0 L80.0,413.7 L80.0,413.3 L80.0,412.9 L80.0,412.6 L80.0,412.2 L80.0,411.8 L80.0,411.4 L80.0,411.1 L80.0,410.7 L80.0,410.3 L80.0,409.9 L80.0,409.6 L80.0,409.2 L80.0,408.8 L80.0,408.5 L80.8,408.5 L80.8,408.1 L81.6,408.1 L81.6,407.7 L81.6,407.3 L81.6,407.0 L81.6,406.6 L81.6,406.2 L81.6,405.9 L81.6,405.5 L81.6,405.1 L81.6,404.7 L81.6,404.4 L81.6,404.0 L82.4,404.0 L82.4,403.6 L82.4,403.2 L82.4,402.9 L82.4,402.5 L82.4,402.1 L82.4,401.8 L83.1,401.8 L83.1,401.4 L83.1,401.0 L83.1,400.6 L83.1,400.3 L83.1,399.9 L83.9,399.9 L84.7,399.9 L84.7,399.5 L84.7,399.2 L84.7,398.8 L85.5,398.8 L86.3,398.8 L87.1,398.8 L87.1,398.4 L87.1,398.0 L87.1,397.7 L87.1,397.3 L87.1,396.9 L87.9,396.9 L87.9,396.5 L87.9,396.2 L87.9,395.8 L87.9,395.4 L87.9,395.1 L87.9,394.7 L87.9,394.3 L87.9,393.9 L88.6,393.9 L88.6,393.6 L88.6,393.2 L88.6,392.8 L88.6,392.5 L88.6,392.1 L88.6,391.7 L88.6,391.3 L88.6,391.0 L89.4,391.0 L90.2,391.0 L91.0,391.0 L91.0,390.6 L91.0,390.2 L91.0,389.8 L91.8,389.8 L92.6,389.8 L92.6,389.5 L93.4,389.5 L93.4,389.1 L93.4,388.7 L93.4,388.4 L94.1,388.4 L94.1,388.0 L94.9,388.0 L94.9,387.6 L94.9,387.2 L94.9,386.9 L94.9,386.5 L94.9,386.1 L94.9,385.7 L94.9,385.4 L94.9,385.0 L94.9,384.6 L94.9,384.3 L95.7,384.3 L95.7,383.9 L95.7,383.5 L95.7,383.1 L95.7,382.8 L96.5,382.8 L96.5,382.4 L96.5,382.0 L97.3,382.0 L97.3,381.7 L97.3,381.3 L98.1,381.3 L98.1,380.9 L98.9,380.9 L98.9,380.5 L98.9,380.2 L98.9,379.8 L98.9,379.4 L99.6,379.4 L100.4,379.4 L100.4,379.0 L100.4,378.7 L100.4,378.3 L101.2,378.3 L102.0,378.3 L102.8,378.3 L103.6,378.3 L103.6,377.9 L103.6,377.6 L103.6,377.2 L103.6,376.8 L104.4,376.8 L104.4,376.4 L104.4,376.1 L104.4,375.7 L104.4,375.3 L104.4,375.0 L105.1,375.0 L105.1,374.6 L105.1,374.2 L105.1,373.8 L105.1,373.5 L105.1,373.1 L105.1,372.7 L105.9,372.7 L105.9,372.3 L106.7,372.3 L106.7,372.0 L106.7,371.6 L107.5,371.6 L107.5,371.2 L107.5,370.9 L107.5,370.5 L108.3,370.5 L109.1,370.5 L109.1,370.1 L109.1,369.7 L109.1,369.4 L109.9,369.4 L109.9,369.0 L109.9,368.6 L109.9,368.3 L109.9,367.9 L109.9,367.5 L109.9,367.1 L109.9,366.8 L109.9,366.4 L109.9,366.0 L109.9,365.6 L109.9,365.3 L109.9,364.9 L109.9,364.5 L109.9,364.2 L109.9,363.8 L109.9,363.4 L109.9,363.0 L109.9,362.7 L109.9,362.3 L110.7,362.3 L110.7,361.9 L110.7,361.6 L111.4,361.6 L111.4,361.2 L112.2,361.2 L112.2,360.8 L112.2,360.4 L112.2,360.1 L112.2,359.7 L112.2,359.3 L112.2,358.9 L112.2,358.6 L113.0,358.6 L113.0,358.2 L113.0,357.8 L113.0,357.5 L113.0,357.1 L113.0,356.7 L113.0,356.3 L113.0,356.0 L113.0,355.6 L113.0,355.2 L113.8,355.2 L113.8,354.9 L113.8,354.5 L113.8,354.1 L113.8,353.7 L113.8,353.4 L113.8,353.0 L114.6,353.0 L114.6,352.6 L114.6,352.2 L115.4,352.2 L115.4,351.9 L115.4,351.5 L115.4,351.1 L115.4,350.8 L115.4,350.4 L116.2,350.4 L116.2,350.0 L116.2,349.6 L116.9,349.6 L117.7,349.6 L117.7,349.3 L117.7,348.9 L118.5,348.9 L118.5,348.5 L118.5,348.1 L118.5,347.8 L118.5,347.4 L118.5,347.0 L118.5,346.7 L118.5,346.3 L118.5,345.9 L118.5,345.5 L118.5,345.2 L118.5,344.8 L118.5,344.4 L118.5,344.1 L118.5,343.7 L119.3,343.7 L119.3,343.3 L119.3,342.9 L119.3,342.6 L120.1,342.6 L120.1,342.2 L120.1,341.8 L120.9,341.8 L120.9,341.4 L120.9,341.1 L121.7,341.1 L121.7,340.7 L122.4,340.7 L123.2,340.7 L124.0,340.7 L124.0,340.3 L124.0,340.0 L124.0,339.6 L124.0,339.2 L124.0,338.8 L124.0,338.5 L124.0,338.1 L124.0,337.7 L124.8,337.7 L125.6,337.7 L125.6,337.4 L125.6,337.0 L125.6,336.6 L125.6,336.2 L125.6,335.9 L125.6,335.5 L126.4,335.5 L126.4,335.1 L126.4,334.7 L126.4,334.4 L126.4,334.0 L126.4,333.6 L126.4,333.3 L126.4,332.9 L126.4,332.5 L127.2,332.5 L127.2,332.1 L127.2,331.8 L127.2,331.4 L127.2,331.0 L127.2,330.7 L127.9,330.7 L127.9,330.3 L127.9,329.9 L127.9,329.5 L128.7,329.5 L128.7,329.2 L129.5,329.2 L129.5,328.8 L129.5,328.4 L129.5,328.0 L129.5,327.7 L129.5,327.3 L129.5,326.9 L129.5,326.6 L129.5,326.2 L129.5,325.8 L130.3,325.8 L131.1,325.8 L131.1,325.4 L131.1,325.1 L131.9,325.1 L131.9,324.7 L131.9,324.3 L131.9,324.0 L131.9,323.6 L132.7,323.6 L132.7,323.2 L132.7,322.8 L132.7,322.5 L132.7,322.1 L132.7,321.7 L133.4,321.7 L133.4,321.3 L133.4,321.0 L133.4,320.6 L133.4,320.2 L133.4,319.9 L133.4,319.5 L133.4,319.1 L133.4,318.7 L133.4,318.4 L133.4,318.0 L134.2,318.0 L134.2,317.6 L135.0,317.6 L135.0,317.2 L135.0,316.9 L135.8,316.9 L136.6,316.9 L136.6,316.5 L137.4,316.5 L137.4,316.1 L137.4,315.8 L137.4,315.4 L137.4,315.0 L138.2,315.0 L138.2,314.6 L138.2,314.3 L138.2,313.9 L138.2,313.5 L138.2,313.2 L138.2,312.8 L138.2,312.4 L138.2,312.0 L138.2,311.7 L138.2,311.3 L138.2,310.9 L138.2,310.5 L138.2,310.2 L138.9,310.2 L138.9,309.8 L138.9,309.4 L139.7,309.4 L140.5,309.4 L141.3,309.4 L142.1,309.4 L142.1,309.1 L142.9,309.1 L142.9,308.7 L142.9,308.3 L142.9,307.9 L143.7,307.9 L143.7,307.6 L144.4,307.6 L144.4,307.2 L144.4,306.8 L145.2,306.8 L145.2,306.5 L145.2,306.1 L145.2,305.7 L145.2,305.3 L145.2,305.0 L146.0,305.0 L146.0,304.6 L146.0,304.2 L146.0,303.8 L146.0,303.5 L146.8,303.5 L146.8,303.1 L146.8,302.7 L147.6,302.7 L147.6,302.4 L147.6,302.0 L147.6,301.6 L147.6,301.2 L147.6,300.9 L147.6,300.5 L147.6,300.1 L148.4,300.1 L149.2,300.1 L149.2,299.8 L149.9,299.8 L149.9,299.4 L149.9,299.0 L149.9,298.6 L149.9,298.3 L149.9,297.9 L149.9,297.5 L149.9,297.1 L150.7,297.1 L150.7,296.8 L150.7,296.4 L151.5,296.4 L152.3,296.4 L152.3,296.0 L153.1,296.0 L153.1,295.7 L153.1,295.3 L153.1,294.9 L153.1,294.5 L153.1,294.2 L153.1,293.8 L153.1,293.4 L153.9,293.4 L153.9,293.1 L153.9,292.7 L153.9,292.3 L153.9,291.9 L153.9,291.6 L154.7,291.6 L155.4,291.6 L155.4,291.2 L156.2,291.2 L156.2,290.8 L157.0,290.8 L157.0,290.4 L157.8,290.4 L157.8,290.1 L158.6,290.1 L158.6,289.7 L158.6,289.3 L159.4,289.3 L159.4,289.0 L159.4,288.6 L159.4,288.2 L159.4,287.8 L159.4,287.5 L159.4,287.1 L160.2,287.1 L160.2,286.7 L161.0,286.7 L161.0,286.3 L161.0,286.0 L161.7,286.0 L161.7,285.6 L161.7,285.2 L162.5,285.2 L162.5,284.9 L162.5,284.5 L162.5,284.1 L162.5,283.7 L162.5,283.4 L163.3,283.4 L163.3,283.0 L163.3,282.6 L164.1,282.6 L164.1,282.3 L164.1,281.9 L164.1,281.5 L164.1,281.1 L164.1,280.8 L164.1,280.4 L164.1,280.0 L164.1,279.6 L164.1,279.3 L164.9,279.3 L164.9,278.9 L165.7,278.9 L165.7,278.5 L165.7,278.2 L166.5,278.2 L167.2,278.2 L167.2,277.8 L167.2,277.4 L168.0,277.4 L168.0,277.0 L168.8,277.0 L168.8,276.7 L169.6,276.7 L169.6,276.3 L170.4,276.3 L170.4,275.9 L170.4,275.6 L170.4,275.2 L170.4,274.8 L170.4,274.4 L170.4,274.1 L170.4,273.7 L170.4,273.3 L171.2,273.3 L172.0,273.3 L172.0,272.9 L172.7,272.9 L172.7,272.6 L172.7,272.2 L172.7,271.8 L172.7,271.5 L172.7,271.1 L172.7,270.7 L172.7,270.3 L172.7,270.0 L172.7,269.6 L172.7,269.2 L173.5,269.2 L174.3,269.2 L175.1,269.2 L175.1,268.9 L175.1,268.5 L175.9,268.5 L176.7,268.5 L177.5,268.5 L177.5,268.1 L177.5,267.7 L177.5,267.4 L177.5,267.0 L178.2,267.0 L178.2,266.6 L178.2,266.2 L178.2,265.9 L178.2,265.5 L178.2,265.1 L178.2,264.8 L179.0,264.8 L179.0,264.4 L179.8,264.4 L179.8,264.0 L179.8,263.6 L180.6,263.6 L181.4,263.6 L181.4,263.3 L181.4,262.9 L181.4,262.5 L181.4,262.2 L181.4,261.8 L181.4,261.4 L181.4,261.0 L181.4,260.7 L182.2,260.7 L182.2,260.3 L182.2,259.9 L182.2,259.5 L182.2,259.2 L183.0,259.2 L183.0,258.8 L183.0,258.4 L183.0,258.1 L183.0,257.7 L183.0,257.3 L183.7,257.3 L183.7,256.9 L183.7,256.6 L183.7,256.2 L183.7,255.8 L183.7,255.4 L183.7,255.1 L183.7,254.7 L184.5,254.7 L184.5,254.3 L185.3,254.3 L185.3,254.0 L185.3,253.6 L185.3,253.2 L185.3,252.8 L185.3,252.5 L186.1,252.5 L186.1,252.1 L186.1,251.7 L186.1,251.4 L186.1,251.0 L186.9,251.0 L186.9,250.6 L187.7,250.6 L188.5,250.6 L188.5,250.2 L189.2,250.2 L189.2,249.9 L189.2,249.5 L189.2,249.1 L190.0,249.1 L190.0,248.7 L190.8,248.7 L190.8,248.4 L190.8,248.0 L191.6,248.0 L192.4,248.0 L193.2,248.0 L193.2,247.6 L194.0,247.6 L194.7,247.6 L194.7,247.3 L194.7,246.9 L194.7,246.5 L195.5,246.5 L195.5,246.1 L196.3,246.1 L196.3,245.8 L196.3,245.4 L197.1,245.4 L197.1,245.0 L197.1,244.7 L197.1,244.3 L197.1,243.9 L197.1,243.5 L197.1,243.2 L197.1,242.8 L197.9,242.8 L197.9,242.4 L198.7,242.4 L198.7,242.0 L198.7,241.7 L199.5,241.7 L199.5,241.3 L199.5,240.9 L199.5,240.6 L200.2,240.6 L200.2,240.2 L200.2,239.8 L200.2,239.4 L200.2,239.1 L201.0,239.1 L201.8,239.1 L202.6,239.1 L202.6,238.7 L202.6,238.3 L202.6,238.0 L202.6,237.6 L202.6,237.2 L202.6,236.8 L203.4,236.8 L204.2,236.8 L204.2,236.5 L204.2,236.1 L205.0,236.1 L205.7,236.1 L205.7,235.7 L205.7,235.3 L205.7,235.0 L205.7,234.6 L205.7,234.2 L205.7,233.9 L205.7,233.5 L205.7,233.1 L205.7,232.7 L206.5,232.7 L207.3,232.7 L207.3,232.4 L208.1,232.4 L208.1,232.0 L208.1,231.6 L208.1,231.3 L208.1,230.9 L208.1,230.5 L208.1,230.1 L208.1,229.8 L208.1,229.4 L208.1,229.0 L208.1,228.6 L208.9,228.6 L208.9,228.3 L208.9,227.9 L209.7,227.9 L210.5,227.9 L210.5,227.5 L211.3,227.5 L211.3,227.2 L211.3,226.8 L211.3,226.4 L211.3,226.0 L212.0,226.0 L212.8,226.0 L212.8,225.7 L213.6,225.7 L213.6,225.3 L213.6,224.9 L213.6,224.6 L213.6,224.2 L214.4,224.2 L214.4,223.8 L214.4,223.4 L214.4,223.1 L214.4,222.7 L215.2,222.7 L215.2,222.3 L215.2,221.9 L215.2,221.6 L215.2,221.2 L216.0,221.2 L216.0,220.8 L216.8,220.8 L217.5,220.8 L217.5,220.5 L217.5,220.1 L218.3,220.1 L218.3,219.7 L218.3,219.3 L219.1,219.3 L219.9,219.3 L219.9,219.0 L220.7,219.0 L221.5,219.0 L222.3,219.0 L223.0,219.0 L223.0,218.6 L223.0,218.2 L223.0,217.8 L223.8,217.8 L224.6,217.8 L224.6,217.5 L224.6,217.1 L224.6,216.7 L224.6,216.4 L224.6,216.0 L225.4,216.0 L225.4,215.6 L225.4,215.2 L226.2,215.2 L226.2,214.9 L226.2,214.5 L227.0,214.5 L227.0,214.1 L227.0,213.8 L227.8,213.8 L228.5,213.8 L229.3,213.8 L230.1,213.8 L230.1,213.4 L230.1,213.0 L230.1,212.6 L230.9,212.6 L231.7,212.6 L231.7,212.3 L232.5,212.3 L233.3,212.3 L234.0,212.3 L234.0,211.9 L234.0,211.5 L234.8,211.5 L235.6,211.5 L235.6,211.1 L235.6,210.8 L235.6,210.4 L235.6,210.0 L235.6,209.7 L236.4,209.7 L237.2,209.7 L237.2,209.3 L237.2,208.9 L237.2,208.5 L238.0,208.5 L238.0,208.2 L238.8,208.2 L238.8,207.8 L238.8,207.4 L238.8,207.1 L238.8,206.7 L239.5,206.7 L239.5,206.3 L239.5,205.9 L240.3,205.9 L241.1,205.9 L241.9,205.9 L241.9,205.6 L241.9,205.2 L241.9,204.8 L242.7,204.8 L243.5,204.8 L243.5,204.4 L243.5,204.1 L244.3,204.1 L244.3,203.7 L245.0,203.7 L245.0,203.3 L245.0,203.0 L245.0,202.6 L245.0,202.2 L245.8,202.2 L245.8,201.8 L246.6,201.8 L246.6,201.5 L246.6,201.1 L247.4,201.1 L247.4,200.7 L247.4,200.4 L248.2,200.4 L249.0,200.4 L249.0,200.0 L249.8,200.0 L249.8,199.6 L249.8,199.2 L250.5,199.2 L250.5,198.9 L250.5,198.5 L250.5,198.1 L251.3,198.1 L251.3,197.7 L251.3,197.4 L251.3,197.0 L251.3,196.6 L251.3,196.3 L251.3,195.9 L251.3,195.5 L251.3,195.1 L251.3,194.8 L252.1,194.8 L252.1,194.4 L252.1,194.0 L252.1,193.7 L252.1,193.3 L252.9,193.3 L253.7,193.3 L254.5,193.3 L254.5,192.9 L255.3,192.9 L256.0,192.9 L256.0,192.5 L256.8,192.5 L256.8,192.2 L257.6,192.2 L257.6,191.8 L258.4,191.8 L258.4,191.4 L258.4,191.0 L258.4,190.7 L258.4,190.3 L259.2,190.3 L260.0,190.3 L260.8,190.3 L260.8,189.9 L261.6,189.9 L261.6,189.6 L262.3,189.6 L263.1,189.6 L263.9,189.6 L264.7,189.6 L265.5,189.6 L265.5,189.2 L265.5,188.8 L265.5,188.4 L266.3,188.4 L266.3,188.1 L266.3,187.7 L267.1,187.7 L267.1,187.3 L267.8,187.3 L268.6,187.3 L268.6,186.9 L268.6,186.6 L268.6,186.2 L269.4,186.2 L269.4,185.8 L269.4,185.5 L269.4,185.1 L269.4,184.7 L269.4,184.3 L270.2,184.3 L270.2,184.0 L270.2,183.6 L271.0,183.6 L271.0,183.2 L271.8,183.2 L271.8,182.9 L271.8,182.5 L272.6,182.5 L272.6,182.1 L272.6,181.7 L273.3,181.7 L273.3,181.4 L274.1,181.4 L274.9,181.4 L274.9,181.0 L274.9,180.6 L274.9,180.2 L275.7,180.2 L276.5,180.2 L277.3,180.2 L277.3,179.9 L277.3,179.5 L277.3,179.1 L278.1,179.1 L278.1,178.8 L278.1,178.4 L278.1,178.0 L278.8,178.0 L279.6,178.0 L279.6,177.6 L279.6,177.3 L280.4,177.3 L281.2,177.3 L281.2,176.9 L282.0,176.9 L282.0,176.5 L282.0,176.2 L282.0,175.8 L282.0,175.4 L282.0,175.0 L282.8,175.0 L283.6,175.0 L284.3,175.0 L285.1,175.0 L285.9,175.0 L286.7,175.0 L286.7,174.7 L287.5,174.7 L287.5,174.3 L287.5,173.9 L287.5,173.5 L288.3,173.5 L289.1,173.5 L289.1,173.2 L289.1,172.8 L289.8,172.8 L289.8,172.4 L289.8,172.1 L289.8,171.7 L289.8,171.3 L290.6,171.3 L291.4,171.3 L291.4,170.9 L291.4,170.6 L291.4,170.2 L292.2,170.2 L293.0,170.2 L293.8,170.2 L294.6,170.2 L295.3,170.2 L295.3,169.8 L296.1,169.8 L296.1,169.5 L296.9,169.5 L296.9,169.1 L297.7,169.1 L297.7,168.7 L298.5,168.7 L299.3,168.7 L299.3,168.3 L300.1,168.3 L300.1,168.0 L300.8,168.0 L300.8,167.6 L301.6,167.6 L301.6,167.2 L301.6,166.8 L302.4,166.8 L303.2,166.8 L304.0,166.8 L304.0,166.5 L304.8,166.5 L305.6,166.5 L306.3,166.5 L306.3,166.1 L306.3,165.7 L306.3,165.4 L307.1,165.4 L307.1,165.0 L307.1,164.6 L307.1,164.2 L307.9,164.2 L307.9,163.9 L307.9,163.5 L308.7,163.5 L309.5,163.5 L309.5,163.1 L309.5,162.8 L309.5,162.4 L309.5,162.0 L309.5,161.6 L310.3,161.6 L310.3,161.3 L310.3,160.9 L310.3,160.5 L311.1,160.5 L311.1,160.1 L311.1,159.8 L311.9,159.8 L312.6,159.8 L313.4,159.8 L314.2,159.8 L315.0,159.8 L315.8,159.8 L316.6,159.8 L316.6,159.4 L316.6,159.0 L316.6,158.7 L317.4,158.7 L317.4,158.3 L318.1,158.3 L318.1,157.9 L318.9,157.9 L318.9,157.5 L318.9,157.2 L318.9,156.8 L318.9,156.4 L319.7,156.4 L320.5,156.4 L321.3,156.4 L322.1,156.4 L322.1,156.0 L322.1,155.7 L322.9,155.7 L323.6,155.7 L324.4,155.7 L324.4,155.3 L324.4,154.9 L325.2,154.9 L325.2,154.6 L326.0,154.6 L326.8,154.6 L326.8,154.2 L326.8,153.8 L326.8,153.4 L326.8,153.1 L326.8,152.7 L327.6,152.7 L327.6,152.3 L328.4,152.3 L328.4,152.0 L328.4,151.6 L329.1,151.6 L329.9,151.6 L330.7,151.6 L330.7,151.2 L330.7,150.8 L330.7,150.5 L330.7,150.1 L331.5,150.1 L332.3,150.1 L332.3,149.7 L333.1,149.7 L333.9,149.7 L334.6,149.7 L335.4,149.7 L335.4,149.3 L335.4,149.0 L336.2,149.0 L336.2,148.6 L336.2,148.2 L337.0,148.2 L337.8,148.2 L337.8,147.9 L338.6,147.9 L338.6,147.5 L339.4,147.5 L339.4,147.1 L339.4,146.7 L340.1,146.7 L340.9,146.7 L340.9,146.4 L340.9,146.0 L340.9,145.6 L340.9,145.3 L340.9,144.9 L340.9,144.5 L340.9,144.1 L341.7,144.1 L342.5,144.1 L343.3,144.1 L343.3,143.8 L343.3,143.4 L344.1,143.4 L344.1,143.0 L344.9,143.0 L345.6,143.0 L346.4,143.0 L347.2,143.0 L348.0,143.0 L348.8,143.0 L349.6,143.0 L350.4,143.0 L350.4,142.6 L350.4,142.3 L350.4,141.9 L351.1,141.9 L351.1,141.5 L351.1,141.2 L351.9,141.2 L351.9,140.8 L352.7,140.8 L353.5,140.8 L354.3,140.8 L355.1,140.8 L355.9,140.8 L356.6,140.8 L357.4,140.8 L358.2,140.8 L359.0,140.8 L359.8,140.8 L360.6,140.8 L360.6,140.4 L361.4,140.4 L361.4,140.0 L362.2,140.0 L362.9,140.0 L363.7,140.0 L364.5,140.0 L365.3,140.0 L366.1,140.0 L366.9,140.0 L367.7,140.0 L367.7,139.7 L368.4,139.7 L368.4,139.3 L369.2,139.3 L370.0,139.3 L370.8,139.3 L370.8,138.9 L370.8,138.6 L370.8,138.2 L371.6,138.2 L372.4,138.2 L372.4,137.8 L373.2,137.8 L373.9,137.8 L373.9,137.4 L373.9,137.1 L374.7,137.1 L375.5,137.1 L375.5,136.7 L375.5,136.3 L376.3,136.3 L377.1,136.3 L377.1,135.9 L377.9,135.9 L378.7,135.9 L378.7,135.6 L379.4,135.6 L379.4,135.2 L379.4,134.8 L380.2,134.8 L381.0,134.8 L381.8,134.8 L381.8,134.5 L381.8,134.1 L381.8,133.7 L382.6,133.7 L383.4,133.7 L384.2,133.7 L384.2,133.3 L384.9,133.3 L385.7,133.3 L386.5,133.3 L386.5,133.0 L386.5,132.6 L387.3,132.6 L388.1,132.6 L388.1,132.2 L388.9,132.2 L388.9,131.9 L389.7,131.9 L389.7,131.5 L389.7,131.1 L389.7,130.7 L389.7,130.4 L390.4,130.4 L391.2,130.4 L391.2,130.0 L392.0,130.0 L392.0,129.6 L392.8,129.6 L392.8,129.2 L392.8,128.9 L392.8,128.5 L393.6,128.5 L394.4,128.5 L395.2,128.5 L395.9,128.5 L396.7,128.5 L397.5,128.5 L397.5,128.1 L397.5,127.8 L398.3,127.8 L398.3,127.4 L398.3,127.0 L399.1,127.0 L399.1,126.6 L399.9,126.6 L399.9,126.3 L400.7,126.3 L401.4,126.3 L402.2,126.3 L403.0,126.3 L403.8,126.3 L404.6,126.3 L405.4,126.3 L405.4,125.9 L406.2,125.9 L406.2,125.5 L406.2,125.1 L406.2,124.8 L406.9,124.8 L406.9,124.4 L407.7,124.4 L408.5,124.4 L409.3,124.4 L409.3,124.0 L410.1,124.0 L410.1,123.7 L410.9,123.7 L411.7,123.7 L411.7,123.3 L412.5,123.3 L412.5,122.9 L413.2,122.9 L414.0,122.9 L414.0,122.5 L414.8,122.5 L415.6,122.5 L415.6,122.2 L415.6,121.8 L415.6,121.4 L415.6,121.1 L416.4,121.1 L417.2,121.1 L417.2,120.7 L417.2,120.3 L418.0,120.3 L418.0,119.9 L418.0,119.6 L418.7,119.6 L419.5,119.6 L420.3,119.6 L420.3,119.2 L421.1,119.2 L421.9,119.2 L422.7,119.2 L422.7,118.8 L423.5,118.8 L424.2,118.8 L425.0,118.8 L425.8,118.8 L426.6,118.8 L426.6,118.4 L427.4,118.4 L428.2,118.4 L428.2,118.1 L428.2,117.7 L429.0,117.7 L429.7,117.7 L430.5,117.7 L431.3,117.7 L432.1,117.7 L432.9,117.7 L432.9,117.3 L433.7,117.3 L434.5,117.3 L434.5,117.0 L435.2,117.0 L436.0,117.0 L436.8,117.0 L436.8,116.6 L436.8,116.2 L436.8,115.8 L436.8,115.5 L437.6,115.5 L438.4,115.5 L438.4,115.1 L438.4,114.7 L439.2,114.7 L439.2,114.4 L440.0,114.4 L440.0,114.0 L440.7,114.0 L441.5,114.0 L442.3,114.0 L443.1,114.0 L443.1,113.6 L443.1,113.2 L443.9,113.2 L444.7,113.2 L444.7,112.9 L444.7,112.5 L445.5,112.5 L446.2,112.5 L447.0,112.5 L447.8,112.5 L448.6,112.5 L448.6,112.1 L448.6,111.7 L449.4,111.7 L450.2,111.7 L451.0,111.7 L451.7,111.7 L452.5,111.7 L452.5,111.4 L453.3,111.4 L454.1,111.4 L454.9,111.4 L455.7,111.4 L456.5,111.4 L456.5,111.0 L456.5,110.6 L456.5,110.3 L457.2,110.3 L458.0,110.3 L458.0,109.9 L458.8,109.9 L458.8,109.5 L458.8,109.1 L459.6,109.1 L459.6,108.8 L459.6,108.4 L460.4,108.4 L461.2,108.4 L461.2,108.0 L462.0,108.0 L462.8,108.0 L462.8,107.7 L463.5,107.7 L464.3,107.7 L465.1,107.7 L465.9,107.7 L466.7,107.7 L467.5,107.7 L468.3,107.7 L469.0,107.7 L469.0,107.3 L469.0,106.9 L469.8,106.9 L470.6,106.9 L471.4,106.9 L471.4,106.5 L472.2,106.5 L473.0,106.5 L473.8,106.5 L474.5,106.5 L474.5,106.2 L475.3,106.2 L476.1,106.2 L476.9,106.2 L476.9,105.8 L477.7,105.8 L478.5,105.8 L479.3,105.8 L480.0,105.8 L480.8,105.8 L481.6,105.8 L482.4,105.8 L483.2,105.8 L484.0,105.8 L484.8,105.8 L485.5,105.8 L486.3,105.8 L487.1,105.8 L487.9,105.8 L488.7,105.8 L489.5,105.8 L490.3,105.8 L491.0,105.8 L491.8,105.8 L492.6,105.8 L493.4,105.8 L494.2,105.8 L494.2,105.4 L495.0,105.4 L495.8,105.4 L496.5,105.4 L497.3,105.4 L498.1,105.4 L498.9,105.4 L499.7,105.4 L500.5,105.4 L500.5,105.0 L501.3,105.0 L501.3,104.7 L502.0,104.7 L502.8,104.7 L503.6,104.7 L504.4,104.7 L504.4,104.3 L504.4,103.9 L505.2,103.9 L505.2,103.6 L505.2,103.2 L506.0,103.2 L506.0,102.8 L506.0,102.4 L506.0,102.1 L506.0,101.7 L506.8,101.7 L506.8,101.3 L507.5,101.3 L508.3,101.3 L508.3,101.0 L509.1,101.0 L509.1,100.6 L509.9,100.6 L510.7,100.6 L511.5,100.6 L512.3,100.6 L513.1,100.6 L513.1,100.2 L513.8,100.2 L514.6,100.2 L515.4,100.2 L516.2,100.2 L517.0,100.2 L517.8,100.2 L518.6,100.2 L518.6,99.8 L519.3,99.8 L519.3,99.5 L520.1,99.5 L520.1,99.1 L520.9,99.1 L521.7,99.1 L521.7,98.7 L522.5,98.7 L522.5,98.3 L523.3,98.3 L523.3,98.0 L524.1,98.0 L524.8,98.0 L525.6,98.0 L525.6,97.6 L525.6,97.2 L525.6,96.9 L526.4,96.9 L526.4,96.5 L527.2,96.5 L528.0,96.5 L528.0,96.1 L528.0,95.7 L528.8,95.7 L528.8,95.4 L529.6,95.4 L530.3,95.4 L531.1,95.4 L531.9,95.4 L532.7,95.4 L533.5,95.4 L533.5,95.0 L533.5,94.6 L534.3,94.6 L534.3,94.3 L534.3,93.9 L534.3,93.5 L535.1,93.5 L535.8,93.5 L536.6,93.5 L537.4,93.5 L538.2,93.5 L539.0,93.5 L539.0,93.1 L539.8,93.1 L540.6,93.1 L541.3,93.1 L542.1,93.1 L542.9,93.1 L543.7,93.1 L543.7,92.8 L544.5,92.8 L544.5,92.4 L545.3,92.4 L546.1,92.4 L546.8,92.4 L547.6,92.4 L548.4,92.4 L549.2,92.4 L550.0,92.4 L550.8,92.4 L551.6,92.4 L552.3,92.4 L552.3,92.0 L552.3,91.6 L553.1,91.6 L553.1,91.3 L553.1,90.9 L553.1,90.5 L553.9,90.5 L554.7,90.5 L555.5,90.5 L555.5,90.2 L556.3,90.2 L557.1,90.2 L557.8,90.2 L557.8,89.8 L558.6,89.8 L558.6,89.4 L558.6,89.0 L559.4,89.0 L560.2,89.0 L561.0,89.0 L561.8,89.0 L562.6,89.0 L563.4,89.0 L564.1,89.0 L564.9,89.0 L564.9,88.7 L564.9,88.3 L565.7,88.3 L566.5,88.3 L567.3,88.3 L567.3,87.9 L568.1,87.9 L568.1,87.5 L568.9,87.5 L569.6,87.5 L570.4,87.5 L571.2,87.5 L571.2,87.2 L572.0,87.2 L572.0,86.8 L572.8,86.8 L573.6,86.8 L574.4,86.8 L575.1,86.8 L575.1,86.4 L575.9,86.4 L575.9,86.1 L575.9,85.7 L575.9,85.3 L576.7,85.3 L577.5,85.3 L578.3,85.3 L578.3,84.9 L579.1,84.9 L579.9,84.9 L579.9,84.6 L580.6,84.6 L580.6,84.2 L581.4,84.2 L582.2,84.2 L582.2,83.8 L583.0,83.8 L583.8,83.8 L584.6,83.8 L585.4,83.8 L585.4,83.5 L585.4,83.1 L586.1,83.1 L586.1,82.7 L586.1,82.3 L586.9,82.3 L586.9,82.0 L587.7,82.0 L588.5,82.0 L588.5,81.6 L589.3,81.6 L590.1,81.6 L590.9,81.6 L591.6,81.6 L591.6,81.2 L591.6,80.8 L591.6,80.5 L592.4,80.5 L593.2,80.5 L594.0,80.5 L594.0,80.1 L594.0,79.7 L594.8,79.7 L594.8,79.4 L595.6,79.4 L596.4,79.4 L597.1,79.4 L597.1,79.0 L597.9,79.0 L598.7,79.0 L599.5,79.0 L600.3,79.0 L600.3,78.6 L601.1,78.6 L601.9,78.6 L602.6,78.6 L603.4,78.6 L603.4,78.2 L603.4,77.9 L604.2,77.9 L605.0,77.9 L605.8,77.9 L605.8,77.5 L606.6,77.5 L606.6,77.1 L607.4,77.1 L608.1,77.1 L608.1,76.8 L608.1,76.4 L608.9,76.4 L609.7,76.4 L610.5,76.4 L611.3,76.4 L611.3,76.0 L612.1,76.0 L612.9,76.0 L613.7,76.0 L614.4,76.0 L615.2,76.0 L616.0,76.0 L616.8,76.0 L617.6,76.0 L617.6,75.6 L617.6,75.3 L617.6,74.9 L618.4,74.9 L619.2,74.9 L619.9,74.9 L620.7,74.9 L621.5,74.9 L622.3,74.9 L622.3,74.5 L623.1,74.5 L623.9,74.5 L623.9,74.1 L624.7,74.1 L625.4,74.1 L625.4,73.8 L626.2,73.8 L627.0,73.8 L627.8,73.8 L628.6,73.8 L629.4,73.8 L630.2,73.8 L630.9,73.8 L631.7,73.8 L632.5,73.8 L633.3,73.8 L634.1,73.8 L634.9,73.8 L635.7,73.8 L635.7,73.4 L636.4,73.4 L637.2,73.4 L638.0,73.4 L638.8,73.4 L639.6,73.4 L639.6,73.0 L640.4,73.0 L641.2,73.0 L641.9,73.0 L642.7,73.0 L643.5,73.0 L644.3,73.0 L645.1,73.0 L645.9,73.0 L646.7,73.0 L647.4,73.0 L648.2,73.0 L648.2,72.7 L649.0,72.7 L649.8,72.7 L649.8,72.3 L650.6,72.3 L651.4,72.3 L652.2,72.3 L652.9,72.3 L653.7,72.3 L653.7,71.9 L654.5,71.9 L655.3,71.9 L656.1,71.9 L656.9,71.9 L656.9,71.5 L657.7,71.5 L658.4,71.5 L659.2,71.5 L659.2,71.2 L660.0,71.2 L660.8,71.2 L661.6,71.2 L661.6,70.8 L662.4,70.8 L663.2,70.8 L664.0,70.8 L664.0,70.4 L664.7,70.4 L664.7,70.1 L665.5,70.1 L666.3,70.1 L667.1,70.1 L667.9,70.1 L668.7,70.1 L669.5,70.1 L669.5,69.7 L670.2,69.7 L671.0,69.7 L671.8,69.7 L672.6,69.7 L673.4,69.7 L674.2,69.7 L675.0,69.7 L675.7,69.7 L676.5,69.7 L677.3,69.7 L678.1,69.7 L678.1,69.3 L678.9,69.3 L679.7,69.3 L680.5,69.3 L681.2,69.3 L682.0,69.3 L682.8,69.3 L683.6,69.3 L684.4,69.3 L685.2,69.3 L686.0,69.3 L686.7,69.3 L687.5,69.3 L688.3,69.3 L689.1,69.3 L689.9,69.3 L690.7,69.3 L690.7,68.9 L691.5,68.9 L692.2,68.9 L693.0,68.9 L693.8,68.9 L693.8,68.6 L694.6,68.6 L695.4,68.6 L696.2,68.6 L696.2,68.2 L696.2,67.8 L697.0,67.8 L697.7,67.8 L698.5,67.8 L699.3,67.8 L699.3,67.4 L700.1,67.4 L700.9,67.4 L701.7,67.4 L701.7,67.1 L702.5,67.1 L703.2,67.1 L704.0,67.1 L704.8,67.1 L704.8,66.7 L705.6,66.7 L706.4,66.7 L707.2,66.7 L708.0,66.7 L708.7,66.7 L709.5,66.7 L710.3,66.7 L711.1,66.7 L711.9,66.7 L712.7,66.7 L712.7,66.3 L712.7,66.0 L713.5,66.0 L714.3,66.0 L715.0,66.0 L715.0,65.6 L715.8,65.6 L716.6,65.6 L717.4,65.6 L718.2,65.6 L718.2,65.2 L719.0,65.2 L719.8,65.2 L720.5,65.2 L720.5,64.8 L721.3,64.8 L722.1,64.8 L722.9,64.8 L723.7,64.8 L724.5,64.8 L725.3,64.8 L726.0,64.8 L726.8,64.8 L727.6,64.8 L728.4,64.8 L729.2,64.8 L730.0,64.8 L730.8,64.8 L731.5,64.8 L732.3,64.8 L733.1,64.8 L733.9,64.8 L734.7,64.8 L735.5,64.8 L735.5,64.5 L736.3,64.5 L736.3,64.1 L736.3,63.7 L737.0,63.7 L737.8,63.7 L738.6,63.7 L739.4,63.7 L740.2,63.7 L741.0,63.7 L741.8,63.7 L742.5,63.7 L743.3,63.7 L744.1,63.7 L744.9,63.7 L745.7,63.7 L746.5,63.7 L747.3,63.7 L748.0,63.7 L748.8,63.7 L749.6,63.7 L750.4,63.7 L750.4,63.4 L751.2,63.4 L751.2,63.0 L752.0,63.0 L752.8,63.0 L753.5,63.0 L754.3,63.0 L755.1,63.0 L755.9,63.0 L756.7,63.0 L757.5,63.0 L758.3,63.0 L759.0,63.0 L759.8,63.0 L760.6,63.0 L760.6,62.6 L761.4,62.6 L762.2,62.6 L763.0,62.6 L763.8,62.6 L764.6,62.6 L765.3,62.6 L766.1,62.6 L766.9,62.6 L767.7,62.6 L768.5,62.6 L768.5,62.2 L769.3,62.2 L770.1,62.2 L770.8,62.2 L771.6,62.2 L772.4,62.2 L773.2,62.2 L774.0,62.2 L774.0,61.9 L774.8,61.9 L775.6,61.9 L776.3,61.9 L777.1,61.9 L777.9,61.9 L778.7,61.9 L779.5,61.9 L780.3,61.9 L781.1,61.9 L781.8,61.9 L782.6,61.9 L782.6,61.5 L783.4,61.5 L784.2,61.5 L785.0,61.5 L785.8,61.5 L786.6,61.5 L787.3,61.5 L788.1,61.5 L788.1,61.1 L788.9,61.1 L789.7,61.1 L790.5,61.1 L791.3,61.1 L792.1,61.1 L792.8,61.1 L793.6,61.1 L794.4,61.1 L795.2,61.1 L795.2,60.7 L796.0,60.7 L796.8,60.7 L797.6,60.7 L798.3,60.7 L799.1,60.7 L799.9,60.7 L800.7,60.7 L801.5,60.7 L802.3,60.7 L803.1,60.7 L803.8,60.7 L803.8,60.4 L804.6,60.4 L805.4,60.4 L806.2,60.4 L807.0,60.4 L807.8,60.4 L808.6,60.4 L809.3,60.4 L810.1,60.4 L810.9,60.4 L811.7,60.4 L812.5,60.4 L813.3,60.4 L814.1,60.4 L814.9,60.4 L815.6,60.4 L816.4,60.4 L817.2,60.4 L818.0,60.4 L818.8,60.4 L819.6,60.4 L820.4,60.4 L821.1,60.4 L821.9,60.4 L822.7,60.4 L823.5,60.4 L824.3,60.4 L825.1,60.4 L825.9,60.4 L826.6,60.4 L827.4,60.4 L828.2,60.4 L829.0,60.4 L829.8,60.4 L830.6,60.4 L830.6,60.0 L831.4,60.0 L832.1,60.0 L832.9,60.0 L833.7,60.0 L834.5,60.0 L835.3,60.0 L836.1,60.0 L836.9,60.0 L837.6,60.0 L838.4,60.0 L839.2,60.0 L840.0,60.0 L840.0,60.0" fill="none" stroke="#dc2626" stroke-width="2.5"/>
<rect x="868" y="71" width="14" height="14" fill="#dc2626"/>
<text x="888.0" y="82.0" font-family="monospace" font-size="11" font-weight="400" text-anchor="start" fill="#111827">healthy_control AUC=0.768</text>
</svg>
