<svg xmlns="http://www.w3.org/2000/svg" width="980" height="520" viewBox="0 0 980 520">
<rect width="100%" height="100%" fill="#ffffff"/>
<text x="24.0" y="34.0" font-family="monospace" font-size="18" font-weight="700" text-anchor="start" fill="#111827">ROC: data/runs/ds004504_rbp_paper/label_swap/multiclass</text>
<rect x="80" y="60" width="760" height="360" fill="#f9fafb" stroke="#d1d5db"/>
<line x1="80" x2="840" y1="420.0" y2="420.0" stroke="#e5e7eb"/>
<text x="70.0" y="424.0" font-family="monospace" font-size="10" font-weight="400" text-anchor="end" fill="#111827">0</text>
<line x1="80" x2="840" y1="348.0" y2="348.0" stroke="#e5e7eb"/>
<text x="70.0" y="352.0" font-family="monospace" font-size="10" font-weight="400" text-anchor="end" fill="#111827">0.2</text>
<line x1="80" x2="840" y1="276.0" y2="276.0" stroke="#e5e7eb"/>
<text x="70.0" y="280.0" font-family="monospace" font-size="10" font-weight="400" text-anchor="end" fill="#111827">0.4</text>
<line x1="80" x2="840" y1="204.0" y2="204.0" stroke="#e5e7eb"/>
<text x="70.0" y="208.0" font-family="monospace" font-size="10" font-weight="400" text-anchor="end" fill="#111827">0.6</text>
<line x1="80" x2="840" y1="132.0" y2="132.0" stroke="#e5e7eb"/>
<text x="70.0" y="136.0" font-family="monospace" font-size="10" font-weight="400" text-anchor="end" fill="#111827">0.8</text>
<line x1="80" x2="840" y1="60.0" y2="60.0" stroke="#e5e7eb"/>
<text x="70.0" y="64.0" font-family="monospace" font-size="10" font-weight="400" text-anchor="end" fill="#111827">1</text>
<path d="M80.0,420.0 L80.0,419.6 L80.0,419.3 L80.0,418.9 L80.0,418.5 L80.0,418.1 L80.0,417.8 L80.0,417.4 L80.0,417.0 L80.0,416.6 L80.0,416.3 L80.0,415.9 L80.0,415.5 L80.0,415.2 L80.0,414.8 L80.0,414.4 L80.0,414.0 L80.0,413.7 L80.0,413.3 L80.0,412.9 L80.0,412.6 L80.0,412.2 L80.0,411.8 L80.6,411.8 L80.6,411.4 L81.1,411.4 L81.7,411.4 L81.7,411.1 L82.3,411.1 L82.3,410.7 L82.3,410.3 L82.3,409.9 L82.3,409.6 L82.3,409.2 L82.8,409.2 L82.8,408.8 L83.4,408.8 L83.9,408.8 L84.5,408.8 L84.5,408.5 L84.5,408.1 L84.5,407.7 L84.5,407.3 L84.5,407.0 L85.1,407.0 L85.1,406.6 L85.1,406.2 L85.1,405.9 L85.1,405.5 L85.1,405.1 L85.1,404.7 L85.1,404.4 L85.1,404.0 L85.1,403.6 L85.1,403.2 L85.6,403.2 L86.2,403.2 L86.8,403.2 L87.3,403.2 L87.3,402.9 L87.3,402.5 L87.3,402.1 L87.3,401.8 L87.3,401.4 L87.9,401.4 L88.4,401.4 L88.4,401.0 L88.4,400.6 L88.4,400.3 L88.4,399.9 L88.4,399.5 L88.4,399.2 L88.4,398.8 L88.4,398.4 L88.4,398.0 L88.4,397.7 L89.0,397.7 L89.0,397.3 L89.0,396.9 L89.0,396.5 L89.0,396.2 L89.6,396.2 L89.6,395.8 L89.6,395.4 L90.1,395.4 L90.1,395.1 L90.7,395.1 L91.3,395.1 L91.8,395.1 L92.4,395.1 L92.4,394.7 L92.4,394.3 L92.4,393.9 L92.4,393.6 L92.4,393.2 L92.4,392.8 L92.4,392.5 L92.9,392.5 L92.9,392.1 L92.9,391.7 L92.9,391.3 L92.9,391.0 L93.5,391.0 L93.5,390.6 L93.5,390.2 L94.1,390.2 L94.1,389.8 L94.6,389.8 L95.2,389.8 L95.2,389.5 L95.8,389.5 L95.8,389.1 L96.3,389.1 L96.3,388.7 L96.3,388.4 L96.3,388.0 L96.3,387.6 L96.3,387.2 L96.3,386.9 L96.3,386.5 L96.3,386.1 L96.9,386.1 L96.9,385.7 L96.9,385.4 L97.4,385.4 L98.0,385.4 L98.6,385.4 L98.6,385.0 L98.6,384.6 L98.6,384.3 L98.6,383.9 L99.1,383.9 L99.1,383.5 L99.7,383.5 L99.7,383.1 L100.3,383.1 L100.8,383.1 L100.8,382.8 L101.4,382.8 L101.9,382.8 L101.9,382.4 L101.9,382.0 L102.5,382.0 L103.1,382.0 L103.1,381.7 L103.1,381.3 L103.6,381.3 L103.6,380.9 L103.6,380.5 L103.6,380.2 L103.6,379.8 L103.6,379.4 L103.6,379.0 L103.6,378.7 L103.6,378.3 L104.2,378.3 L104.2,377.9 L104.2,377.6 L104.8,377.6 L104.8,377.2 L104.8,376.8 L105.3,376.8 L105.9,376.8 L105.9,376.4 L105.9,376.1 L106.4,376.1 L106.4,375.7 L106.4,375.3 L106.4,375.0 L107.0,375.0 L107.6,375.0 L107.6,374.6 L107.6,374.2 L107.6,373.8 L108.1,373.8 L108.1,373.5 L108.7,373.5 L109.3,373.5 L109.3,373.1 L109.3,372.7 L109.3,372.3 L109.8,372.3 L109.8,372.0 L109.8,371.6 L110.4,371.6 L110.4,371.2 L110.4,370.9 L110.4,370.5 L110.4,370.1 L110.9,370.1 L111.5,370.1 L112.1,370.1 L112.6,370.1 L112.6,369.7 L112.6,369.4 L112.6,369.0 L113.2,369.0 L113.2,368.6 L113.2,368.3 L113.8,368.3 L113.8,367.9 L113.8,367.5 L113.8,367.1 L114.3,367.1 L114.3,366.8 L114.3,366.4 L114.9,366.4 L114.9,366.0 L114.9,365.6 L114.9,365.3 L114.9,364.9 L114.9,364.5 L114.9,364.2 L115.4,364.2 L115.4,363.8 L115.4,363.4 L115.4,363.0 L115.4,362.7 L116.0,362.7 L116.0,362.3 L116.6,362.3 L117.1,362.3 L117.1,361.9 L117.1,361.6 L117.1,361.2 L117.7,361.2 L118.3,361.2 L118.8,361.2 L118.8,360.8 L118.8,360.4 L118.8,360.1 L118.8,359.7 L119.4,359.7 L119.4,359.3 L119.4,358.9 L119.9,358.9 L119.9,358.6 L120.5,358.6 L120.5,358.2 L121.1,358.2 L121.1,357.8 L121.1,357.5 L121.1,357.1 L121.1,356.7 L121.6,356.7 L121.6,356.3 L121.6,356.0 L121.6,355.6 L121.6,355.2 L121.6,354.9 L122.2,354.9 L122.2,354.5 L122.2,354.1 L122.2,353.7 L122.2,353.4 L122.2,353.0 L122.8,353.0 L122.8,352.6 L122.8,352.2 L122.8,351.9 L122.8,351.5 L123.3,351.5 L123.3,351.1 L123.3,350.8 L123.9,350.8 L124.4,350.8 L124.4,350.4 L124.4,350.0 L125.0,350.0 L125.0,349.6 L125.6,349.6 L125.6,349.3 L125.6,348.9 L125.6,348.5 L125.6,348.1 L126.1,348.1 L126.1,347.8 L126.1,347.4 L126.1,347.0 L126.1,346.7 L126.7,346.7 L126.7,346.3 L127.3,346.3 L127.8,346.3 L127.8,345.9 L127.8,345.5 L128.4,345.5 L128.4,345.2 L128.4,344.8 L128.9,344.8 L128.9,344.4 L129.5,344.4 L130.1,344.4 L130.1,344.1 L130.1,343.7 L130.1,343.3 L130.1,342.9 L130.1,342.6 L130.1,342.2 L130.1,341.8 L130.1,341.4 L130.1,341.1 L130.6,341.1 L131.2,341.1 L131.2,340.7 L131.2,340.3 L131.8,340.3 L132.3,340.3 L132.9,340.3 L133.4,340.3 L134.0,340.3 L134.0,340.0 L134.6,340.0 L135.1,340.0 L135.1,339.6 L135.1,339.2 L135.1,338.8 L135.1,338.5 L135.1,338.1 L135.7,338.1 L135.7,337.7 L135.7,337.4 L135.7,337.0 L135.7,336.6 L135.7,336.2 L135.7,335.9 L135.7,335.5 L136.3,335.5 L136.8,335.5 L137.4,335.5 L137.4,335.1 L137.9,335.1 L137.9,334.7 L138.5,334.7 L139.1,334.7 L139.1,334.4 L139.1,334.0 L139.6,334.0 L140.2,334.0 L140.2,333.6 L140.2,333.3 L140.8,333.3 L140.8,332.9 L140.8,332.5 L140.8,332.1 L140.8,331.8 L141.3,331.8 L141.3,331.4 L141.3,331.0 L141.3,330.7 L141.9,330.7 L142.4,330.7 L143.0,330.7 L143.6,330.7 L144.1,330.7 L144.7,330.7 L144.7,330.3 L144.7,329.9 L145.3,329.9 L145.8,329.9 L145.8,329.5 L146.4,329.5 L146.9,329.5 L146.9,329.2 L146.9,328.8 L147.5,328.8 L147.5,328.4 L148.1,328.4 L148.6,328.4 L149.2,328.4 L149.2,328.0 L149.8,328.0 L149.8,327.7 L150.3,327.7 L150.3,327.3 L150.3,326.9 L150.9,326.9 L151.4,326.9 L152.0,326.9 L152.0,326.6 L152.6,326.6 L152.6,326.2 L153.1,326.2 L153.1,325.8 L153.7,325.8 L154.3,325.8 L154.8,325.8 L154.8,325.4 L155.4,325.4 L155.4,325.1 L155.9,325.1 L156.5,325.1 L157.1,325.1 L157.1,324.7 L157.1,324.3 L157.1,324.0 L157.1,323.6 L157.6,323.6 L157.6,323.2 L158.2,323.2 L158.8,323.2 L158.8,322.8 L158.8,322.5 L158.8,322.1 L158.8,321.7 L159.3,321.7 L159.3,321.3 L159.3,321.0 L159.9,321.0 L159.9,320.6 L159.9,320.2 L159.9,319.9 L160.4,319.9 L161.0,319.9 L161.0,319.5 L161.6,319.5 L162.1,319.5 L162.1,319.1 L162.7,319.1 L163.3,319.1 L163.8,319.1 L164.4,319.1 L164.4,318.7 L164.4,318.4 L164.4,318.0 L164.9,318.0 L165.5,318.0 L166.1,318.0 L166.1,317.6 L166.1,317.2 L166.6,317.2 L166.6,316.9 L166.6,316.5 L166.6,316.1 L166.6,315.8 L167.2,315.8 L167.8,315.8 L167.8,315.4 L167.8,315.0 L167.8,314.6 L168.3,314.6 L168.9,314.6 L168.9,314.3 L168.9,313.9 L169.4,313.9 L170.0,313.9 L170.0,313.5 L170.6,313.5 L170.6,313.2 L171.1,313.2 L171.1,312.8 L171.1,312.4 L171.1,312.0 L171.1,311.7 L171.1,311.3 L171.1,310.9 L171.1,310.5 L171.7,310.5 L172.3,310.5 L172.3,310.2 L172.8,310.2 L172.8,309.8 L173.4,309.8 L173.4,309.4 L173.9,309.4 L174.5,309.4 L174.5,309.1 L174.5,308.7 L174.5,308.3 L175.1,308.3 L175.6,308.3 L176.2,308.3 L176.2,307.9 L176.8,307.9 L176.8,307.6 L176.8,307.2 L177.3,307.2 L177.3,306.8 L177.9,306.8 L177.9,306.5 L177.9,306.1 L177.9,305.7 L177.9,305.3 L178.4,305.3 L179.0,305.3 L179.6,305.3 L179.6,305.0 L180.1,305.0 L180.1,304.6 L180.1,304.2 L180.1,303.8 L180.7,303.8 L181.3,303.8 L181.8,303.8 L182.4,303.8 L182.9,303.8 L182.9,303.5 L183.5,303.5 L183.5,303.1 L183.5,302.7 L184.1,302.7 L184.1,302.4 L184.1,302.0 L184.6,302.0 L185.2,302.0 L185.2,301.6 L185.2,301.2 L185.2,300.9 L185.2,300.5 L185.2,300.1 L185.2,299.8 L185.8,299.8 L186.3,299.8 L186.9,299.8 L186.9,299.4 L186.9,299.0 L186.9,298.6 L187.4,298.6 L188.0,298.6 L188.6,298.6 L189.1,298.6 L189.1,298.3 L189.1,297.9 L189.1,297.5 L189.1,297.1 L189.7,297.1 L189.7,296.8 L189.7,296.4 L190.3,296.4 L190.8,296.4 L190.8,296.0 L191.4,296.0 L191.4,295.7 L191.9,295.7 L191.9,295.3 L192.5,295.3 L192.5,294.9 L193.1,294.9 L193.6,294.9 L194.2,294.9 L194.2,294.5 L194.8,294.5 L194.8,294.2 L194.8,293.8 L194.8,293.4 L195.3,293.4 L195.3,293.1 L195.3,292.7 L195.3,292.3 L195.3,291.9 L195.3,291.6 L195.9,291.6 L195.9,291.2 L196.4,291.2 L197.0,291.2 L197.0,290.8 L197.0,290.4 L197.0,290.1 L197.0,289.7 L197.6,289.7 L198.1,289.7 L198.1,289.3 L198.1,289.0 L198.7,289.0 L198.7,288.6 L198.7,288.2 L198.7,287.8 L198.7,287.5 L198.7,287.1 L198.7,286.7 L198.7,286.3 L198.7,286.0 L198.7,285.6 L199.3,285.6 L199.3,285.2 L199.3,284.9 L199.3,284.5 L199.3,284.1 L199.3,283.7 L199.8,283.7 L200.4,283.7 L200.4,283.4 L200.9,283.4 L200.9,283.0 L200.9,282.6 L201.5,282.6 L201.5,282.3 L201.5,281.9 L201.5,281.5 L202.1,281.5 L202.6,281.5 L202.6,281.1 L202.6,280.8 L202.6,280.4 L203.2,280.4 L203.2,280.0 L203.2,279.6 L203.8,279.6 L203.8,279.3 L204.3,279.3 L204.3,278.9 L204.3,278.5 L204.3,278.2 L204.3,277.8 L204.9,277.8 L204.9,277.4 L205.4,277.4 L205.4,277.0 L206.0,277.0 L206.6,277.0 L207.1,277.0 L207.7,277.0 L207.7,276.7 L208.3,276.7 L208.3,276.3 L208.3,275.9 L208.3,275.6 L208.8,275.6 L208.8,275.2 L209.4,275.2 L209.9,275.2 L209.9,274.8 L209.9,274.4 L210.5,274.4 L211.1,274.4 L211.1,274.1 L211.1,273.7 L211.1,273.3 L211.1,272.9 L211.6,272.9 L211.6,272.6 L212.2,272.6 L212.8,272.6 L212.8,272.2 L213.3,272.2 L213.9,272.2 L214.4,272.2 L215.0,272.2 L215.0,271.8 L215.0,271.5 L215.0,271.1 L215.0,270.7 L215.6,270.7 L215.6,270.3 L215.6,270.0 L215.6,269.6 L215.6,269.2 L215.6,268.9 L215.6,268.5 L215.6,268.1 L216.1,268.1 L216.7,268.1 L217.3,268.1 L217.3,267.7 L217.8,267.7 L218.4,267.7 L218.9,267.7 L219.5,267.7 L219.5,267.4 L219.5,267.0 L219.5,266.6 L219.5,266.2 L219.5,265.9 L219.5,265.5 L220.1,265.5 L220.1,265.1 L220.6,265.1 L221.2,265.1 L221.8,265.1 L222.3,265.1 L222.3,264.8 L222.9,264.8 L223.4,264.8 L223.4,264.4 L224.0,264.4 L224.0,264.0 L224.0,263.6 L224.6,263.6 L225.1,263.6 L225.1,263.3 L225.1,262.9 L225.1,262.5 L225.1,262.2 L225.7,262.2 L225.7,261.8 L226.3,261.8 L226.3,261.4 L226.3,261.0 L226.3,260.7 L226.3,260.3 L226.8,260.3 L226.8,259.9 L226.8,259.5 L226.8,259.2 L226.8,258.8 L226.8,258.4 L227.4,258.4 L227.9,258.4 L228.5,258.4 L228.5,258.1 L229.1,258.1 L229.6,258.1 L230.2,258.1 L230.8,258.1 L230.8,257.7 L231.3,257.7 L231.3,257.3 L231.9,257.3 L231.9,256.9 L232.5,256.9 L232.5,256.6 L233.0,256.6 L233.0,256.2 L233.0,255.8 L233.6,255.8 L234.1,255.8 L234.1,255.4 L234.7,255.4 L235.3,255.4 L235.8,255.4 L235.8,255.1 L236.4,255.1 L236.4,254.7 L237.0,254.7 L237.0,254.3 L237.5,254.3 L238.1,254.3 L238.1,254.0 L238.6,254.0 L239.2,254.0 L239.2,253.6 L239.2,253.2 L239.8,253.2 L239.8,252.8 L240.3,252.8 L240.3,252.5 L240.9,252.5 L240.9,252.1 L241.5,252.1 L241.5,251.7 L241.5,251.4 L242.0,251.4 L242.6,251.4 L242.6,251.0 L243.1,251.0 L243.7,251.0 L244.3,251.0 L244.8,251.0 L244.8,250.6 L244.8,250.2 L244.8,249.9 L244.8,249.5 L244.8,249.1 L244.8,248.7 L245.4,248.7 L245.4,248.4 L246.0,248.4 L246.5,248.4 L247.1,248.4 L247.1,248.0 L247.1,247.6 L247.1,247.3 L247.1,246.9 L247.6,246.9 L248.2,246.9 L248.8,246.9 L249.3,246.9 L249.9,246.9 L250.5,246.9 L250.5,246.5 L250.5,246.1 L251.0,246.1 L251.6,246.1 L252.1,246.1 L252.7,246.1 L252.7,245.8 L252.7,245.4 L253.3,245.4 L253.3,245.0 L253.8,245.0 L254.4,245.0 L254.4,244.7 L254.4,244.3 L254.4,243.9 L254.4,243.5 L254.4,243.2 L254.4,242.8 L255.0,242.8 L255.0,242.4 L255.5,242.4 L256.1,242.4 L256.6,242.4 L256.6,242.0 L257.2,242.0 L257.8,242.0 L257.8,241.7 L258.3,241.7 L258.9,241.7 L258.9,241.3 L258.9,240.9 L258.9,240.6 L259.5,240.6 L260.0,240.6 L260.0,240.2 L260.0,239.8 L260.0,239.4 L260.6,239.4 L261.1,239.4 L261.7,239.4 L262.3,239.4 L262.8,239.4 L263.4,239.4 L264.0,239.4 L264.5,239.4 L265.1,239.4 L265.6,239.4 L265.6,239.1 L266.2,239.1 L266.8,239.1 L266.8,238.7 L267.3,238.7 L267.3,238.3 L267.3,238.0 L267.3,237.6 L267.9,237.6 L267.9,237.2 L268.5,237.2 L268.5,236.8 L268.5,236.5 L269.0,236.5 L269.6,236.5 L269.6,236.1 L269.6,235.7 L270.1,235.7 L270.7,235.7 L271.3,235.7 L271.8,235.7 L271.8,235.3 L271.8,235.0 L272.4,235.0 L272.4,234.6 L273.0,234.6 L273.0,234.2 L273.5,234.2 L274.1,234.2 L274.6,234.2 L275.2,234.2 L275.8,234.2 L275.8,233.9 L276.3,233.9 L276.3,233.5 L276.9,233.5 L276.9,233.1 L276.9,232.7 L276.9,232.4 L276.9,232.0 L276.9,231.6 L276.9,231.3 L276.9,230.9 L276.9,230.5 L276.9,230.1 L277.5,230.1 L278.0,230.1 L278.0,229.8 L278.6,229.8 L278.6,229.4 L279.1,229.4 L279.7,229.4 L280.3,229.4 L280.3,229.0 L280.8,229.0 L280.8,228.6 L281.4,228.6 L282.0,228.6 L282.5,228.6 L282.5,228.3 L283.1,228.3 L283.6,228.3 L283.6,227.9 L284.2,227.9 L284.2,227.5 L284.2,227.2 L284.2,226.8 L284.2,226.4 L284.8,226.4 L285.3,226.4 L285.9,226.4 L285.9,226.0 L286.5,226.0 L287.0,226.0 L287.6,226.0 L287.6,225.7 L288.1,225.7 L288.1,225.3 L288.7,225.3 L288.7,224.9 L289.3,224.9 L289.3,224.6 L289.3,224.2 L289.8,224.2 L289.8,223.8 L289.8,223.4 L289.8,223.1 L289.8,222.7 L290.4,222.7 L291.0,222.7 L291.0,222.3 L291.0,221.9 L291.5,221.9 L291.5,221.6 L291.5,221.2 L291.5,220.8 L292.1,220.8 L292.6,220.8 L292.6,220.5 L293.2,220.5 L293.2,220.1 L293.2,219.7 L293.2,219.3 L293.8,219.3 L294.3,219.3 L294.9,219.3 L294.9,219.0 L294.9,218.6 L295.5,218.6 L296.0,218.6 L296.0,218.2 L296.6,218.2 L297.1,218.2 L297.1,217.8 L297.7,217.8 L297.7,217.5 L298.3,217.5 L298.3,217.1 L298.8,217.1 L299.4,217.1 L300.0,217.1 L300.5,217.1 L300.5,216.7 L301.1,216.7 L301.6,216.7 L302.2,216.7 L302.8,216.7 L303.3,216.7 L303.9,216.7 L304.5,216.7 L304.5,216.4 L304.5,216.0 L305.0,216.0 L305.6,216.0 L306.1,216.0 L306.7,216.0 L306.7,215.6 L307.3,215.6 L307.8,215.6 L308.4,215.6 L308.4,215.2 L308.4,214.9 L308.4,214.5 L309.0,214.5 L309.5,214.5 L309.5,214.1 L310.1,214.1 L310.1,213.8 L310.1,213.4 L310.6,213.4 L310.6,213.0 L311.2,213.0 L311.8,213.0 L312.3,213.0 L312.9,213.0 L313.5,213.0 L314.0,213.0 L314.0,212.6 L314.0,212.3 L314.0,211.9 L314.0,211.5 L314.0,211.1 L314.0,210.8 L314.0,210.4 L314.0,210.0 L314.0,209.7 L314.6,209.7 L314.6,209.3 L315.1,209.3 L315.1,208.9 L315.1,208.5 L315.7,208.5 L315.7,208.2 L315.7,207.8 L315.7,207.4 L315.7,207.1 L316.3,207.1 L316.8,207.1 L317.4,207.1 L318.0,207.1 L318.5,207.1 L319.1,207.1 L319.6,207.1 L319.6,206.7 L319.6,206.3 L320.2,206.3 L320.8,206.3 L321.3,206.3 L321.9,206.3 L322.5,206.3 L323.0,206.3 L323.6,206.3 L323.6,205.9 L323.6,205.6 L324.1,205.6 L324.1,205.2 L324.1,204.8 L324.7,204.8 L325.3,204.8 L325.3,204.4 L325.3,204.1 L325.8,204.1 L326.4,204.1 L327.0,204.1 L327.0,203.7 L327.5,203.7 L328.1,203.7 L328.1,203.3 L328.6,203.3 L329.2,203.3 L329.8,203.3 L330.3,203.3 L330.3,203.0 L330.3,202.6 L330.3,202.2 L330.9,202.2 L330.9,201.8 L331.5,201.8 L332.0,201.8 L332.6,201.8 L333.1,201.8 L333.1,201.5 L333.1,201.1 L333.1,200.7 L333.1,200.4 L333.1,200.0 L333.1,199.6 L333.7,199.6 L334.3,199.6 L334.3,199.2 L334.8,199.2 L335.4,199.2 L335.4,198.9 L336.0,198.9 L336.5,198.9 L336.5,198.5 L337.1,198.5 L337.1,198.1 L337.1,197.7 L337.6,197.7 L337.6,197.4 L338.2,197.4 L338.8,197.4 L339.3,197.4 L339.3,197.0 L339.3,196.6 L339.3,196.3 L339.9,196.3 L339.9,195.9 L340.5,195.9 L341.0,195.9 L341.0,195.5 L341.6,195.5 L342.1,195.5 L342.7,195.5 L343.3,195.5 L343.3,195.1 L343.3,194.8 L343.3,194.4 L343.8,194.4 L344.4,194.4 L344.4,194.0 L345.0,194.0 L345.0,193.7 L345.0,193.3 L345.5,193.3 L345.5,192.9 L345.5,192.5 L346.1,192.5 L346.6,192.5 L347.2,192.5 L347.8,192.5 L347.8,192.2 L348.3,192.2 L348.3,191.8 L348.9,191.8 L349.5,191.8 L349.5,191.4 L349.5,191.0 L350.0,191.0 L350.0,190.7 L350.6,190.7 L351.1,190.7 L351.7,190.7 L352.3,190.7 L352.8,190.7 L353.4,190.7 L354.0,190.7 L354.0,190.3 L354.0,189.9 L354.5,189.9 L355.1,189.9 L355.1,189.6 L355.6,189.6 L355.6,189.2 L356.2,189.2 L356.8,189.2 L356.8,188.8 L357.3,188.8 L357.3,188.4 L357.9,188.4 L357.9,188.1 L358.5,188.1 L359.0,188.1 L359.6,188.1 L360.1,188.1 L360.1,187.7 L360.7,187.7 L361.3,187.7 L361.8,187.7 L362.4,187.7 L363.0,187.7 L363.0,187.3 L363.0,186.9 L363.5,186.9 L363.5,186.6 L364.1,186.6 L364.6,186.6 L365.2,186.6 L365.8,186.6 L366.3,186.6 L366.3,186.2 L366.9,186.2 L367.5,186.2 L368.0,186.2 L368.6,186.2 L368.6,185.8 L368.6,185.5 L368.6,185.1 L368.6,184.7 L369.1,184.7 L369.1,184.3 L369.7,184.3 L369.7,184.0 L369.7,183.6 L370.3,183.6 L370.3,183.2 L370.3,182.9 L370.8,182.9 L371.4,182.9 L372.0,182.9 L372.5,182.9 L373.1,182.9 L373.6,182.9 L373.6,182.5 L373.6,182.1 L373.6,181.7 L374.2,181.7 L374.8,181.7 L374.8,181.4 L375.3,181.4 L375.9,181.4 L376.5,181.4 L377.0,181.4 L377.0,181.0 L377.6,181.0 L378.1,181.0 L378.7,181.0 L378.7,180.6 L378.7,180.2 L379.3,180.2 L379.3,179.9 L379.3,179.5 L379.3,179.1 L379.8,179.1 L379.8,178.8 L380.4,178.8 L381.0,178.8 L381.0,178.4 L381.5,178.4 L382.1,178.4 L382.1,178.0 L382.1,177.6 L382.6,177.6 L382.6,177.3 L382.6,176.9 L383.2,176.9 L383.2,176.5 L383.8,176.5 L384.3,176.5 L384.3,176.2 L384.3,175.8 L384.9,175.8 L385.5,175.8 L386.0,175.8 L386.6,175.8 L386.6,175.4 L387.2,175.4 L387.2,175.0 L387.7,175.0 L387.7,174.7 L388.3,174.7 L388.8,174.7 L389.4,174.7 L390.0,174.7 L390.5,174.7 L391.1,174.7 L391.7,174.7 L392.2,174.7 L392.2,174.3 L392.8,174.3 L393.3,174.3 L393.3,173.9 L393.3,173.5 L393.9,173.5 L393.9,173.2 L393.9,172.8 L394.5,172.8 L395.0,172.8 L395.6,172.8 L395.6,172.4 L396.2,172.4 L396.2,172.1 L396.7,172.1 L396.7,171.7 L397.3,171.7 L397.8,171.7 L398.4,171.7 L399.0,171.7 L399.5,171.7 L399.5,171.3 L400.1,171.3 L400.7,171.3 L401.2,171.3 L401.2,170.9 L401.8,170.9 L402.3,170.9 L402.3,170.6 L402.3,170.2 L402.9,170.2 L403.5,170.2 L403.5,169.8 L404.0,169.8 L404.0,169.5 L404.6,169.5 L404.6,169.1 L405.2,169.1 L405.7,169.1 L406.3,169.1 L406.8,169.1 L407.4,169.1 L407.4,168.7 L408.0,168.7 L408.0,168.3 L408.0,168.0 L408.5,168.0 L409.1,168.0 L409.7,168.0 L410.2,168.0 L410.2,167.6 L410.8,167.6 L410.8,167.2 L411.3,167.2 L411.9,167.2 L412.5,167.2 L413.0,167.2 L413.6,167.2 L413.6,166.8 L413.6,166.5 L414.2,166.5 L414.2,166.1 L414.7,166.1 L415.3,166.1 L415.8,166.1 L416.4,166.1 L417.0,166.1 L417.5,166.1 L417.5,165.7 L418.1,165.7 L418.7,165.7 L419.2,165.7 L419.2,165.4 L419.8,165.4 L420.3,165.4 L420.9,165.4 L421.5,165.4 L421.5,165.0 L422.0,165.0 L422.6,165.0 L423.2,165.0 L423.7,165.0 L424.3,165.0 L424.3,164.6 L424.8,164.6 L424.8,164.2 L425.4,164.2 L425.4,163.9 L426.0,163.9 L426.5,163.9 L426.5,163.5 L427.1,163.5 L427.7,163.5 L428.2,163.5 L428.8,163.5 L429.3,163.5 L429.3,163.1 L429.3,162.8 L429.3,162.4 L429.9,162.4 L430.5,162.4 L431.0,162.4 L431.6,162.4 L431.6,162.0 L432.2,162.0 L432.2,161.6 L432.2,161.3 L432.7,161.3 L433.3,161.3 L433.3,160.9 L433.8,160.9 L434.4,160.9 L434.4,160.5 L435.0,160.5 L435.0,160.1 L435.5,160.1 L435.5,159.8 L436.1,159.8 L436.7,159.8 L437.2,159.8 L437.8,159.8 L438.3,159.8 L438.9,159.8 L439.5,159.8 L440.0,159.8 L440.6,159.8 L441.2,159.8 L441.2,159.4 L441.2,159.0 L441.7,159.0 L441.7,158.7 L442.3,158.7 L442.3,158.3 L442.3,157.9 L442.8,157.9 L443.4,157.9 L444.0,157.9 L444.5,157.9 L445.1,157.9 L445.1,157.5 L445.7,157.5 L446.2,157.5 L446.8,157.5 L446.8,157.2 L447.3,157.2 L447.3,156.8 L447.3,156.4 L447.9,156.4 L448.5,156.4 L449.0,156.4 L449.0,156.0 L449.6,156.0 L449.6,155.7 L450.2,155.7 L450.7,155.7 L451.3,155.7 L451.8,155.7 L451.8,155.3 L451.8,154.9 L452.4,154.9 L452.4,154.6 L452.4,154.2 L453.0,154.2 L453.5,154.2 L453.5,153.8 L453.5,153.4 L453.5,153.1 L454.1,153.1 L454.1,152.7 L454.1,152.3 L454.1,152.0 L454.1,151.6 L454.7,151.6 L455.2,151.6 L455.8,151.6 L455.8,151.2 L456.3,151.2 L456.9,151.2 L457.5,151.2 L457.5,150.8 L458.0,150.8 L458.6,150.8 L459.2,150.8 L459.7,150.8 L460.3,150.8 L460.8,150.8 L461.4,150.8 L462.0,150.8 L462.0,150.5 L462.5,150.5 L462.5,150.1 L463.1,150.1 L463.7,150.1 L464.2,150.1 L464.2,149.7 L464.8,149.7 L464.8,149.3 L464.8,149.0 L464.8,148.6 L465.3,148.6 L465.9,148.6 L465.9,148.2 L466.5,148.2 L466.5,147.9 L466.5,147.5 L467.0,147.5 L467.6,147.5 L467.6,147.1 L468.2,147.1 L468.2,146.7 L468.2,146.4 L468.2,146.0 L468.2,145.6 L468.2,145.3 L468.7,145.3 L469.3,145.3 L469.3,144.9 L469.3,144.5 L469.8,144.5 L470.4,144.5 L470.4,144.1 L470.4,143.8 L471.0,143.8 L471.0,143.4 L471.5,143.4 L471.5,143.0 L471.5,142.6 L472.1,142.6 L472.7,142.6 L473.2,142.6 L473.8,142.6 L474.3,142.6 L474.3,142.3 L474.9,142.3 L475.5,142.3 L475.5,141.9 L476.0,141.9 L476.6,141.9 L476.6,141.5 L476.6,141.2 L477.2,141.2 L477.2,140.8 L477.2,140.4 L477.7,140.4 L477.7,140.0 L478.3,140.0 L478.8,140.0 L479.4,140.0 L479.4,139.7 L479.4,139.3 L480.0,139.3 L480.5,139.3 L481.1,139.3 L481.1,138.9 L481.7,138.9 L482.2,138.9 L482.8,138.9 L482.8,138.6 L482.8,138.2 L482.8,137.8 L482.8,137.4 L483.3,137.4 L483.3,137.1 L483.3,136.7 L483.9,136.7 L483.9,136.3 L484.5,136.3 L485.0,136.3 L485.0,135.9 L485.6,135.9 L486.2,135.9 L486.7,135.9 L486.7,135.6 L487.3,135.6 L487.8,135.6 L488.4,135.6 L489.0,135.6 L489.0,135.2 L489.5,135.2 L490.1,135.2 L490.7,135.2 L490.7,134.8 L491.2,134.8 L491.8,134.8 L492.3,134.8 L492.9,134.8 L493.5,134.8 L494.0,134.8 L494.6,134.8 L495.2,134.8 L495.7,134.8 L496.3,134.8 L496.8,134.8 L497.4,134.8 L498.0,134.8 L498.0,134.5 L498.5,134.5 L499.1,134.5 L499.1,134.1 L499.7,134.1 L500.2,134.1 L500.8,134.1 L501.3,134.1 L501.3,133.7 L501.9,133.7 L502.5,133.7 L502.5,133.3 L502.5,133.0 L503.0,133.0 L503.6,133.0 L504.2,133.0 L504.2,132.6 L504.7,132.6 L504.7,132.2 L505.3,132.2 L505.3,131.9 L505.8,131.9 L506.4,131.9 L507.0,131.9 L507.5,131.9 L507.5,131.5 L508.1,131.5 L508.7,131.5 L508.7,131.1 L509.2,131.1 L509.8,131.1 L509.8,130.7 L510.3,130.7 L510.3,130.4 L510.9,130.4 L511.5,130.4 L512.0,130.4 L512.6,130.4 L513.2,130.4 L513.7,130.4 L513.7,130.0 L513.7,129.6 L514.3,129.6 L514.8,129.6 L514.8,129.2 L515.4,129.2 L516.0,129.2 L516.0,128.9 L516.5,128.9 L517.1,128.9 L517.1,128.5 L517.7,128.5 L517.7,128.1 L518.2,128.1 L518.8,128.1 L519.3,128.1 L519.3,127.8 L519.9,127.8 L520.5,127.8 L521.0,127.8 L521.6,127.8 L522.2,127.8 L522.7,127.8 L523.3,127.8 L523.8,127.8 L523.8,127.4 L523.8,127.0 L524.4,127.0 L524.4,126.6 L525.0,126.6 L525.0,126.3 L525.5,126.3 L525.5,125.9 L525.5,125.5 L525.5,125.1 L526.1,125.1 L526.1,124.8 L526.7,124.8 L526.7,124.4 L527.2,124.4 L527.2,124.0 L527.8,124.0 L528.3,124.0 L528.9,124.0 L529.5,124.0 L530.0,124.0 L530.6,124.0 L531.2,124.0 L531.7,124.0 L532.3,124.0 L532.8,124.0 L533.4,124.0 L533.4,123.7 L534.0,123.7 L534.0,123.3 L534.0,122.9 L534.0,122.5 L534.5,122.5 L535.1,122.5 L535.1,122.2 L535.7,122.2 L536.2,122.2 L536.8,122.2 L537.4,122.2 L537.9,122.2 L537.9,121.8 L538.5,121.8 L539.0,121.8 L539.0,121.4 L539.6,121.4 L540.2,121.4 L540.2,121.1 L540.2,120.7 L540.7,120.7 L541.3,120.7 L541.9,120.7 L541.9,120.3 L541.9,119.9 L542.4,119.9 L543.0,119.9 L543.0,119.6 L543.0,119.2 L543.0,118.8 L543.0,118.4 L543.5,118.4 L544.1,118.4 L544.7,118.4 L545.2,118.4 L545.8,118.4 L545.8,118.1 L545.8,117.7 L545.8,117.3 L545.8,117.0 L546.4,117.0 L546.9,117.0 L547.5,117.0 L548.0,117.0 L548.6,117.0 L549.2,117.0 L549.7,117.0 L550.3,117.0 L550.3,116.6 L550.3,116.2 L550.3,115.8 L550.3,115.5 L550.9,115.5 L550.9,115.1 L551.4,115.1 L552.0,115.1 L552.0,114.7 L552.5,114.7 L553.1,114.7 L553.1,114.4 L553.7,114.4 L554.2,114.4 L554.2,114.0 L554.8,114.0 L554.8,113.6 L554.8,113.2 L555.4,113.2 L555.9,113.2 L555.9,112.9 L555.9,112.5 L556.5,112.5 L557.0,112.5 L557.0,112.1 L557.0,111.7 L557.6,111.7 L558.2,111.7 L558.7,111.7 L559.3,111.7 L559.9,111.7 L559.9,111.4 L560.4,111.4 L561.0,111.4 L561.5,111.4 L561.5,111.0 L562.1,111.0 L562.7,111.0 L562.7,110.6 L562.7,110.3 L562.7,109.9 L563.2,109.9 L563.2,109.5 L563.8,109.5 L563.8,109.1 L564.4,109.1 L564.9,109.1 L565.5,109.1 L566.0,109.1 L566.6,109.1 L567.2,109.1 L567.2,108.8 L567.7,108.8 L568.3,108.8 L568.9,108.8 L569.4,108.8 L570.0,108.8 L570.0,108.4 L570.5,108.4 L571.1,108.4 L571.7,108.4 L572.2,108.4 L572.2,108.0 L572.8,108.0 L573.4,108.0 L573.9,108.0 L573.9,107.7 L573.9,107.3 L574.5,107.3 L575.0,107.3 L575.6,107.3 L576.2,107.3 L576.2,106.9 L576.2,106.5 L576.7,106.5 L577.3,106.5 L577.9,106.5 L578.4,106.5 L579.0,106.5 L579.5,106.5 L579.5,106.2 L580.1,106.2 L580.7,106.2 L581.2,106.2 L581.8,106.2 L582.4,106.2 L582.4,105.8 L582.9,105.8 L583.5,105.8 L584.0,105.8 L584.6,105.8 L584.6,105.4 L584.6,105.0 L585.2,105.0 L585.2,104.7 L585.7,104.7 L586.3,104.7 L586.3,104.3 L586.9,104.3 L587.4,104.3 L588.0,104.3 L588.5,104.3 L588.5,103.9 L589.1,103.9 L589.1,103.6 L589.1,103.2 L589.7,103.2 L590.2,103.2 L590.8,103.2 L591.4,103.2 L591.9,103.2 L592.5,103.2 L593.0,103.2 L593.6,103.2 L594.2,103.2 L594.7,103.2 L594.7,102.8 L595.3,102.8 L595.9,102.8 L596.4,102.8 L597.0,102.8 L597.5,102.8 L598.1,102.8 L598.7,102.8 L599.2,102.8 L599.8,102.8 L600.4,102.8 L600.9,102.8 L600.9,102.4 L600.9,102.1 L600.9,101.7 L601.5,101.7 L602.0,101.7 L602.0,101.3 L602.6,101.3 L602.6,101.0 L603.2,101.0 L603.7,101.0 L603.7,100.6 L604.3,100.6 L604.9,100.6 L604.9,100.2 L605.4,100.2 L606.0,100.2 L606.5,100.2 L607.1,100.2 L607.1,99.8 L607.7,99.8 L608.2,99.8 L608.8,99.8 L609.4,99.8 L609.9,99.8 L609.9,99.5 L609.9,99.1 L610.5,99.1 L611.0,99.1 L611.0,98.7 L611.6,98.7 L611.6,98.3 L612.2,98.3 L612.7,98.3 L613.3,98.3 L613.3,98.0 L613.9,98.0 L614.4,98.0 L615.0,98.0 L615.5,98.0 L616.1,98.0 L616.7,98.0 L616.7,97.6 L617.2,97.6 L617.2,97.2 L617.8,97.2 L618.4,97.2 L618.9,97.2 L619.5,97.2 L619.5,96.9 L620.0,96.9 L620.6,96.9 L621.2,96.9 L621.7,96.9 L622.3,96.9 L622.3,96.5 L622.3,96.1 L622.9,96.1 L623.4,96.1 L624.0,96.1 L624.0,95.7 L624.5,95.7 L625.1,95.7 L625.7,95.7 L626.2,95.7 L626.2,95.4 L626.2,95.0 L626.2,94.6 L626.8,94.6 L626.8,94.3 L627.4,94.3 L627.9,94.3 L627.9,93.9 L627.9,93.5 L628.5,93.5 L629.0,93.5 L629.6,93.5 L630.2,93.5 L630.2,93.1 L630.7,93.1 L631.3,93.1 L631.3,92.8 L631.3,92.4 L631.9,92.4 L632.4,92.4 L633.0,92.4 L633.5,92.4 L634.1,92.4 L634.1,92.0 L634.7,92.0 L635.2,92.0 L635.8,92.0 L636.4,92.0 L636.9,92.0 L637.5,92.0 L637.5,91.6 L638.0,91.6 L638.6,91.6 L638.6,91.3 L638.6,90.9 L639.2,90.9 L639.2,90.5 L639.7,90.5 L640.3,90.5 L640.9,90.5 L641.4,90.5 L642.0,90.5 L642.5,90.5 L643.1,90.5 L643.7,90.5 L644.2,90.5 L644.2,90.2 L644.8,90.2 L645.4,90.2 L645.9,90.2 L646.5,90.2 L647.0,90.2 L647.0,89.8 L647.6,89.8 L648.2,89.8 L648.7,89.8 L649.3,89.8 L649.9,89.8 L650.4,89.8 L651.0,89.8 L651.0,89.4 L651.5,89.4 L652.1,89.4 L652.7,89.4 L653.2,89.4 L653.2,89.0 L653.8,89.0 L653.8,88.7 L653.8,88.3 L654.4,88.3 L654.4,87.9 L654.4,87.5 L654.4,87.2 L654.9,87.2 L655.5,87.2 L656.0,87.2 L656.6,87.2 L657.2,87.2 L657.7,87.2 L657.7,86.8 L658.3,86.8 L658.9,86.8 L659.4,86.8 L660.0,86.8 L660.5,86.8 L661.1,86.8 L661.7,86.8 L661.7,86.4 L661.7,86.1 L662.2,86.1 L662.8,86.1 L662.8,85.7 L662.8,85.3 L663.4,85.3 L663.9,85.3 L664.5,85.3 L665.0,85.3 L665.6,85.3 L666.2,85.3 L666.7,85.3 L667.3,85.3 L667.3,84.9 L667.9,84.9 L668.4,84.9 L669.0,84.9 L669.5,84.9 L670.1,84.9 L670.7,84.9 L671.2,84.9 L671.8,84.9 L672.4,84.9 L672.4,84.6 L672.4,84.2 L672.9,84.2 L672.9,83.8 L672.9,83.5 L673.5,83.5 L674.0,83.5 L674.6,83.5 L675.2,83.5 L675.7,83.5 L676.3,83.5 L676.3,83.1 L676.3,82.7 L676.9,82.7 L677.4,82.7 L678.0,82.7 L678.5,82.7 L679.1,82.7 L679.7,82.7 L680.2,82.7 L680.8,82.7 L681.4,82.7 L681.9,82.7 L682.5,82.7 L683.0,82.7 L683.6,82.7 L684.2,82.7 L684.2,82.3 L684.7,82.3 L685.3,82.3 L685.3,82.0 L685.9,82.0 L686.4,82.0 L687.0,82.0 L687.5,82.0 L688.1,82.0 L688.7,82.0 L689.2,82.0 L689.8,82.0 L689.8,81.6 L690.4,81.6 L690.4,81.2 L690.9,81.2 L690.9,80.8 L691.5,80.8 L692.1,80.8 L692.6,80.8 L693.2,80.8 L693.7,80.8 L694.3,80.8 L694.3,80.5 L694.3,80.1 L694.9,80.1 L695.4,80.1 L696.0,80.1 L696.6,80.1 L697.1,80.1 L697.1,79.7 L697.1,79.4 L697.7,79.4 L698.2,79.4 L698.8,79.4 L699.4,79.4 L699.9,79.4 L700.5,79.4 L701.1,79.4 L701.1,79.0 L701.1,78.6 L701.6,78.6 L702.2,78.6 L702.7,78.6 L703.3,78.6 L703.9,78.6 L703.9,78.2 L704.4,78.2 L705.0,78.2 L705.6,78.2 L706.1,78.2 L706.7,78.2 L707.2,78.2 L707.8,78.2 L708.4,78.2 L708.9,78.2 L708.9,77.9 L708.9,77.5 L709.5,77.5 L710.1,77.5 L710.6,77.5 L710.6,77.1 L711.2,77.1 L711.7,77.1 L711.7,76.8 L711.7,76.4 L712.3,76.4 L712.9,76.4 L713.4,76.4 L714.0,76.4 L714.6,76.4 L715.1,76.4 L715.1,76.0 L715.7,76.0 L716.2,76.0 L716.8,76.0 L717.4,76.0 L717.9,76.0 L718.5,76.0 L719.1,76.0 L719.1,75.6 L719.6,75.6 L720.2,75.6 L720.7,75.6 L720.7,75.3 L721.3,75.3 L721.9,75.3 L722.4,75.3 L723.0,75.3 L723.0,74.9 L723.6,74.9 L724.1,74.9 L724.7,74.9 L725.2,74.9 L725.8,74.9 L726.4,74.9 L726.9,74.9 L727.5,74.9 L728.1,74.9 L728.1,74.5 L728.6,74.5 L729.2,74.5 L729.7,74.5 L730.3,74.5 L730.9,74.5 L731.4,74.5 L731.4,74.1 L732.0,74.1 L732.6,74.1 L733.1,74.1 L733.7,74.1 L734.2,74.1 L734.8,74.1 L734.8,73.8 L735.4,73.8 L735.9,73.8 L735.9,73.4 L736.5,73.4 L736.5,73.0 L736.5,72.7 L736.5,72.3 L737.1,72.3 L737.1,71.9 L737.6,71.9 L738.2,71.9 L738.2,71.5 L738.7,71.5 L738.7,71.2 L738.7,70.8 L739.3,70.8 L739.9,70.8 L740.4,70.8 L741.0,70.8 L741.6,70.8 L742.1,70.8 L742.7,70.8 L743.2,70.8 L743.8,70.8 L743.8,70.4 L744.4,70.4 L744.9,70.4 L745.5,70.4 L746.1,70.4 L746.6,70.4 L747.2,70.4 L747.7,70.4 L748.3,70.4 L748.9,70.4 L749.4,70.4 L750.0,70.4 L750.6,70.4 L751.1,70.4 L751.7,70.4 L752.2,70.4 L752.8,70.4 L753.4,70.4 L753.4,70.1 L753.9,70.1 L754.5,70.1 L755.1,70.1 L755.6,70.1 L756.2,70.1 L756.2,69.7 L756.7,69.7 L757.3,69.7 L757.9,69.7 L758.4,69.7 L759.0,69.7 L759.6,69.7 L759.6,69.3 L760.1,69.3 L760.1,68.9 L760.7,68.9 L760.7,68.6 L761.2,68.6 L761.8,68.6 L762.4,68.6 L762.9,68.6 L763.5,68.6 L764.1,68.6 L764.6,68.6 L765.2,68.6 L765.2,68.2 L765.7,68.2 L766.3,68.2 L766.9,68.2 L767.4,68.2 L768.0,68.2 L768.6,68.2 L769.1,68.2 L769.7,68.2 L769.7,67.8 L769.7,67.4 L770.2,67.4 L770.8,67.4 L771.4,67.4 L771.4,67.1 L771.4,66.7 L771.9,66.7 L772.5,66.7 L773.1,66.7 L773.6,66.7 L773.6,66.3 L774.2,66.3 L774.2,66.0 L774.2,65.6 L774.7,65.6 L775.3,65.6 L775.9,65.6 L776.4,65.6 L776.4,65.2 L776.4,64.8 L777.0,64.8 L777.6,64.8 L777.6,64.5 L778.1,64.5 L778.7,64.5 L779.2,64.5 L779.8,64.5 L780.4,64.5 L780.4,64.1 L780.9,64.1 L781.5,64.1 L781.5,63.7 L781.5,63.4 L782.1,63.4 L782.6,63.4 L783.2,63.4 L783.7,63.4 L784.3,63.4 L784.3,63.0 L784.9,63.0 L785.4,63.0 L786.0,63.0 L786.6,63.0 L787.1,63.0 L787.7,63.0 L788.2,63.0 L788.2,62.6 L788.8,62.6 L788.8,62.2 L789.4,62.2 L789.9,62.2 L790.5,62.2 L791.1,62.2 L791.6,62.2 L792.2,62.2 L792.7,62.2 L793.3,62.2 L793.9,62.2 L794.4,62.2 L794.4,61.9 L795.0,61.9 L795.6,61.9 L796.1,61.9 L796.7,61.9 L797.2,61.9 L797.2,61.5 L797.8,61.5 L798.4,61.5 L798.9,61.5 L799.5,61.5 L800.1,61.5 L800.6,61.5 L801.2,61.5 L801.7,61.5 L802.3,61.5 L802.3,61.1 L802.9,61.1 L802.9,60.7 L803.4,60.7 L804.0,60.7 L804.6,60.7 L805.1,60.7 L805.7,60.7 L806.2,60.7 L806.8,60.7 L807.4,60.7 L807.9,60.7 L808.5,60.7 L809.1,60.7 L809.6,60.7 L810.2,60.7 L810.7,60.7 L810.7,60.4 L811.3,60.4 L811.9,60.4 L812.4,60.4 L813.0,60.4 L813.6,60.4 L814.1,60.4 L814.7,60.4 L814.7,60.0 L815.2,60.0 L815.8,60.0 L816.4,60.0 L816.9,60.0 L817.5,60.0 L818.1,60.0 L818.6,60.0 L819.2,60.0 L819.7,60.0 L820.3,60.0 L820.9,60.0 L821.4,60.0 L822.0,60.0 L822.6,60.0 L823.1,60.0 L823.7,60.0 L824.2,60.0 L824.8,60.0 L825.4,60.0 L825.9,60.0 L826.5,60.0 L827.1,60.0 L827.6,60.0 L828.2,60.0 L828.7,60.0 L829.3,60.0 L829.9,60.0 L830.4,60.0 L831.0,60.0 L831.6,60.0 L832.1,60.0 L832.7,60.0 L833.2,60.0 L833.8,60.0 L834.4,60.0 L834.9,60.0 L835.5,60.0 L836.1,60.0 L836.6,60.0 L837.2,60.0 L837.7,60.0 L838.3,60.0 L838.9,60.0 L839.4,60.0 L840.0,60.0 L840.0,60.0" fill="none" stroke="#2563eb" stroke-width="2.5"/>
<rect x="868" y="49" width="14" height="14" fill="#2563eb"/>
<text x="888.0" y="60.0" font-family="monospace" font-size="11" font-weight="400" text-anchor="start" fill="#111827">alzheimer AUC=0.690</text>
<path d="M80.0,420.0 L80.0,419.6 L80.0,419.1 L80.0,418.6 L80.0,418.2 L80.0,417.8 L80.0,417.3 L80.0,416.9 L80.0,416.4 L80.0,415.9 L80.0,415.5 L80.0,415.1 L80.0,414.6 L80.0,414.1 L80.0,413.7 L80.0,413.2 L80.0,412.8 L80.0,412.4 L80.0,411.9 L80.0,411.4 L80.0,411.0 L80.0,410.6 L80.0,410.1 L80.0,409.6 L80.0,409.2 L80.0,408.8 L80.0,408.3 L80.0,407.9 L80.0,407.4 L80.0,406.9 L80.0,406.5 L80.0,406.1 L80.0,405.6 L80.0,405.1 L80.0,404.7 L80.0,404.2 L80.0,403.8 L80.0,403.4 L80.0,402.9 L80.0,402.4 L80.5,402.4 L80.5,402.0 L81.0,402.0 L81.5,402.0 L81.5,401.6 L81.5,401.1 L81.5,400.6 L81.5,400.2 L81.5,399.8 L81.5,399.3 L82.0,399.3 L82.0,398.9 L82.5,398.9 L82.5,398.4 L82.5,397.9 L82.5,397.5 L82.5,397.1 L82.5,396.6 L82.5,396.1 L82.5,395.7 L82.5,395.2 L82.5,394.8 L82.5,394.4 L82.5,393.9 L82.5,393.4 L82.5,393.0 L82.5,392.6 L82.5,392.1 L82.5,391.6 L82.5,391.2 L83.0,391.2 L83.5,391.2 L83.5,390.8 L83.5,390.3 L83.5,389.9 L84.0,389.9 L84.0,389.4 L84.0,388.9 L84.0,388.5 L84.0,388.1 L84.0,387.6 L84.5,387.6 L85.0,387.6 L85.5,387.6 L85.5,387.1 L85.5,386.7 L85.5,386.2 L85.5,385.8 L85.5,385.4 L86.0,385.4 L86.0,384.9 L86.0,384.4 L86.0,384.0 L86.5,384.0 L87.0,384.0 L87.0,383.6 L87.5,383.6 L87.5,383.1 L88.0,383.1 L88.0,382.6 L88.0,382.2 L88.0,381.8 L88.5,381.8 L88.5,381.3 L88.5,380.9 L88.5,380.4 L89.0,380.4 L89.5,380.4 L89.5,379.9 L89.5,379.5 L89.5,379.1 L89.5,378.6 L90.0,378.6 L90.0,378.1 L90.0,377.7 L90.0,377.2 L90.0,376.8 L90.5,376.8 L91.0,376.8 L91.5,376.8 L91.5,376.4 L91.5,375.9 L91.5,375.4 L91.5,375.0 L91.5,374.6 L92.0,374.6 L92.0,374.1 L92.0,373.6 L92.0,373.2 L92.0,372.8 L92.0,372.3 L92.0,371.9 L92.0,371.4 L92.0,370.9 L92.0,370.5 L92.0,370.1 L92.0,369.6 L92.0,369.1 L92.5,369.1 L93.0,369.1 L93.5,369.1 L93.5,368.7 L94.0,368.7 L94.5,368.7 L94.5,368.2 L94.5,367.8 L94.5,367.4 L94.5,366.9 L94.5,366.4 L95.0,366.4 L95.5,366.4 L96.0,366.4 L96.5,366.4 L96.5,366.0 L96.5,365.6 L96.5,365.1 L96.5,364.6 L97.0,364.6 L97.5,364.6 L98.0,364.6 L98.0,364.2 L98.0,363.8 L98.0,363.3 L98.0,362.9 L98.0,362.4 L98.0,361.9 L98.0,361.5 L98.0,361.1 L98.0,360.6 L98.0,360.1 L98.0,359.7 L98.0,359.2 L98.0,358.8 L98.5,358.8 L98.5,358.4 L98.5,357.9 L98.5,357.4 L98.5,357.0 L98.5,356.6 L98.5,356.1 L98.5,355.6 L98.5,355.2 L98.5,354.8 L98.5,354.3 L98.5,353.9 L99.0,353.9 L99.0,353.4 L99.0,352.9 L99.0,352.5 L99.0,352.1 L99.0,351.6 L99.0,351.1 L99.5,351.1 L99.5,350.7 L100.0,350.7 L100.5,350.7 L100.5,350.2 L100.5,349.8 L101.0,349.8 L101.0,349.4 L101.0,348.9 L101.5,348.9 L101.5,348.4 L102.0,348.4 L102.5,348.4 L102.5,348.0 L102.5,347.6 L102.5,347.1 L102.5,346.6 L103.0,346.6 L103.0,346.2 L103.0,345.8 L103.0,345.3 L103.5,345.3 L103.5,344.9 L103.5,344.4 L103.5,343.9 L103.5,343.5 L104.0,343.5 L104.0,343.1 L104.0,342.6 L104.0,342.1 L104.5,342.1 L105.0,342.1 L105.0,341.7 L105.0,341.2 L105.0,340.8 L105.0,340.4 L105.0,339.9 L105.5,339.9 L106.0,339.9 L106.0,339.4 L106.5,339.4 L107.0,339.4 L107.0,339.0 L107.0,338.6 L107.0,338.1 L107.5,338.1 L108.0,338.1 L108.0,337.6 L108.5,337.6 L108.5,337.2 L108.5,336.8 L108.5,336.3 L108.5,335.9 L108.5,335.4 L108.5,334.9 L108.5,334.5 L108.5,334.1 L108.5,333.6 L108.5,333.1 L108.5,332.7 L109.0,332.7 L109.5,332.7 L110.0,332.7 L110.5,332.7 L110.5,332.2 L110.5,331.8 L110.5,331.4 L111.0,331.4 L111.0,330.9 L111.5,330.9 L111.5,330.4 L111.5,330.0 L112.0,330.0 L112.0,329.6 L112.0,329.1 L112.0,328.6 L112.5,328.6 L112.5,328.2 L112.5,327.8 L113.0,327.8 L113.5,327.8 L113.5,327.3 L113.5,326.9 L113.5,326.4 L114.0,326.4 L114.5,326.4 L114.5,325.9 L114.5,325.5 L114.5,325.1 L114.5,324.6 L114.5,324.1 L114.5,323.7 L114.5,323.2 L115.0,323.2 L115.0,322.8 L115.5,322.8 L115.5,322.4 L116.0,322.4 L116.0,321.9 L116.0,321.4 L116.0,321.0 L116.0,320.6 L116.5,320.6 L117.0,320.6 L117.5,320.6 L117.5,320.1 L118.1,320.1 L118.1,319.6 L118.1,319.2 L118.1,318.8 L118.1,318.3 L118.1,317.9 L118.1,317.4 L118.1,316.9 L118.6,316.9 L119.1,316.9 L119.6,316.9 L119.6,316.5 L119.6,316.1 L119.6,315.6 L119.6,315.1 L120.1,315.1 L120.1,314.7 L120.1,314.2 L120.1,313.8 L120.1,313.4 L120.6,313.4 L120.6,312.9 L121.1,312.9 L121.1,312.4 L121.1,312.0 L121.1,311.6 L121.1,311.1 L121.6,311.1 L121.6,310.6 L121.6,310.2 L122.1,310.2 L122.6,310.2 L122.6,309.8 L123.1,309.8 L123.1,309.3 L123.1,308.9 L123.1,308.4 L123.1,307.9 L123.6,307.9 L123.6,307.5 L123.6,307.1 L124.1,307.1 L124.6,307.1 L124.6,306.6 L124.6,306.1 L125.1,306.1 L125.6,306.1 L125.6,305.7 L126.1,305.7 L126.1,305.2 L126.1,304.8 L126.1,304.4 L126.1,303.9 L126.6,303.9 L126.6,303.4 L126.6,303.0 L126.6,302.6 L126.6,302.1 L126.6,301.6 L126.6,301.2 L126.6,300.8 L126.6,300.3 L126.6,299.9 L126.6,299.4 L126.6,298.9 L126.6,298.5 L127.1,298.5 L127.1,298.1 L127.6,298.1 L127.6,297.6 L127.6,297.1 L128.1,297.1 L128.6,297.1 L129.1,297.1 L129.6,297.1 L129.6,296.7 L130.1,296.7 L130.6,296.7 L131.1,296.7 L131.6,296.7 L132.1,296.7 L132.1,296.2 L132.6,296.2 L133.1,296.2 L133.1,295.8 L133.1,295.4 L133.1,294.9 L133.1,294.4 L133.1,294.0 L133.1,293.6 L133.1,293.1 L133.1,292.6 L133.1,292.2 L133.1,291.8 L133.6,291.8 L134.1,291.8 L134.1,291.3 L134.6,291.3 L134.6,290.9 L134.6,290.4 L134.6,289.9 L134.6,289.5 L135.1,289.5 L135.1,289.0 L135.6,289.0 L135.6,288.6 L135.6,288.1 L135.6,287.7 L135.6,287.2 L136.1,287.2 L136.6,287.2 L136.6,286.8 L136.6,286.4 L136.6,285.9 L137.1,285.9 L137.1,285.4 L137.1,285.0 L137.6,285.0 L137.6,284.6 L138.1,284.6 L138.6,284.6 L138.6,284.1 L138.6,283.6 L138.6,283.2 L138.6,282.8 L139.1,282.8 L139.1,282.3 L139.1,281.9 L139.6,281.9 L139.6,281.4 L140.1,281.4 L140.6,281.4 L140.6,281.0 L140.6,280.5 L141.1,280.5 L141.6,280.5 L141.6,280.1 L141.6,279.6 L141.6,279.1 L142.1,279.1 L142.6,279.1 L142.6,278.7 L143.1,278.7 L143.1,278.2 L143.1,277.8 L143.1,277.4 L143.1,276.9 L143.6,276.9 L144.1,276.9 L144.6,276.9 L145.1,276.9 L145.6,276.9 L145.6,276.4 L145.6,276.0 L145.6,275.6 L146.1,275.6 L146.1,275.1 L146.6,275.1 L146.6,274.6 L147.1,274.6 L147.1,274.2 L147.6,274.2 L147.6,273.8 L148.1,273.8 L148.6,273.8 L148.6,273.3 L149.1,273.3 L149.6,273.3 L149.6,272.9 L150.1,272.9 L150.1,272.4 L150.1,271.9 L150.6,271.9 L151.1,271.9 L151.6,271.9 L151.6,271.5 L151.6,271.1 L152.1,271.1 L152.1,270.6 L152.6,270.6 L153.1,270.6 L153.1,270.1 L153.1,269.7 L153.1,269.2 L153.1,268.8 L153.6,268.8 L154.1,268.8 L154.1,268.4 L154.1,267.9 L154.6,267.9 L154.6,267.4 L155.1,267.4 L155.6,267.4 L155.6,267.0 L155.6,266.5 L156.1,266.5 L156.1,266.1 L156.1,265.6 L156.1,265.2 L156.1,264.8 L156.1,264.3 L156.1,263.9 L156.1,263.4 L156.1,262.9 L156.6,262.9 L157.1,262.9 L157.6,262.9 L158.1,262.9 L158.6,262.9 L158.6,262.5 L158.6,262.1 L159.1,262.1 L159.1,261.6 L159.1,261.1 L159.6,261.1 L160.1,261.1 L160.1,260.7 L160.6,260.7 L161.1,260.7 L161.1,260.2 L161.1,259.8 L161.1,259.4 L161.6,259.4 L161.6,258.9 L161.6,258.5 L161.6,258.0 L162.1,258.0 L162.6,258.0 L162.6,257.6 L163.1,257.6 L163.6,257.6 L163.6,257.1 L164.1,257.1 L164.1,256.6 L164.1,256.2 L164.6,256.2 L164.6,255.8 L164.6,255.3 L164.6,254.8 L165.1,254.8 L165.6,254.8 L165.6,254.4 L165.6,253.9 L165.6,253.5 L165.6,253.1 L165.6,252.6 L165.6,252.2 L165.6,251.7 L166.1,251.7 L166.1,251.2 L166.6,251.2 L167.1,251.2 L167.6,251.2 L168.1,251.2 L168.6,251.2 L169.1,251.2 L169.6,251.2 L169.6,250.8 L170.1,250.8 L170.6,250.8 L171.1,250.8 L171.1,250.3 L171.1,249.9 L171.1,249.4 L171.6,249.4 L172.1,249.4 L172.6,249.4 L173.1,249.4 L173.1,249.0 L173.6,249.0 L174.1,249.0 L174.1,248.6 L174.1,248.1 L174.6,248.1 L175.1,248.1 L175.6,248.1 L175.6,247.7 L175.6,247.2 L176.1,247.2 L176.6,247.2 L177.1,247.2 L177.1,246.8 L177.6,246.8 L178.1,246.8 L178.6,246.8 L179.1,246.8 L179.1,246.3 L179.1,245.8 L179.1,245.4 L179.1,244.9 L179.1,244.5 L179.6,244.5 L180.1,244.5 L180.1,244.0 L180.1,243.6 L180.6,243.6 L181.1,243.6 L181.6,243.6 L182.1,243.6 L182.6,243.6 L182.6,243.2 L183.1,243.2 L183.6,243.2 L183.6,242.7 L183.6,242.2 L184.1,242.2 L184.6,242.2 L185.1,242.2 L185.1,241.8 L185.1,241.3 L185.6,241.3 L185.6,240.9 L186.1,240.9 L186.1,240.4 L186.6,240.4 L186.6,240.0 L186.6,239.6 L187.1,239.6 L187.1,239.1 L187.1,238.6 L187.6,238.6 L188.1,238.6 L188.6,238.6 L188.6,238.2 L189.1,238.2 L189.6,238.2 L190.1,238.2 L190.1,237.8 L190.1,237.3 L190.6,237.3 L190.6,236.8 L190.6,236.4 L191.1,236.4 L191.1,236.0 L191.6,236.0 L191.6,235.5 L192.1,235.5 L192.6,235.5 L192.6,235.0 L192.6,234.6 L193.1,234.6 L193.1,234.2 L193.1,233.7 L193.1,233.2 L193.1,232.8 L193.1,232.3 L193.6,232.3 L193.6,231.9 L193.6,231.4 L193.6,231.0 L194.2,231.0 L194.2,230.6 L194.7,230.6 L195.2,230.6 L195.2,230.1 L195.2,229.6 L195.7,229.6 L195.7,229.2 L195.7,228.8 L195.7,228.3 L195.7,227.9 L196.2,227.9 L196.7,227.9 L197.2,227.9 L197.7,227.9 L198.2,227.9 L198.2,227.4 L198.2,226.9 L198.7,226.9 L198.7,226.5 L198.7,226.1 L199.2,226.1 L199.7,226.1 L199.7,225.6 L199.7,225.2 L200.2,225.2 L200.7,225.2 L201.2,225.2 L201.7,225.2 L202.2,225.2 L202.7,225.2 L203.2,225.2 L203.7,225.2 L203.7,224.7 L204.2,224.7 L204.2,224.3 L204.2,223.8 L204.2,223.3 L204.2,222.9 L204.7,222.9 L204.7,222.5 L205.2,222.5 L205.2,222.0 L205.2,221.5 L205.7,221.5 L206.2,221.5 L206.7,221.5 L207.2,221.5 L207.2,221.1 L207.2,220.7 L207.2,220.2 L207.2,219.8 L207.7,219.8 L208.2,219.8 L208.2,219.3 L208.2,218.9 L208.7,218.9 L209.2,218.9 L209.7,218.9 L209.7,218.4 L209.7,217.9 L210.2,217.9 L210.2,217.5 L210.7,217.5 L211.2,217.5 L211.2,217.1 L211.7,217.1 L211.7,216.6 L212.2,216.6 L212.7,216.6 L212.7,216.1 L213.2,216.1 L213.7,216.1 L213.7,215.7 L214.2,215.7 L214.2,215.2 L214.2,214.8 L214.2,214.3 L214.7,214.3 L214.7,213.9 L214.7,213.5 L215.2,213.5 L215.7,213.5 L215.7,213.0 L215.7,212.5 L215.7,212.1 L216.2,212.1 L216.7,212.1 L217.2,212.1 L217.2,211.7 L217.2,211.2 L217.7,211.2 L218.2,211.2 L218.2,210.7 L218.2,210.3 L218.2,209.8 L218.7,209.8 L219.2,209.8 L219.7,209.8 L219.7,209.4 L220.2,209.4 L220.7,209.4 L220.7,208.9 L220.7,208.5 L221.2,208.5 L221.7,208.5 L222.2,208.5 L222.7,208.5 L223.2,208.5 L223.2,208.1 L223.2,207.6 L223.7,207.6 L224.2,207.6 L224.2,207.1 L224.7,207.1 L225.2,207.1 L225.2,206.7 L225.7,206.7 L226.2,206.7 L226.2,206.2 L226.7,206.2 L227.2,206.2 L227.7,206.2 L228.2,206.2 L228.2,205.8 L228.2,205.4 L228.7,205.4 L228.7,204.9 L229.2,204.9 L229.7,204.9 L230.2,204.9 L230.7,204.9 L231.2,204.9 L231.2,204.4 L231.2,204.0 L231.2,203.6 L231.2,203.1 L231.2,202.7 L231.7,202.7 L232.2,202.7 L232.7,202.7 L233.2,202.7 L233.7,202.7 L234.2,202.7 L234.2,202.2 L234.7,202.2 L235.2,202.2 L235.7,202.2 L236.2,202.2 L236.7,202.2 L237.2,202.2 L237.7,202.2 L237.7,201.8 L238.2,201.8 L238.7,201.8 L239.2,201.8 L239.7,201.8 L239.7,201.3 L239.7,200.8 L240.2,200.8 L240.7,200.8 L241.2,200.8 L241.2,200.4 L241.7,200.4 L241.7,200.0 L242.2,200.0 L242.7,200.0 L243.2,200.0 L243.7,200.0 L244.2,200.0 L244.7,200.0 L245.2,200.0 L245.7,200.0 L246.2,200.0 L246.2,199.5 L246.2,199.0 L246.2,198.6 L246.7,198.6 L247.2,198.6 L247.7,198.6 L248.2,198.6 L248.2,198.2 L248.2,197.7 L248.7,197.7 L248.7,197.2 L248.7,196.8 L249.2,196.8 L249.2,196.4 L249.7,196.4 L249.7,195.9 L249.7,195.4 L250.2,195.4 L250.2,195.0 L250.7,195.0 L251.2,195.0 L251.7,195.0 L251.7,194.6 L251.7,194.1 L252.2,194.1 L252.7,194.1 L252.7,193.6 L253.2,193.6 L253.7,193.6 L254.2,193.6 L254.7,193.6 L255.2,193.6 L255.7,193.6 L255.7,193.2 L256.2,193.2 L256.7,193.2 L256.7,192.8 L257.2,192.8 L257.7,192.8 L258.2,192.8 L258.7,192.8 L259.2,192.8 L259.7,192.8 L260.2,192.8 L260.7,192.8 L260.7,192.3 L261.2,192.3 L261.7,192.3 L262.2,192.3 L262.2,191.8 L262.7,191.8 L263.2,191.8 L263.7,191.8 L264.2,191.8 L264.7,191.8 L265.2,191.8 L265.2,191.4 L265.2,191.0 L265.7,191.0 L265.7,190.5 L265.7,190.0 L266.2,190.0 L266.2,189.6 L266.7,189.6 L266.7,189.2 L267.2,189.2 L267.7,189.2 L267.7,188.7 L268.2,188.7 L268.7,188.7 L269.2,188.7 L269.2,188.2 L269.7,188.2 L269.7,187.8 L269.7,187.3 L269.7,186.9 L270.3,186.9 L270.3,186.4 L270.3,186.0 L270.8,186.0 L270.8,185.6 L270.8,185.1 L271.3,185.1 L271.8,185.1 L272.3,185.1 L272.3,184.6 L272.8,184.6 L273.3,184.6 L273.3,184.2 L273.3,183.8 L273.8,183.8 L273.8,183.3 L273.8,182.9 L273.8,182.4 L274.3,182.4 L274.3,181.9 L274.8,181.9 L274.8,181.5 L274.8,181.1 L275.3,181.1 L275.8,181.1 L276.3,181.1 L276.8,181.1 L276.8,180.6 L276.8,180.2 L276.8,179.7 L277.3,179.7 L277.8,179.7 L278.3,179.7 L278.3,179.3 L278.8,179.3 L278.8,178.8 L278.8,178.3 L279.3,178.3 L279.3,177.9 L279.8,177.9 L279.8,177.5 L280.3,177.5 L280.8,177.5 L280.8,177.0 L281.3,177.0 L281.3,176.5 L281.3,176.1 L281.8,176.1 L282.3,176.1 L282.8,176.1 L283.3,176.1 L283.3,175.7 L283.8,175.7 L283.8,175.2 L284.3,175.2 L284.8,175.2 L284.8,174.8 L285.3,174.8 L285.8,174.8 L285.8,174.3 L286.3,174.3 L286.3,173.9 L286.8,173.9 L287.3,173.9 L287.8,173.9 L287.8,173.4 L287.8,172.9 L287.8,172.5 L288.3,172.5 L288.8,172.5 L288.8,172.1 L289.3,172.1 L289.3,171.6 L289.8,171.6 L290.3,171.6 L290.8,171.6 L291.3,171.6 L291.8,171.6 L292.3,171.6 L292.8,171.6 L292.8,171.1 L293.3,171.1 L293.8,171.1 L294.3,171.1 L294.3,170.7 L294.3,170.2 L294.8,170.2 L294.8,169.8 L295.3,169.8 L295.3,169.3 L295.8,169.3 L296.3,169.3 L296.8,169.3 L297.3,169.3 L297.3,168.9 L297.3,168.5 L297.8,168.5 L297.8,168.0 L298.3,168.0 L298.3,167.5 L298.3,167.1 L298.3,166.7 L298.3,166.2 L298.8,166.2 L299.3,166.2 L299.8,166.2 L300.3,166.2 L300.3,165.7 L300.8,165.7 L301.3,165.7 L301.8,165.7 L302.3,165.7 L302.8,165.7 L303.3,165.7 L303.3,165.3 L303.8,165.3 L304.3,165.3 L304.8,165.3 L305.3,165.3 L305.8,165.3 L305.8,164.8 L305.8,164.4 L306.3,164.4 L306.8,164.4 L307.3,164.4 L307.8,164.4 L308.3,164.4 L308.3,163.9 L308.8,163.9 L309.3,163.9 L309.8,163.9 L310.3,163.9 L310.3,163.5 L310.3,163.1 L310.3,162.6 L310.8,162.6 L311.3,162.6 L311.8,162.6 L311.8,162.1 L312.3,162.1 L312.8,162.1 L312.8,161.7 L313.3,161.7 L313.8,161.7 L314.3,161.7 L314.8,161.7 L314.8,161.2 L315.3,161.2 L315.3,160.8 L315.8,160.8 L316.3,160.8 L316.8,160.8 L317.3,160.8 L317.8,160.8 L317.8,160.4 L318.3,160.4 L318.3,159.9 L318.3,159.4 L318.8,159.4 L318.8,159.0 L319.3,159.0 L319.8,159.0 L320.3,159.0 L320.8,159.0 L321.3,159.0 L321.8,159.0 L322.3,159.0 L322.3,158.6 L322.8,158.6 L323.3,158.6 L323.8,158.6 L324.3,158.6 L324.3,158.1 L324.3,157.6 L324.8,157.6 L324.8,157.2 L325.3,157.2 L325.8,157.2 L326.3,157.2 L326.8,157.2 L326.8,156.8 L326.8,156.3 L326.8,155.9 L327.3,155.9 L327.8,155.9 L328.3,155.9 L328.8,155.9 L329.3,155.9 L329.8,155.9 L330.3,155.9 L330.3,155.4 L330.8,155.4 L331.3,155.4 L331.3,154.9 L331.3,154.5 L331.8,154.5 L332.3,154.5 L332.3,154.1 L332.3,153.6 L332.8,153.6 L333.3,153.6 L333.8,153.6 L334.3,153.6 L334.3,153.2 L334.3,152.7 L334.8,152.7 L335.3,152.7 L335.8,152.7 L336.3,152.7 L336.3,152.2 L336.8,152.2 L337.3,152.2 L337.8,152.2 L338.3,152.2 L338.8,152.2 L339.3,152.2 L339.8,152.2 L340.3,152.2 L340.8,152.2 L341.3,152.2 L341.3,151.8 L341.8,151.8 L341.8,151.4 L342.3,151.4 L342.8,151.4 L343.3,151.4 L343.8,151.4 L344.3,151.4 L344.8,151.4 L344.8,150.9 L345.3,150.9 L345.8,150.9 L345.8,150.4 L345.8,150.0 L346.4,150.0 L346.9,150.0 L346.9,149.6 L346.9,149.1 L347.4,149.1 L347.9,149.1 L348.4,149.1 L348.9,149.1 L349.4,149.1 L349.9,149.1 L350.4,149.1 L350.9,149.1 L351.4,149.1 L351.9,149.1 L352.4,149.1 L352.4,148.6 L352.4,148.2 L352.9,148.2 L353.4,148.2 L353.9,148.2 L353.9,147.8 L354.4,147.8 L354.4,147.3 L354.4,146.8 L354.9,146.8 L355.4,146.8 L355.4,146.4 L355.4,145.9 L355.9,145.9 L356.4,145.9 L356.4,145.5 L356.9,145.5 L356.9,145.1 L356.9,144.6 L357.4,144.6 L357.9,144.6 L358.4,144.6 L358.9,144.6 L359.4,144.6 L359.9,144.6 L359.9,144.1 L360.4,144.1 L360.4,143.7 L360.9,143.7 L361.4,143.7 L361.9,143.7 L362.4,143.7 L362.9,143.7 L363.4,143.7 L363.4,143.2 L363.9,143.2 L364.4,143.2 L364.9,143.2 L365.4,143.2 L365.9,143.2 L366.4,143.2 L366.4,142.8 L366.4,142.4 L366.4,141.9 L366.9,141.9 L367.4,141.9 L367.4,141.4 L367.9,141.4 L368.4,141.4 L368.9,141.4 L369.4,141.4 L369.9,141.4 L370.4,141.4 L370.9,141.4 L370.9,141.0 L371.4,141.0 L371.9,141.0 L372.4,141.0 L372.4,140.6 L372.9,140.6 L373.4,140.6 L373.9,140.6 L374.4,140.6 L374.4,140.1 L374.9,140.1 L374.9,139.6 L375.4,139.6 L375.9,139.6 L376.4,139.6 L376.9,139.6 L377.4,139.6 L377.9,139.6 L377.9,139.2 L378.4,139.2 L378.9,139.2 L379.4,139.2 L379.9,139.2 L380.4,139.2 L380.9,139.2 L381.4,139.2 L381.9,139.2 L381.9,138.8 L382.4,138.8 L382.4,138.3 L382.9,138.3 L383.4,138.3 L383.9,138.3 L384.4,138.3 L384.9,138.3 L384.9,137.9 L385.4,137.9 L385.4,137.4 L385.9,137.4 L386.4,137.4 L386.9,137.4 L386.9,136.9 L386.9,136.5 L387.4,136.5 L387.4,136.1 L387.9,136.1 L388.4,136.1 L388.9,136.1 L388.9,135.6 L389.4,135.6 L389.4,135.1 L389.4,134.7 L389.9,134.7 L389.9,134.2 L389.9,133.8 L390.4,133.8 L390.9,133.8 L390.9,133.4 L391.4,133.4 L391.9,133.4 L392.4,133.4 L392.9,133.4 L393.4,133.4 L393.4,132.9 L393.9,132.9 L394.4,132.9 L394.4,132.4 L394.9,132.4 L395.4,132.4 L395.4,132.0 L395.9,132.0 L396.4,132.0 L396.9,132.0 L397.4,132.0 L397.9,132.0 L398.4,132.0 L398.9,132.0 L398.9,131.6 L399.4,131.6 L399.9,131.6 L400.4,131.6 L400.9,131.6 L401.4,131.6 L401.9,131.6 L402.4,131.6 L402.9,131.6 L403.4,131.6 L403.4,131.1 L403.9,131.1 L404.4,131.1 L404.9,131.1 L405.4,131.1 L405.9,131.1 L405.9,130.7 L406.4,130.7 L406.4,130.2 L406.9,130.2 L407.4,130.2 L407.9,130.2 L408.4,130.2 L408.9,130.2 L409.4,130.2 L409.9,130.2 L410.4,130.2 L410.4,129.8 L410.9,129.8 L410.9,129.3 L410.9,128.9 L410.9,128.4 L411.4,128.4 L411.9,128.4 L412.4,128.4 L412.4,127.9 L412.9,127.9 L413.4,127.9 L413.9,127.9 L413.9,127.5 L414.4,127.5 L414.9,127.5 L415.4,127.5 L415.9,127.5 L416.4,127.5 L416.9,127.5 L417.4,127.5 L417.9,127.5 L418.4,127.5 L418.9,127.5 L419.4,127.5 L419.9,127.5 L420.4,127.5 L420.9,127.5 L421.4,127.5 L421.9,127.5 L421.9,127.1 L422.5,127.1 L423.0,127.1 L423.5,127.1 L424.0,127.1 L424.5,127.1 L425.0,127.1 L425.5,127.1 L425.5,126.6 L425.5,126.1 L425.5,125.7 L426.0,125.7 L426.0,125.2 L426.5,125.2 L427.0,125.2 L427.5,125.2 L428.0,125.2 L428.0,124.8 L428.5,124.8 L429.0,124.8 L429.5,124.8 L430.0,124.8 L430.0,124.3 L430.0,123.9 L430.5,123.9 L431.0,123.9 L431.0,123.4 L431.5,123.4 L432.0,123.4 L432.0,123.0 L432.5,123.0 L433.0,123.0 L433.5,123.0 L434.0,123.0 L434.0,122.6 L434.5,122.6 L435.0,122.6 L435.0,122.1 L435.5,122.1 L435.5,121.6 L436.0,121.6 L436.5,121.6 L437.0,121.6 L437.5,121.6 L438.0,121.6 L438.5,121.6 L438.5,121.2 L438.5,120.8 L438.5,120.3 L439.0,120.3 L439.5,120.3 L440.0,120.3 L440.5,120.3 L441.0,120.3 L441.5,120.3 L441.5,119.9 L442.0,119.9 L442.5,119.9 L443.0,119.9 L443.0,119.4 L443.0,118.9 L443.5,118.9 L444.0,118.9 L444.5,118.9 L445.0,118.9 L445.0,118.5 L445.5,118.5 L446.0,118.5 L446.5,118.5 L447.0,118.5 L447.5,118.5 L447.5,118.1 L448.0,118.1 L448.5,118.1 L449.0,118.1 L449.5,118.1 L450.0,118.1 L450.5,118.1 L451.0,118.1 L451.5,118.1 L452.0,118.1 L452.5,118.1 L453.0,118.1 L453.5,118.1 L454.0,118.1 L454.5,118.1 L455.0,118.1 L455.0,117.6 L455.0,117.1 L455.5,117.1 L456.0,117.1 L456.5,117.1 L457.0,117.1 L457.0,116.7 L457.5,116.7 L458.0,116.7 L458.0,116.2 L458.5,116.2 L459.0,116.2 L459.5,116.2 L459.5,115.8 L460.0,115.8 L460.0,115.4 L460.0,114.9 L460.5,114.9 L461.0,114.9 L461.5,114.9 L461.5,114.4 L462.0,114.4 L462.5,114.4 L462.5,114.0 L463.0,114.0 L463.5,114.0 L464.0,114.0 L464.5,114.0 L464.5,113.6 L465.0,113.6 L465.5,113.6 L466.0,113.6 L466.0,113.1 L466.0,112.6 L466.5,112.6 L467.0,112.6 L467.5,112.6 L468.0,112.6 L468.0,112.2 L468.5,112.2 L469.0,112.2 L469.5,112.2 L470.0,112.2 L470.5,112.2 L470.5,111.8 L471.0,111.8 L471.5,111.8 L471.5,111.3 L472.0,111.3 L472.5,111.3 L472.5,110.9 L473.0,110.9 L473.5,110.9 L474.0,110.9 L474.5,110.9 L475.0,110.9 L475.0,110.4 L475.0,109.9 L475.5,109.9 L476.0,109.9 L476.0,109.5 L476.5,109.5 L477.0,109.5 L477.0,109.1 L477.5,109.1 L478.0,109.1 L478.0,108.6 L478.5,108.6 L479.0,108.6 L479.5,108.6 L479.5,108.2 L480.0,108.2 L480.5,108.2 L481.0,108.2 L481.5,108.2 L482.0,108.2 L482.0,107.7 L482.5,107.7 L482.5,107.2 L483.0,107.2 L483.0,106.8 L483.0,106.4 L483.5,106.4 L484.0,106.4 L484.5,106.4 L484.5,105.9 L485.0,105.9 L485.5,105.9 L486.0,105.9 L486.0,105.4 L486.0,105.0 L486.5,105.0 L487.0,105.0 L487.5,105.0 L488.0,105.0 L488.0,104.6 L488.5,104.6 L489.0,104.6 L489.0,104.1 L489.5,104.1 L490.0,104.1 L490.5,104.1 L490.5,103.6 L491.0,103.6 L491.5,103.6 L492.0,103.6 L492.5,103.6 L493.0,103.6 L493.5,103.6 L494.0,103.6 L494.5,103.6 L495.0,103.6 L495.0,103.2 L495.5,103.2 L496.0,103.2 L496.5,103.2 L497.0,103.2 L497.0,102.8 L497.5,102.8 L498.1,102.8 L498.6,102.8 L498.6,102.3 L499.1,102.3 L499.6,102.3 L500.1,102.3 L500.6,102.3 L501.1,102.3 L501.6,102.3 L501.6,101.8 L502.1,101.8 L502.6,101.8 L503.1,101.8 L503.6,101.8 L504.1,101.8 L504.6,101.8 L505.1,101.8 L505.6,101.8 L506.1,101.8 L506.6,101.8 L507.1,101.8 L507.6,101.8 L508.1,101.8 L508.6,101.8 L509.1,101.8 L509.6,101.8 L510.1,101.8 L510.6,101.8 L511.1,101.8 L511.6,101.8 L512.1,101.8 L512.6,101.8 L513.1,101.8 L513.6,101.8 L514.1,101.8 L514.1,101.4 L514.6,101.4 L515.1,101.4 L515.6,101.4 L515.6,100.9 L516.1,100.9 L516.6,100.9 L517.1,100.9 L517.6,100.9 L517.6,100.5 L517.6,100.1 L517.6,99.6 L517.6,99.1 L517.6,98.7 L517.6,98.2 L518.1,98.2 L518.6,98.2 L519.1,98.2 L519.6,98.2 L520.1,98.2 L520.1,97.8 L520.6,97.8 L521.1,97.8 L521.6,97.8 L522.1,97.8 L522.6,97.8 L523.1,97.8 L523.6,97.8 L524.1,97.8 L524.1,97.4 L524.6,97.4 L524.6,96.9 L525.1,96.9 L525.1,96.4 L525.1,96.0 L525.6,96.0 L526.1,96.0 L526.6,96.0 L527.1,96.0 L527.6,96.0 L528.1,96.0 L528.6,96.0 L528.6,95.6 L529.1,95.6 L529.6,95.6 L530.1,95.6 L530.6,95.6 L531.1,95.6 L531.6,95.6 L532.1,95.6 L532.6,95.6 L532.6,95.1 L532.6,94.6 L533.1,94.6 L533.6,94.6 L534.1,94.6 L534.6,94.6 L535.1,94.6 L535.6,94.6 L536.1,94.6 L536.6,94.6 L537.1,94.6 L537.6,94.6 L538.1,94.6 L538.6,94.6 L539.1,94.6 L539.6,94.6 L540.1,94.6 L540.6,94.6 L541.1,94.6 L541.6,94.6 L542.1,94.6 L542.6,94.6 L543.1,94.6 L543.6,94.6 L544.1,94.6 L544.6,94.6 L545.1,94.6 L545.6,94.6 L546.1,94.6 L546.6,94.6 L547.1,94.6 L547.6,94.6 L548.1,94.6 L548.6,94.6 L549.1,94.6 L549.6,94.6 L550.1,94.6 L550.6,94.6 L551.1,94.6 L551.6,94.6 L552.1,94.6 L552.6,94.6 L553.1,94.6 L553.6,94.6 L554.1,94.6 L554.6,94.6 L555.1,94.6 L555.6,94.6 L555.6,94.2 L556.1,94.2 L556.6,94.2 L557.1,94.2 L557.6,94.2 L558.1,94.2 L558.6,94.2 L559.1,94.2 L559.6,94.2 L560.1,94.2 L560.6,94.2 L561.1,94.2 L561.6,94.2 L562.1,94.2 L562.6,94.2 L563.1,94.2 L563.6,94.2 L564.1,94.2 L564.6,94.2 L565.1,94.2 L565.6,94.2 L566.1,94.2 L566.6,94.2 L567.1,94.2 L567.6,94.2 L568.1,94.2 L568.6,94.2 L569.1,94.2 L569.6,94.2 L570.1,94.2 L570.6,94.2 L571.1,94.2 L571.6,94.2 L572.1,94.2 L572.6,94.2 L573.1,94.2 L573.1,93.8 L573.6,93.8 L573.6,93.3 L574.2,93.3 L574.7,93.3 L575.2,93.3 L575.7,93.3 L575.7,92.9 L576.2,92.9 L576.7,92.9 L576.7,92.4 L576.7,91.9 L577.2,91.9 L577.7,91.9 L578.2,91.9 L578.7,91.9 L579.2,91.9 L579.7,91.9 L580.2,91.9 L580.2,91.5 L580.2,91.1 L580.7,91.1 L581.2,91.1 L581.7,91.1 L581.7,90.6 L582.2,90.6 L582.7,90.6 L583.2,90.6 L583.7,90.6 L584.2,90.6 L584.7,90.6 L585.2,90.6 L585.7,90.6 L586.2,90.6 L586.7,90.6 L587.2,90.6 L587.7,90.6 L587.7,90.1 L588.2,90.1 L588.7,90.1 L588.7,89.7 L589.2,89.7 L589.7,89.7 L590.2,89.7 L590.7,89.7 L591.2,89.7 L591.7,89.7 L592.2,89.7 L592.7,89.7 L593.2,89.7 L593.7,89.7 L593.7,89.2 L594.2,89.2 L594.7,89.2 L595.2,89.2 L595.2,88.8 L595.2,88.4 L595.7,88.4 L596.2,88.4 L596.7,88.4 L597.2,88.4 L597.7,88.4 L598.2,88.4 L598.7,88.4 L599.2,88.4 L599.7,88.4 L600.2,88.4 L600.7,88.4 L600.7,87.9 L601.2,87.9 L601.7,87.9 L602.2,87.9 L602.2,87.4 L602.2,87.0 L602.7,87.0 L603.2,87.0 L603.7,87.0 L603.7,86.6 L604.2,86.6 L604.7,86.6 L604.7,86.1 L604.7,85.7 L605.2,85.7 L605.7,85.7 L606.2,85.7 L606.7,85.7 L607.2,85.7 L607.7,85.7 L608.2,85.7 L608.7,85.7 L608.7,85.2 L609.2,85.2 L609.7,85.2 L610.2,85.2 L610.2,84.8 L610.7,84.8 L610.7,84.3 L611.2,84.3 L611.7,84.3 L612.2,84.3 L612.7,84.3 L613.2,84.3 L613.7,84.3 L614.2,84.3 L614.7,84.3 L614.7,83.9 L615.2,83.9 L615.7,83.9 L616.2,83.9 L616.7,83.9 L617.2,83.9 L617.7,83.9 L618.2,83.9 L618.7,83.9 L619.2,83.9 L619.7,83.9 L620.2,83.9 L620.7,83.9 L621.2,83.9 L621.7,83.9 L622.2,83.9 L622.2,83.4 L622.7,83.4 L622.7,82.9 L623.2,82.9 L623.7,82.9 L623.7,82.5 L624.2,82.5 L624.7,82.5 L625.2,82.5 L625.7,82.5 L626.2,82.5 L626.7,82.5 L627.2,82.5 L627.7,82.5 L628.2,82.5 L628.2,82.1 L628.2,81.6 L628.7,81.6 L629.2,81.6 L629.7,81.6 L630.2,81.6 L630.2,81.1 L630.7,81.1 L631.2,81.1 L631.7,81.1 L632.2,81.1 L632.7,81.1 L633.2,81.1 L633.7,81.1 L633.7,80.7 L633.7,80.2 L634.2,80.2 L634.7,80.2 L635.2,80.2 L635.7,80.2 L636.2,80.2 L636.7,80.2 L637.2,80.2 L637.7,80.2 L638.2,80.2 L638.7,80.2 L639.2,80.2 L639.7,80.2 L640.2,80.2 L640.7,80.2 L641.2,80.2 L641.7,80.2 L641.7,79.8 L641.7,79.3 L642.2,79.3 L642.7,79.3 L643.2,79.3 L643.7,79.3 L644.2,79.3 L644.7,79.3 L645.2,79.3 L645.7,79.3 L646.2,79.3 L646.7,79.3 L646.7,78.9 L647.2,78.9 L647.7,78.9 L648.2,78.9 L648.7,78.9 L649.2,78.9 L649.7,78.9 L649.7,78.4 L650.3,78.4 L650.8,78.4 L651.3,78.4 L651.3,78.0 L651.8,78.0 L652.3,78.0 L652.8,78.0 L653.3,78.0 L653.8,78.0 L654.3,78.0 L654.8,78.0 L655.3,78.0 L655.8,78.0 L656.3,78.0 L656.8,78.0 L657.3,78.0 L657.8,78.0 L658.3,78.0 L658.3,77.6 L658.8,77.6 L659.3,77.6 L659.8,77.6 L660.3,77.6 L660.3,77.1 L660.8,77.1 L661.3,77.1 L661.3,76.6 L661.8,76.6 L662.3,76.6 L662.8,76.6 L663.3,76.6 L663.8,76.6 L664.3,76.6 L664.8,76.6 L665.3,76.6 L665.8,76.6 L665.8,76.2 L666.3,76.2 L666.8,76.2 L667.3,76.2 L667.8,76.2 L668.3,76.2 L668.8,76.2 L669.3,76.2 L669.8,76.2 L670.3,76.2 L670.8,76.2 L670.8,75.8 L671.3,75.8 L671.8,75.8 L672.3,75.8 L672.3,75.3 L672.8,75.3 L672.8,74.9 L673.3,74.9 L673.8,74.9 L674.3,74.9 L674.8,74.9 L675.3,74.9 L675.8,74.9 L676.3,74.9 L676.8,74.9 L677.3,74.9 L677.8,74.9 L678.3,74.9 L678.8,74.9 L678.8,74.4 L679.3,74.4 L679.8,74.4 L680.3,74.4 L680.8,74.4 L680.8,73.9 L681.3,73.9 L681.3,73.5 L681.8,73.5 L682.3,73.5 L682.8,73.5 L683.3,73.5 L683.8,73.5 L684.3,73.5 L684.8,73.5 L685.3,73.5 L685.8,73.5 L686.3,73.5 L686.8,73.5 L687.3,73.5 L687.8,73.5 L688.3,73.5 L688.8,73.5 L688.8,73.1 L689.3,73.1 L689.8,73.1 L690.3,73.1 L690.8,73.1 L691.3,73.1 L691.8,73.1 L692.3,73.1 L692.8,73.1 L693.3,73.1 L693.8,73.1 L694.3,73.1 L694.3,72.6 L694.8,72.6 L695.3,72.6 L695.8,72.6 L696.3,72.6 L696.8,72.6 L697.3,72.6 L697.8,72.6 L698.3,72.6 L698.8,72.6 L699.3,72.6 L699.8,72.6 L700.3,72.6 L700.8,72.6 L701.3,72.6 L701.8,72.6 L702.3,72.6 L702.3,72.1 L702.8,72.1 L703.3,72.1 L703.8,72.1 L704.3,72.1 L704.3,71.7 L704.8,71.7 L705.3,71.7 L705.8,71.7 L706.3,71.7 L706.8,71.7 L707.3,71.7 L707.8,71.7 L707.8,71.2 L708.3,71.2 L708.8,71.2 L709.3,71.2 L709.8,71.2 L709.8,70.8 L710.3,70.8 L710.3,70.4 L710.8,70.4 L711.3,70.4 L711.8,70.4 L712.3,70.4 L712.8,70.4 L712.8,69.9 L713.3,69.9 L713.8,69.9 L714.3,69.9 L714.8,69.9 L715.3,69.9 L715.8,69.9 L716.3,69.9 L716.8,69.9 L717.3,69.9 L717.8,69.9 L718.3,69.9 L718.8,69.9 L719.3,69.9 L719.8,69.9 L720.3,69.9 L720.8,69.9 L721.3,69.9 L721.8,69.9 L722.3,69.9 L722.8,69.9 L723.3,69.9 L723.8,69.9 L724.3,69.9 L724.8,69.9 L725.3,69.9 L725.8,69.9 L726.4,69.9 L726.9,69.9 L727.4,69.9 L727.4,69.4 L727.4,69.0 L727.9,69.0 L728.4,69.0 L728.4,68.6 L728.4,68.1 L728.4,67.6 L728.4,67.2 L728.4,66.8 L728.9,66.8 L729.4,66.8 L729.9,66.8 L730.4,66.8 L730.9,66.8 L731.4,66.8 L731.9,66.8 L732.4,66.8 L732.9,66.8 L733.4,66.8 L733.9,66.8 L734.4,66.8 L734.4,66.3 L734.9,66.3 L735.4,66.3 L735.9,66.3 L736.4,66.3 L736.9,66.3 L737.4,66.3 L737.9,66.3 L738.4,66.3 L738.9,66.3 L739.4,66.3 L739.9,66.3 L740.4,66.3 L740.9,66.3 L741.4,66.3 L741.9,66.3 L742.4,66.3 L742.9,66.3 L743.4,66.3 L743.9,66.3 L744.4,66.3 L744.9,66.3 L745.4,66.3 L745.9,66.3 L746.4,66.3 L746.9,66.3 L746.9,65.9 L747.4,65.9 L747.9,65.9 L748.4,65.9 L748.9,65.9 L749.4,65.9 L749.9,65.9 L750.4,65.9 L750.9,65.9 L751.4,65.9 L751.9,65.9 L752.4,65.9 L752.4,65.4 L752.9,65.4 L753.4,65.4 L753.9,65.4 L754.4,65.4 L754.9,65.4 L755.4,65.4 L755.9,65.4 L756.4,65.4 L756.4,64.9 L756.9,64.9 L757.4,64.9 L757.9,64.9 L758.4,64.9 L758.9,64.9 L759.4,64.9 L759.9,64.9 L760.4,64.9 L760.9,64.9 L761.4,64.9 L761.9,64.9 L762.4,64.9 L762.9,64.9 L762.9,64.5 L763.4,64.5 L763.9,64.5 L764.4,64.5 L764.9,64.5 L765.4,64.5 L765.9,64.5 L766.4,64.5 L766.9,64.5 L767.4,64.5 L767.9,64.5 L768.4,64.5 L768.9,64.5 L768.9,64.1 L769.4,64.1 L769.9,64.1 L770.4,64.1 L770.9,64.1 L771.4,64.1 L771.9,64.1 L772.4,64.1 L772.9,64.1 L773.4,64.1 L773.9,64.1 L774.4,64.1 L774.9,64.1 L775.4,64.1 L775.9,64.1 L776.4,64.1 L776.9,64.1 L776.9,63.6 L777.4,63.6 L777.9,63.6 L778.4,63.6 L778.9,63.6 L779.4,63.6 L779.9,63.6 L780.4,63.6 L780.9,63.6 L781.4,63.6 L781.9,63.6 L782.4,63.6 L782.9,63.6 L783.4,63.6 L783.9,63.6 L784.4,63.6 L784.9,63.6 L785.4,63.6 L785.4,63.2 L785.9,63.2 L786.4,63.2 L786.9,63.2 L786.9,62.7 L787.4,62.7 L787.9,62.7 L788.4,62.7 L788.9,62.7 L789.4,62.7 L789.9,62.7 L790.4,62.7 L790.9,62.7 L791.4,62.7 L791.9,62.7 L792.4,62.7 L792.9,62.7 L793.4,62.7 L793.4,62.2 L793.9,62.2 L794.4,62.2 L794.9,62.2 L795.4,62.2 L795.4,61.8 L795.9,61.8 L796.4,61.8 L796.9,61.8 L797.4,61.8 L797.9,61.8 L798.4,61.8 L798.9,61.8 L799.4,61.8 L799.9,61.8 L800.4,61.8 L800.9,61.8 L801.4,61.8 L801.9,61.8 L802.5,61.8 L803.0,61.8 L803.5,61.8 L804.0,61.8 L804.5,61.8 L805.0,61.8 L805.5,61.8 L806.0,61.8 L806.5,61.8 L807.0,61.8 L807.5,61.8 L808.0,61.8 L808.5,61.8 L809.0,61.8 L809.5,61.8 L810.0,61.8 L810.5,61.8 L810.5,61.4 L811.0,61.4 L811.5,61.4 L812.0,61.4 L812.5,61.4 L812.5,60.9 L812.5,60.4 L813.0,60.4 L813.5,60.4 L814.0,60.4 L814.5,60.4 L815.0,60.4 L815.5,60.4 L816.0,60.4 L816.5,60.4 L817.0,60.4 L817.0,60.0 L817.5,60.0 L818.0,60.0 L818.5,60.0 L819.0,60.0 L819.5,60.0 L820.0,60.0 L820.5,60.0 L821.0,60.0 L821.5,60.0 L822.0,60.0 L822.5,60.0 L823.0,60.0 L823.5,60.0 L824.0,60.0 L824.5,60.0 L825.0,60.0 L825.5,60.0 L826.0,60.0 L826.5,60.0 L827.0,60.0 L827.5,60.0 L828.0,60.0 L828.5,60.0 L829.0,60.0 L829.5,60.0 L830.0,60.0 L830.5,60.0 L831.0,60.0 L831.5,60.0 L832.0,60.0 L832.5,60.0 L833.0,60.0 L833.5,60.0 L834.0,60.0 L834.5,60.0 L835.0,60.0 L835.5,60.0 L836.0,60.0 L836.5,60.0 L837.0,60.0 L837.5,60.0 L838.0,60.0 L838.5,60.0 L839.0,60.0 L839.5,60.0 L840.0,60.0 L840.0,60.0" fill="none" stroke="#dc2626" stroke-width="2.5"/>
<rect x="868" y="71" width="14" height="14" fill="#dc2626"/>
<text x="888.0" y="82.0" font-family="monospace" font-size="11" font-weight="400" text-anchor="start" fill="#111827">frontotemporal_dementia AUC=0.772</text>
<path d="M80.0,420.0 L80.0,419.3 L80.0,418.7 L80.0,418.0 L80.0,417.4 L80.0,416.7 L80.0,416.1 L80.0,415.4 L80.0,414.8 L80.0,414.1 L80.0,413.5 L80.0,412.8 L80.0,412.2 L80.0,411.5 L80.0,410.9 L80.0,410.2 L80.0,409.5 L80.0,408.9 L80.4,408.9 L80.4,408.2 L80.4,407.6 L80.9,407.6 L81.3,407.6 L81.3,406.9 L81.3,406.3 L81.7,406.3 L81.7,405.6 L81.7,405.0 L81.7,404.3 L81.7,403.7 L81.7,403.0 L81.7,402.4 L81.7,401.7 L82.2,401.7 L82.6,401.7 L82.6,401.1 L83.0,401.1 L83.4,401.1 L83.9,401.1 L83.9,400.4 L83.9,399.7 L84.3,399.7 L84.3,399.1 L84.3,398.4 L84.3,397.8 L84.3,397.1 L84.7,397.1 L84.7,396.5 L85.2,396.5 L85.2,395.8 L85.2,395.2 L85.2,394.5 L85.2,393.9 L85.6,393.9 L86.0,393.9 L86.5,393.9 L86.5,393.2 L86.9,393.2 L86.9,392.6 L86.9,391.9 L86.9,391.3 L87.3,391.3 L87.7,391.3 L87.7,390.6 L87.7,389.9 L88.2,389.9 L88.2,389.3 L88.2,388.6 L88.6,388.6 L88.6,388.0 L88.6,387.3 L88.6,386.7 L88.6,386.0 L89.0,386.0 L89.0,385.4 L89.5,385.4 L89.9,385.4 L90.3,385.4 L90.3,384.7 L90.3,384.1 L90.8,384.1 L90.8,383.4 L91.2,383.4 L91.6,383.4 L92.0,383.4 L92.5,383.4 L92.9,383.4 L92.9,382.8 L93.3,382.8 L93.8,382.8 L93.8,382.1 L93.8,381.5 L93.8,380.8 L94.2,380.8 L94.2,380.1 L94.2,379.5 L94.6,379.5 L94.6,378.8 L95.1,378.8 L95.5,378.8 L95.9,378.8 L95.9,378.2 L96.3,378.2 L96.8,378.2 L97.2,378.2 L97.6,378.2 L97.6,377.5 L98.1,377.5 L98.1,376.9 L98.5,376.9 L98.5,376.2 L98.9,376.2 L99.4,376.2 L99.8,376.2 L100.2,376.2 L100.6,376.2 L101.1,376.2 L101.5,376.2 L101.9,376.2 L102.4,376.2 L102.4,375.6 L102.8,375.6 L102.8,374.9 L102.8,374.3 L102.8,373.6 L102.8,373.0 L103.2,373.0 L103.2,372.3 L103.7,372.3 L104.1,372.3 L104.5,372.3 L104.5,371.7 L104.5,371.0 L104.5,370.3 L104.9,370.3 L104.9,369.7 L104.9,369.0 L104.9,368.4 L105.4,368.4 L105.4,367.7 L105.4,367.1 L105.4,366.4 L105.8,366.4 L106.2,366.4 L106.2,365.8 L106.7,365.8 L107.1,365.8 L107.5,365.8 L108.0,365.8 L108.0,365.1 L108.4,365.1 L108.8,365.1 L108.8,364.5 L109.2,364.5 L109.7,364.5 L110.1,364.5 L110.5,364.5 L111.0,364.5 L111.4,364.5 L111.8,364.5 L112.3,364.5 L112.3,363.8 L112.3,363.2 L112.7,363.2 L113.1,363.2 L113.5,363.2 L114.0,363.2 L114.0,362.5 L114.4,362.5 L114.4,361.9 L114.8,361.9 L114.8,361.2 L115.3,361.2 L115.7,361.2 L116.1,361.2 L116.1,360.5 L116.6,360.5 L117.0,360.5 L117.0,359.9 L117.4,359.9 L117.4,359.2 L117.8,359.2 L118.3,359.2 L118.3,358.6 L118.7,358.6 L118.7,357.9 L119.1,357.9 L119.6,357.9 L120.0,357.9 L120.4,357.9 L120.9,357.9 L120.9,357.3 L121.3,357.3 L121.3,356.6 L121.7,356.6 L121.7,356.0 L122.2,356.0 L122.6,356.0 L122.6,355.3 L123.0,355.3 L123.4,355.3 L123.9,355.3 L124.3,355.3 L124.3,354.7 L124.3,354.0 L124.7,354.0 L124.7,353.4 L125.2,353.4 L125.2,352.7 L125.2,352.1 L125.6,352.1 L125.6,351.4 L126.0,351.4 L126.5,351.4 L126.9,351.4 L127.3,351.4 L127.3,350.7 L127.7,350.7 L128.2,350.7 L128.2,350.1 L128.6,350.1 L128.6,349.4 L129.0,349.4 L129.5,349.4 L129.9,349.4 L130.3,349.4 L130.8,349.4 L130.8,348.8 L131.2,348.8 L131.6,348.8 L132.0,348.8 L132.5,348.8 L132.9,348.8 L132.9,348.1 L133.3,348.1 L133.8,348.1 L133.8,347.5 L134.2,347.5 L134.6,347.5 L135.1,347.5 L135.5,347.5 L135.5,346.8 L135.9,346.8 L136.3,346.8 L136.3,346.2 L136.8,346.2 L137.2,346.2 L137.6,346.2 L138.1,346.2 L138.5,346.2 L138.5,345.5 L138.9,345.5 L139.4,345.5 L139.8,345.5 L140.2,345.5 L140.6,345.5 L141.1,345.5 L141.5,345.5 L141.9,345.5 L142.4,345.5 L142.8,345.5 L143.2,345.5 L143.7,345.5 L143.7,344.9 L144.1,344.9 L144.1,344.2 L144.5,344.2 L144.9,344.2 L145.4,344.2 L145.4,343.6 L145.8,343.6 L145.8,342.9 L146.2,342.9 L146.7,342.9 L147.1,342.9 L147.5,342.9 L147.5,342.3 L147.5,341.6 L148.0,341.6 L148.4,341.6 L148.4,340.9 L148.8,340.9 L149.2,340.9 L149.7,340.9 L150.1,340.9 L150.5,340.9 L150.5,340.3 L151.0,340.3 L151.0,339.6 L151.4,339.6 L151.4,339.0 L151.8,339.0 L152.3,339.0 L152.7,339.0 L152.7,338.3 L153.1,338.3 L153.1,337.7 L153.5,337.7 L153.5,337.0 L154.0,337.0 L154.4,337.0 L154.4,336.4 L154.8,336.4 L155.3,336.4 L155.7,336.4 L155.7,335.7 L156.1,335.7 L156.6,335.7 L157.0,335.7 L157.4,335.7 L157.8,335.7 L157.8,335.1 L158.3,335.1 L158.7,335.1 L159.1,335.1 L159.1,334.4 L159.6,334.4 L160.0,334.4 L160.4,334.4 L160.9,334.4 L161.3,334.4 L161.7,334.4 L162.2,334.4 L162.6,334.4 L163.0,334.4 L163.4,334.4 L163.4,333.8 L163.9,333.8 L164.3,333.8 L164.7,333.8 L165.2,333.8 L165.2,333.1 L165.6,333.1 L166.0,333.1 L166.5,333.1 L166.5,332.5 L166.9,332.5 L167.3,332.5 L167.7,332.5 L167.7,331.8 L168.2,331.8 L168.6,331.8 L169.0,331.8 L169.0,331.1 L169.0,330.5 L169.5,330.5 L169.5,329.8 L169.9,329.8 L170.3,329.8 L170.8,329.8 L170.8,329.2 L170.8,328.5 L171.2,328.5 L171.6,328.5 L172.0,328.5 L172.0,327.9 L172.5,327.9 L172.5,327.2 L172.5,326.6 L172.5,325.9 L172.9,325.9 L172.9,325.3 L172.9,324.6 L172.9,324.0 L173.3,324.0 L173.8,324.0 L174.2,324.0 L174.6,324.0 L174.6,323.3 L175.1,323.3 L175.5,323.3 L175.9,323.3 L176.3,323.3 L176.3,322.6 L176.3,322.0 L176.8,322.0 L177.2,322.0 L177.6,322.0 L177.6,321.3 L178.1,321.3 L178.1,320.7 L178.5,320.7 L178.9,320.7 L178.9,320.0 L179.4,320.0 L179.4,319.4 L179.8,319.4 L179.8,318.7 L180.2,318.7 L180.6,318.7 L181.1,318.7 L181.5,318.7 L181.9,318.7 L182.4,318.7 L182.4,318.1 L182.8,318.1 L182.8,317.4 L183.2,317.4 L183.2,316.8 L183.7,316.8 L184.1,316.8 L184.1,316.1 L184.5,316.1 L184.5,315.5 L184.9,315.5 L185.4,315.5 L185.8,315.5 L185.8,314.8 L186.2,314.8 L186.2,314.2 L186.7,314.2 L187.1,314.2 L187.5,314.2 L188.0,314.2 L188.0,313.5 L188.4,313.5 L188.8,313.5 L189.2,313.5 L189.7,313.5 L190.1,313.5 L190.1,312.8 L190.5,312.8 L190.5,312.2 L191.0,312.2 L191.4,312.2 L191.4,311.5 L191.8,311.5 L191.8,310.9 L192.3,310.9 L192.7,310.9 L193.1,310.9 L193.1,310.2 L193.1,309.6 L193.1,308.9 L193.5,308.9 L193.5,308.3 L194.0,308.3 L194.4,308.3 L194.4,307.6 L194.8,307.6 L195.3,307.6 L195.3,307.0 L195.3,306.3 L195.7,306.3 L196.1,306.3 L196.1,305.7 L196.6,305.7 L197.0,305.7 L197.4,305.7 L197.4,305.0 L197.8,305.0 L198.3,305.0 L198.7,305.0 L199.1,305.0 L199.1,304.4 L199.1,303.7 L199.6,303.7 L200.0,303.7 L200.4,303.7 L200.9,303.7 L201.3,303.7 L201.7,303.7 L202.2,303.7 L202.6,303.7 L202.6,303.0 L203.0,303.0 L203.0,302.4 L203.4,302.4 L203.4,301.7 L203.9,301.7 L204.3,301.7 L204.7,301.7 L205.2,301.7 L205.6,301.7 L206.0,301.7 L206.5,301.7 L206.9,301.7 L206.9,301.1 L207.3,301.1 L207.7,301.1 L208.2,301.1 L208.2,300.4 L208.6,300.4 L208.6,299.8 L208.6,299.1 L209.0,299.1 L209.5,299.1 L209.9,299.1 L209.9,298.5 L209.9,297.8 L210.3,297.8 L210.3,297.2 L210.3,296.5 L210.8,296.5 L210.8,295.9 L211.2,295.9 L211.2,295.2 L211.6,295.2 L212.0,295.2 L212.0,294.6 L212.0,293.9 L212.0,293.2 L212.5,293.2 L212.9,293.2 L213.3,293.2 L213.8,293.2 L214.2,293.2 L214.6,293.2 L215.1,293.2 L215.5,293.2 L215.9,293.2 L216.3,293.2 L216.8,293.2 L216.8,292.6 L217.2,292.6 L217.6,292.6 L217.6,291.9 L217.6,291.3 L217.6,290.6 L218.1,290.6 L218.5,290.6 L218.5,290.0 L218.9,290.0 L218.9,289.3 L218.9,288.7 L219.4,288.7 L219.8,288.7 L220.2,288.7 L220.6,288.7 L221.1,288.7 L221.5,288.7 L221.9,288.7 L221.9,288.0 L222.4,288.0 L222.4,287.4 L222.8,287.4 L223.2,287.4 L223.2,286.7 L223.7,286.7 L224.1,286.7 L224.5,286.7 L224.9,286.7 L225.4,286.7 L225.8,286.7 L226.2,286.7 L226.7,286.7 L226.7,286.1 L227.1,286.1 L227.5,286.1 L227.5,285.4 L228.0,285.4 L228.4,285.4 L228.8,285.4 L229.2,285.4 L229.7,285.4 L229.7,284.8 L230.1,284.8 L230.1,284.1 L230.5,284.1 L230.5,283.4 L231.0,283.4 L231.4,283.4 L231.8,283.4 L232.3,283.4 L232.7,283.4 L233.1,283.4 L233.5,283.4 L234.0,283.4 L234.4,283.4 L234.8,283.4 L234.8,282.8 L234.8,282.1 L235.3,282.1 L235.3,281.5 L235.7,281.5 L236.1,281.5 L236.6,281.5 L237.0,281.5 L237.4,281.5 L237.4,280.8 L237.8,280.8 L238.3,280.8 L238.7,280.8 L238.7,280.2 L238.7,279.5 L239.1,279.5 L239.6,279.5 L239.6,278.9 L239.6,278.2 L240.0,278.2 L240.4,278.2 L240.9,278.2 L241.3,278.2 L241.3,277.6 L241.7,277.6 L241.7,276.9 L242.2,276.9 L242.6,276.9 L242.6,276.3 L243.0,276.3 L243.0,275.6 L243.4,275.6 L243.9,275.6 L244.3,275.6 L244.7,275.6 L245.2,275.6 L245.6,275.6 L245.6,275.0 L245.6,274.3 L246.0,274.3 L246.5,274.3 L246.9,274.3 L247.3,274.3 L247.7,274.3 L248.2,274.3 L248.2,273.6 L248.6,273.6 L249.0,273.6 L249.5,273.6 L249.9,273.6 L250.3,273.6 L250.8,273.6 L251.2,273.6 L251.6,273.6 L252.0,273.6 L252.5,273.6 L252.9,273.6 L253.3,273.6 L253.8,273.6 L253.8,273.0 L254.2,273.0 L254.2,272.3 L254.2,271.7 L254.6,271.7 L255.1,271.7 L255.5,271.7 L255.5,271.0 L255.9,271.0 L256.3,271.0 L256.8,271.0 L256.8,270.4 L256.8,269.7 L257.2,269.7 L257.2,269.1 L257.6,269.1 L257.6,268.4 L258.1,268.4 L258.1,267.8 L258.5,267.8 L258.5,267.1 L258.9,267.1 L259.4,267.1 L259.8,267.1 L260.2,267.1 L260.6,267.1 L261.1,267.1 L261.5,267.1 L261.9,267.1 L262.4,267.1 L262.4,266.5 L262.8,266.5 L263.2,266.5 L263.7,266.5 L264.1,266.5 L264.5,266.5 L264.9,266.5 L265.4,266.5 L265.8,266.5 L266.2,266.5 L266.7,266.5 L267.1,266.5 L267.5,266.5 L268.0,266.5 L268.4,266.5 L268.8,266.5 L269.2,266.5 L269.7,266.5 L270.1,266.5 L270.1,265.8 L270.1,265.2 L270.5,265.2 L271.0,265.2 L271.4,265.2 L271.8,265.2 L271.8,264.5 L272.3,264.5 L272.7,264.5 L273.1,264.5 L273.5,264.5 L274.0,264.5 L274.4,264.5 L274.4,263.8 L274.8,263.8 L274.8,263.2 L274.8,262.5 L275.3,262.5 L275.7,262.5 L275.7,261.9 L275.7,261.2 L276.1,261.2 L276.1,260.6 L276.6,260.6 L277.0,260.6 L277.4,260.6 L277.8,260.6 L277.8,259.9 L278.3,259.9 L278.7,259.9 L278.7,259.3 L279.1,259.3 L279.1,258.6 L279.1,258.0 L279.6,258.0 L279.6,257.3 L279.6,256.7 L280.0,256.7 L280.4,256.7 L280.9,256.7 L281.3,256.7 L281.7,256.7 L282.2,256.7 L282.6,256.7 L282.6,256.0 L282.6,255.4 L283.0,255.4 L283.4,255.4 L283.9,255.4 L283.9,254.7 L284.3,254.7 L284.3,254.0 L284.7,254.0 L284.7,253.4 L284.7,252.7 L285.2,252.7 L285.2,252.1 L285.2,251.4 L285.2,250.8 L285.6,250.8 L286.0,250.8 L286.5,250.8 L286.9,250.8 L287.3,250.8 L287.3,250.1 L287.7,250.1 L288.2,250.1 L288.6,250.1 L289.0,250.1 L289.5,250.1 L289.9,250.1 L290.3,250.1 L290.8,250.1 L291.2,250.1 L291.2,249.5 L291.6,249.5 L292.0,249.5 L292.5,249.5 L292.5,248.8 L292.9,248.8 L293.3,248.8 L293.8,248.8 L294.2,248.8 L294.6,248.8 L295.1,248.8 L295.5,248.8 L295.5,248.2 L295.9,248.2 L296.3,248.2 L296.8,248.2 L296.8,247.5 L297.2,247.5 L297.2,246.9 L297.6,246.9 L298.1,246.9 L298.5,246.9 L298.5,246.2 L298.9,246.2 L299.4,246.2 L299.8,246.2 L299.8,245.6 L300.2,245.6 L300.2,244.9 L300.6,244.9 L301.1,244.9 L301.5,244.9 L301.9,244.9 L302.4,244.9 L302.8,244.9 L303.2,244.9 L303.2,244.2 L303.7,244.2 L304.1,244.2 L304.5,244.2 L304.9,244.2 L305.4,244.2 L305.4,243.6 L305.8,243.6 L305.8,242.9 L306.2,242.9 L306.7,242.9 L306.7,242.3 L307.1,242.3 L307.5,242.3 L307.5,241.6 L307.5,241.0 L307.5,240.3 L308.0,240.3 L308.4,240.3 L308.4,239.7 L308.8,239.7 L309.2,239.7 L309.7,239.7 L309.7,239.0 L310.1,239.0 L310.5,239.0 L311.0,239.0 L311.4,239.0 L311.8,239.0 L311.8,238.4 L311.8,237.7 L311.8,237.1 L312.3,237.1 L312.3,236.4 L312.3,235.8 L312.3,235.1 L312.7,235.1 L313.1,235.1 L313.5,235.1 L314.0,235.1 L314.4,235.1 L314.4,234.4 L314.4,233.8 L314.8,233.8 L315.3,233.8 L315.3,233.1 L315.7,233.1 L315.7,232.5 L316.1,232.5 L316.6,232.5 L317.0,232.5 L317.4,232.5 L317.8,232.5 L318.3,232.5 L318.7,232.5 L318.7,231.8 L319.1,231.8 L319.6,231.8 L320.0,231.8 L320.0,231.2 L320.4,231.2 L320.4,230.5 L320.9,230.5 L320.9,229.9 L321.3,229.9 L321.7,229.9 L322.2,229.9 L322.6,229.9 L323.0,229.9 L323.0,229.2 L323.4,229.2 L323.9,229.2 L323.9,228.6 L324.3,228.6 L324.3,227.9 L324.7,227.9 L325.2,227.9 L325.6,227.9 L326.0,227.9 L326.5,227.9 L326.5,227.3 L326.5,226.6 L326.9,226.6 L327.3,226.6 L327.7,226.6 L328.2,226.6 L328.6,226.6 L329.0,226.6 L329.0,226.0 L329.5,226.0 L329.9,226.0 L330.3,226.0 L330.8,226.0 L331.2,226.0 L331.6,226.0 L332.0,226.0 L332.5,226.0 L332.9,226.0 L332.9,225.3 L333.3,225.3 L333.3,224.6 L333.8,224.6 L334.2,224.6 L334.6,224.6 L335.1,224.6 L335.1,224.0 L335.5,224.0 L335.9,224.0 L336.3,224.0 L336.8,224.0 L337.2,224.0 L337.6,224.0 L338.1,224.0 L338.5,224.0 L338.9,224.0 L338.9,223.3 L338.9,222.7 L339.4,222.7 L339.8,222.7 L339.8,222.0 L339.8,221.4 L339.8,220.7 L340.2,220.7 L340.6,220.7 L340.6,220.1 L341.1,220.1 L341.5,220.1 L341.9,220.1 L342.4,220.1 L342.4,219.4 L342.4,218.8 L342.8,218.8 L343.2,218.8 L343.7,218.8 L344.1,218.8 L344.5,218.8 L344.5,218.1 L344.9,218.1 L345.4,218.1 L345.8,218.1 L345.8,217.5 L346.2,217.5 L346.7,217.5 L346.7,216.8 L347.1,216.8 L347.5,216.8 L348.0,216.8 L348.4,216.8 L348.8,216.8 L349.2,216.8 L349.7,216.8 L350.1,216.8 L350.5,216.8 L350.5,216.2 L351.0,216.2 L351.4,216.2 L351.8,216.2 L352.3,216.2 L352.7,216.2 L353.1,216.2 L353.1,215.5 L353.5,215.5 L354.0,215.5 L354.4,215.5 L354.8,215.5 L355.3,215.5 L355.7,215.5 L356.1,215.5 L356.6,215.5 L357.0,215.5 L357.4,215.5 L357.8,215.5 L358.3,215.5 L358.7,215.5 L359.1,215.5 L359.1,214.8 L359.6,214.8 L360.0,214.8 L360.4,214.8 L360.9,214.8 L361.3,214.8 L361.7,214.8 L361.7,214.2 L361.7,213.5 L362.2,213.5 L362.6,213.5 L362.6,212.9 L362.6,212.2 L362.6,211.6 L362.6,210.9 L363.0,210.9 L363.0,210.3 L363.4,210.3 L363.9,210.3 L364.3,210.3 L364.7,210.3 L365.2,210.3 L365.6,210.3 L366.0,210.3 L366.5,210.3 L366.9,210.3 L367.3,210.3 L367.3,209.6 L367.7,209.6 L368.2,209.6 L368.2,209.0 L368.6,209.0 L368.6,208.3 L369.0,208.3 L369.0,207.7 L369.5,207.7 L369.9,207.7 L369.9,207.0 L370.3,207.0 L370.8,207.0 L371.2,207.0 L371.2,206.4 L371.2,205.7 L371.6,205.7 L372.0,205.7 L372.5,205.7 L372.9,205.7 L373.3,205.7 L373.8,205.7 L373.8,205.0 L374.2,205.0 L374.6,205.0 L375.1,205.0 L375.1,204.4 L375.5,204.4 L375.5,203.7 L375.9,203.7 L376.3,203.7 L376.3,203.1 L376.3,202.4 L376.8,202.4 L377.2,202.4 L377.6,202.4 L378.1,202.4 L378.5,202.4 L378.5,201.8 L378.9,201.8 L378.9,201.1 L379.4,201.1 L379.8,201.1 L380.2,201.1 L380.2,200.5 L380.2,199.8 L380.6,199.8 L380.6,199.2 L381.1,199.2 L381.5,199.2 L381.9,199.2 L382.4,199.2 L382.8,199.2 L383.2,199.2 L383.2,198.5 L383.2,197.9 L383.7,197.9 L383.7,197.2 L384.1,197.2 L384.1,196.6 L384.5,196.6 L384.9,196.6 L384.9,195.9 L385.4,195.9 L385.8,195.9 L386.2,195.9 L386.7,195.9 L387.1,195.9 L387.5,195.9 L388.0,195.9 L388.4,195.9 L388.4,195.2 L388.8,195.2 L388.8,194.6 L389.2,194.6 L389.2,193.9 L389.7,193.9 L390.1,193.9 L390.5,193.9 L390.5,193.3 L390.5,192.6 L391.0,192.6 L391.0,192.0 L391.4,192.0 L391.8,192.0 L392.3,192.0 L392.3,191.3 L392.7,191.3 L392.7,190.7 L393.1,190.7 L393.1,190.0 L393.5,190.0 L393.5,189.4 L394.0,189.4 L394.0,188.7 L394.4,188.7 L394.8,188.7 L395.3,188.7 L395.3,188.1 L395.7,188.1 L396.1,188.1 L396.6,188.1 L397.0,188.1 L397.4,188.1 L397.8,188.1 L398.3,188.1 L398.7,188.1 L399.1,188.1 L399.6,188.1 L400.0,188.1 L400.4,188.1 L400.4,187.4 L400.9,187.4 L401.3,187.4 L401.7,187.4 L401.7,186.8 L402.2,186.8 L402.6,186.8 L403.0,186.8 L403.4,186.8 L403.4,186.1 L403.9,186.1 L403.9,185.4 L404.3,185.4 L404.7,185.4 L405.2,185.4 L405.6,185.4 L406.0,185.4 L406.5,185.4 L406.9,185.4 L407.3,185.4 L407.7,185.4 L408.2,185.4 L408.6,185.4 L409.0,185.4 L409.0,184.8 L409.5,184.8 L409.9,184.8 L410.3,184.8 L410.8,184.8 L411.2,184.8 L411.6,184.8 L412.0,184.8 L412.5,184.8 L412.9,184.8 L412.9,184.1 L413.3,184.1 L413.3,183.5 L413.3,182.8 L413.8,182.8 L414.2,182.8 L414.2,182.2 L414.2,181.5 L414.6,181.5 L415.1,181.5 L415.5,181.5 L415.9,181.5 L416.3,181.5 L416.8,181.5 L417.2,181.5 L417.6,181.5 L418.1,181.5 L418.5,181.5 L418.9,181.5 L419.4,181.5 L419.8,181.5 L420.2,181.5 L420.6,181.5 L421.1,181.5 L421.5,181.5 L421.5,180.9 L421.5,180.2 L421.5,179.6 L421.9,179.6 L422.4,179.6 L422.4,178.9 L422.8,178.9 L423.2,178.9 L423.7,178.9 L424.1,178.9 L424.5,178.9 L424.9,178.9 L425.4,178.9 L425.8,178.9 L426.2,178.9 L426.7,178.9 L426.7,178.3 L427.1,178.3 L427.5,178.3 L428.0,178.3 L428.4,178.3 L428.8,178.3 L429.2,178.3 L429.2,177.6 L429.2,177.0 L429.2,176.3 L429.2,175.6 L429.7,175.6 L430.1,175.6 L430.5,175.6 L431.0,175.6 L431.4,175.6 L431.4,175.0 L431.8,175.0 L431.8,174.3 L432.3,174.3 L432.7,174.3 L433.1,174.3 L433.5,174.3 L433.5,173.7 L434.0,173.7 L434.4,173.7 L434.8,173.7 L434.8,173.0 L434.8,172.4 L434.8,171.7 L435.3,171.7 L435.7,171.7 L436.1,171.7 L436.6,171.7 L437.0,171.7 L437.4,171.7 L437.8,171.7 L438.3,171.7 L438.7,171.7 L439.1,171.7 L439.6,171.7 L439.6,171.1 L440.0,171.1 L440.4,171.1 L440.9,171.1 L441.3,171.1 L441.7,171.1 L441.7,170.4 L442.2,170.4 L442.6,170.4 L443.0,170.4 L443.4,170.4 L443.4,169.8 L443.9,169.8 L444.3,169.8 L444.7,169.8 L444.7,169.1 L445.2,169.1 L445.6,169.1 L446.0,169.1 L446.5,169.1 L446.9,169.1 L447.3,169.1 L447.3,168.5 L447.7,168.5 L448.2,168.5 L448.6,168.5 L449.0,168.5 L449.5,168.5 L449.9,168.5 L449.9,167.8 L450.3,167.8 L450.8,167.8 L451.2,167.8 L451.6,167.8 L452.0,167.8 L452.5,167.8 L452.9,167.8 L452.9,167.2 L453.3,167.2 L453.8,167.2 L453.8,166.5 L454.2,166.5 L454.6,166.5 L454.6,165.8 L455.1,165.8 L455.5,165.8 L455.5,165.2 L455.9,165.2 L456.3,165.2 L456.8,165.2 L457.2,165.2 L457.2,164.5 L457.6,164.5 L458.1,164.5 L458.5,164.5 L458.9,164.5 L459.4,164.5 L459.8,164.5 L460.2,164.5 L460.6,164.5 L460.6,163.9 L460.6,163.2 L460.6,162.6 L461.1,162.6 L461.5,162.6 L461.9,162.6 L462.4,162.6 L462.8,162.6 L463.2,162.6 L463.7,162.6 L464.1,162.6 L464.5,162.6 L464.5,161.9 L464.9,161.9 L465.4,161.9 L465.8,161.9 L466.2,161.9 L466.2,161.3 L466.7,161.3 L467.1,161.3 L467.5,161.3 L468.0,161.3 L468.4,161.3 L468.8,161.3 L469.2,161.3 L469.2,160.6 L469.7,160.6 L469.7,160.0 L470.1,160.0 L470.1,159.3 L470.1,158.7 L470.5,158.7 L471.0,158.7 L471.4,158.7 L471.8,158.7 L472.3,158.7 L472.7,158.7 L472.7,158.0 L473.1,158.0 L473.1,157.4 L473.1,156.7 L473.5,156.7 L474.0,156.7 L474.4,156.7 L474.8,156.7 L475.3,156.7 L475.7,156.7 L475.7,156.0 L475.7,155.4 L475.7,154.7 L476.1,154.7 L476.6,154.7 L477.0,154.7 L477.4,154.7 L477.4,154.1 L477.8,154.1 L478.3,154.1 L478.7,154.1 L479.1,154.1 L479.1,153.4 L479.6,153.4 L480.0,153.4 L480.4,153.4 L480.9,153.4 L481.3,153.4 L481.3,152.8 L481.3,152.1 L481.3,151.5 L481.7,151.5 L481.7,150.8 L482.2,150.8 L482.2,150.2 L482.6,150.2 L482.6,149.5 L483.0,149.5 L483.4,149.5 L483.9,149.5 L484.3,149.5 L484.3,148.9 L484.7,148.9 L485.2,148.9 L485.6,148.9 L485.6,148.2 L486.0,148.2 L486.5,148.2 L486.9,148.2 L487.3,148.2 L487.7,148.2 L488.2,148.2 L488.6,148.2 L489.0,148.2 L489.5,148.2 L489.5,147.5 L489.9,147.5 L490.3,147.5 L490.8,147.5 L491.2,147.5 L491.6,147.5 L492.0,147.5 L492.5,147.5 L492.9,147.5 L493.3,147.5 L493.3,146.9 L493.8,146.9 L493.8,146.2 L493.8,145.6 L493.8,144.9 L494.2,144.9 L494.6,144.9 L495.1,144.9 L495.5,144.9 L495.9,144.9 L496.3,144.9 L496.8,144.9 L496.8,144.3 L497.2,144.3 L497.6,144.3 L498.1,144.3 L498.5,144.3 L498.9,144.3 L499.4,144.3 L499.4,143.6 L499.8,143.6 L500.2,143.6 L500.2,143.0 L500.6,143.0 L501.1,143.0 L501.1,142.3 L501.5,142.3 L501.5,141.7 L501.5,141.0 L501.9,141.0 L502.4,141.0 L502.8,141.0 L503.2,141.0 L503.7,141.0 L504.1,141.0 L504.5,141.0 L504.9,141.0 L505.4,141.0 L505.8,141.0 L506.2,141.0 L506.2,140.4 L506.2,139.7 L506.7,139.7 L506.7,139.1 L506.7,138.4 L507.1,138.4 L507.1,137.7 L507.5,137.7 L508.0,137.7 L508.4,137.7 L508.4,137.1 L508.8,137.1 L509.2,137.1 L509.2,136.4 L509.7,136.4 L509.7,135.8 L509.7,135.1 L510.1,135.1 L510.5,135.1 L511.0,135.1 L511.4,135.1 L511.4,134.5 L511.8,134.5 L511.8,133.8 L511.8,133.2 L511.8,132.5 L512.3,132.5 L512.7,132.5 L513.1,132.5 L513.1,131.9 L513.1,131.2 L513.5,131.2 L514.0,131.2 L514.4,131.2 L514.8,131.2 L514.8,130.6 L514.8,129.9 L514.8,129.3 L515.3,129.3 L515.7,129.3 L516.1,129.3 L516.6,129.3 L517.0,129.3 L517.4,129.3 L517.8,129.3 L518.3,129.3 L518.7,129.3 L519.1,129.3 L519.6,129.3 L519.6,128.6 L520.0,128.6 L520.4,128.6 L520.9,128.6 L521.3,128.6 L521.7,128.6 L522.2,128.6 L522.6,128.6 L522.6,127.9 L523.0,127.9 L523.4,127.9 L523.9,127.9 L524.3,127.9 L524.7,127.9 L525.2,127.9 L525.2,127.3 L525.6,127.3 L526.0,127.3 L526.5,127.3 L526.9,127.3 L527.3,127.3 L527.7,127.3 L528.2,127.3 L528.2,126.6 L528.6,126.6 L529.0,126.6 L529.0,126.0 L529.5,126.0 L529.9,126.0 L530.3,126.0 L530.8,126.0 L531.2,126.0 L531.6,126.0 L532.0,126.0 L532.5,126.0 L532.9,126.0 L533.3,126.0 L533.8,126.0 L534.2,126.0 L534.6,126.0 L535.1,126.0 L535.5,126.0 L535.9,126.0 L536.3,126.0 L536.8,126.0 L536.8,125.3 L537.2,125.3 L537.6,125.3 L538.1,125.3 L538.1,124.7 L538.5,124.7 L538.5,124.0 L538.9,124.0 L539.4,124.0 L539.8,124.0 L540.2,124.0 L540.6,124.0 L540.6,123.4 L541.1,123.4 L541.5,123.4 L541.9,123.4 L542.4,123.4 L542.8,123.4 L543.2,123.4 L543.7,123.4 L544.1,123.4 L544.5,123.4 L544.9,123.4 L545.4,123.4 L545.8,123.4 L546.2,123.4 L546.7,123.4 L547.1,123.4 L547.5,123.4 L548.0,123.4 L548.4,123.4 L548.4,122.7 L548.8,122.7 L549.2,122.7 L549.2,122.1 L549.2,121.4 L549.7,121.4 L549.7,120.8 L549.7,120.1 L550.1,120.1 L550.5,120.1 L551.0,120.1 L551.4,120.1 L551.8,120.1 L552.3,120.1 L552.3,119.5 L552.7,119.5 L553.1,119.5 L553.1,118.8 L553.5,118.8 L554.0,118.8 L554.4,118.8 L554.8,118.8 L554.8,118.1 L555.3,118.1 L555.3,117.5 L555.7,117.5 L555.7,116.8 L556.1,116.8 L556.1,116.2 L556.6,116.2 L557.0,116.2 L557.4,116.2 L557.4,115.5 L557.8,115.5 L557.8,114.9 L557.8,114.2 L558.3,114.2 L558.7,114.2 L558.7,113.6 L558.7,112.9 L559.1,112.9 L559.6,112.9 L559.6,112.3 L559.6,111.6 L560.0,111.6 L560.4,111.6 L560.4,111.0 L560.9,111.0 L561.3,111.0 L561.7,111.0 L562.2,111.0 L562.2,110.3 L562.2,109.7 L562.6,109.7 L563.0,109.7 L563.0,109.0 L563.4,109.0 L563.9,109.0 L564.3,109.0 L564.3,108.3 L564.7,108.3 L565.2,108.3 L565.2,107.7 L565.6,107.7 L566.0,107.7 L566.5,107.7 L566.9,107.7 L567.3,107.7 L567.7,107.7 L568.2,107.7 L568.6,107.7 L568.6,107.0 L569.0,107.0 L569.5,107.0 L569.9,107.0 L570.3,107.0 L570.8,107.0 L570.8,106.4 L571.2,106.4 L571.6,106.4 L572.0,106.4 L572.5,106.4 L572.9,106.4 L573.3,106.4 L573.8,106.4 L574.2,106.4 L574.2,105.7 L574.2,105.1 L574.6,105.1 L575.1,105.1 L575.5,105.1 L575.9,105.1 L576.3,105.1 L576.8,105.1 L577.2,105.1 L577.6,105.1 L578.1,105.1 L578.5,105.1 L578.5,104.4 L578.9,104.4 L579.4,104.4 L579.8,104.4 L580.2,104.4 L580.2,103.8 L580.6,103.8 L581.1,103.8 L581.5,103.8 L581.9,103.8 L582.4,103.8 L582.4,103.1 L582.8,103.1 L583.2,103.1 L583.7,103.1 L584.1,103.1 L584.5,103.1 L584.9,103.1 L585.4,103.1 L585.8,103.1 L586.2,103.1 L586.7,103.1 L587.1,103.1 L587.5,103.1 L588.0,103.1 L588.0,102.5 L588.4,102.5 L588.8,102.5 L589.2,102.5 L589.7,102.5 L590.1,102.5 L590.5,102.5 L591.0,102.5 L591.4,102.5 L591.8,102.5 L592.3,102.5 L592.7,102.5 L593.1,102.5 L593.5,102.5 L594.0,102.5 L594.4,102.5 L594.8,102.5 L595.3,102.5 L595.7,102.5 L596.1,102.5 L596.6,102.5 L597.0,102.5 L597.4,102.5 L597.8,102.5 L597.8,101.8 L597.8,101.2 L598.3,101.2 L598.7,101.2 L599.1,101.2 L599.1,100.5 L599.6,100.5 L600.0,100.5 L600.4,100.5 L600.9,100.5 L601.3,100.5 L601.7,100.5 L602.2,100.5 L602.6,100.5 L603.0,100.5 L603.4,100.5 L603.4,99.9 L603.9,99.9 L604.3,99.9 L604.7,99.9 L605.2,99.9 L605.6,99.9 L606.0,99.9 L606.5,99.9 L606.9,99.9 L607.3,99.9 L607.3,99.2 L607.7,99.2 L608.2,99.2 L608.6,99.2 L609.0,99.2 L609.0,98.5 L609.5,98.5 L609.9,98.5 L609.9,97.9 L610.3,97.9 L610.8,97.9 L611.2,97.9 L611.6,97.9 L612.0,97.9 L612.5,97.9 L612.5,97.2 L612.9,97.2 L613.3,97.2 L613.8,97.2 L614.2,97.2 L614.6,97.2 L615.1,97.2 L615.5,97.2 L615.5,96.6 L615.9,96.6 L616.3,96.6 L616.8,96.6 L616.8,95.9 L617.2,95.9 L617.2,95.3 L617.2,94.6 L617.6,94.6 L618.1,94.6 L618.5,94.6 L618.9,94.6 L619.4,94.6 L619.8,94.6 L620.2,94.6 L620.2,94.0 L620.6,94.0 L621.1,94.0 L621.5,94.0 L621.9,94.0 L622.4,94.0 L622.8,94.0 L622.8,93.3 L623.2,93.3 L623.7,93.3 L624.1,93.3 L624.5,93.3 L624.9,93.3 L625.4,93.3 L625.8,93.3 L626.2,93.3 L626.7,93.3 L626.7,92.7 L627.1,92.7 L627.5,92.7 L628.0,92.7 L628.0,92.0 L628.4,92.0 L628.8,92.0 L628.8,91.4 L629.2,91.4 L629.2,90.7 L629.7,90.7 L630.1,90.7 L630.5,90.7 L631.0,90.7 L631.4,90.7 L631.8,90.7 L632.3,90.7 L632.7,90.7 L633.1,90.7 L633.5,90.7 L634.0,90.7 L634.4,90.7 L634.8,90.7 L635.3,90.7 L635.7,90.7 L636.1,90.7 L636.6,90.7 L637.0,90.7 L637.0,90.1 L637.4,90.1 L637.8,90.1 L637.8,89.4 L637.8,88.7 L638.3,88.7 L638.7,88.7 L639.1,88.7 L639.6,88.7 L640.0,88.7 L640.0,88.1 L640.4,88.1 L640.9,88.1 L641.3,88.1 L641.7,88.1 L642.2,88.1 L642.6,88.1 L643.0,88.1 L643.4,88.1 L643.4,87.4 L643.9,87.4 L644.3,87.4 L644.7,87.4 L645.2,87.4 L645.6,87.4 L646.0,87.4 L646.5,87.4 L646.9,87.4 L646.9,86.8 L647.3,86.8 L647.7,86.8 L648.2,86.8 L648.6,86.8 L649.0,86.8 L649.5,86.8 L649.5,86.1 L649.9,86.1 L650.3,86.1 L650.8,86.1 L651.2,86.1 L651.6,86.1 L651.6,85.5 L652.0,85.5 L652.5,85.5 L652.9,85.5 L652.9,84.8 L653.3,84.8 L653.3,84.2 L653.8,84.2 L654.2,84.2 L654.6,84.2 L655.1,84.2 L655.5,84.2 L655.9,84.2 L656.3,84.2 L656.8,84.2 L657.2,84.2 L657.6,84.2 L658.1,84.2 L658.5,84.2 L658.9,84.2 L659.4,84.2 L659.4,83.5 L659.8,83.5 L660.2,83.5 L660.6,83.5 L660.6,82.9 L661.1,82.9 L661.5,82.9 L661.9,82.9 L662.4,82.9 L662.4,82.2 L662.8,82.2 L663.2,82.2 L663.7,82.2 L664.1,82.2 L664.5,82.2 L664.9,82.2 L665.4,82.2 L665.8,82.2 L666.2,82.2 L666.2,81.6 L666.7,81.6 L667.1,81.6 L667.5,81.6 L668.0,81.6 L668.4,81.6 L668.8,81.6 L669.2,81.6 L669.7,81.6 L670.1,81.6 L670.5,81.6 L671.0,81.6 L671.4,81.6 L671.8,81.6 L672.3,81.6 L672.7,81.6 L673.1,81.6 L673.5,81.6 L674.0,81.6 L674.4,81.6 L674.8,81.6 L674.8,80.9 L675.3,80.9 L675.7,80.9 L676.1,80.9 L676.6,80.9 L677.0,80.9 L677.4,80.9 L677.4,80.3 L677.8,80.3 L678.3,80.3 L678.7,80.3 L679.1,80.3 L679.6,80.3 L679.6,79.6 L680.0,79.6 L680.4,79.6 L680.9,79.6 L681.3,79.6 L681.7,79.6 L682.2,79.6 L682.6,79.6 L682.6,78.9 L682.6,78.3 L683.0,78.3 L683.4,78.3 L683.9,78.3 L683.9,77.6 L684.3,77.6 L684.7,77.6 L685.2,77.6 L685.6,77.6 L686.0,77.6 L686.5,77.6 L686.9,77.6 L687.3,77.6 L687.7,77.6 L688.2,77.6 L688.6,77.6 L688.6,77.0 L689.0,77.0 L689.5,77.0 L689.9,77.0 L690.3,77.0 L690.8,77.0 L691.2,77.0 L691.6,77.0 L692.0,77.0 L692.5,77.0 L692.9,77.0 L693.3,77.0 L693.8,77.0 L694.2,77.0 L694.6,77.0 L695.1,77.0 L695.5,77.0 L695.5,76.3 L695.9,76.3 L696.3,76.3 L696.8,76.3 L696.8,75.7 L697.2,75.7 L697.6,75.7 L698.1,75.7 L698.5,75.7 L698.9,75.7 L699.4,75.7 L699.8,75.7 L700.2,75.7 L700.6,75.7 L700.6,75.0 L701.1,75.0 L701.5,75.0 L701.9,75.0 L702.4,75.0 L702.8,75.0 L702.8,74.4 L703.2,74.4 L703.7,74.4 L704.1,74.4 L704.5,74.4 L704.9,74.4 L705.4,74.4 L705.8,74.4 L705.8,73.7 L706.2,73.7 L706.7,73.7 L707.1,73.7 L707.5,73.7 L708.0,73.7 L708.0,73.1 L708.4,73.1 L708.8,73.1 L709.2,73.1 L709.7,73.1 L710.1,73.1 L710.5,73.1 L711.0,73.1 L711.4,73.1 L711.4,72.4 L711.8,72.4 L712.3,72.4 L712.7,72.4 L713.1,72.4 L713.1,71.8 L713.1,71.1 L713.1,70.5 L713.5,70.5 L714.0,70.5 L714.4,70.5 L714.8,70.5 L715.3,70.5 L715.7,70.5 L716.1,70.5 L716.6,70.5 L717.0,70.5 L717.4,70.5 L717.4,69.8 L717.8,69.8 L718.3,69.8 L718.7,69.8 L719.1,69.8 L719.6,69.8 L720.0,69.8 L720.0,69.1 L720.4,69.1 L720.9,69.1 L721.3,69.1 L721.7,69.1 L721.7,68.5 L722.2,68.5 L722.6,68.5 L723.0,68.5 L723.4,68.5 L723.9,68.5 L724.3,68.5 L724.7,68.5 L724.7,67.8 L724.7,67.2 L724.7,66.5 L724.7,65.9 L725.2,65.9 L725.6,65.9 L726.0,65.9 L726.5,65.9 L726.9,65.9 L727.3,65.9 L727.7,65.9 L728.2,65.9 L728.6,65.9 L729.0,65.9 L729.5,65.9 L729.9,65.9 L730.3,65.9 L730.8,65.9 L731.2,65.9 L731.6,65.9 L732.0,65.9 L732.5,65.9 L732.9,65.9 L733.3,65.9 L733.8,65.9 L734.2,65.9 L734.6,65.9 L735.1,65.9 L735.5,65.9 L735.9,65.9 L736.3,65.9 L736.8,65.9 L737.2,65.9 L737.6,65.9 L738.1,65.9 L738.5,65.9 L738.9,65.9 L738.9,65.2 L739.4,65.2 L739.8,65.2 L740.2,65.2 L740.6,65.2 L741.1,65.2 L741.5,65.2 L741.5,64.6 L741.9,64.6 L742.4,64.6 L742.8,64.6 L743.2,64.6 L743.7,64.6 L744.1,64.6 L744.5,64.6 L744.9,64.6 L745.4,64.6 L745.8,64.6 L746.2,64.6 L746.7,64.6 L746.7,63.9 L747.1,63.9 L747.5,63.9 L748.0,63.9 L748.4,63.9 L748.8,63.9 L749.2,63.9 L749.7,63.9 L750.1,63.9 L750.5,63.9 L751.0,63.9 L751.4,63.9 L751.4,63.3 L751.8,63.3 L752.3,63.3 L752.7,63.3 L753.1,63.3 L753.5,63.3 L753.5,62.6 L754.0,62.6 L754.4,62.6 L754.8,62.6 L755.3,62.6 L755.7,62.6 L756.1,62.6 L756.6,62.6 L756.6,62.0 L757.0,62.0 L757.4,62.0 L757.8,62.0 L758.3,62.0 L758.3,61.3 L758.7,61.3 L759.1,61.3 L759.6,61.3 L760.0,61.3 L760.4,61.3 L760.9,61.3 L761.3,61.3 L761.7,61.3 L762.2,61.3 L762.6,61.3 L763.0,61.3 L763.4,61.3 L763.9,61.3 L764.3,61.3 L764.7,61.3 L765.2,61.3 L765.6,61.3 L766.0,61.3 L766.5,61.3 L766.9,61.3 L767.3,61.3 L767.7,61.3 L768.2,61.3 L768.6,61.3 L769.0,61.3 L769.5,61.3 L769.9,61.3 L770.3,61.3 L770.8,61.3 L771.2,61.3 L771.6,61.3 L772.0,61.3 L772.5,61.3 L772.9,61.3 L773.3,61.3 L773.8,61.3 L774.2,61.3 L774.6,61.3 L775.1,61.3 L775.5,61.3 L775.9,61.3 L776.3,61.3 L776.8,61.3 L777.2,61.3 L777.6,61.3 L778.1,61.3 L778.5,61.3 L778.9,61.3 L779.4,61.3 L779.8,61.3 L780.2,61.3 L780.6,61.3 L780.6,60.7 L781.1,60.7 L781.5,60.7 L781.9,60.7 L782.4,60.7 L782.8,60.7 L783.2,60.7 L783.7,60.7 L784.1,60.7 L784.5,60.7 L784.9,60.7 L785.4,60.7 L785.8,60.7 L786.2,60.7 L786.7,60.7 L787.1,60.7 L787.5,60.7 L788.0,60.7 L788.4,60.7 L788.8,60.7 L789.2,60.7 L789.7,60.7 L790.1,60.7 L790.5,60.7 L791.0,60.7 L791.4,60.7 L791.8,60.7 L792.3,60.7 L792.7,60.7 L793.1,60.7 L793.5,60.7 L794.0,60.7 L794.4,60.7 L794.8,60.7 L795.3,60.7 L795.7,60.7 L796.1,60.7 L796.6,60.7 L797.0,60.7 L797.4,60.7 L797.8,60.7 L798.3,60.7 L798.7,60.7 L799.1,60.7 L799.6,60.7 L800.0,60.7 L800.4,60.7 L800.9,60.7 L801.3,60.7 L801.7,60.7 L802.2,60.7 L802.6,60.7 L803.0,60.7 L803.4,60.7 L803.9,60.7 L804.3,60.7 L804.7,60.7 L805.2,60.7 L805.6,60.7 L806.0,60.7 L806.5,60.7 L806.9,60.7 L807.3,60.7 L807.7,60.7 L808.2,60.7 L808.6,60.7 L809.0,60.7 L809.5,60.7 L809.9,60.7 L810.3,60.7 L810.8,60.7 L811.2,60.7 L811.6,60.7 L812.0,60.7 L812.5,60.7 L812.9,60.7 L813.3,60.7 L813.8,60.7 L814.2,60.7 L814.6,60.7 L815.1,60.7 L815.5,60.7 L815.9,60.7 L816.3,60.7 L816.8,60.7 L817.2,60.7 L817.6,60.7 L818.1,60.7 L818.5,60.7 L818.9,60.7 L819.4,60.7 L819.8,60.7 L820.2,60.7 L820.6,60.7 L821.1,60.7 L821.5,60.7 L821.9,60.7 L822.4,60.7 L822.8,60.7 L823.2,60.7 L823.7,60.7 L824.1,60.7 L824.5,60.7 L824.5,60.0 L824.9,60.0 L825.4,60.0 L825.8,60.0 L826.2,60.0 L826.7,60.0 L827.1,60.0 L827.5,60.0 L828.0,60.0 L828.4,60.0 L828.8,60.0 L829.2,60.0 L829.7,60.0 L830.1,60.0 L830.5,60.0 L831.0,60.0 L831.4,60.0 L831.8,60.0 L832.3,60.0 L832.7,60.0 L833.1,60.0 L833.5,60.0 L834.0,60.0 L834.4,60.0 L834.8,60.0 L835.3,60.0 L835.7,60.0 L836.1,60.0 L836.6,60.0 L837.0,60.0 L837.4,60.0 L837.8,60.0 L838.3,60.0 L838.7,60.0 L839.1,60.0 L839.6,60.0 L840.0,60.0 L840.0,60.0" fill="none" stroke="#059669" stroke-width="2.5"/>
<rect x="868" y="93" width="14" height="14" fill="#059669"/>
<text x="888.0" y="104.0" font-family="monospace" font-size="11" font-weight="400" text-anchor="start" fill="#111827">healthy_control AUC=0.666</text>
</svg>
