<svg xmlns="http://www.w3.org/2000/svg" width="980" height="520" viewBox="0 0 980 520">
<rect width="100%" height="100%" fill="#ffffff"/>
<text x="24.0" y="34.0" font-family="monospace" font-size="18" font-weight="700" text-anchor="start" fill="#111827">ROC: data/runs/ds004504_rbp_paper/label_swap/ftd_vs_healthy</text>
<rect x="80" y="60" width="760" height="360" fill="#f9fafb" stroke="#d1d5db"/>
<line x1="80" x2="840" y1="420.0" y2="420.0" stroke="#e5e7eb"/>
<text x="70.0" y="424.0" font-family="monospace" font-size="10" font-weight="400" text-anchor="end" fill="#111827">0</text>
<line x1="80" x2="840" y1="348.0" y2="348.0" stroke="#e5e7eb"/>
<text x="70.0" y="352.0" font-family="monospace" font-size="10" font-weight="400" text-anchor="end" fill="#111827">0.2</text>
<line x1="80" x2="840" y1="276.0" y2="276.0" stroke="#e5e7eb"/>
<text x="70.0" y="280.0" font-family="monospace" font-size="10" font-weight="400" text-anchor="end" fill="#111827">0.4</text>
<line x1="80" x2="840" y1="204.0" y2="204.0" stroke="#e5e7eb"/>
<text x="70.0" y="208.0" font-family="monospace" font-size="10" font-weight="400" text-anchor="end" fill="#111827">0.6</text>
<line x1="80" x2="840" y1="132.0" y2="132.0" stroke="#e5e7eb"/>
<text x="70.0" y="136.0" font-family="monospace" font-size="10" font-weight="400" text-anchor="end" fill="#111827">0.8</text>
<line x1="80" x2="840" y1="60.0" y2="60.0" stroke="#e5e7eb"/>
<text x="70.0" y="64.0" font-family="monospace" font-size="10" font-weight="400" text-anchor="end" fill="#111827">1</text>
<path d="M80.0,420.0 L81.4,420.0 L81.4,419.6 L81.4,419.1 L81.4,418.6 L81.4,418.2 L81.4,417.8 L81.4,417.3 L81.4,416.9 L81.4,416.4 L81.4,415.9 L81.4,415.5 L81.4,415.1 L81.4,414.6 L81.4,414.1 L81.4,413.7 L81.4,413.2 L81.4,412.8 L81.4,412.4 L81.4,411.9 L81.4,411.4 L81.4,411.0 L81.4,410.6 L81.4,410.1 L81.4,409.6 L81.4,409.2 L81.4,408.8 L81.4,408.3 L81.4,407.9 L81.4,407.4 L81.4,406.9 L81.4,406.5 L81.4,406.1 L81.4,405.6 L81.4,405.1 L81.4,404.7 L81.4,404.2 L81.4,403.8 L81.4,403.4 L81.4,402.9 L81.4,402.4 L81.4,402.0 L81.4,401.6 L81.4,401.1 L81.4,400.6 L81.4,400.2 L81.4,399.8 L81.4,399.3 L81.4,398.9 L82.8,398.9 L82.8,398.4 L82.8,397.9 L82.8,397.5 L82.8,397.1 L82.8,396.6 L82.8,396.1 L82.8,395.7 L82.8,395.2 L82.8,394.8 L82.8,394.4 L84.1,394.4 L84.1,393.9 L84.1,393.4 L84.1,393.0 L84.1,392.6 L84.1,392.1 L84.1,391.6 L84.1,391.2 L84.1,390.8 L84.1,390.3 L84.1,389.9 L84.1,389.4 L84.1,388.9 L85.5,388.9 L85.5,388.5 L85.5,388.1 L85.5,387.6 L85.5,387.1 L85.5,386.7 L85.5,386.2 L86.9,386.2 L86.9,385.8 L86.9,385.4 L86.9,384.9 L86.9,384.4 L86.9,384.0 L86.9,383.6 L86.9,383.1 L86.9,382.6 L88.3,382.6 L88.3,382.2 L88.3,381.8 L88.3,381.3 L88.3,380.9 L88.3,380.4 L88.3,379.9 L88.3,379.5 L88.3,379.1 L88.3,378.6 L89.7,378.6 L89.7,378.1 L89.7,377.7 L91.0,377.7 L91.0,377.2 L91.0,376.8 L91.0,376.4 L91.0,375.9 L91.0,375.4 L91.0,375.0 L92.4,375.0 L93.8,375.0 L93.8,374.6 L93.8,374.1 L93.8,373.6 L93.8,373.2 L93.8,372.8 L93.8,372.3 L95.2,372.3 L95.2,371.9 L95.2,371.4 L95.2,370.9 L95.2,370.5 L95.2,370.1 L95.2,369.6 L95.2,369.1 L96.6,369.1 L97.9,369.1 L97.9,368.7 L97.9,368.2 L97.9,367.8 L97.9,367.4 L97.9,366.9 L97.9,366.4 L97.9,366.0 L97.9,365.6 L97.9,365.1 L97.9,364.6 L99.3,364.6 L99.3,364.2 L99.3,363.8 L99.3,363.3 L99.3,362.9 L99.3,362.4 L99.3,361.9 L99.3,361.5 L99.3,361.1 L99.3,360.6 L99.3,360.1 L100.7,360.1 L100.7,359.7 L100.7,359.2 L100.7,358.8 L100.7,358.4 L100.7,357.9 L100.7,357.4 L102.1,357.4 L102.1,357.0 L103.4,357.0 L103.4,356.6 L103.4,356.1 L103.4,355.6 L103.4,355.2 L103.4,354.8 L103.4,354.3 L103.4,353.9 L103.4,353.4 L103.4,352.9 L103.4,352.5 L103.4,352.1 L103.4,351.6 L103.4,351.1 L103.4,350.7 L103.4,350.2 L103.4,349.8 L104.8,349.8 L104.8,349.4 L104.8,348.9 L104.8,348.4 L104.8,348.0 L104.8,347.6 L104.8,347.1 L104.8,346.6 L104.8,346.2 L104.8,345.8 L104.8,345.3 L104.8,344.9 L104.8,344.4 L104.8,343.9 L104.8,343.5 L104.8,343.1 L104.8,342.6 L104.8,342.1 L104.8,341.7 L104.8,341.2 L104.8,340.8 L104.8,340.4 L104.8,339.9 L104.8,339.4 L106.2,339.4 L106.2,339.0 L106.2,338.6 L106.2,338.1 L106.2,337.6 L106.2,337.2 L106.2,336.8 L106.2,336.3 L106.2,335.9 L106.2,335.4 L106.2,334.9 L107.6,334.9 L107.6,334.5 L107.6,334.1 L107.6,333.6 L107.6,333.1 L109.0,333.1 L109.0,332.7 L109.0,332.2 L109.0,331.8 L109.0,331.4 L109.0,330.9 L110.3,330.9 L110.3,330.4 L110.3,330.0 L110.3,329.6 L111.7,329.6 L111.7,329.1 L113.1,329.1 L113.1,328.6 L113.1,328.2 L113.1,327.8 L113.1,327.3 L113.1,326.9 L114.5,326.9 L115.9,326.9 L115.9,326.4 L115.9,325.9 L115.9,325.5 L115.9,325.1 L115.9,324.6 L115.9,324.1 L115.9,323.7 L115.9,323.2 L115.9,322.8 L117.2,322.8 L117.2,322.4 L117.2,321.9 L117.2,321.4 L117.2,321.0 L118.6,321.0 L118.6,320.6 L118.6,320.1 L120.0,320.1 L120.0,319.6 L120.0,319.2 L120.0,318.8 L121.4,318.8 L121.4,318.3 L121.4,317.9 L121.4,317.4 L122.8,317.4 L122.8,316.9 L122.8,316.5 L124.1,316.5 L124.1,316.1 L124.1,315.6 L124.1,315.1 L125.5,315.1 L125.5,314.7 L125.5,314.2 L125.5,313.8 L125.5,313.4 L126.9,313.4 L126.9,312.9 L126.9,312.4 L126.9,312.0 L126.9,311.6 L126.9,311.1 L126.9,310.6 L126.9,310.2 L128.3,310.2 L129.7,310.2 L129.7,309.8 L131.0,309.8 L131.0,309.3 L131.0,308.9 L131.0,308.4 L131.0,307.9 L132.4,307.9 L132.4,307.5 L133.8,307.5 L133.8,307.1 L133.8,306.6 L133.8,306.1 L133.8,305.7 L133.8,305.2 L133.8,304.8 L133.8,304.4 L133.8,303.9 L133.8,303.4 L133.8,303.0 L133.8,302.6 L133.8,302.1 L133.8,301.6 L133.8,301.2 L133.8,300.8 L133.8,300.3 L133.8,299.9 L133.8,299.4 L133.8,298.9 L135.2,298.9 L135.2,298.5 L135.2,298.1 L135.2,297.6 L135.2,297.1 L135.2,296.7 L135.2,296.2 L135.2,295.8 L135.2,295.4 L135.2,294.9 L135.2,294.4 L135.2,294.0 L135.2,293.6 L135.2,293.1 L136.6,293.1 L136.6,292.6 L136.6,292.2 L136.6,291.8 L136.6,291.3 L136.6,290.9 L136.6,290.4 L136.6,289.9 L136.6,289.5 L136.6,289.0 L136.6,288.6 L136.6,288.1 L136.6,287.7 L136.6,287.2 L136.6,286.8 L137.9,286.8 L137.9,286.4 L137.9,285.9 L137.9,285.4 L137.9,285.0 L137.9,284.6 L137.9,284.1 L137.9,283.6 L137.9,283.2 L137.9,282.8 L139.3,282.8 L139.3,282.3 L139.3,281.9 L139.3,281.4 L139.3,281.0 L139.3,280.5 L140.7,280.5 L140.7,280.1 L140.7,279.6 L140.7,279.1 L140.7,278.7 L142.1,278.7 L142.1,278.2 L142.1,277.8 L143.4,277.8 L144.8,277.8 L144.8,277.4 L144.8,276.9 L144.8,276.4 L144.8,276.0 L144.8,275.6 L144.8,275.1 L144.8,274.6 L146.2,274.6 L146.2,274.2 L146.2,273.8 L146.2,273.3 L146.2,272.9 L146.2,272.4 L146.2,271.9 L146.2,271.5 L146.2,271.1 L146.2,270.6 L146.2,270.1 L146.2,269.7 L146.2,269.2 L146.2,268.8 L146.2,268.4 L146.2,267.9 L146.2,267.4 L146.2,267.0 L146.2,266.5 L146.2,266.1 L146.2,265.6 L146.2,265.2 L146.2,264.8 L146.2,264.3 L146.2,263.9 L147.6,263.9 L147.6,263.4 L147.6,262.9 L147.6,262.5 L149.0,262.5 L149.0,262.1 L149.0,261.6 L149.0,261.1 L150.3,261.1 L150.3,260.7 L151.7,260.7 L151.7,260.2 L151.7,259.8 L151.7,259.4 L151.7,258.9 L153.1,258.9 L153.1,258.5 L153.1,258.0 L153.1,257.6 L153.1,257.1 L153.1,256.6 L153.1,256.2 L153.1,255.8 L154.5,255.8 L154.5,255.3 L154.5,254.8 L154.5,254.4 L154.5,253.9 L154.5,253.5 L154.5,253.1 L154.5,252.6 L154.5,252.2 L154.5,251.7 L154.5,251.2 L154.5,250.8 L155.9,250.8 L155.9,250.3 L155.9,249.9 L155.9,249.4 L155.9,249.0 L155.9,248.6 L155.9,248.1 L155.9,247.7 L155.9,247.2 L155.9,246.8 L155.9,246.3 L155.9,245.8 L155.9,245.4 L155.9,244.9 L155.9,244.5 L155.9,244.0 L157.2,244.0 L157.2,243.6 L157.2,243.2 L158.6,243.2 L158.6,242.7 L158.6,242.2 L158.6,241.8 L158.6,241.3 L158.6,240.9 L158.6,240.4 L158.6,240.0 L158.6,239.6 L158.6,239.1 L158.6,238.6 L158.6,238.2 L158.6,237.8 L158.6,237.3 L158.6,236.8 L160.0,236.8 L160.0,236.4 L160.0,236.0 L160.0,235.5 L160.0,235.0 L160.0,234.6 L160.0,234.2 L160.0,233.7 L160.0,233.2 L160.0,232.8 L160.0,232.3 L160.0,231.9 L160.0,231.4 L160.0,231.0 L161.4,231.0 L161.4,230.6 L162.8,230.6 L162.8,230.1 L162.8,229.6 L164.1,229.6 L165.5,229.6 L165.5,229.2 L165.5,228.8 L166.9,228.8 L166.9,228.3 L166.9,227.9 L166.9,227.4 L166.9,226.9 L166.9,226.5 L168.3,226.5 L168.3,226.1 L168.3,225.6 L168.3,225.2 L168.3,224.7 L168.3,224.3 L168.3,223.8 L169.7,223.8 L169.7,223.3 L169.7,222.9 L171.0,222.9 L171.0,222.5 L171.0,222.0 L172.4,222.0 L173.8,222.0 L173.8,221.5 L173.8,221.1 L173.8,220.7 L173.8,220.2 L173.8,219.8 L175.2,219.8 L176.6,219.8 L176.6,219.3 L177.9,219.3 L177.9,218.9 L177.9,218.4 L177.9,217.9 L177.9,217.5 L177.9,217.1 L177.9,216.6 L179.3,216.6 L179.3,216.1 L179.3,215.7 L179.3,215.2 L179.3,214.8 L180.7,214.8 L182.1,214.8 L182.1,214.3 L183.4,214.3 L184.8,214.3 L186.2,214.3 L187.6,214.3 L187.6,213.9 L187.6,213.5 L187.6,213.0 L189.0,213.0 L189.0,212.5 L189.0,212.1 L190.3,212.1 L191.7,212.1 L193.1,212.1 L193.1,211.7 L194.5,211.7 L195.9,211.7 L195.9,211.2 L195.9,210.7 L195.9,210.3 L195.9,209.8 L195.9,209.4 L197.2,209.4 L197.2,208.9 L198.6,208.9 L200.0,208.9 L200.0,208.5 L200.0,208.1 L200.0,207.6 L201.4,207.6 L201.4,207.1 L201.4,206.7 L202.8,206.7 L202.8,206.2 L202.8,205.8 L204.1,205.8 L204.1,205.4 L205.5,205.4 L205.5,204.9 L205.5,204.4 L205.5,204.0 L206.9,204.0 L208.3,204.0 L208.3,203.6 L208.3,203.1 L209.7,203.1 L211.0,203.1 L211.0,202.7 L212.4,202.7 L212.4,202.2 L212.4,201.8 L212.4,201.3 L212.4,200.8 L212.4,200.4 L213.8,200.4 L213.8,200.0 L213.8,199.5 L213.8,199.0 L213.8,198.6 L213.8,198.2 L213.8,197.7 L213.8,197.2 L213.8,196.8 L215.2,196.8 L216.6,196.8 L217.9,196.8 L217.9,196.4 L219.3,196.4 L219.3,195.9 L220.7,195.9 L222.1,195.9 L223.4,195.9 L224.8,195.9 L224.8,195.4 L226.2,195.4 L226.2,195.0 L226.2,194.6 L227.6,194.6 L229.0,194.6 L229.0,194.1 L230.3,194.1 L231.7,194.1 L231.7,193.6 L233.1,193.6 L233.1,193.2 L233.1,192.8 L233.1,192.3 L233.1,191.8 L234.5,191.8 L234.5,191.4 L234.5,191.0 L234.5,190.5 L234.5,190.0 L234.5,189.6 L234.5,189.2 L234.5,188.7 L234.5,188.2 L234.5,187.8 L235.9,187.8 L237.2,187.8 L237.2,187.3 L237.2,186.9 L237.2,186.4 L238.6,186.4 L240.0,186.4 L241.4,186.4 L241.4,186.0 L241.4,185.6 L241.4,185.1 L241.4,184.6 L242.8,184.6 L244.1,184.6 L245.5,184.6 L246.9,184.6 L248.3,184.6 L249.7,184.6 L249.7,184.2 L249.7,183.8 L249.7,183.3 L251.0,183.3 L251.0,182.9 L251.0,182.4 L252.4,182.4 L253.8,182.4 L253.8,181.9 L255.2,181.9 L256.6,181.9 L257.9,181.9 L259.3,181.9 L260.7,181.9 L260.7,181.5 L262.1,181.5 L263.4,181.5 L263.4,181.1 L264.8,181.1 L264.8,180.6 L264.8,180.2 L264.8,179.7 L264.8,179.3 L264.8,178.8 L266.2,178.8 L266.2,178.3 L267.6,178.3 L267.6,177.9 L267.6,177.5 L267.6,177.0 L267.6,176.5 L267.6,176.1 L269.0,176.1 L270.3,176.1 L271.7,176.1 L271.7,175.7 L271.7,175.2 L271.7,174.8 L271.7,174.3 L271.7,173.9 L273.1,173.9 L273.1,173.4 L273.1,172.9 L274.5,172.9 L275.9,172.9 L275.9,172.5 L275.9,172.1 L277.2,172.1 L277.2,171.6 L278.6,171.6 L280.0,171.6 L280.0,171.1 L281.4,171.1 L281.4,170.7 L281.4,170.2 L281.4,169.8 L281.4,169.3 L282.8,169.3 L282.8,168.9 L284.1,168.9 L284.1,168.5 L285.5,168.5 L285.5,168.0 L286.9,168.0 L286.9,167.5 L286.9,167.1 L288.3,167.1 L289.7,167.1 L291.0,167.1 L291.0,166.7 L291.0,166.2 L292.4,166.2 L292.4,165.7 L292.4,165.3 L292.4,164.8 L293.8,164.8 L295.2,164.8 L295.2,164.4 L296.6,164.4 L297.9,164.4 L299.3,164.4 L299.3,163.9 L299.3,163.5 L300.7,163.5 L300.7,163.1 L302.1,163.1 L303.4,163.1 L304.8,163.1 L304.8,162.6 L304.8,162.1 L306.2,162.1 L306.2,161.7 L306.2,161.2 L307.6,161.2 L307.6,160.8 L309.0,160.8 L310.3,160.8 L311.7,160.8 L311.7,160.4 L311.7,159.9 L313.1,159.9 L313.1,159.4 L314.5,159.4 L314.5,159.0 L315.9,159.0 L315.9,158.6 L315.9,158.1 L317.2,158.1 L318.6,158.1 L320.0,158.1 L321.4,158.1 L322.8,158.1 L322.8,157.6 L324.1,157.6 L324.1,157.2 L325.5,157.2 L325.5,156.8 L326.9,156.8 L326.9,156.3 L326.9,155.9 L328.3,155.9 L329.7,155.9 L329.7,155.4 L329.7,154.9 L331.0,154.9 L332.4,154.9 L332.4,154.5 L333.8,154.5 L335.2,154.5 L336.6,154.5 L336.6,154.1 L337.9,154.1 L339.3,154.1 L339.3,153.6 L339.3,153.2 L339.3,152.7 L339.3,152.2 L339.3,151.8 L340.7,151.8 L340.7,151.4 L342.1,151.4 L343.4,151.4 L343.4,150.9 L343.4,150.4 L343.4,150.0 L344.8,150.0 L346.2,150.0 L347.6,150.0 L347.6,149.6 L349.0,149.6 L350.3,149.6 L351.7,149.6 L353.1,149.6 L353.1,149.1 L353.1,148.6 L353.1,148.2 L353.1,147.8 L353.1,147.3 L353.1,146.8 L354.5,146.8 L355.9,146.8 L355.9,146.4 L357.2,146.4 L358.6,146.4 L360.0,146.4 L360.0,145.9 L361.4,145.9 L362.8,145.9 L364.1,145.9 L364.1,145.5 L364.1,145.1 L364.1,144.6 L365.5,144.6 L365.5,144.1 L366.9,144.1 L366.9,143.7 L368.3,143.7 L369.7,143.7 L369.7,143.2 L371.0,143.2 L371.0,142.8 L372.4,142.8 L372.4,142.4 L373.8,142.4 L375.2,142.4 L376.6,142.4 L377.9,142.4 L379.3,142.4 L380.7,142.4 L382.1,142.4 L382.1,141.9 L382.1,141.4 L382.1,141.0 L383.4,141.0 L384.8,141.0 L386.2,141.0 L387.6,141.0 L387.6,140.6 L389.0,140.6 L389.0,140.1 L389.0,139.6 L389.0,139.2 L390.3,139.2 L390.3,138.8 L391.7,138.8 L393.1,138.8 L393.1,138.3 L393.1,137.9 L394.5,137.9 L394.5,137.4 L395.9,137.4 L397.2,137.4 L397.2,136.9 L397.2,136.5 L397.2,136.1 L398.6,136.1 L400.0,136.1 L400.0,135.6 L400.0,135.1 L400.0,134.7 L400.0,134.2 L400.0,133.8 L400.0,133.4 L400.0,132.9 L400.0,132.4 L401.4,132.4 L401.4,132.0 L402.8,132.0 L404.1,132.0 L404.1,131.6 L404.1,131.1 L405.5,131.1 L406.9,131.1 L406.9,130.7 L406.9,130.2 L406.9,129.8 L408.3,129.8 L408.3,129.3 L408.3,128.9 L408.3,128.4 L408.3,127.9 L408.3,127.5 L408.3,127.1 L409.7,127.1 L409.7,126.6 L411.0,126.6 L411.0,126.1 L412.4,126.1 L413.8,126.1 L415.2,126.1 L416.6,126.1 L417.9,126.1 L419.3,126.1 L420.7,126.1 L420.7,125.7 L422.1,125.7 L422.1,125.2 L423.4,125.2 L424.8,125.2 L426.2,125.2 L427.6,125.2 L429.0,125.2 L430.3,125.2 L431.7,125.2 L431.7,124.8 L431.7,124.3 L431.7,123.9 L431.7,123.4 L433.1,123.4 L433.1,123.0 L434.5,123.0 L435.9,123.0 L435.9,122.6 L437.2,122.6 L438.6,122.6 L438.6,122.1 L438.6,121.6 L440.0,121.6 L440.0,121.2 L440.0,120.8 L441.4,120.8 L441.4,120.3 L441.4,119.9 L442.8,119.9 L444.1,119.9 L444.1,119.4 L444.1,118.9 L445.5,118.9 L446.9,118.9 L448.3,118.9 L449.7,118.9 L451.0,118.9 L451.0,118.5 L452.4,118.5 L452.4,118.1 L453.8,118.1 L453.8,117.6 L455.2,117.6 L455.2,117.1 L456.6,117.1 L457.9,117.1 L459.3,117.1 L460.7,117.1 L460.7,116.7 L462.1,116.7 L463.4,116.7 L463.4,116.2 L463.4,115.8 L463.4,115.4 L464.8,115.4 L466.2,115.4 L467.6,115.4 L469.0,115.4 L470.3,115.4 L471.7,115.4 L473.1,115.4 L473.1,114.9 L473.1,114.4 L474.5,114.4 L474.5,114.0 L474.5,113.6 L474.5,113.1 L475.9,113.1 L477.2,113.1 L477.2,112.6 L477.2,112.2 L478.6,112.2 L480.0,112.2 L481.4,112.2 L481.4,111.8 L482.8,111.8 L484.1,111.8 L484.1,111.3 L485.5,111.3 L486.9,111.3 L488.3,111.3 L489.7,111.3 L491.0,111.3 L491.0,110.9 L491.0,110.4 L492.4,110.4 L493.8,110.4 L493.8,109.9 L495.2,109.9 L496.6,109.9 L496.6,109.5 L497.9,109.5 L497.9,109.1 L499.3,109.1 L499.3,108.6 L499.3,108.2 L500.7,108.2 L500.7,107.7 L502.1,107.7 L503.4,107.7 L504.8,107.7 L506.2,107.7 L506.2,107.2 L506.2,106.8 L507.6,106.8 L509.0,106.8 L510.3,106.8 L510.3,106.4 L511.7,106.4 L511.7,105.9 L513.1,105.9 L513.1,105.4 L514.5,105.4 L514.5,105.0 L515.9,105.0 L515.9,104.6 L517.2,104.6 L517.2,104.1 L518.6,104.1 L518.6,103.6 L520.0,103.6 L521.4,103.6 L522.8,103.6 L524.1,103.6 L524.1,103.2 L525.5,103.2 L525.5,102.8 L525.5,102.3 L525.5,101.8 L526.9,101.8 L528.3,101.8 L528.3,101.4 L529.7,101.4 L531.0,101.4 L532.4,101.4 L532.4,100.9 L532.4,100.5 L533.8,100.5 L533.8,100.1 L535.2,100.1 L536.6,100.1 L537.9,100.1 L537.9,99.6 L539.3,99.6 L540.7,99.6 L542.1,99.6 L543.4,99.6 L544.8,99.6 L544.8,99.1 L546.2,99.1 L546.2,98.7 L547.6,98.7 L547.6,98.2 L547.6,97.8 L547.6,97.4 L549.0,97.4 L550.3,97.4 L551.7,97.4 L553.1,97.4 L553.1,96.9 L554.5,96.9 L555.9,96.9 L555.9,96.4 L555.9,96.0 L557.2,96.0 L558.6,96.0 L560.0,96.0 L560.0,95.6 L561.4,95.6 L561.4,95.1 L562.8,95.1 L562.8,94.6 L564.1,94.6 L565.5,94.6 L566.9,94.6 L568.3,94.6 L568.3,94.2 L568.3,93.8 L568.3,93.3 L568.3,92.9 L569.7,92.9 L571.0,92.9 L572.4,92.9 L572.4,92.4 L573.8,92.4 L573.8,91.9 L575.2,91.9 L576.6,91.9 L577.9,91.9 L577.9,91.5 L577.9,91.1 L579.3,91.1 L579.3,90.6 L580.7,90.6 L582.1,90.6 L582.1,90.1 L582.1,89.7 L583.4,89.7 L584.8,89.7 L586.2,89.7 L587.6,89.7 L587.6,89.2 L589.0,89.2 L589.0,88.8 L589.0,88.4 L590.3,88.4 L590.3,87.9 L590.3,87.4 L591.7,87.4 L593.1,87.4 L593.1,87.0 L593.1,86.6 L594.5,86.6 L595.9,86.6 L597.2,86.6 L597.2,86.1 L598.6,86.1 L598.6,85.7 L600.0,85.7 L600.0,85.2 L600.0,84.8 L600.0,84.3 L600.0,83.9 L601.4,83.9 L602.8,83.9 L602.8,83.4 L604.1,83.4 L605.5,83.4 L605.5,82.9 L606.9,82.9 L606.9,82.5 L608.3,82.5 L608.3,82.1 L609.7,82.1 L609.7,81.6 L611.0,81.6 L611.0,81.1 L611.0,80.7 L612.4,80.7 L613.8,80.7 L615.2,80.7 L616.6,80.7 L617.9,80.7 L617.9,80.2 L619.3,80.2 L620.7,80.2 L622.1,80.2 L623.4,80.2 L624.8,80.2 L626.2,80.2 L627.6,80.2 L627.6,79.8 L627.6,79.3 L629.0,79.3 L629.0,78.9 L630.3,78.9 L630.3,78.4 L631.7,78.4 L633.1,78.4 L633.1,78.0 L634.5,78.0 L635.9,78.0 L635.9,77.6 L637.2,77.6 L638.6,77.6 L640.0,77.6 L641.4,77.6 L641.4,77.1 L641.4,76.6 L642.8,76.6 L642.8,76.2 L642.8,75.8 L644.1,75.8 L645.5,75.8 L645.5,75.3 L646.9,75.3 L648.3,75.3 L649.7,75.3 L651.0,75.3 L652.4,75.3 L653.8,75.3 L655.2,75.3 L656.6,75.3 L656.6,74.9 L657.9,74.9 L659.3,74.9 L660.7,74.9 L662.1,74.9 L663.4,74.9 L664.8,74.9 L666.2,74.9 L667.6,74.9 L669.0,74.9 L670.3,74.9 L670.3,74.4 L671.7,74.4 L673.1,74.4 L673.1,73.9 L673.1,73.5 L673.1,73.1 L674.5,73.1 L675.9,73.1 L677.2,73.1 L678.6,73.1 L680.0,73.1 L681.4,73.1 L682.8,73.1 L684.1,73.1 L685.5,73.1 L685.5,72.6 L686.9,72.6 L688.3,72.6 L689.7,72.6 L689.7,72.1 L691.0,72.1 L691.0,71.7 L692.4,71.7 L693.8,71.7 L695.2,71.7 L695.2,71.2 L695.2,70.8 L695.2,70.4 L695.2,69.9 L696.6,69.9 L697.9,69.9 L697.9,69.4 L699.3,69.4 L699.3,69.0 L700.7,69.0 L700.7,68.6 L702.1,68.6 L703.4,68.6 L704.8,68.6 L706.2,68.6 L707.6,68.6 L707.6,68.1 L709.0,68.1 L710.3,68.1 L710.3,67.6 L711.7,67.6 L713.1,67.6 L714.5,67.6 L715.9,67.6 L717.2,67.6 L717.2,67.2 L718.6,67.2 L720.0,67.2 L720.0,66.8 L721.4,66.8 L722.8,66.8 L724.1,66.8 L725.5,66.8 L725.5,66.3 L726.9,66.3 L726.9,65.9 L728.3,65.9 L729.7,65.9 L731.0,65.9 L732.4,65.9 L733.8,65.9 L735.2,65.9 L736.6,65.9 L737.9,65.9 L737.9,65.4 L739.3,65.4 L740.7,65.4 L742.1,65.4 L743.4,65.4 L744.8,65.4 L746.2,65.4 L747.6,65.4 L749.0,65.4 L750.3,65.4 L751.7,65.4 L753.1,65.4 L753.1,64.9 L754.5,64.9 L755.9,64.9 L757.2,64.9 L758.6,64.9 L758.6,64.5 L758.6,64.1 L760.0,64.1 L761.4,64.1 L762.8,64.1 L764.1,64.1 L764.1,63.6 L765.5,63.6 L766.9,63.6 L768.3,63.6 L769.7,63.6 L771.0,63.6 L772.4,63.6 L773.8,63.6 L775.2,63.6 L776.6,63.6 L777.9,63.6 L779.3,63.6 L780.7,63.6 L782.1,63.6 L783.4,63.6 L784.8,63.6 L786.2,63.6 L787.6,63.6 L789.0,63.6 L790.3,63.6 L791.7,63.6 L793.1,63.6 L794.5,63.6 L794.5,63.2 L795.9,63.2 L797.2,63.2 L798.6,63.2 L800.0,63.2 L801.4,63.2 L802.8,63.2 L804.1,63.2 L804.1,62.7 L805.5,62.7 L806.9,62.7 L808.3,62.7 L809.7,62.7 L809.7,62.2 L811.0,62.2 L812.4,62.2 L813.8,62.2 L813.8,61.8 L815.2,61.8 L816.6,61.8 L817.9,61.8 L819.3,61.8 L820.7,61.8 L822.1,61.8 L823.4,61.8 L824.8,61.8 L826.2,61.8 L827.6,61.8 L829.0,61.8 L830.3,61.8 L830.3,61.4 L831.7,61.4 L831.7,60.9 L831.7,60.4 L833.1,60.4 L834.5,60.4 L834.5,60.0 L835.9,60.0 L837.2,60.0 L838.6,60.0 L840.0,60.0 L840.0,60.0" fill="none" stroke="#2563eb" stroke-width="2.5"/>
<rect x="868" y="49" width="14" height="14" fill="#2563eb"/>
<text x="888.0" y="60.0" font-family="monospace" font-size="11" font-weight="400" text-anchor="start" fill="#111827">frontotemporal_dementia AUC=0.779</text>
<path d="M80.0,420.0 L80.0,419.3 L80.0,418.7 L80.0,418.0 L80.0,417.4 L81.0,417.4 L81.0,416.7 L81.0,416.1 L81.9,416.1 L82.8,416.1 L82.8,415.4 L83.8,415.4 L83.8,414.8 L83.8,414.1 L83.8,413.5 L83.8,412.8 L83.8,412.2 L83.8,411.5 L83.8,410.9 L83.8,410.2 L83.8,409.5 L83.8,408.9 L83.8,408.2 L83.8,407.6 L84.8,407.6 L84.8,406.9 L84.8,406.3 L84.8,405.6 L85.7,405.6 L85.7,405.0 L85.7,404.3 L85.7,403.7 L85.7,403.0 L86.7,403.0 L86.7,402.4 L86.7,401.7 L86.7,401.1 L86.7,400.4 L86.7,399.7 L86.7,399.1 L86.7,398.4 L87.6,398.4 L87.6,397.8 L87.6,397.1 L87.6,396.5 L87.6,395.8 L87.6,395.2 L87.6,394.5 L87.6,393.9 L87.6,393.2 L87.6,392.6 L87.6,391.9 L87.6,391.3 L87.6,390.6 L87.6,389.9 L87.6,389.3 L87.6,388.6 L87.6,388.0 L87.6,387.3 L87.6,386.7 L87.6,386.0 L87.6,385.4 L87.6,384.7 L87.6,384.1 L88.5,384.1 L88.5,383.4 L88.5,382.8 L88.5,382.1 L88.5,381.5 L89.5,381.5 L90.5,381.5 L90.5,380.8 L90.5,380.1 L90.5,379.5 L90.5,378.8 L91.4,378.8 L91.4,378.2 L91.4,377.5 L91.4,376.9 L91.4,376.2 L91.4,375.6 L91.4,374.9 L91.4,374.3 L91.4,373.6 L91.4,373.0 L91.4,372.3 L91.4,371.7 L92.3,371.7 L92.3,371.0 L92.3,370.3 L92.3,369.7 L92.3,369.0 L92.3,368.4 L92.3,367.7 L92.3,367.1 L92.3,366.4 L93.3,366.4 L93.3,365.8 L94.2,365.8 L94.2,365.1 L94.2,364.5 L94.2,363.8 L94.2,363.2 L95.2,363.2 L95.2,362.5 L95.2,361.9 L96.2,361.9 L96.2,361.2 L96.2,360.5 L96.2,359.9 L96.2,359.2 L96.2,358.6 L97.1,358.6 L97.1,357.9 L97.1,357.3 L98.0,357.3 L98.0,356.6 L98.0,356.0 L98.0,355.3 L98.0,354.7 L98.0,354.0 L99.0,354.0 L99.0,353.4 L100.0,353.4 L100.0,352.7 L100.9,352.7 L100.9,352.1 L100.9,351.4 L101.8,351.4 L102.8,351.4 L103.8,351.4 L104.7,351.4 L104.7,350.7 L104.7,350.1 L104.7,349.4 L105.7,349.4 L105.7,348.8 L106.6,348.8 L106.6,348.1 L106.6,347.5 L106.6,346.8 L107.5,346.8 L107.5,346.2 L107.5,345.5 L107.5,344.9 L107.5,344.2 L107.5,343.6 L107.5,342.9 L107.5,342.3 L107.5,341.6 L107.5,340.9 L108.5,340.9 L109.5,340.9 L110.4,340.9 L110.4,340.3 L110.4,339.6 L111.3,339.6 L111.3,339.0 L111.3,338.3 L111.3,337.7 L111.3,337.0 L111.3,336.4 L111.3,335.7 L111.3,335.1 L111.3,334.4 L111.3,333.8 L111.3,333.1 L112.3,333.1 L112.3,332.5 L112.3,331.8 L112.3,331.1 L112.3,330.5 L112.3,329.8 L112.3,329.2 L112.3,328.5 L112.3,327.9 L113.2,327.9 L113.2,327.2 L113.2,326.6 L114.2,326.6 L115.2,326.6 L115.2,325.9 L116.1,325.9 L117.1,325.9 L117.1,325.3 L117.1,324.6 L117.1,324.0 L117.1,323.3 L118.0,323.3 L118.0,322.6 L118.0,322.0 L118.9,322.0 L118.9,321.3 L118.9,320.7 L119.9,320.7 L119.9,320.0 L120.8,320.0 L120.8,319.4 L121.8,319.4 L122.8,319.4 L122.8,318.7 L122.8,318.1 L122.8,317.4 L122.8,316.8 L122.8,316.1 L122.8,315.5 L122.8,314.8 L123.7,314.8 L123.7,314.2 L123.7,313.5 L123.7,312.8 L123.7,312.2 L123.7,311.5 L124.7,311.5 L125.6,311.5 L125.6,310.9 L126.5,310.9 L126.5,310.2 L127.5,310.2 L127.5,309.6 L128.4,309.6 L128.4,308.9 L129.4,308.9 L129.4,308.3 L129.4,307.6 L130.3,307.6 L130.3,307.0 L130.3,306.3 L131.3,306.3 L132.2,306.3 L133.2,306.3 L134.2,306.3 L134.2,305.7 L135.1,305.7 L135.1,305.0 L136.1,305.0 L136.1,304.4 L136.1,303.7 L136.1,303.0 L137.0,303.0 L137.9,303.0 L137.9,302.4 L137.9,301.7 L138.9,301.7 L139.8,301.7 L139.8,301.1 L140.8,301.1 L141.8,301.1 L141.8,300.4 L142.7,300.4 L142.7,299.8 L142.7,299.1 L142.7,298.5 L142.7,297.8 L143.7,297.8 L144.6,297.8 L144.6,297.2 L144.6,296.5 L145.6,296.5 L145.6,295.9 L146.5,295.9 L147.4,295.9 L147.4,295.2 L147.4,294.6 L147.4,293.9 L148.4,293.9 L148.4,293.2 L149.3,293.2 L149.3,292.6 L149.3,291.9 L149.3,291.3 L150.3,291.3 L151.2,291.3 L152.2,291.3 L153.2,291.3 L153.2,290.6 L153.2,290.0 L153.2,289.3 L153.2,288.7 L154.1,288.7 L154.1,288.0 L155.1,288.0 L155.1,287.4 L156.0,287.4 L156.0,286.7 L156.0,286.1 L156.0,285.4 L156.9,285.4 L157.9,285.4 L157.9,284.8 L157.9,284.1 L158.8,284.1 L158.8,283.4 L158.8,282.8 L158.8,282.1 L158.8,281.5 L159.8,281.5 L160.8,281.5 L161.7,281.5 L161.7,280.8 L162.7,280.8 L162.7,280.2 L163.6,280.2 L163.6,279.5 L163.6,278.9 L163.6,278.2 L163.6,277.6 L163.6,276.9 L164.6,276.9 L164.6,276.3 L164.6,275.6 L164.6,275.0 L165.5,275.0 L165.5,274.3 L166.4,274.3 L167.4,274.3 L167.4,273.6 L167.4,273.0 L167.4,272.3 L168.4,272.3 L168.4,271.7 L168.4,271.0 L169.3,271.0 L170.2,271.0 L171.2,271.0 L171.2,270.4 L172.1,270.4 L172.1,269.7 L172.1,269.1 L172.1,268.4 L172.1,267.8 L173.1,267.8 L173.1,267.1 L174.1,267.1 L174.1,266.5 L175.0,266.5 L175.0,265.8 L175.9,265.8 L175.9,265.2 L176.9,265.2 L176.9,264.5 L177.9,264.5 L177.9,263.8 L178.8,263.8 L178.8,263.2 L178.8,262.5 L178.8,261.9 L179.8,261.9 L180.7,261.9 L180.7,261.2 L180.7,260.6 L180.7,259.9 L180.7,259.3 L181.7,259.3 L181.7,258.6 L182.6,258.6 L183.6,258.6 L183.6,258.0 L184.5,258.0 L184.5,257.3 L185.4,257.3 L185.4,256.7 L185.4,256.0 L186.4,256.0 L186.4,255.4 L186.4,254.7 L187.3,254.7 L188.3,254.7 L188.3,254.0 L188.3,253.4 L188.3,252.7 L188.3,252.1 L188.3,251.4 L189.2,251.4 L189.2,250.8 L189.2,250.1 L190.2,250.1 L190.2,249.5 L190.2,248.8 L190.2,248.2 L191.1,248.2 L192.1,248.2 L192.1,247.5 L192.1,246.9 L193.1,246.9 L194.0,246.9 L194.9,246.9 L194.9,246.2 L195.9,246.2 L196.8,246.2 L196.8,245.6 L196.8,244.9 L196.8,244.2 L196.8,243.6 L196.8,242.9 L196.8,242.3 L196.8,241.6 L197.8,241.6 L198.8,241.6 L199.7,241.6 L199.7,241.0 L199.7,240.3 L200.7,240.3 L200.7,239.7 L200.7,239.0 L200.7,238.4 L200.7,237.7 L201.6,237.7 L201.6,237.1 L202.6,237.1 L202.6,236.4 L203.5,236.4 L203.5,235.8 L204.4,235.8 L204.4,235.1 L204.4,234.4 L204.4,233.8 L204.4,233.1 L204.4,232.5 L205.4,232.5 L206.4,232.5 L206.4,231.8 L206.4,231.2 L207.3,231.2 L208.2,231.2 L208.2,230.5 L209.2,230.5 L210.2,230.5 L210.2,229.9 L211.1,229.9 L212.0,229.9 L212.0,229.2 L212.0,228.6 L213.0,228.6 L213.0,227.9 L213.0,227.3 L213.9,227.3 L213.9,226.6 L214.9,226.6 L215.8,226.6 L216.8,226.6 L217.8,226.6 L217.8,226.0 L217.8,225.3 L217.8,224.6 L217.8,224.0 L217.8,223.3 L217.8,222.7 L217.8,222.0 L218.7,222.0 L218.7,221.4 L219.7,221.4 L219.7,220.7 L219.7,220.1 L219.7,219.4 L219.7,218.8 L219.7,218.1 L219.7,217.5 L219.7,216.8 L220.6,216.8 L220.6,216.2 L221.6,216.2 L221.6,215.5 L222.5,215.5 L223.4,215.5 L224.4,215.5 L225.3,215.5 L226.3,215.5 L227.2,215.5 L227.2,214.8 L228.2,214.8 L229.2,214.8 L230.1,214.8 L230.1,214.2 L230.1,213.5 L231.1,213.5 L232.0,213.5 L232.0,212.9 L232.0,212.2 L233.0,212.2 L233.0,211.6 L233.9,211.6 L234.8,211.6 L235.8,211.6 L236.8,211.6 L237.7,211.6 L238.7,211.6 L239.6,211.6 L240.5,211.6 L240.5,210.9 L240.5,210.3 L241.5,210.3 L242.4,210.3 L243.4,210.3 L243.4,209.6 L243.4,209.0 L244.3,209.0 L244.3,208.3 L245.3,208.3 L246.2,208.3 L246.2,207.7 L246.2,207.0 L247.2,207.0 L247.2,206.4 L248.2,206.4 L249.1,206.4 L250.1,206.4 L250.1,205.7 L251.0,205.7 L251.0,205.0 L251.0,204.4 L251.0,203.7 L251.0,203.1 L252.0,203.1 L252.9,203.1 L253.8,203.1 L253.8,202.4 L253.8,201.8 L253.8,201.1 L253.8,200.5 L253.8,199.8 L253.8,199.2 L253.8,198.5 L254.8,198.5 L254.8,197.9 L255.8,197.9 L255.8,197.2 L256.7,197.2 L256.7,196.6 L256.7,195.9 L257.6,195.9 L257.6,195.2 L258.6,195.2 L258.6,194.6 L259.5,194.6 L260.5,194.6 L261.4,194.6 L261.4,193.9 L261.4,193.3 L261.4,192.6 L262.4,192.6 L262.4,192.0 L262.4,191.3 L262.4,190.7 L263.4,190.7 L263.4,190.0 L263.4,189.4 L264.3,189.4 L265.2,189.4 L266.2,189.4 L267.1,189.4 L268.1,189.4 L269.1,189.4 L269.1,188.7 L269.1,188.1 L269.1,187.4 L269.1,186.8 L270.0,186.8 L270.0,186.1 L270.0,185.4 L270.0,184.8 L270.9,184.8 L271.9,184.8 L272.9,184.8 L272.9,184.1 L272.9,183.5 L273.8,183.5 L273.8,182.8 L274.8,182.8 L275.7,182.8 L276.6,182.8 L277.6,182.8 L278.5,182.8 L278.5,182.2 L278.5,181.5 L279.5,181.5 L279.5,180.9 L279.5,180.2 L279.5,179.6 L280.4,179.6 L280.4,178.9 L280.4,178.3 L281.4,178.3 L282.4,178.3 L282.4,177.6 L282.4,177.0 L283.3,177.0 L284.2,177.0 L284.2,176.3 L285.2,176.3 L285.2,175.6 L286.1,175.6 L286.1,175.0 L287.1,175.0 L287.1,174.3 L287.1,173.7 L287.1,173.0 L287.1,172.4 L287.1,171.7 L288.0,171.7 L289.0,171.7 L289.0,171.1 L289.9,171.1 L289.9,170.4 L290.9,170.4 L290.9,169.8 L291.9,169.8 L292.8,169.8 L292.8,169.1 L292.8,168.5 L292.8,167.8 L293.8,167.8 L293.8,167.2 L294.7,167.2 L295.6,167.2 L295.6,166.5 L296.6,166.5 L297.6,166.5 L297.6,165.8 L297.6,165.2 L297.6,164.5 L298.5,164.5 L298.5,163.9 L299.5,163.9 L300.4,163.9 L300.4,163.2 L300.4,162.6 L300.4,161.9 L301.4,161.9 L301.4,161.3 L301.4,160.6 L302.3,160.6 L303.2,160.6 L304.2,160.6 L304.2,160.0 L305.1,160.0 L306.1,160.0 L306.1,159.3 L306.1,158.7 L306.1,158.0 L307.1,158.0 L308.0,158.0 L308.0,157.4 L309.0,157.4 L309.0,156.7 L309.9,156.7 L309.9,156.0 L310.9,156.0 L310.9,155.4 L311.8,155.4 L312.8,155.4 L313.7,155.4 L314.6,155.4 L314.6,154.7 L315.6,154.7 L315.6,154.1 L315.6,153.4 L316.6,153.4 L316.6,152.8 L317.5,152.8 L318.4,152.8 L318.4,152.1 L318.4,151.5 L319.4,151.5 L320.4,151.5 L320.4,150.8 L321.3,150.8 L322.2,150.8 L323.2,150.8 L324.1,150.8 L325.1,150.8 L325.1,150.2 L325.1,149.5 L325.1,148.9 L326.0,148.9 L327.0,148.9 L327.9,148.9 L328.9,148.9 L329.9,148.9 L329.9,148.2 L330.8,148.2 L330.8,147.5 L331.8,147.5 L332.7,147.5 L333.6,147.5 L334.6,147.5 L335.5,147.5 L335.5,146.9 L336.5,146.9 L336.5,146.2 L336.5,145.6 L337.4,145.6 L337.4,144.9 L337.4,144.3 L337.4,143.6 L337.4,143.0 L337.4,142.3 L338.4,142.3 L338.4,141.7 L338.4,141.0 L339.4,141.0 L340.3,141.0 L340.3,140.4 L341.2,140.4 L342.2,140.4 L343.1,140.4 L343.1,139.7 L343.1,139.1 L343.1,138.4 L343.1,137.7 L343.1,137.1 L343.1,136.4 L344.1,136.4 L345.1,136.4 L346.0,136.4 L346.9,136.4 L346.9,135.8 L346.9,135.1 L346.9,134.5 L347.9,134.5 L348.9,134.5 L349.8,134.5 L349.8,133.8 L349.8,133.2 L350.8,133.2 L351.7,133.2 L352.7,133.2 L353.6,133.2 L354.6,133.2 L355.5,133.2 L356.4,133.2 L357.4,133.2 L358.4,133.2 L358.4,132.5 L359.3,132.5 L360.2,132.5 L361.2,132.5 L362.2,132.5 L362.2,131.9 L363.1,131.9 L363.1,131.2 L363.1,130.6 L364.1,130.6 L364.1,129.9 L364.1,129.3 L365.0,129.3 L365.9,129.3 L365.9,128.6 L366.9,128.6 L366.9,127.9 L366.9,127.3 L366.9,126.6 L366.9,126.0 L367.8,126.0 L367.8,125.3 L368.8,125.3 L368.8,124.7 L368.8,124.0 L368.8,123.4 L369.8,123.4 L370.7,123.4 L371.6,123.4 L372.6,123.4 L373.6,123.4 L374.5,123.4 L375.4,123.4 L376.4,123.4 L376.4,122.7 L377.3,122.7 L378.3,122.7 L379.2,122.7 L380.2,122.7 L381.1,122.7 L381.1,122.1 L382.1,122.1 L382.1,121.4 L382.1,120.8 L383.1,120.8 L384.0,120.8 L384.0,120.1 L384.0,119.5 L384.9,119.5 L385.9,119.5 L386.9,119.5 L386.9,118.8 L387.8,118.8 L387.8,118.1 L388.8,118.1 L389.7,118.1 L389.7,117.5 L390.6,117.5 L391.6,117.5 L391.6,116.8 L392.6,116.8 L393.5,116.8 L394.4,116.8 L394.4,116.2 L394.4,115.5 L395.4,115.5 L395.4,114.9 L396.4,114.9 L397.3,114.9 L398.2,114.9 L399.2,114.9 L400.2,114.9 L400.2,114.2 L400.2,113.6 L401.1,113.6 L401.1,112.9 L401.1,112.3 L401.1,111.6 L402.1,111.6 L403.0,111.6 L403.0,111.0 L403.9,111.0 L404.9,111.0 L405.9,111.0 L405.9,110.3 L405.9,109.7 L405.9,109.0 L405.9,108.3 L406.8,108.3 L406.8,107.7 L406.8,107.0 L407.8,107.0 L408.7,107.0 L409.7,107.0 L410.6,107.0 L410.6,106.4 L411.6,106.4 L412.5,106.4 L413.4,106.4 L414.4,106.4 L415.3,106.4 L416.3,106.4 L416.3,105.7 L417.2,105.7 L417.2,105.1 L417.2,104.4 L418.2,104.4 L419.1,104.4 L420.1,104.4 L421.1,104.4 L422.0,104.4 L422.0,103.8 L422.0,103.1 L422.9,103.1 L423.9,103.1 L423.9,102.5 L424.8,102.5 L425.8,102.5 L425.8,101.8 L426.8,101.8 L427.7,101.8 L428.6,101.8 L429.6,101.8 L430.6,101.8 L431.5,101.8 L431.5,101.2 L432.4,101.2 L433.4,101.2 L434.4,101.2 L435.3,101.2 L436.2,101.2 L436.2,100.5 L437.2,100.5 L438.1,100.5 L438.1,99.9 L438.1,99.2 L439.1,99.2 L440.1,99.2 L440.1,98.5 L441.0,98.5 L441.0,97.9 L441.9,97.9 L442.9,97.9 L443.9,97.9 L444.8,97.9 L445.8,97.9 L446.7,97.9 L447.7,97.9 L448.6,97.9 L449.6,97.9 L450.5,97.9 L451.4,97.9 L452.4,97.9 L453.4,97.9 L453.4,97.2 L454.3,97.2 L455.2,97.2 L456.2,97.2 L457.2,97.2 L458.1,97.2 L459.1,97.2 L460.0,97.2 L460.9,97.2 L461.9,97.2 L462.9,97.2 L463.8,97.2 L464.8,97.2 L465.7,97.2 L466.7,97.2 L466.7,96.6 L467.6,96.6 L468.6,96.6 L468.6,95.9 L469.5,95.9 L470.5,95.9 L471.4,95.9 L472.3,95.9 L473.3,95.9 L474.3,95.9 L475.2,95.9 L476.1,95.9 L477.1,95.9 L478.1,95.9 L479.0,95.9 L479.9,95.9 L480.9,95.9 L481.9,95.9 L482.8,95.9 L482.8,95.3 L483.8,95.3 L484.7,95.3 L485.6,95.3 L486.6,95.3 L487.6,95.3 L488.5,95.3 L489.4,95.3 L490.4,95.3 L491.4,95.3 L492.3,95.3 L493.2,95.3 L493.2,94.6 L494.2,94.6 L495.2,94.6 L496.1,94.6 L497.0,94.6 L498.0,94.6 L498.9,94.6 L499.9,94.6 L499.9,94.0 L500.8,94.0 L501.8,94.0 L502.8,94.0 L503.7,94.0 L503.7,93.3 L504.6,93.3 L504.6,92.7 L505.6,92.7 L506.6,92.7 L507.5,92.7 L507.5,92.0 L508.4,92.0 L509.4,92.0 L510.4,92.0 L510.4,91.4 L511.3,91.4 L512.2,91.4 L513.2,91.4 L514.2,91.4 L515.1,91.4 L516.0,91.4 L517.0,91.4 L518.0,91.4 L518.9,91.4 L519.8,91.4 L520.8,91.4 L521.8,91.4 L522.7,91.4 L523.6,91.4 L524.6,91.4 L525.5,91.4 L526.5,91.4 L527.5,91.4 L528.4,91.4 L529.4,91.4 L530.3,91.4 L531.2,91.4 L532.2,91.4 L533.1,91.4 L533.1,90.7 L534.1,90.7 L535.0,90.7 L536.0,90.7 L537.0,90.7 L537.9,90.7 L538.9,90.7 L539.8,90.7 L539.8,90.1 L539.8,89.4 L540.8,89.4 L541.7,89.4 L541.7,88.7 L542.7,88.7 L543.6,88.7 L544.5,88.7 L545.5,88.7 L545.5,88.1 L546.5,88.1 L547.4,88.1 L548.3,88.1 L549.3,88.1 L550.2,88.1 L550.2,87.4 L551.2,87.4 L552.1,87.4 L553.1,87.4 L554.0,87.4 L555.0,87.4 L556.0,87.4 L556.9,87.4 L557.9,87.4 L558.8,87.4 L558.8,86.8 L559.8,86.8 L560.7,86.8 L561.7,86.8 L562.6,86.8 L563.5,86.8 L564.5,86.8 L565.5,86.8 L566.4,86.8 L567.3,86.8 L568.3,86.8 L569.2,86.8 L570.2,86.8 L571.1,86.8 L572.1,86.8 L572.1,86.1 L573.0,86.1 L574.0,86.1 L575.0,86.1 L575.9,86.1 L576.9,86.1 L577.8,86.1 L578.8,86.1 L579.7,86.1 L580.6,86.1 L581.6,86.1 L582.5,86.1 L583.5,86.1 L584.5,86.1 L584.5,85.5 L585.4,85.5 L586.4,85.5 L587.3,85.5 L588.2,85.5 L589.2,85.5 L590.2,85.5 L591.1,85.5 L592.0,85.5 L593.0,85.5 L594.0,85.5 L594.9,85.5 L595.9,85.5 L596.8,85.5 L597.8,85.5 L598.7,85.5 L599.6,85.5 L600.6,85.5 L601.6,85.5 L602.5,85.5 L602.5,84.8 L603.4,84.8 L603.4,84.2 L604.4,84.2 L605.4,84.2 L606.3,84.2 L607.2,84.2 L607.2,83.5 L608.2,83.5 L608.2,82.9 L608.2,82.2 L609.1,82.2 L610.1,82.2 L611.0,82.2 L612.0,82.2 L613.0,82.2 L613.9,82.2 L614.9,82.2 L614.9,81.6 L615.8,81.6 L616.8,81.6 L617.7,81.6 L618.6,81.6 L618.6,80.9 L619.6,80.9 L620.6,80.9 L621.5,80.9 L621.5,80.3 L622.5,80.3 L623.4,80.3 L623.4,79.6 L624.4,79.6 L625.3,79.6 L626.2,79.6 L626.2,78.9 L627.2,78.9 L628.1,78.9 L629.1,78.9 L629.1,78.3 L630.0,78.3 L631.0,78.3 L631.0,77.6 L631.9,77.6 L632.9,77.6 L633.9,77.6 L634.8,77.6 L634.8,77.0 L635.8,77.0 L636.7,77.0 L637.6,77.0 L638.6,77.0 L639.5,77.0 L640.5,77.0 L641.5,77.0 L642.4,77.0 L643.4,77.0 L643.4,76.3 L643.4,75.7 L644.3,75.7 L645.2,75.7 L646.2,75.7 L647.1,75.7 L648.1,75.7 L648.1,75.0 L649.1,75.0 L649.1,74.4 L650.0,74.4 L650.9,74.4 L651.9,74.4 L651.9,73.7 L652.9,73.7 L653.8,73.7 L654.8,73.7 L655.7,73.7 L656.6,73.7 L656.6,73.1 L657.6,73.1 L658.5,73.1 L659.5,73.1 L660.5,73.1 L660.5,72.4 L661.4,72.4 L662.4,72.4 L663.3,72.4 L664.2,72.4 L665.2,72.4 L666.1,72.4 L667.1,72.4 L668.1,72.4 L669.0,72.4 L670.0,72.4 L670.0,71.8 L670.9,71.8 L671.9,71.8 L672.8,71.8 L673.8,71.8 L674.7,71.8 L675.6,71.8 L676.6,71.8 L677.5,71.8 L678.5,71.8 L679.4,71.8 L680.4,71.8 L681.4,71.8 L682.3,71.8 L683.2,71.8 L684.2,71.8 L685.1,71.8 L686.1,71.8 L687.0,71.8 L688.0,71.8 L689.0,71.8 L689.9,71.8 L690.9,71.8 L691.8,71.8 L691.8,71.1 L692.8,71.1 L693.7,71.1 L694.6,71.1 L695.6,71.1 L696.6,71.1 L697.5,71.1 L698.4,71.1 L699.4,71.1 L700.4,71.1 L701.3,71.1 L702.2,71.1 L703.2,71.1 L704.1,71.1 L705.1,71.1 L706.0,71.1 L707.0,71.1 L707.0,70.5 L708.0,70.5 L708.0,69.8 L708.9,69.8 L709.9,69.8 L710.8,69.8 L711.8,69.8 L712.7,69.8 L713.6,69.8 L713.6,69.1 L714.6,69.1 L715.6,69.1 L716.5,69.1 L717.5,69.1 L718.4,69.1 L719.4,69.1 L720.3,69.1 L721.2,69.1 L722.2,69.1 L723.1,69.1 L723.1,68.5 L724.1,68.5 L725.0,68.5 L726.0,68.5 L726.9,68.5 L727.9,68.5 L728.9,68.5 L729.8,68.5 L730.8,68.5 L731.7,68.5 L732.6,68.5 L732.6,67.8 L732.6,67.2 L733.6,67.2 L734.5,67.2 L735.5,67.2 L736.5,67.2 L737.4,67.2 L738.4,67.2 L739.3,67.2 L739.3,66.5 L740.2,66.5 L741.2,66.5 L742.1,66.5 L743.1,66.5 L744.1,66.5 L745.0,66.5 L745.0,65.9 L745.0,65.2 L745.9,65.2 L746.9,65.2 L747.9,65.2 L748.8,65.2 L749.8,65.2 L750.7,65.2 L750.7,64.6 L751.6,64.6 L752.6,64.6 L752.6,63.9 L753.5,63.9 L754.5,63.9 L755.5,63.9 L756.4,63.9 L757.4,63.9 L758.3,63.9 L759.2,63.9 L760.2,63.9 L761.1,63.9 L761.1,63.3 L762.1,63.3 L763.1,63.3 L764.0,63.3 L765.0,63.3 L765.9,63.3 L766.9,63.3 L767.8,63.3 L768.8,63.3 L768.8,62.6 L769.7,62.6 L770.6,62.6 L771.6,62.6 L772.5,62.6 L773.5,62.6 L774.4,62.6 L774.4,62.0 L775.4,62.0 L776.4,62.0 L777.3,62.0 L778.2,62.0 L779.2,62.0 L780.1,62.0 L781.1,62.0 L782.0,62.0 L783.0,62.0 L784.0,62.0 L784.9,62.0 L785.9,62.0 L785.9,61.3 L786.8,61.3 L787.8,61.3 L788.7,61.3 L789.6,61.3 L790.6,61.3 L791.6,61.3 L792.5,61.3 L793.4,61.3 L794.4,61.3 L795.4,61.3 L795.4,60.7 L796.3,60.7 L797.2,60.7 L798.2,60.7 L799.1,60.7 L800.1,60.7 L801.0,60.7 L802.0,60.7 L803.0,60.7 L803.9,60.7 L804.9,60.7 L805.8,60.7 L806.8,60.7 L807.7,60.7 L808.6,60.7 L809.6,60.7 L810.6,60.7 L811.5,60.7 L812.5,60.7 L813.4,60.7 L814.4,60.7 L815.3,60.7 L816.2,60.7 L817.2,60.7 L818.1,60.7 L819.1,60.7 L820.0,60.7 L821.0,60.7 L821.9,60.7 L822.9,60.7 L823.9,60.7 L824.8,60.7 L825.8,60.7 L826.7,60.7 L827.6,60.7 L828.6,60.7 L829.5,60.7 L830.5,60.7 L831.5,60.7 L832.4,60.7 L833.4,60.7 L834.3,60.7 L835.2,60.7 L836.2,60.7 L837.1,60.7 L838.1,60.7 L839.1,60.7 L840.0,60.7 L840.0,60.0 L840.0,60.0" fill="none" stroke="#dc2626" stroke-width="2.5"/>
<rect x="868" y="71" width="14" height="14" fill="#dc2626"/>
<text x="888.0" y="82.0" font-family="monospace" font-size="11" font-weight="400" text-anchor="start" fill="#111827">healthy_control AUC=0.779</text>
</svg>
