<svg xmlns="http://www.w3.org/2000/svg" width="980" height="520" viewBox="0 0 980 520">
<rect width="100%" height="100%" fill="#ffffff"/>
<text x="24.0" y="34.0" font-family="monospace" font-size="18" font-weight="700" text-anchor="start" fill="#111827">Training history: ad_ftd_vs_healthy</text>
<rect x="80" y="60" width="760" height="360" fill="#f9fafb" stroke="#d1d5db"/>
<line x1="80" x2="840" y1="420.0" y2="420.0" stroke="#e5e7eb"/>
<text x="70.0" y="424.0" font-family="monospace" font-size="10" font-weight="400" text-anchor="end" fill="#111827">0</text>
<line x1="80" x2="840" y1="348.0" y2="348.0" stroke="#e5e7eb"/>
<text x="70.0" y="352.0" font-family="monospace" font-size="10" font-weight="400" text-anchor="end" fill="#111827">0.2</text>
<line x1="80" x2="840" y1="276.0" y2="276.0" stroke="#e5e7eb"/>
<text x="70.0" y="280.0" font-family="monospace" font-size="10" font-weight="400" text-anchor="end" fill="#111827">0.4</text>
<line x1="80" x2="840" y1="204.0" y2="204.0" stroke="#e5e7eb"/>
<text x="70.0" y="208.0" font-family="monospace" font-size="10" font-weight="400" text-anchor="end" fill="#111827">0.6</text>
<line x1="80" x2="840" y1="132.0" y2="132.0" stroke="#e5e7eb"/>
<text x="70.0" y="136.0" font-family="monospace" font-size="10" font-weight="400" text-anchor="end" fill="#111827">0.8</text>
<line x1="80" x2="840" y1="60.0" y2="60.0" stroke="#e5e7eb"/>
<text x="70.0" y="64.0" font-family="monospace" font-size="10" font-weight="400" text-anchor="end" fill="#111827">1</text>
<path d="M80.0,184.3 L87.7,184.3 L95.4,178.7 L103.0,169.9 L110.7,165.2 L118.4,162.8 L126.1,162.8 L133.7,161.7 L141.4,161.8 L149.1,160.4 L156.8,160.1 L164.4,158.9 L172.1,159.6 L179.8,160.7 L187.5,157.9 L195.2,159.0 L202.8,157.9 L210.5,158.6 L218.2,156.8 L225.9,158.0 L233.5,157.4 L241.2,156.6 L248.9,156.3 L256.6,157.5 L264.2,156.6 L271.9,156.1 L279.6,156.0 L287.3,156.1 L294.9,156.4 L302.6,157.0 L310.3,155.6 L318.0,156.8 L325.7,155.7 L333.3,156.4 L341.0,155.4 L348.7,155.7 L356.4,155.7 L364.0,155.9 L371.7,155.1 L379.4,154.7 L387.1,155.7 L394.7,156.2 L402.4,155.3 L410.1,154.2 L417.8,154.5 L425.5,154.4 L433.1,155.4 L440.8,154.4 L448.5,154.5 L456.2,154.5 L463.8,154.6 L471.5,153.7 L479.2,154.3 L486.9,155.2 L494.5,154.2 L502.2,154.5 L509.9,154.6 L517.6,153.8 L525.3,153.2 L532.9,153.8 L540.6,152.7 L548.3,153.2 L556.0,154.1 L563.6,153.3 L571.3,153.6 L579.0,153.8 L586.7,152.9 L594.3,153.0 L602.0,153.6 L609.7,154.0 L617.4,153.0 L625.1,152.5 L632.7,152.7 L640.4,152.7 L648.1,152.2 L655.8,152.6 L663.4,152.5 L671.1,152.9 L678.8,152.2 L686.5,152.6 L694.1,152.9 L701.8,151.7 L709.5,151.4 L717.2,152.7 L724.8,152.4 L732.5,152.8 L740.2,151.7 L747.9,151.6 L755.6,151.9 L763.2,151.0 L770.9,151.2 L778.6,151.8 L786.3,151.0 L793.9,151.5 L801.6,152.4 L809.3,151.1 L817.0,151.8 L824.6,151.4 L832.3,150.6 L840.0,151.9" fill="none" stroke="#2563eb" stroke-width="2.5"/>
<rect x="868" y="49" width="14" height="14" fill="#2563eb"/>
<text x="888.0" y="60.0" font-family="monospace" font-size="11" font-weight="400" text-anchor="start" fill="#111827">train accuracy</text>
<path d="M80.0,184.3 L87.7,184.3 L95.4,167.7 L103.0,163.1 L110.7,161.1 L118.4,159.7 L126.1,159.8 L133.7,158.6 L141.4,160.1 L149.1,158.4 L156.8,158.7 L164.4,158.3 L172.1,158.3 L179.8,157.9 L187.5,158.0 L195.2,157.9 L202.8,160.7 L210.5,157.6 L218.2,158.3 L225.9,158.6 L233.5,157.4 L241.2,158.0 L248.9,157.2 L256.6,157.2 L264.2,158.9 L271.9,157.5 L279.6,157.1 L287.3,158.3 L294.9,157.8 L302.6,157.9 L310.3,156.5 L318.0,156.2 L325.7,156.5 L333.3,156.3 L341.0,155.8 L348.7,156.8 L356.4,155.9 L364.0,155.8 L371.7,156.4 L379.4,155.8 L387.1,155.3 L394.7,155.8 L402.4,155.7 L410.1,155.1 L417.8,154.9 L425.5,155.5 L433.1,155.5 L440.8,154.6 L448.5,155.9 L456.2,155.4 L463.8,155.5 L471.5,155.2 L479.2,155.7 L486.9,155.2 L494.5,154.9 L502.2,154.5 L509.9,154.6 L517.6,156.4 L525.3,154.5 L532.9,154.8 L540.6,155.8 L548.3,155.8 L556.0,154.8 L563.6,154.6 L571.3,154.1 L579.0,154.3 L586.7,153.5 L594.3,153.5 L602.0,154.0 L609.7,154.1 L617.4,153.9 L625.1,154.9 L632.7,155.2 L640.4,153.1 L648.1,153.1 L655.8,154.5 L663.4,153.1 L671.1,153.5 L678.8,153.4 L686.5,153.1 L694.1,155.5 L701.8,152.5 L709.5,152.6 L717.2,151.8 L724.8,153.1 L732.5,152.7 L740.2,155.7 L747.9,153.1 L755.6,152.6 L763.2,152.4 L770.9,153.7 L778.6,153.0 L786.3,152.0 L793.9,153.8 L801.6,152.2 L809.3,151.3 L817.0,152.3 L824.6,152.4 L832.3,151.8 L840.0,155.2" fill="none" stroke="#dc2626" stroke-width="2.5"/>
<rect x="868" y="71" width="14" height="14" fill="#dc2626"/>
<text x="888.0" y="82.0" font-family="monospace" font-size="11" font-weight="400" text-anchor="start" fill="#111827">validation accuracy</text>
</svg>
