<svg xmlns="http://www.w3.org/2000/svg" width="980" height="520" viewBox="0 0 980 520">
<rect width="100%" height="100%" fill="#ffffff"/>
<text x="24.0" y="34.0" font-family="monospace" font-size="18" font-weight="700" text-anchor="start" fill="#111827">Training history: label_swap_80_20/multiclass</text>
<rect x="80" y="60" width="760" height="360" fill="#f9fafb" stroke="#d1d5db"/>
<line x1="80" x2="840" y1="420.0" y2="420.0" stroke="#e5e7eb"/>
<text x="70.0" y="424.0" font-family="monospace" font-size="10" font-weight="400" text-anchor="end" fill="#111827">0</text>
<line x1="80" x2="840" y1="348.0" y2="348.0" stroke="#e5e7eb"/>
<text x="70.0" y="352.0" font-family="monospace" font-size="10" font-weight="400" text-anchor="end" fill="#111827">0.2</text>
<line x1="80" x2="840" y1="276.0" y2="276.0" stroke="#e5e7eb"/>
<text x="70.0" y="280.0" font-family="monospace" font-size="10" font-weight="400" text-anchor="end" fill="#111827">0.4</text>
<line x1="80" x2="840" y1="204.0" y2="204.0" stroke="#e5e7eb"/>
<text x="70.0" y="208.0" font-family="monospace" font-size="10" font-weight="400" text-anchor="end" fill="#111827">0.6</text>
<line x1="80" x2="840" y1="132.0" y2="132.0" stroke="#e5e7eb"/>
<text x="70.0" y="136.0" font-family="monospace" font-size="10" font-weight="400" text-anchor="end" fill="#111827">0.8</text>
<line x1="80" x2="840" y1="60.0" y2="60.0" stroke="#e5e7eb"/>
<text x="70.0" y="64.0" font-family="monospace" font-size="10" font-weight="400" text-anchor="end" fill="#111827">1</text>
<path d="M80.0,269.8 L87.7,269.8 L95.4,265.1 L103.0,248.8 L110.7,238.3 L118.4,234.8 L126.1,232.8 L133.7,231.3 L141.4,230.8 L149.1,229.7 L156.8,229.2 L164.4,228.8 L172.1,228.3 L179.8,229.1 L187.5,228.0 L195.2,228.7 L202.8,228.0 L210.5,227.2 L218.2,227.0 L225.9,227.0 L233.5,227.0 L241.2,225.9 L248.9,226.3 L256.6,226.1 L264.2,226.6 L271.9,225.4 L279.6,225.9 L287.3,225.1 L294.9,223.8 L302.6,224.2 L310.3,224.3 L318.0,222.3 L325.7,223.0 L333.3,221.8 L341.0,222.1 L348.7,221.4 L356.4,221.3 L364.0,220.3 L371.7,221.7 L379.4,220.8 L387.1,219.3 L394.7,218.9 L402.4,219.9 L410.1,219.1 L417.8,218.7 L425.5,218.1 L433.1,219.1 L440.8,217.5 L448.5,219.7 L456.2,218.0 L463.8,217.8 L471.5,216.8 L479.2,217.3 L486.9,217.4 L494.5,218.1 L502.2,217.0 L509.9,217.2 L517.6,216.9 L525.3,215.9 L532.9,217.8 L540.6,216.2 L548.3,216.5 L556.0,216.3 L563.6,216.7 L571.3,216.8 L579.0,216.7 L586.7,216.7 L594.3,216.3 L602.0,215.9 L609.7,215.7 L617.4,216.3 L625.1,216.3 L632.7,216.2 L640.4,215.7 L648.1,216.2 L655.8,216.0 L663.4,216.4 L671.1,215.4 L678.8,216.9 L686.5,215.3 L694.1,216.6 L701.8,215.4 L709.5,215.3 L717.2,216.1 L724.8,215.0 L732.5,214.9 L740.2,215.9 L747.9,215.5 L755.6,214.8 L763.2,214.9 L770.9,214.6 L778.6,214.5 L786.3,214.6 L793.9,213.8 L801.6,215.7 L809.3,215.0 L817.0,213.5 L824.6,214.4 L832.3,214.6 L840.0,215.7" fill="none" stroke="#2563eb" stroke-width="2.5"/>
<rect x="868" y="49" width="14" height="14" fill="#2563eb"/>
<text x="888.0" y="60.0" font-family="monospace" font-size="11" font-weight="400" text-anchor="start" fill="#111827">train accuracy</text>
<path d="M80.0,269.8 L87.7,269.8 L95.4,248.0 L103.0,225.0 L110.7,224.9 L118.4,224.4 L126.1,225.5 L133.7,224.4 L141.4,224.4 L149.1,224.0 L156.8,226.0 L164.4,226.7 L172.1,224.3 L179.8,224.6 L187.5,223.9 L195.2,224.3 L202.8,225.0 L210.5,224.2 L218.2,225.8 L225.9,224.6 L233.5,224.6 L241.2,226.0 L248.9,225.7 L256.6,225.5 L264.2,224.4 L271.9,226.6 L279.6,225.2 L287.3,222.4 L294.9,221.9 L302.6,220.9 L310.3,220.8 L318.0,219.4 L325.7,219.7 L333.3,219.7 L341.0,219.8 L348.7,223.0 L356.4,217.9 L364.0,219.0 L371.7,217.2 L379.4,216.3 L387.1,215.9 L394.7,216.1 L402.4,216.0 L410.1,214.5 L417.8,214.2 L425.5,218.4 L433.1,212.4 L440.8,214.9 L448.5,215.6 L456.2,214.2 L463.8,212.8 L471.5,213.1 L479.2,213.1 L486.9,212.9 L494.5,214.0 L502.2,212.7 L509.9,213.6 L517.6,212.8 L525.3,212.1 L532.9,213.6 L540.6,213.5 L548.3,215.3 L556.0,218.2 L563.6,212.8 L571.3,211.4 L579.0,210.7 L586.7,210.4 L594.3,215.4 L602.0,213.3 L609.7,212.8 L617.4,213.0 L625.1,211.1 L632.7,211.0 L640.4,212.4 L648.1,213.8 L655.8,212.8 L663.4,212.4 L671.1,213.5 L678.8,212.0 L686.5,212.8 L694.1,211.1 L701.8,213.8 L709.5,212.4 L717.2,213.1 L724.8,212.6 L732.5,213.1 L740.2,212.1 L747.9,212.2 L755.6,212.4 L763.2,211.7 L770.9,213.5 L778.6,211.5 L786.3,212.7 L793.9,211.9 L801.6,212.0 L809.3,213.1 L817.0,211.4 L824.6,210.8 L832.3,212.5 L840.0,211.6" fill="none" stroke="#dc2626" stroke-width="2.5"/>
<rect x="868" y="71" width="14" height="14" fill="#dc2626"/>
<text x="888.0" y="82.0" font-family="monospace" font-size="11" font-weight="400" text-anchor="start" fill="#111827">validation accuracy</text>
</svg>
