<svg xmlns="http://www.w3.org/2000/svg" width="980" height="520" viewBox="0 0 980 520">
<rect width="100%" height="100%" fill="#ffffff"/>
<text x="24.0" y="34.0" font-family="monospace" font-size="18" font-weight="700" text-anchor="start" fill="#111827">Training history: multiclass</text>
<rect x="80" y="60" width="760" height="360" fill="#f9fafb" stroke="#d1d5db"/>
<line x1="80" x2="840" y1="420.0" y2="420.0" stroke="#e5e7eb"/>
<text x="70.0" y="424.0" font-family="monospace" font-size="10" font-weight="400" text-anchor="end" fill="#111827">0</text>
<line x1="80" x2="840" y1="348.0" y2="348.0" stroke="#e5e7eb"/>
<text x="70.0" y="352.0" font-family="monospace" font-size="10" font-weight="400" text-anchor="end" fill="#111827">0.2</text>
<line x1="80" x2="840" y1="276.0" y2="276.0" stroke="#e5e7eb"/>
<text x="70.0" y="280.0" font-family="monospace" font-size="10" font-weight="400" text-anchor="end" fill="#111827">0.4</text>
<line x1="80" x2="840" y1="204.0" y2="204.0" stroke="#e5e7eb"/>
<text x="70.0" y="208.0" font-family="monospace" font-size="10" font-weight="400" text-anchor="end" fill="#111827">0.6</text>
<line x1="80" x2="840" y1="132.0" y2="132.0" stroke="#e5e7eb"/>
<text x="70.0" y="136.0" font-family="monospace" font-size="10" font-weight="400" text-anchor="end" fill="#111827">0.8</text>
<line x1="80" x2="840" y1="60.0" y2="60.0" stroke="#e5e7eb"/>
<text x="70.0" y="64.0" font-family="monospace" font-size="10" font-weight="400" text-anchor="end" fill="#111827">1</text>
<path d="M80.0,269.7 L87.7,269.8 L95.4,269.8 L103.0,269.8 L110.7,258.5 L118.4,242.4 L126.1,236.1 L133.7,235.5 L141.4,233.0 L149.1,231.1 L156.8,231.0 L164.4,230.0 L172.1,228.2 L179.8,229.0 L187.5,228.4 L195.2,227.4 L202.8,226.3 L210.5,225.1 L218.2,224.5 L225.9,224.5 L233.5,223.6 L241.2,222.6 L248.9,222.7 L256.6,223.2 L264.2,221.6 L271.9,222.3 L279.6,221.3 L287.3,221.2 L294.9,220.6 L302.6,221.8 L310.3,219.7 L318.0,221.3 L325.7,220.1 L333.3,220.0 L341.0,220.7 L348.7,219.5 L356.4,218.7 L364.0,219.0 L371.7,219.9 L379.4,219.4 L387.1,219.3 L394.7,219.2 L402.4,218.3 L410.1,217.7 L417.8,216.9 L425.5,218.0 L433.1,218.5 L440.8,217.6 L448.5,218.0 L456.2,217.4 L463.8,217.7 L471.5,217.8 L479.2,218.2 L486.9,218.2 L494.5,217.7 L502.2,217.1 L509.9,217.8 L517.6,217.4 L525.3,217.3 L532.9,218.0 L540.6,218.2 L548.3,218.6 L556.0,216.8 L563.6,217.6 L571.3,216.7 L579.0,217.7 L586.7,216.5 L594.3,217.0 L602.0,216.4 L609.7,216.9 L617.4,215.8 L625.1,215.5 L632.7,216.3 L640.4,216.2 L648.1,216.7 L655.8,217.0 L663.4,215.4 L671.1,216.3 L678.8,217.0 L686.5,215.8 L694.1,216.2 L701.8,216.8 L709.5,215.2 L717.2,215.9 L724.8,216.4 L732.5,216.5 L740.2,216.6 L747.9,215.3 L755.6,215.3 L763.2,216.2 L770.9,215.7 L778.6,215.1 L786.3,215.9 L793.9,215.9 L801.6,215.3 L809.3,215.0 L817.0,217.7 L824.6,216.3 L832.3,214.8 L840.0,215.6" fill="none" stroke="#2563eb" stroke-width="2.5"/>
<rect x="868" y="49" width="14" height="14" fill="#2563eb"/>
<text x="888.0" y="60.0" font-family="monospace" font-size="11" font-weight="400" text-anchor="start" fill="#111827">train accuracy</text>
<path d="M80.0,269.8 L87.7,269.8 L95.4,269.8 L103.0,269.8 L110.7,245.7 L118.4,225.2 L126.1,226.7 L133.7,226.5 L141.4,232.0 L149.1,223.8 L156.8,222.4 L164.4,223.0 L172.1,221.7 L179.8,225.4 L187.5,220.5 L195.2,217.3 L202.8,218.2 L210.5,216.9 L218.2,218.6 L225.9,218.4 L233.5,216.9 L241.2,216.3 L248.9,215.6 L256.6,215.5 L264.2,215.2 L271.9,219.2 L279.6,216.3 L287.3,214.4 L294.9,214.3 L302.6,214.5 L310.3,213.8 L318.0,213.5 L325.7,213.6 L333.3,213.4 L341.0,217.0 L348.7,213.1 L356.4,214.4 L364.0,213.1 L371.7,214.2 L379.4,216.9 L387.1,217.7 L394.7,213.3 L402.4,212.2 L410.1,213.6 L417.8,214.6 L425.5,216.2 L433.1,212.8 L440.8,211.4 L448.5,213.7 L456.2,213.5 L463.8,212.4 L471.5,212.7 L479.2,213.1 L486.9,212.1 L494.5,211.7 L502.2,212.7 L509.9,211.4 L517.6,212.8 L525.3,213.3 L532.9,215.4 L540.6,212.8 L548.3,212.8 L556.0,212.1 L563.6,213.5 L571.3,214.8 L579.0,212.1 L586.7,212.0 L594.3,211.3 L602.0,213.7 L609.7,211.7 L617.4,211.7 L625.1,211.4 L632.7,212.0 L640.4,213.5 L648.1,214.0 L655.8,212.8 L663.4,212.1 L671.1,210.7 L678.8,211.1 L686.5,213.4 L694.1,212.1 L701.8,210.1 L709.5,211.2 L717.2,211.0 L724.8,211.6 L732.5,211.7 L740.2,211.5 L747.9,211.8 L755.6,210.8 L763.2,212.1 L770.9,210.8 L778.6,211.7 L786.3,211.5 L793.9,211.1 L801.6,214.2 L809.3,211.5 L817.0,213.6 L824.6,210.9 L832.3,212.4 L840.0,211.6" fill="none" stroke="#dc2626" stroke-width="2.5"/>
<rect x="868" y="71" width="14" height="14" fill="#dc2626"/>
<text x="888.0" y="82.0" font-family="monospace" font-size="11" font-weight="400" text-anchor="start" fill="#111827">validation accuracy</text>
</svg>
