<svg xmlns="http://www.w3.org/2000/svg" width="980" height="520" viewBox="0 0 980 520">
<rect width="100%" height="100%" fill="#ffffff"/>
<text x="24.0" y="34.0" font-family="monospace" font-size="18" font-weight="700" text-anchor="start" fill="#111827">Training history: smote/ad_vs_healthy</text>
<rect x="80" y="60" width="760" height="360" fill="#f9fafb" stroke="#d1d5db"/>
<line x1="80" x2="840" y1="420.0" y2="420.0" stroke="#e5e7eb"/>
<text x="70.0" y="424.0" font-family="monospace" font-size="10" font-weight="400" text-anchor="end" fill="#111827">0</text>
<line x1="80" x2="840" y1="348.0" y2="348.0" stroke="#e5e7eb"/>
<text x="70.0" y="352.0" font-family="monospace" font-size="10" font-weight="400" text-anchor="end" fill="#111827">0.2</text>
<line x1="80" x2="840" y1="276.0" y2="276.0" stroke="#e5e7eb"/>
<text x="70.0" y="280.0" font-family="monospace" font-size="10" font-weight="400" text-anchor="end" fill="#111827">0.4</text>
<line x1="80" x2="840" y1="204.0" y2="204.0" stroke="#e5e7eb"/>
<text x="70.0" y="208.0" font-family="monospace" font-size="10" font-weight="400" text-anchor="end" fill="#111827">0.6</text>
<line x1="80" x2="840" y1="132.0" y2="132.0" stroke="#e5e7eb"/>
<text x="70.0" y="136.0" font-family="monospace" font-size="10" font-weight="400" text-anchor="end" fill="#111827">0.8</text>
<line x1="80" x2="840" y1="60.0" y2="60.0" stroke="#e5e7eb"/>
<text x="70.0" y="64.0" font-family="monospace" font-size="10" font-weight="400" text-anchor="end" fill="#111827">1</text>
<path d="M80.0,233.9 L87.7,210.7 L95.4,191.0 L103.0,182.2 L110.7,178.6 L118.4,177.1 L126.1,175.9 L133.7,175.1 L141.4,174.3 L149.1,173.9 L156.8,172.0 L164.4,170.0 L172.1,169.9 L179.8,170.5 L187.5,169.1 L195.2,169.1 L202.8,170.0 L210.5,169.8 L218.2,168.1 L225.9,168.7 L233.5,169.4 L241.2,168.4 L248.9,169.0 L256.6,168.0 L264.2,168.0 L271.9,166.8 L279.6,166.9 L287.3,167.3 L294.9,165.8 L302.6,166.3 L310.3,167.2 L318.0,165.5 L325.7,167.0 L333.3,166.1 L341.0,166.8 L348.7,166.1 L356.4,166.6 L364.0,165.1 L371.7,165.0 L379.4,165.0 L387.1,165.1 L394.7,164.9 L402.4,165.0 L410.1,165.1 L417.8,165.4 L425.5,165.0 L433.1,164.8 L440.8,165.7 L448.5,164.9 L456.2,163.9 L463.8,164.7 L471.5,163.6 L479.2,163.4 L486.9,163.5 L494.5,165.2 L502.2,164.9 L509.9,165.3 L517.6,163.7 L525.3,163.7 L532.9,163.1 L540.6,164.2 L548.3,165.5 L556.0,164.7 L563.6,164.3 L571.3,163.9 L579.0,164.4 L586.7,164.1 L594.3,163.8 L602.0,163.0 L609.7,164.5 L617.4,164.1 L625.1,163.1 L632.7,164.8 L640.4,164.2 L648.1,163.9 L655.8,163.8 L663.4,164.2 L671.1,163.9 L678.8,163.8 L686.5,164.5 L694.1,161.9 L701.8,163.8 L709.5,164.5 L717.2,163.6 L724.8,164.1 L732.5,163.1 L740.2,163.0 L747.9,163.6 L755.6,162.9 L763.2,163.4 L770.9,163.6 L778.6,163.0 L786.3,163.5 L793.9,162.7 L801.6,163.1 L809.3,162.5 L817.0,162.9 L824.6,164.7 L832.3,163.3 L840.0,162.5" fill="none" stroke="#2563eb" stroke-width="2.5"/>
<rect x="868" y="49" width="14" height="14" fill="#2563eb"/>
<text x="888.0" y="60.0" font-family="monospace" font-size="11" font-weight="400" text-anchor="start" fill="#111827">train accuracy</text>
<path d="M80.0,228.5 L87.7,171.0 L95.4,181.8 L103.0,169.8 L110.7,165.9 L118.4,167.4 L126.1,167.7 L133.7,164.6 L141.4,165.2 L149.1,173.7 L156.8,163.5 L164.4,168.4 L172.1,173.3 L179.8,164.3 L187.5,166.0 L195.2,164.0 L202.8,163.3 L210.5,163.7 L218.2,162.9 L225.9,163.0 L233.5,164.0 L241.2,166.9 L248.9,164.6 L256.6,163.7 L264.2,167.9 L271.9,163.0 L279.6,162.8 L287.3,162.5 L294.9,162.8 L302.6,161.9 L310.3,163.3 L318.0,162.9 L325.7,161.4 L333.3,163.7 L341.0,161.4 L348.7,161.6 L356.4,162.3 L364.0,161.6 L371.7,161.7 L379.4,161.4 L387.1,162.8 L394.7,162.7 L402.4,167.4 L410.1,161.3 L417.8,160.7 L425.5,163.7 L433.1,160.7 L440.8,162.2 L448.5,160.6 L456.2,163.1 L463.8,161.5 L471.5,161.8 L479.2,163.4 L486.9,160.2 L494.5,160.8 L502.2,160.3 L509.9,161.6 L517.6,161.5 L525.3,159.2 L532.9,159.9 L540.6,163.1 L548.3,159.7 L556.0,163.3 L563.6,162.4 L571.3,163.2 L579.0,160.5 L586.7,163.8 L594.3,159.1 L602.0,163.4 L609.7,162.1 L617.4,160.0 L625.1,160.6 L632.7,159.5 L640.4,159.8 L648.1,160.1 L655.8,162.1 L663.4,162.2 L671.1,162.6 L678.8,162.2 L686.5,162.1 L694.1,159.5 L701.8,159.1 L709.5,163.0 L717.2,160.5 L724.8,162.5 L732.5,160.0 L740.2,159.8 L747.9,159.1 L755.6,160.9 L763.2,159.3 L770.9,161.0 L778.6,161.6 L786.3,159.0 L793.9,159.0 L801.6,159.1 L809.3,159.7 L817.0,161.7 L824.6,159.4 L832.3,158.7 L840.0,161.6" fill="none" stroke="#dc2626" stroke-width="2.5"/>
<rect x="868" y="71" width="14" height="14" fill="#dc2626"/>
<text x="888.0" y="82.0" font-family="monospace" font-size="11" font-weight="400" text-anchor="start" fill="#111827">validation accuracy</text>
</svg>
